<?xml version="1.0" encoding="UTF-8" standalone="no"?><!DOCTYPE svg PUBLIC "-//W3C//DTD SVG 1.1//EN" "http://www.w3.org/Graphics/SVG/1.1/DTD/svg11.dtd"><svg width="100%" height="100%" viewBox="0 0 1000 1000" version="1.1" xmlns="http://www.w3.org/2000/svg" xmlns:xlink="http://www.w3.org/1999/xlink" xml:space="preserve" style="fill-rule:evenodd;clip-rule:evenodd;stroke-linejoin:round;stroke-miterlimit:1.41421;"><rect id="brap" x="0" y="0" width="1000" height="1000" style="fill:none;"/><clipPath id="_clip1"><rect x="0" y="0" width="1000" height="1000"/></clipPath><g clip-path="url(#_clip1)"><g><rect id="Artboard4" x="0" y="0" width="1000" height="1000" style="fill:none;"/><g><path d="M61.496,446.478l-22.757,0c-2.081,-0.064 -2.607,-0.026 -4.675,-0.282c-3.095,-0.373 -6.139,-1.131 -9.067,-2.235c-5.843,-2.209 -11.109,-5.856 -15.257,-10.531c-3.622,-4.097 -6.37,-8.951 -7.988,-14.166c-0.694,-2.234 -1.194,-4.533 -1.477,-6.858c-0.244,-2.067 -0.218,-2.594 -0.283,-4.674l0,-368.997c0.065,-2.08 0.039,-2.607 0.283,-4.675c0.385,-3.095 1.13,-6.138 2.235,-9.066c1.939,-5.112 4.97,-9.787 8.835,-13.652c4.418,-4.418 9.902,-7.732 15.874,-9.594c2.235,-0.693 4.533,-1.194 6.845,-1.477c2.068,-0.244 2.594,-0.218 4.675,-0.282l368.996,0c0.784,0.025 1.567,0.051 2.351,0.077c2.067,0.18 2.594,0.18 4.636,0.565c2.311,0.424 4.572,1.053 6.755,1.875c10.287,3.904 18.583,12.201 22.488,22.488c1.104,2.928 1.862,5.971 2.234,9.066c0.257,2.068 0.219,2.595 0.283,4.675l0,22.758l514.761,0c0.963,0.038 1.926,0.077 2.889,0.102c0.964,0.116 1.927,0.18 2.877,0.334c1.914,0.283 3.802,0.719 5.651,1.284c6.473,1.991 12.38,5.703 16.978,10.673c3.956,4.251 6.909,9.388 8.63,14.936c1.708,5.535 2.145,11.455 1.285,17.183c-0.578,3.827 -1.734,7.565 -3.404,11.045c-1.682,3.48 -3.878,6.704 -6.511,9.542c-3.288,3.545 -7.23,6.46 -11.584,8.553c-3.48,1.683 -7.218,2.826 -11.045,3.404c-2.543,0.385 -3.198,0.334 -5.766,0.436l-514.761,0l0,168.509l514.761,0c0.963,0.039 1.926,0.065 2.889,0.103c0.964,0.116 1.927,0.18 2.877,0.321c1.914,0.296 3.802,0.719 5.651,1.297c6.473,1.991 12.38,5.702 16.978,10.673c3.288,3.544 5.908,7.692 7.667,12.187c1.413,3.609 2.286,7.411 2.569,11.263c0.436,5.792 -0.45,11.649 -2.569,17.056c-2.119,5.393 -5.458,10.299 -9.709,14.242c-2.838,2.633 -6.062,4.829 -9.542,6.511c-3.48,1.67 -7.218,2.826 -11.045,3.404c-2.543,0.385 -3.198,0.334 -5.766,0.436l-514.761,0l0,22.745c-0.064,2.08 -0.026,2.607 -0.283,4.674c-0.372,3.096 -1.13,6.152 -2.234,9.067c-1.94,5.112 -4.958,9.799 -8.823,13.665c-4.418,4.418 -9.902,7.731 -15.874,9.594c-2.235,0.693 -4.533,1.181 -6.858,1.464c-2.068,0.256 -2.594,0.218 -4.675,0.282l-22.744,0l0,514.761c-0.039,0.963 -0.039,1.927 -0.116,2.89c-0.141,1.926 -0.436,3.84 -0.86,5.728c-1.503,6.601 -4.765,12.765 -9.375,17.735c-3.288,3.545 -7.231,6.46 -11.584,8.554c-3.481,1.669 -7.218,2.825 -11.045,3.403c-8.63,1.297 -17.582,-0.398 -25.146,-4.765c-3.339,-1.926 -6.396,-4.366 -9.029,-7.192c-2.632,-2.838 -4.828,-6.061 -6.498,-9.542c-1.682,-3.48 -2.838,-7.217 -3.416,-11.044c-0.373,-2.543 -0.334,-3.198 -0.424,-5.767l0,-514.761l-168.509,0l0,514.761c-0.103,2.569 -0.051,3.224 -0.437,5.767c-0.578,3.827 -1.721,7.564 -3.403,11.044c-2.093,4.354 -5.009,8.297 -8.553,11.584c-2.838,2.633 -6.062,4.829 -9.542,6.512c-3.481,1.669 -7.218,2.825 -11.032,3.403c-8.631,1.297 -17.595,-0.398 -25.159,-4.765c-3.339,-1.926 -6.396,-4.366 -9.028,-7.192c-4.598,-4.97 -7.86,-11.134 -9.363,-17.735c-0.436,-1.888 -0.719,-3.802 -0.873,-5.728c-0.064,-0.963 -0.064,-1.927 -0.103,-2.89l0,-514.761Zm307.506,-368.996l-291.517,0l0,291.503l291.517,0l0,-291.503Z" style="fill:#fff;"/><path d="M964.813,61.659c1.182,0.167 2.376,0.27 3.545,0.488c4.7,0.887 9.221,2.633 13.279,5.15c5.073,3.147 9.401,7.462 12.547,12.548c3.147,5.073 5.086,10.865 5.638,16.811c0.334,3.57 0.167,7.179 -0.501,10.698c-0.655,3.519 -1.798,6.948 -3.403,10.158c-2.119,4.264 -5.047,8.143 -8.579,11.353c-5.304,4.842 -11.931,8.143 -18.981,9.453c-3.134,0.59 -3.943,0.513 -7.115,0.667c-83.208,0 -166.403,-0.244 -249.611,0.013c-21.37,0.193 -42.715,1.451 -63.957,3.956c-42.034,4.957 -83.503,14.563 -123.431,28.6c-44.256,15.54 -86.598,36.512 -125.781,62.288c-39.607,26.07 -75.965,57.034 -108.007,91.979c-27.907,30.45 -52.54,63.905 -73.306,99.608c-20.626,35.446 -37.45,73.113 -50.1,112.13c-12.329,38.052 -20.689,77.39 -24.889,117.163c-2.119,20.125 -3.121,40.327 -3.172,60.554l0,245.963c-0.064,1.195 -0.064,2.389 -0.167,3.57c-0.437,4.752 -1.772,9.427 -3.904,13.704c-2.119,4.263 -5.047,8.142 -8.579,11.353c-2.646,2.414 -5.625,4.456 -8.823,6.049c-5.355,2.671 -11.302,4.071 -17.273,4.071c-5.972,0 -11.931,-1.4 -17.274,-4.071c-3.198,-1.593 -6.19,-3.635 -8.836,-6.049c-6.19,-5.638 -10.441,-13.267 -11.982,-21.512c-0.578,-3.134 -0.514,-3.943 -0.655,-7.115c0,-83.362 -0.244,-166.724 0.013,-250.086c0.077,-8.103 0.257,-16.207 0.604,-24.311c0.642,-14.782 1.785,-29.551 3.429,-44.256c5.483,-49.046 16.541,-97.463 32.903,-144.031c19.842,-56.508 47.492,-110.241 81.936,-159.249c33.275,-47.351 72.882,-90.246 117.421,-127.207c63.623,-52.784 137.237,-93.277 215.873,-118.769c44.448,-14.397 90.438,-24.016 136.929,-28.64c21.46,-2.132 42.997,-3.133 64.547,-3.197l246.092,0c1.194,0.051 2.376,0.115 3.57,0.166Z" style="fill:#feff09;fill-rule:nonzero;"/><path d="M964.287,307.61c1.001,0.116 2.016,0.205 3.018,0.36c2.003,0.321 3.981,0.796 5.907,1.412c6.768,2.209 12.869,6.28 17.492,11.687c2.633,3.095 4.777,6.588 6.331,10.339c1.554,3.75 2.518,7.744 2.826,11.789c0.886,11.212 -3.275,22.488 -11.225,30.437c-2.864,2.864 -6.19,5.279 -9.811,7.128c-3.609,1.837 -7.513,3.108 -11.52,3.737c-2.672,0.424 -3.365,0.373 -6.062,0.488c-83.439,0 -166.878,-0.77 -250.304,0.026c-12.65,0.193 -25.275,1.027 -37.835,2.62c-23.695,3.018 -47.056,8.617 -69.543,16.695c-45.682,16.401 -87.536,43.049 -121.852,77.378c-34.803,34.803 -61.709,77.326 -78.058,123.765c-8.412,23.861 -14.024,48.699 -16.747,73.858c-1.284,11.944 -1.875,23.939 -1.913,35.947l0,245.963c-0.116,2.697 -0.064,3.378 -0.488,6.062c-0.629,4.007 -1.901,7.911 -3.737,11.52c-1.85,3.622 -4.264,6.948 -7.128,9.812c-5.754,5.753 -13.292,9.593 -21.332,10.877c-4.007,0.63 -8.116,0.63 -12.123,0c-4.007,-0.642 -7.911,-1.913 -11.533,-3.75c-3.622,-1.849 -6.935,-4.251 -9.812,-7.127c-5.021,-5.035 -8.617,-11.43 -10.274,-18.353c-0.475,-1.977 -0.783,-3.981 -0.95,-6.01c-0.077,-1.002 -0.077,-2.016 -0.116,-3.031c0,-82.887 -0.257,-165.773 0,-248.66c0.128,-13.883 0.873,-27.766 2.363,-41.572c3.365,-31.092 10.313,-61.786 20.703,-91.286c10.672,-30.334 24.991,-59.385 42.522,-86.354c15.552,-23.952 33.635,-46.26 53.823,-66.448c42.972,-42.985 95.499,-76.183 152.816,-96.359c29.499,-10.39 60.194,-17.338 91.286,-20.703c14.666,-1.579 29.397,-2.324 44.14,-2.363l246.092,0c1.014,0.039 2.029,0.077 3.044,0.116Z" style="fill:#feff09;fill-rule:nonzero;"/></g></g></g></svg>