<?xml version="1.0" encoding="utf-8"?>
<!-- Generator: Adobe Illustrator 20.0.0, SVG Export Plug-In . SVG Version: 6.00 Build 0)  -->
<svg version="1.1" id="Layer_1" xmlns="http://www.w3.org/2000/svg" xmlns:xlink="http://www.w3.org/1999/xlink" x="0px" y="0px"
	 viewBox="0 0 612 662.3" style="enable-background:new 0 0 612 662.3;" xml:space="preserve">
<style type="text/css">
	.st0{fill:none;}
	.st1{fill:#F8FF09;}
	.st2{fill:#1F496F;}
	.st3{fill:#FCFCFC;}
</style>
<g transform="matrix(1,0,0,1,-1182.94,0)">
	<g id="exportsvg" transform="matrix(1,0,0,1,1182.94,0)">
		<rect y="-39.7" class="st0" width="612" height="612"/>
		<g id="tgew" transform="matrix(1,0,0,1,-2100,0)">
			<rect x="2100" y="-39.7" class="st0" width="612" height="612"/>
			<g transform="matrix(5.91773,0,0,5.91773,-169.72,-1223.97)">
				<path class="st1" d="M447.1,284.7c-0.2,0.3-0.3,0.5-0.5,0.8c-0.6,0.9-1.3,1.8-2,2.7c-0.8,0.9-1.6,1.7-2.5,2.4
					c-0.3,0.2-0.6,0.5-1,0.7c1.5,0,3.1,0,4.6,0c1.2,0,2.4,0,3.6,0h0.5c-0.1-0.2-0.2-0.4-0.3-0.6c-0.1-0.2-0.2-0.4-0.3-0.6
					c-0.1-0.2-0.2-0.4-0.3-0.6c-0.3-0.8-0.7-1.5-1-2.3c-0.2-0.5-0.4-1-0.6-1.5c-0.1-0.2-0.2-0.5-0.3-0.7L447.1,284.7L447.1,284.7
					L447.1,284.7z"/>
			</g>
			<g transform="matrix(5.91773,0,0,5.91773,-169.72,-1223.97)">
				<path class="st1" d="M411.2,284.2c-0.7,0.6-1.5,1.2-2.2,1.7c-0.9,0.6-1.7,1.3-2.6,1.9s-1.7,1.2-2.6,1.7c-0.6,0.3-1.1,0.7-1.7,1
					c-0.4,0.2-0.7,0.4-1.1,0.6l-0.1,0.1h-0.1c1.4,0,2.8,0,4.2,0c3.2,0,6.4,0,9.6,0h0.1l-0.1-0.1l-0.1-0.1c-0.2-0.1-0.3-0.3-0.5-0.5
					c-0.3-0.3-0.6-0.6-0.9-1c-0.4-0.6-0.8-1.2-1.1-1.9c-0.3-0.6-0.5-1.3-0.6-2C411.3,285.1,411.3,284.6,411.2,284.2L411.2,284.2
					C411.2,284.1,411.2,284.1,411.2,284.2z"/>
			</g>
			<g transform="matrix(5.91773,0,0,5.91773,-169.72,-1223.97)">
				<path class="st2" d="M452.9,280c-0.2,0.3-0.4,0.5-0.6,0.8c-0.2,0.2-0.4,0.5-0.6,0.7c-0.3,0.3-0.6,0.5-0.9,0.8
					c-0.1,0.1-0.1,0.1-0.2,0.2h-0.1l0,0c0.8,0.1,1.6,0.2,2.4,0.3c0.6,0.1,1.2,0.2,1.8,0.3h0.3c0-0.1-0.1-0.1-0.1-0.2
					c-0.1-0.1-0.1-0.1-0.2-0.2c-0.5-0.6-0.9-1.3-1.3-2C453.2,280.5,453.1,280.2,452.9,280L452.9,280
					C452.9,279.9,452.9,279.9,452.9,280z"/>
			</g>
			<g transform="matrix(5.91773,0,0,5.91773,-169.72,-1223.97)">
				<path class="st2" d="M424.3,278.4L424.3,278.4c0-0.1,0-0.1-0.1-0.2c0-0.1-0.1-0.2-0.1-0.3c0-0.2-0.1-0.3-0.1-0.5l0,0l0,0
					c-0.2,0.1-0.4,0.3-0.6,0.4s-0.4,0.2-0.5,0.3L424.3,278.4z"/>
			</g>
			<g transform="matrix(5.91773,0,0,5.91773,-169.72,-1223.97)">
				<path class="st1" d="M468.1,271.3L468.1,271.3c-0.1-0.1-0.2-0.1-0.2-0.2c-0.3-0.2-0.6-0.4-0.9-0.7c-0.8-0.6-1.5-1.3-2.2-2
					s-1.4-1.5-2-2.3c-0.2-0.2-0.4-0.4-0.5-0.7c-0.1-0.1-0.2-0.3-0.3-0.4l-0.1-0.1l0,0c-0.2,0.4-0.4,0.8-0.6,1.2
					c-0.4,0.8-0.9,1.7-1.5,2.4c-0.5,0.7-1,1.3-1.6,1.8c-0.2,0.2-0.5,0.4-0.7,0.6c-0.1,0-0.1,0.1-0.2,0.1
					C461,271.2,464.5,271.3,468.1,271.3z"/>
			</g>
			<g transform="matrix(5.91773,0,0,5.91773,-169.72,-1223.97)">
				<path class="st1" d="M430.6,271.2L430.6,271.2c-0.2-0.3-0.4-0.5-0.6-0.8c-0.4-0.5-0.7-1.1-0.9-1.7c-0.4-0.7-0.6-1.5-0.9-2.3
					c-0.1-0.3-0.2-0.5-0.2-0.8v-0.1l0,0c-0.4,0.6-0.9,1.1-1.3,1.7c-0.5,0.6-1.1,1.2-1.7,1.7s-1.2,1-1.9,1.5
					c-0.4,0.3-0.8,0.5-1.2,0.7l0,0C424.8,271.2,427.7,271.2,430.6,271.2z"/>
			</g>
			<g transform="matrix(5.91773,0,0,5.91773,-169.72,-1223.97)">
				<path class="st3" d="M428.7,260.3h0.1c0,0,0,0,0.1,0s0.2,0.1,0.4,0.1c0.2,0.1,0.5,0.2,0.7,0.4c0.2,0.2,0.4,0.4,0.5,0.7
					c0.1,0.1,0.1,0.3,0.1,0.4v0.1v0.1c0,0,0,0,0,0.1v0.1c0,0.1,0,0.1,0,0.2s0,0.2,0.1,0.4c0.1,0.4,0.1,0.8,0.2,1.2
					c0.1,0.5,0.2,0.9,0.4,1.4c0.1,0.4,0.2,0.7,0.4,1.1c0.1,0.3,0.2,0.6,0.4,0.9c0.1,0.2,0.2,0.4,0.3,0.6c0.1,0.2,0.2,0.3,0.3,0.5
					c0.1,0.1,0.2,0.2,0.2,0.4c0.1,0.1,0.1,0.2,0.2,0.3c0.1,0.1,0.1,0.1,0.2,0.2c0,0.1,0.1,0.1,0.1,0.1c0.3,0.3,0.6,0.5,0.9,0.7
					c0.1,0,0.1,0.1,0.2,0.1s0.2,0.1,0.3,0.1c0.1,0.1,0.3,0.1,0.4,0.1l0,0c0.9,0,1.9,0,2.8,0c1,0,1.9,0,2.9,0c2.9,0,5.8,0,8.7,0h0.9
					c0.2,0,0.3,0,0.5-0.1c0.8-0.1,1.6-0.3,2.4-0.6c0.4-0.2,0.8-0.3,1.2-0.6c0.2-0.1,0.4-0.2,0.5-0.3c0.3-0.2,0.7-0.5,1-0.8
					c0.2-0.2,0.4-0.4,0.6-0.5c0.1-0.1,0.2-0.2,0.2-0.3c0.6-0.7,1.2-1.5,1.6-2.4c0.1-0.1,0.1-0.3,0.2-0.4c0.1-0.2,0.1-0.3,0.2-0.5
					s0.2-0.4,0.2-0.6c0.1-0.3,0.2-0.5,0.3-0.8c0.1-0.2,0.1-0.3,0.2-0.5c0-0.1,0.1-0.2,0.1-0.3c0-0.1,0.1-0.2,0.1-0.4v-0.1v-0.1
					c0,0,0,0,0-0.1c0.1-0.1,0.1-0.2,0.2-0.3c0.1-0.2,0.3-0.3,0.5-0.4s0.4-0.2,0.6-0.2c0.1,0,0.2,0,0.3,0h0.1l0,0c0.1,0,0.1,0,0.2,0
					l0,0h0.1l0,0c0,0,0,0,0.1,0s0.1,0,0.2,0c0.3,0.1,0.6,0.3,0.8,0.5c0.1,0.1,0.1,0.1,0.1,0.2s0.1,0.1,0.1,0.2l0,0
					c0,0.1,0.1,0.1,0.1,0.2c0.1,0.2,0.2,0.4,0.4,0.5c0.3,0.4,0.5,0.7,0.8,1.1c0.5,0.7,1.1,1.4,1.7,2.1s1.3,1.4,2,2.1
					c0.6,0.5,1.2,1,1.8,1.5c0.2,0.2,0.5,0.3,0.7,0.5c0.1,0.1,0.3,0.2,0.4,0.3c0.2,0.1,0.3,0.2,0.5,0.3c0.3,0.1,0.6,0.3,0.9,0.4
					c0.2,0.1,0.5,0.2,0.7,0.2c0.3,0.1,0.5,0.1,0.8,0.2c0.1,0,0.3,0,0.4,0h0.1h0.1h0.1c0.1,0,0.2,0,0.4,0c0.1,0,0.2,0,0.3,0
					c0.1,0,0.2,0,0.3,0l0,0c0.1,0,0.2,0,0.2,0h0.1h0.1h0.1c0,0,0.1,0,0.1,0.1l0.1,0.1l0,0l0,0c0,0,0.1,0,0.1,0.1l0,0l0,0
					c0,0,0,0,0.1,0l0,0c0,0,0.1,0,0.1,0.1c0.1,0,0.2,0.1,0.3,0.2c0.1,0.1,0.2,0.2,0.3,0.2c0.1,0.1,0.1,0.1,0.2,0.2s0.2,0.2,0.3,0.3
					l0,0l0.1,0.1c0,0,0,0.1,0.1,0.1c0,0.1,0.1,0.1,0.1,0.2s0.1,0.2,0.1,0.2c0.1,0.3,0.2,0.6,0.3,0.9c0,0.2,0,0.4,0,0.6
					c0,0.1,0,0.2,0,0.3c0,0.1,0,0.2-0.1,0.3l0,0c0,0.1,0,0.2-0.1,0.3c0,0.1,0,0.2-0.1,0.2c0,0.1,0,0.1-0.1,0.2
					c0,0.1-0.1,0.2-0.1,0.3c0,0.1,0,0.1-0.1,0.2c-0.1,0.3-0.3,0.5-0.4,0.8c-0.1,0.2-0.3,0.5-0.4,0.7c-0.2,0.3-0.4,0.5-0.6,0.8
					c-0.1,0.2-0.3,0.3-0.4,0.5c-0.2,0.2-0.4,0.4-0.6,0.6c-0.7,0.7-1.4,1.5-2.1,2.2c-1.9,2-3.7,4-5.6,5.9c-0.4,0.4-0.8,0.8-1.2,1.3
					c-0.1,0.1-0.2,0.2-0.2,0.3c-0.1,0.1-0.3,0.3-0.4,0.4c-0.3,0.3-0.6,0.6-1,0.9c-0.5,0.4-1,0.8-1.5,1.1c-0.6,0.4-1.2,0.8-1.8,1.1
					c-0.5,0.3-1,0.5-1.6,0.7c-0.7,0.3-1.4,0.5-2.1,0.7c-0.5,0.1-1.1,0.2-1.6,0.3c-0.1,0-0.2,0-0.4,0c-0.1,0-0.2,0-0.3,0
					c-0.8,0-1.5,0-2.3,0c-3.4,0-6.8,0-10.2,0c-1.9,0-3.8,0-5.7,0c-0.6,0-1.2,0-1.7,0c-0.4,0-0.9,0-1.3,0c-0.9,0-1.7,0-2.6,0
					c-1.7,0-3.5,0-5.2,0c-4.8,0-9.6,0-14.3,0c-4.3,0-8.7,0-13,0c-1.3,0-2.6,0-3.9,0c-0.4,0-0.9,0-1.3,0s-0.9,0-1.3,0c0,0,0,0-0.1,0
					h-0.1h-0.1c-0.2,0-0.4,0-0.7,0h-0.1c-0.1,0-0.1,0-0.2,0h-0.1h-0.1h-0.1h-0.1c-0.1,0-0.1,0-0.2-0.1c-0.2-0.1-0.3-0.2-0.4-0.3l0,0
					c0,0-0.1,0-0.1-0.1c-0.1-0.1-0.2-0.1-0.3-0.2c-0.2-0.1-0.4-0.3-0.5-0.5c-0.2-0.2-0.4-0.5-0.5-0.7s-0.2-0.4-0.2-0.6
					s-0.1-0.3-0.1-0.5c0-0.1,0-0.2,0-0.4c0-0.4,0-0.7,0.1-1.1s0.2-0.8,0.4-1.1c0-0.1,0.1-0.2,0.1-0.3c0.1-0.1,0.1-0.3,0.2-0.4
					c0.1-0.2,0.2-0.3,0.3-0.5c0.1-0.2,0.3-0.4,0.4-0.6c0.2-0.3,0.4-0.5,0.6-0.7l0,0l0,0c0.2-0.2,0.4-0.4,0.6-0.6
					c0.6-0.6,1.2-1.3,1.8-1.9c0.7-0.7,1.4-1.5,2.1-2.2c1.3-1.4,2.6-2.7,3.8-4.1c0.4-0.4,0.8-0.8,1.2-1.3c0,0,0,0,0.1-0.1
					c0.2-0.2,0.3-0.3,0.5-0.5c0.8-0.8,1.7-1.5,2.6-2.1c0.5-0.4,1.1-0.7,1.6-1c0.6-0.3,1.2-0.6,1.8-0.9c0.5-0.2,1-0.4,1.6-0.6
					c0.3-0.1,0.5-0.2,0.8-0.2c0.4-0.1,0.9-0.2,1.4-0.2c0.2,0,0.4,0,0.6,0c0.1,0,0.1,0,0.2,0h0.1c0.2,0,0.3,0,0.5,0h0.1
					c0.1,0,0.2,0,0.3,0c0.3,0,0.6,0,0.9-0.1c0.3,0,0.6-0.1,0.9-0.1c0.9-0.1,1.9-0.3,2.8-0.6c0.7-0.2,1.4-0.5,2.1-0.8
					c0.6-0.3,1.1-0.6,1.7-0.9c0.6-0.4,1.1-0.8,1.6-1.2c0.3-0.3,0.7-0.6,1-0.9s0.5-0.5,0.8-0.8s0.6-0.7,0.8-1c0.2-0.3,0.5-0.7,0.7-1
					c0.2-0.4,0.5-0.8,0.7-1.2c0.1-0.1,0.1-0.2,0.2-0.3c0,0,0.1-0.1,0.1-0.2v-0.1l0.1-0.1l0,0l0,0c0,0,0,0,0-0.1
					c0.1-0.1,0.1-0.2,0.2-0.2c0.2-0.2,0.6-0.4,0.9-0.5c0.1,0,0.1,0,0.2,0s0.1,0,0.2,0l0,0L428.7,260.3z M428.6,261
					C428.5,261,428.5,261,428.6,261C428.5,261,428.5,261,428.6,261c-0.1,0-0.1,0-0.1,0s0,0-0.1,0h-0.1c-0.2,0.1-0.4,0.2-0.5,0.3
					l-0.1,0.1c0,0,0,0,0,0.1l0,0l-0.1,0.1v0.1c0,0.1-0.1,0.1-0.1,0.2c-0.1,0.1-0.1,0.3-0.2,0.4c-0.2,0.4-0.4,0.8-0.7,1.1
					c-0.2,0.3-0.4,0.6-0.6,0.9s-0.4,0.6-0.7,0.9c-0.4,0.5-0.8,0.9-1.2,1.3c-0.4,0.4-0.8,0.7-1.2,1.1c-0.4,0.3-0.8,0.6-1.3,0.9
					s-0.9,0.6-1.4,0.8c-0.8,0.4-1.6,0.7-2.4,1c-0.5,0.2-1.1,0.3-1.7,0.5c-0.7,0.2-1.5,0.3-2.2,0.4c-0.3,0-0.6,0.1-0.9,0.1
					c-0.2,0-0.5,0-0.7,0l0,0c-0.1,0-0.2,0-0.3,0c-0.1,0-0.2,0-0.2,0s0,0-0.1,0l0,0h-0.1c-0.1,0-0.2,0-0.3,0c-0.6,0-1.2,0.2-1.8,0.3
					c-0.7,0.2-1.5,0.5-2.2,0.8c-0.6,0.2-1.1,0.5-1.6,0.8s-1,0.6-1.5,0.9c-0.9,0.6-1.7,1.2-2.5,2c-0.2,0.2-0.3,0.3-0.5,0.5
					c-0.1,0.1-0.2,0.2-0.3,0.3c-0.1,0.1-0.2,0.2-0.3,0.3c-0.3,0.3-0.6,0.6-0.9,0.9c-1.1,1.1-2.2,2.3-3.3,3.4
					c-0.4,0.4-0.8,0.8-1.2,1.3c-0.7,0.7-1.4,1.5-2.1,2.2c-0.5,0.5-1,1-1.5,1.6l-0.1,0.1c-0.1,0.1-0.2,0.2-0.2,0.3
					c-0.1,0.2-0.3,0.3-0.4,0.5c-0.2,0.2-0.3,0.4-0.4,0.6c-0.1,0.1-0.2,0.3-0.3,0.4c-0.1,0.1-0.1,0.2-0.2,0.4c0,0.1-0.1,0.2-0.1,0.3
					c0,0.1-0.1,0.1-0.1,0.2c-0.2,0.5-0.3,1-0.3,1.5c0,0.1,0,0.2,0,0.2c0,0.1,0,0.2,0,0.3c0,0.1,0.1,0.2,0.1,0.4
					c0.1,0.2,0.1,0.3,0.2,0.5s0.3,0.4,0.4,0.5s0.3,0.3,0.5,0.4c0.1,0.1,0.2,0.1,0.3,0.2l0,0c0,0,0,0,0.1,0.1c0.1,0,0.1,0.1,0.2,0.1
					c0,0,0,0,0.1,0h0.1h0.1c0,0,0,0,0.1,0h0.1h0.1c0.1,0,0.1,0,0.2,0s0.2,0,0.3,0c0.1,0,0.2,0,0.2,0c0.1,0,0.2,0,0.3,0h0.1h0.1
					c0.9,0,1.7,0,2.6,0c2.6,0,5.2,0,7.8,0c5.2,0,10.4,0,15.6,0c3.5,0,7,0,10.4,0c1.7,0,3.5,0,5.2,0c0.4,0,0.9,0,1.3,0
					c0.6,0,1.2,0,1.7,0c0.8,0,1.5,0,2.3,0c1.5,0,3,0,4.5,0c3.8,0,7.6,0,11.4,0h0.1c0.1,0,0.3,0,0.4,0c0.5,0,1.1-0.1,1.6-0.3
					c0.7-0.2,1.4-0.4,2.1-0.7c0.5-0.2,1-0.5,1.5-0.7c0.6-0.3,1.2-0.7,1.7-1s1-0.7,1.5-1.1c0.3-0.3,0.7-0.6,1-0.9
					c0.1-0.1,0.3-0.2,0.4-0.4c0.1-0.1,0.1-0.1,0.2-0.2s0.2-0.2,0.3-0.3c0.3-0.3,0.6-0.6,0.9-0.9c1.2-1.3,2.4-2.5,3.5-3.8
					c0.4-0.4,0.8-0.8,1.2-1.3c1.2-1.3,2.4-2.5,3.5-3.8l0.1-0.1c0.1-0.1,0.2-0.2,0.3-0.3c0.1-0.2,0.3-0.3,0.4-0.5s0.3-0.4,0.4-0.6
					s0.2-0.3,0.3-0.5c0.1-0.1,0.1-0.2,0.2-0.4c0-0.1,0.1-0.1,0.1-0.2c0,0,0-0.1,0.1-0.1c0-0.1,0.1-0.2,0.1-0.3
					c0-0.1,0.1-0.2,0.1-0.3c0-0.1,0-0.1,0-0.2c0,0,0,0,0-0.1l0,0l0,0l0,0c0,0,0,0,0-0.1v-0.1c0-0.1,0-0.1,0-0.2c0-0.3,0-0.6,0-0.8
					c0-0.1-0.1-0.3-0.1-0.4c-0.1-0.2-0.1-0.3-0.2-0.5l-0.1-0.1l0,0l0,0l0,0c0,0,0,0-0.1-0.1s-0.1-0.2-0.2-0.2
					c-0.2-0.2-0.4-0.3-0.6-0.4c-0.1,0-0.2-0.1-0.2-0.1l0,0l0,0c0,0,0,0-0.1,0l0,0l0,0h-0.1l0,0h-0.1H476c0,0,0,0-0.1,0l0,0l0,0
					c0,0,0,0-0.1,0c0,0,0,0-0.1,0l0,0c0,0,0,0-0.1,0s-0.1,0-0.2,0s-0.2,0-0.2,0c-0.1,0-0.3,0-0.4,0h-0.1c0,0,0,0-0.1,0
					c-0.2,0-0.3,0-0.5,0c-0.4,0-0.8-0.1-1.1-0.2c-0.5-0.1-1-0.3-1.5-0.6c-0.1-0.1-0.3-0.1-0.4-0.2c-0.2-0.1-0.4-0.2-0.6-0.4
					c-0.3-0.2-0.5-0.3-0.7-0.5c-0.7-0.5-1.3-1-2-1.6c-0.8-0.7-1.5-1.4-2.1-2.2c-0.6-0.7-1.2-1.4-1.7-2.1c-0.3-0.4-0.6-0.8-0.8-1.2
					c-0.1-0.1-0.2-0.3-0.3-0.4c-0.1-0.1-0.1-0.2-0.2-0.3c0,0,0-0.1-0.1-0.1l0,0c0,0,0,0,0-0.1l-0.1-0.1c-0.1-0.1-0.3-0.2-0.5-0.3
					h-0.1c0,0,0,0-0.1,0h-0.1l0,0h-0.1l0,0c0,0,0,0-0.1,0l0,0c-0.1,0-0.3,0-0.4,0.1s-0.3,0.2-0.4,0.3c-0.1,0.1-0.1,0.1-0.2,0.2
					l-0.1,0.1c0,0,0,0,0,0.1l0,0v0.1c0,0.1,0,0.1-0.1,0.2v0.1c-0.1,0.3-0.2,0.6-0.3,0.9c-0.1,0.2-0.2,0.5-0.3,0.7
					c-0.1,0.2-0.1,0.4-0.2,0.5c-0.3,0.7-0.7,1.4-1.1,2.1c-0.2,0.4-0.5,0.7-0.8,1.1c-0.1,0.2-0.3,0.4-0.5,0.5
					c-0.2,0.2-0.4,0.4-0.7,0.6c-0.3,0.3-0.7,0.6-1,0.8c-0.2,0.1-0.4,0.2-0.6,0.4c-0.4,0.2-0.8,0.4-1.2,0.6c-0.7,0.3-1.4,0.5-2.2,0.6
					c-0.2,0-0.3,0.1-0.5,0.1c-0.1,0-0.2,0-0.4,0l0,0c-1,0-1.9,0-2.9,0s-1.9,0-2.9,0c-2.9,0-5.8,0-8.7,0h-1c-0.1,0-0.1,0-0.2,0
					s-0.3-0.1-0.4-0.1s-0.3-0.1-0.4-0.2c-0.1,0-0.2-0.1-0.3-0.1c-0.5-0.3-0.9-0.6-1.2-1.1c-0.1-0.1-0.1-0.2-0.2-0.3
					c-0.1-0.1-0.1-0.2-0.2-0.3c-0.1-0.1-0.2-0.2-0.2-0.4c-0.1-0.2-0.2-0.3-0.3-0.5c-0.1-0.2-0.2-0.5-0.3-0.7
					c-0.1-0.3-0.3-0.6-0.4-0.9c-0.1-0.4-0.3-0.8-0.4-1.2c-0.2-0.5-0.3-1-0.4-1.5s-0.2-1-0.3-1.5c0-0.1,0-0.2,0-0.3v-0.1l0,0
					c0-0.1,0-0.2-0.1-0.3c-0.1-0.2-0.2-0.3-0.3-0.4c-0.1-0.1-0.3-0.2-0.5-0.3c-0.1,0-0.1,0-0.2,0h-0.1c0,0,0,0-0.1,0l0,0h0.1
					C428.6,261,428.6,261,428.6,261z M415,279.5c0.8,0.1,1.7,0.3,2.5,0.4c0.6,0.1,1.3,0.2,1.9,0.3c2.3,0.4,4.5,0.7,6.8,1.1
					c0.7,0.1,1.5,0.2,2.2,0.3c0.2,0,0.5,0.1,0.7,0.1c0.1,0,0.1,0,0.2,0s0.1,0,0.2,0h0.1c0,0,0,0,0.1,0l1,0.1
					c0.5,0.1,1.1,0.2,1.6,0.3c0.4,0.1,0.8,0.1,1.2,0.2c0.9,0.2,1.9,0.3,2.8,0.5c0.5,0.1,1,0.2,1.5,0.2c0.5,0.1,0.9,0.1,1.4,0.2
					c0.1,0,0.3,0,0.4,0.1h0.1h0.1c0,0,0,0,0.1,0l0,0l0,0l4.4,0.7c0,0,0,0,0.1,0l0,0l0,0l-0.1,0.1c-0.1,0.1-0.2,0.3-0.3,0.4
					c-0.2,0.3-0.4,0.6-0.6,0.9c-0.3,0.3-0.5,0.7-0.8,1c-0.2,0.2-0.4,0.4-0.6,0.6c-0.7,0.7-1.5,1.4-2.3,2c-0.4,0.3-0.8,0.6-1.3,0.8
					c-0.3,0.1-0.5,0.3-0.8,0.4s-0.5,0.2-0.8,0.3c-0.4,0.1-0.7,0.2-1.1,0.3c-0.2,0-0.4,0.1-0.7,0.1c-0.2,0-0.4,0.1-0.6,0.1
					c-0.1,0-0.3,0-0.4,0s-0.2,0-0.3,0c-0.1,0-0.1,0-0.2,0s-0.3,0-0.4,0c-0.2,0-0.4,0-0.6,0s-0.4,0-0.6,0h-0.1c0,0,0,0-0.1,0h-0.1
					l0,0c0,0,0,0-0.1,0c0,0,0,0-0.1,0l0,0h-0.1c0,0,0,0-0.1,0h-0.1c-0.4,0-0.9,0-1.3,0c-1.6,0-3.1,0-4.7,0s-3.1,0-4.7,0l0,0h-0.1
					c0,0,0,0-0.1,0l0,0h-0.1c-0.1,0-0.2-0.1-0.3-0.1c-0.2-0.1-0.4-0.1-0.6-0.2c-0.3-0.1-0.5-0.2-0.8-0.3c-0.5-0.2-0.9-0.5-1.4-0.7
					c-0.4-0.3-0.9-0.6-1.3-1c-0.2-0.2-0.3-0.3-0.5-0.5c-0.1-0.1-0.1-0.1-0.2-0.2s-0.1-0.2-0.2-0.2c-0.2-0.2-0.3-0.4-0.4-0.7
					c-0.2-0.3-0.3-0.6-0.4-0.8c-0.2-0.5-0.3-1-0.4-1.5c-0.1-0.7-0.1-1.4-0.1-2c0-0.2,0-0.4,0-0.5s0-0.3,0-0.4s0-0.3,0.1-0.4l0,0l0,0
					l0,0l0,0l0,0l0,0l0,0l0,0l0,0l0,0l0,0l0,0l0,0l0,0l0,0l0,0l0,0l0,0l0,0l0,0l0,0l0,0l0,0l0,0l0,0l0,0l0,0l0,0l0,0l0,0l0,0l0,0
					l0,0l0,0l0,0l0,0l0,0l0,0l0,0l0,0l0,0l0,0l0,0l0,0l0,0l0,0l0,0l0,0l0,0l0,0l0,0l0,0l0,0l0,0l0,0l0,0l0,0l0,0l0,0l0,0l0,0l0,0
					l0,0l0,0l0,0l0,0l0,0l0,0l0,0l0,0l0,0l0,0l0,0l0,0l0,0l0,0l0,0l0,0l0,0l0,0l0,0l0,0l0,0l0,0l0,0l0,0l0,0l0,0l0,0l0,0l0,0l0,0
					l0,0l0,0l0,0l0,0l0,0l0,0l0,0l0,0l0,0l0,0l0,0l0,0l0,0l0,0c0,0,0,0-0.1,0.1c-0.4,0.3-0.7,0.6-1.1,0.9s-0.8,0.6-1.2,1
					c-0.4,0.3-0.8,0.7-1.3,1c-0.5,0.4-1,0.8-1.5,1.1c-1,0.7-2,1.5-3.1,2.1c-0.9,0.6-1.9,1.2-2.9,1.8c-0.7,0.4-1.5,0.8-2.3,1.2
					c-0.5,0.3-1.1,0.5-1.6,0.7s-1.1,0.4-1.6,0.5c-0.3,0.1-0.6,0.2-1,0.2c-0.1,0-0.2,0-0.3,0.1c-0.1,0-0.1,0-0.2,0s-0.1,0-0.2,0l0,0
					c-0.2,0-0.4,0-0.6,0c-0.1,0-0.3,0-0.4,0h-0.1l0,0c-0.1,0-0.1,0-0.2,0h-0.1h-0.1l0,0l0,0l0,0l0,0v-0.1c0-0.1,0-0.1,0-0.2
					s0-0.1,0-0.2s0-0.2,0.1-0.2c0.1-0.1,0.1-0.3,0.2-0.4c0-0.1,0.1-0.2,0.1-0.3c0.1-0.1,0.2-0.3,0.3-0.4c0.1-0.1,0.2-0.3,0.3-0.4
					c0.1-0.2,0.3-0.3,0.4-0.5c0.2-0.2,0.4-0.4,0.6-0.6c1.2-1.3,2.4-2.5,3.6-3.8c1.8-1.9,3.6-3.8,5.3-5.7l0.1-0.1
					c0.1-0.1,0.2-0.2,0.3-0.3c0.1-0.1,0.2-0.2,0.3-0.2C407.3,278.3,411.2,278.9,415,279.5z M447.1,284.7c0.3,1,0.7,1.9,1.1,2.8
					c0.3,0.8,0.7,1.6,1,2.4c0,0.1,0.1,0.2,0.1,0.3c0,0.1,0.1,0.2,0.1,0.3c0.1,0.2,0.2,0.4,0.3,0.6c-0.8,0-1.5,0-2.3,0
					c-1.8,0-3.5,0-5.3,0h-0.6h-0.6l0.1-0.1c0.1-0.1,0.3-0.2,0.4-0.3c0.2-0.1,0.4-0.3,0.5-0.4c0.8-0.6,1.5-1.3,2.1-2s1.2-1.4,1.8-2.2
					c0.2-0.3,0.4-0.5,0.6-0.8C446.8,285.2,447,284.9,447.1,284.7L447.1,284.7L447.1,284.7z M459.9,286.5
					C460,286.5,460,286.5,459.9,286.5c0.1,0,0.1,0,0.2,0s0.2,0,0.3,0c0.1,0,0.2,0,0.3,0l3.3,0.5c-0.1,0.1-0.2,0.2-0.3,0.2
					c-0.2,0.2-0.5,0.4-0.8,0.6c-0.4,0.3-0.8,0.6-1.3,0.9c-0.4,0.3-0.9,0.5-1.3,0.8c-0.4,0.2-0.9,0.4-1.3,0.6
					c-0.5,0.2-1.1,0.4-1.7,0.6c-0.2,0.1-0.4,0.1-0.6,0.1s-0.4,0.1-0.6,0.1c-0.1,0-0.2,0-0.4,0c-0.7,0-1.4,0-2,0c-0.4,0-0.8,0-1.2,0
					c-0.1-0.1-0.1-0.2-0.2-0.3c-0.4-0.9-0.8-1.8-1.2-2.7c-0.4-1-0.9-2.1-1.3-3.1v-0.1C453.3,285.5,456.6,286,459.9,286.5z
					 M411.3,284.1c0,0.1,0,0.2,0,0.3c0,0.2,0,0.5,0.1,0.7c0.1,0.4,0.1,0.8,0.3,1.2c0.1,0.5,0.3,1,0.5,1.4c0.3,0.6,0.6,1.2,1.1,1.7
					c0.3,0.4,0.6,0.7,1,1.1c0.1,0.1,0.3,0.3,0.4,0.4l0.1,0.1l0.1,0.1c-1.6,0-3.3,0-4.9,0s-3.2,0-4.8,0c-1.4,0-2.8,0-4.2,0h0.1
					c0,0,0.1,0,0.1-0.1c0,0,0.1,0,0.1-0.1c0.1,0,0.2-0.1,0.3-0.1c0.4-0.2,0.7-0.4,1.1-0.6c0.6-0.3,1.1-0.7,1.7-1
					c0.6-0.4,1.1-0.7,1.7-1.1c1-0.7,2-1.4,2.9-2.1c0.5-0.4,1.1-0.8,1.6-1.2C410.7,284.6,411,284.4,411.3,284.1L411.3,284.1
					L411.3,284.1z M414.1,280.1L414.1,280.1L414.1,280.1L414.1,280.1L414.1,280.1l0.1,0.1l0,0l0,0v0.1l0,0l0,0v0.1l0,0l0,0v0.1l0,0
					l0,0v0.1l0,0l0,0v0.1l0,0l0,0v0.1l0,0l0,0v0.1l0,0l0,0v0.1l0,0v0.1l0,0l0,0v0.1l0,0l0,0v0.1l0,0l0,0v0.1l0,0v0.1l0,0l0,0v0.1
					l0,0l0,0v0.1l0,0l0,0v0.1l0,0l0,0v0.1v0.1v0.1l0,0c0,0.3-0.1,0.5-0.1,0.8c0,0.1,0,0.2,0,0.3c0,0.5,0,1,0.1,1.5s0.2,1.1,0.4,1.6
					c0.1,0.3,0.3,0.6,0.4,0.8c0.1,0.2,0.2,0.3,0.3,0.5c0.1,0.1,0.1,0.2,0.2,0.2c0.1,0.1,0.1,0.1,0.2,0.2s0.2,0.2,0.3,0.3
					c0.2,0.2,0.4,0.3,0.6,0.5c0.4,0.3,0.7,0.5,1.1,0.7c0.1,0.1,0.3,0.1,0.4,0.2c0.2,0.1,0.3,0.2,0.5,0.2c0.2,0.1,0.5,0.2,0.7,0.3
					c0.3,0.1,0.6,0.2,0.9,0.3h0.1c0,0,0,0,0.1,0c0.4,0,0.8,0,1.2,0c1.3,0,2.7,0,4,0c1.6,0,3.1,0,4.7,0h0.5l0,0l0,0h0.1
					c0,0,0,0,0.1,0c0,0,0,0,0.1,0c0,0,0,0,0.1,0l0,0c0.1,0,0.2,0,0.3,0c0.1,0,0.3,0,0.4,0c0.2,0,0.5,0,0.7,0s0.4,0,0.6,0h0.1
					c0.1,0,0.2,0,0.2,0c0.1,0,0.3,0,0.4,0c0.4,0,0.8-0.1,1.2-0.2c0.3-0.1,0.6-0.2,1-0.3c0.2-0.1,0.5-0.2,0.7-0.3
					c0.3-0.1,0.6-0.3,0.9-0.5c0.4-0.2,0.8-0.5,1.1-0.7c0.7-0.5,1.3-1,1.9-1.5c0.2-0.2,0.3-0.3,0.5-0.5c0.2-0.3,0.5-0.5,0.7-0.8
					c0.2-0.2,0.4-0.5,0.6-0.7c0.1-0.1,0.2-0.2,0.2-0.3l0,0l-3.4-0.5c0,0,0,0,0.1,0l0,0l0,0l0,0c-0.1,0-0.1,0-0.2,0h-0.1
					c-0.1,0-0.1,0-0.2,0c-0.2,0-0.4-0.1-0.6-0.1c-0.6-0.1-1.3-0.2-1.9-0.3c-1.9-0.3-3.7-0.6-5.6-0.9l-0.4-0.1l-0.4-0.1l-0.9-0.1
					c0,0,0,0,0.1,0l0,0l0,0h-0.1c-0.1,0-0.2,0-0.3,0c-0.1,0-0.2,0-0.3,0c-0.3,0-0.6-0.1-0.9-0.1c-1-0.2-2-0.3-3-0.5
					c-3.3-0.5-6.7-1.1-10-1.6L414.1,280.1L414.1,280.1z M447,286.2c-0.1,0.2-0.3,0.4-0.4,0.6c-0.3,0.4-0.6,0.7-0.9,1.1
					c-0.6,0.7-1.2,1.3-1.8,1.9c-0.1,0.1-0.3,0.3-0.4,0.4s-0.2,0.1-0.2,0.2l0,0c1.5,0,2.9,0,4.4,0h0.9h0.3v-0.1l-0.1-0.2
					c-0.1-0.2-0.1-0.3-0.2-0.5c-0.3-0.6-0.5-1.3-0.8-1.9c-0.2-0.4-0.3-0.8-0.5-1.3C447.1,286.5,447,286.3,447,286.2L447,286.2
					L447,286.2z M451,285.9c0.1,0.3,0.2,0.6,0.4,0.8c0.2,0.5,0.5,1.1,0.7,1.6c0.3,0.7,0.6,1.4,1,2.2l0,0c0.9,0,1.9,0,2.8,0
					c0,0,0,0,0.1,0s0.2,0,0.3,0c0.1,0,0.3,0,0.4-0.1c0.2,0,0.3-0.1,0.5-0.1s0.3-0.1,0.5-0.1c0.3-0.1,0.5-0.2,0.8-0.3
					c0.6-0.2,1.2-0.5,1.7-0.8c0.6-0.3,1.2-0.7,1.8-1.2c0.1-0.1,0.2-0.2,0.4-0.3l0,0l-1.8-0.3h-0.1c-0.1,0-0.2,0-0.3,0
					c-0.1,0-0.3,0-0.4-0.1l0,0L451,285.9L451,285.9z M410.7,285.5c-1.3,1-2.7,2-4,3c-1,0.7-2,1.4-3.1,2l0,0c0.5,0,1.1,0,1.6,0
					c1.2,0,2.4,0,3.6,0s2.4,0,3.6,0h0.8c0,0,0,0-0.1-0.1c0,0,0,0-0.1-0.1s-0.1-0.2-0.2-0.2c-0.1-0.1-0.2-0.3-0.3-0.4
					c-0.3-0.5-0.6-1-0.9-1.5s-0.5-1.1-0.6-1.7c-0.1-0.2-0.1-0.5-0.2-0.7C410.7,285.7,410.7,285.6,410.7,285.5
					S410.7,285.5,410.7,285.5z M403.7,278.4c-0.1,0.1-0.2,0.2-0.3,0.3l0,0c-1.9,2-3.8,4-5.6,6c-1.3,1.4-2.6,2.7-3.8,4.1l-0.1,0.1
					c-0.1,0.1-0.1,0.2-0.2,0.2c-0.2,0.2-0.4,0.4-0.5,0.7c-0.1,0.1-0.1,0.2-0.2,0.3c0,0.1-0.1,0.2-0.1,0.2s0,0.1-0.1,0.1l0,0
					c0.2,0,0.4,0,0.5,0h0.3c0.2,0,0.4,0,0.5-0.1c0.3-0.1,0.6-0.1,0.9-0.2c0.6-0.1,1.1-0.3,1.6-0.5s1.1-0.4,1.6-0.7
					c0.8-0.4,1.5-0.8,2.3-1.2c0.9-0.5,1.9-1.1,2.8-1.7c1.1-0.7,2.1-1.4,3.2-2.2c0.9-0.7,1.8-1.4,2.7-2.1c0.4-0.3,0.7-0.6,1.1-0.9
					s0.8-0.6,1.1-0.9c0,0,0,0,0.1-0.1l0,0l0,0l0,0l0,0l0,0l0,0h0.1l0,0l0,0h0.1l0,0l0,0l0,0L403.7,278.4L403.7,278.4z M449.8,273.8
					L449.8,273.8c0.1,0,0.1,0,0.2,0h0.1c2.3,0,4.6,0,6.8,0c2.8,0,5.7,0,8.5,0c2,0,3.9,0,5.9,0c0.8,0,1.6,0,2.4,0c0.5,0,1,0,1.5,0
					l0,0c0.1,0,0.1,0,0.2,0c0,0,0.1,0,0.1,0.1l0,0l0,0l0,0l0,0v0.1c0,0,0,0,0,0.1l0,0l0,0l0,0v0.1v0.1c0,0.1,0,0.1-0.1,0.2
					c0,0.1,0,0.1-0.1,0.2c0,0,0,0.1-0.1,0.1c0,0.1-0.1,0.2-0.1,0.3c-0.1,0.2-0.2,0.4-0.4,0.6c-0.1,0.2-0.3,0.3-0.4,0.5
					c-0.1,0.1-0.2,0.3-0.3,0.4c-0.2,0.2-0.3,0.4-0.5,0.6s-0.3,0.3-0.5,0.5c-0.7,0.7-1.3,1.4-2,2.1c-0.8,0.9-1.6,1.7-2.4,2.6
					c-0.5,0.5-1,1-1.5,1.6c-0.3,0.3-0.7,0.7-1,1l-3.9-0.6l0,0l0,0l0,0c0,0,0,0-0.1,0c0,0-0.1,0-0.1-0.1c-0.1,0-0.2,0-0.2-0.1
					c-0.1,0-0.1,0-0.2,0s-0.2,0-0.3-0.1c-0.2,0-0.4-0.1-0.6-0.1c-0.3-0.1-0.6-0.1-0.9-0.2l0,0c0,0-0.1,0-0.1-0.1
					c-0.1-0.1-0.2-0.1-0.3-0.2c-0.3-0.2-0.5-0.3-0.8-0.5c-0.2-0.2-0.4-0.4-0.6-0.6s-0.3-0.3-0.5-0.5c-0.1-0.1-0.2-0.2-0.3-0.3
					c-0.1-0.2-0.3-0.4-0.4-0.5c-0.2-0.2-0.3-0.5-0.5-0.7c-0.2-0.4-0.5-0.7-0.7-1.1c-0.3-0.5-0.5-0.9-0.7-1.4
					c-0.1-0.2-0.1-0.3-0.2-0.5c0-0.1-0.1-0.2-0.1-0.3c0-0.1,0-0.1-0.1-0.2v-0.1l0,0c0-0.1-0.1-0.2-0.2-0.3c-0.1-0.2-0.3-0.3-0.6-0.4
					c-0.1,0-0.2,0-0.2-0.1h-0.1l0,0h-0.1l0,0l0,0l0,0l0,0c-0.1,0-0.2,0-0.3,0.1c-0.2,0.1-0.4,0.2-0.5,0.3c-0.1,0.1-0.1,0.1-0.1,0.2
					v0.1l0,0v0.1c0,0,0,0,0,0.1v0.1c0,0,0,0.1-0.1,0.1c-0.1,0.2-0.2,0.4-0.3,0.6c-0.1,0.1-0.2,0.3-0.2,0.4c-0.1,0.1-0.1,0.2-0.2,0.3
					c-0.1,0.2-0.2,0.3-0.3,0.5c-0.4,0.5-0.8,1-1.3,1.4c-0.1,0.1-0.3,0.2-0.4,0.3s-0.3,0.2-0.4,0.3l0,0l0,0l0,0l0,0l0,0l0,0l0,0
					c0,0,0,0,0-0.1l0,0c0,0,0,0,0-0.1l0,0l0,0l0,0c0,0,0,0-0.1,0l0,0c0,0,0,0-0.1,0l0,0c0,0,0,0-0.1,0l0,0l0,0h-0.1c0,0,0,0-0.1,0
					l0,0c0,0,0,0-0.1,0l0,0l0,0l0,0l0,0c0,0,0,0-0.1,0l0,0c0,0,0,0-0.1,0l0,0l0,0l0,0l0,0l0,0l0,0l0,0l0,0l0,0c0,0,0,0-0.1,0l0,0
					c0,0,0,0-0.1,0l0,0c0,0,0,0-0.1,0l0,0c0,0,0,0-0.1,0l0,0l0,0h-0.1c0,0,0,0-0.1,0l0,0c0,0,0,0-0.1,0l0,0l0,0l0,0l0,0l0,0l0,0l0,0
					l0,0l0,0l0,0l0,0l0,0l0,0l0,0l0,0l0,0l0,0l0,0c0,0,0,0,0,0.1c0,0,0,0,0,0.1c-0.1,0.2-0.2,0.5-0.3,0.7c0,0,0,0-0.1,0
					s-0.2,0-0.3,0c-0.1,0-0.2,0-0.3,0l-0.4-0.1l-5.2-0.8l0,0c-0.1,0-0.1,0-0.2-0.1c-0.1,0-0.3-0.1-0.4-0.2c-0.1,0-0.1-0.1-0.2-0.1
					l-0.1-0.1l-0.1-0.1c-0.2-0.2-0.3-0.5-0.4-0.8c0-0.1,0-0.1-0.1-0.2c0-0.1,0-0.2-0.1-0.3c0-0.1,0-0.2-0.1-0.3c0-0.2,0-0.3,0-0.5
					c0-0.1,0-0.2,0-0.3c0-0.1,0-0.1,0-0.2v-0.1l0,0l0,0l0,0l0,0l0,0c0,0,0,0,0-0.1v-0.1c0-0.1,0-0.3-0.1-0.4c0-0.1-0.1-0.2-0.2-0.3
					c-0.1-0.1-0.2-0.2-0.4-0.3c-0.1-0.1-0.3-0.1-0.5-0.2h-0.1l0,0c0,0,0,0-0.1,0l0,0c0,0,0,0-0.1,0c0,0,0,0-0.1,0s-0.1,0-0.2,0
					c-0.3,0.1-0.5,0.3-0.7,0.5c-0.1,0.1-0.1,0.2-0.1,0.2s0,0,0,0.1l0,0v0.1c0,0,0,0,0,0.1c-0.1,0.3-0.2,0.5-0.3,0.8
					c-0.1,0.2-0.2,0.3-0.3,0.5c-0.1,0.2-0.2,0.3-0.4,0.4c-0.1,0.1-0.1,0.1-0.2,0.2c-0.3,0.2-0.6,0.3-0.9,0.4c-0.1,0-0.1,0-0.2,0
					s-0.1,0-0.2,0s-0.1,0-0.2,0s-0.2,0-0.3,0c-0.1,0-0.2,0-0.4,0c-0.2,0-0.3,0-0.5,0c-0.1,0-0.3,0-0.4,0s-0.1,0-0.2,0l-2-0.3
					c-0.2,0-0.4-0.1-0.6-0.1c-0.2-0.1-0.4-0.1-0.5-0.2c-0.2-0.1-0.4-0.2-0.6-0.4c-0.1-0.1-0.2-0.2-0.3-0.3c-0.1-0.1-0.1-0.1-0.2-0.2
					s-0.1-0.3-0.2-0.4c0-0.1-0.1-0.2-0.1-0.3c0-0.1-0.1-0.2-0.1-0.3c0-0.1,0-0.2,0-0.2c0-0.1,0-0.1,0-0.2s0-0.3,0-0.4v-0.1
					c0-0.1,0-0.2,0-0.3c0-0.1,0-0.3,0.1-0.4v-0.1V275v-0.1l0,0c0-0.1,0-0.2,0-0.3c0-0.2-0.1-0.4-0.1-0.5s-0.1-0.1-0.1-0.2
					c0,0,0-0.1-0.1-0.1h2.2c1.8,0,3.6,0,5.3,0c0.7,0,1.3,0,2,0c0.2,0,0.4,0,0.6,0h0.1c0.1,0,0.1,0,0.2,0h0.1l0,0c1.6,0,3.2,0,4.9,0
					c2.4,0,4.9,0,7.3,0L449.8,273.8C449.7,273.8,449.7,273.8,449.8,273.8z M462.2,284.3L462.2,284.3L462.2,284.3L462.2,284.3
					L462.2,284.3L462.2,284.3L462.2,284.3L462.2,284.3L462.2,284.3L462.2,284.3L462.2,284.3L462.2,284.3z M449.7,274.4
					c-1.1,0-2.1,0-3.2,0s-2.2,0-3.2,0c-1.6,0-3.2,0-4.9,0h-1.5h0.1l0,0c-0.1,0-0.1,0-0.2,0h-0.1c-0.1,0-0.1,0-0.2,0h-0.2
					c-0.4,0-0.8,0-1.2,0c-0.4,0-0.8,0-1.2,0c-1.3,0-2.5,0-3.8,0c-0.9,0-1.8,0-2.7,0l0,0v0.1c0,0.1,0,0.2,0,0.3v0.1v0.1l0,0v0.1
					c0,0.2-0.1,0.4-0.1,0.7l0,0l0,0v0.1c0,0.1,0,0.1,0,0.2s0,0.2,0,0.3c0,0.1,0,0.1,0,0.2s0,0.2,0.1,0.3c0,0.1,0.1,0.2,0.1,0.3
					c0,0.1,0.1,0.2,0.1,0.3c0,0.1,0.1,0.1,0.1,0.2c0.1,0.1,0.1,0.2,0.2,0.2c0.2,0.1,0.3,0.2,0.5,0.3c0.2,0.1,0.4,0.1,0.5,0.2
					c0.1,0,0.2,0,0.3,0.1l1.9,0.3c0.2,0,0.4,0,0.5,0c0.2,0,0.4,0,0.6,0c0.3,0,0.5,0,0.8-0.1c0.2,0,0.4-0.1,0.6-0.2
					c0.1-0.1,0.2-0.1,0.3-0.2l0.1-0.1c0.1-0.1,0.1-0.1,0.2-0.2s0.1-0.2,0.2-0.3c0.1-0.1,0.1-0.3,0.2-0.4c0-0.1,0.1-0.2,0.1-0.3
					c0-0.1,0.1-0.2,0.1-0.3c0,0,0,0,0-0.1c0,0,0,0,0-0.1c0.1-0.2,0.2-0.4,0.4-0.6c0.2-0.2,0.4-0.3,0.6-0.4c0.1-0.1,0.3-0.1,0.5-0.1
					h0.1h0.1c0,0,0,0,0.1,0l0,0h0.1c0,0,0,0,0.1,0c0,0,0,0,0.1,0h0.1c0.2,0,0.3,0.1,0.5,0.1c0.2,0.1,0.4,0.2,0.6,0.4
					c0.2,0.2,0.3,0.4,0.4,0.7c0.1,0.2,0.1,0.4,0.1,0.6c0,0.1,0,0.1,0,0.2c0,0,0,0,0,0.1l0,0l0,0c0,0,0,0,0,0.1c0,0.2,0,0.3,0,0.5
					c0,0.1,0,0.3,0,0.4s0,0.2,0,0.3c0,0.1,0,0.2,0.1,0.3c0,0.1,0,0.2,0.1,0.2c0,0.1,0.1,0.2,0.1,0.3c0.1,0.1,0.1,0.2,0.3,0.3
					l0.1,0.1c0,0,0,0,0.1,0c0.1,0.1,0.3,0.1,0.4,0.1l5.2,0.8l0.4,0.1c0,0,0,0,0.1,0s0.1,0,0.2,0l0,0c0.1-0.1,0.1-0.2,0.2-0.3v-0.1
					c0,0,0,0,0-0.1l0,0l0,0l0,0l0,0c0,0,0,0,0-0.1l0,0l0,0l0,0l0,0l0,0l0,0l0,0c0,0,0,0,0-0.1l0,0l0,0l0,0l0,0l0,0l0,0l0,0l0,0l0,0
					l0,0l0,0l0,0c0,0,0,0,0.1,0c0,0,0,0,0.1,0l0,0l0,0c0,0,0,0,0.1,0c0,0,0,0,0.1,0c0,0,0,0,0.1,0l0,0c0,0,0,0,0.1,0l0,0l0,0
					c0,0,0,0,0.1,0l0,0l0,0c0,0,0,0,0.1,0l0,0l0,0c0,0,0,0,0.1,0l0,0l0,0c0,0,0,0,0.1,0l0,0l0,0l0,0l0,0c0,0,0,0,0.1,0l0,0l0,0l0,0
					l0,0l0,0l0,0l0,0l0,0c0,0,0,0,0.1,0c0,0,0,0,0.1,0l0,0c0,0,0,0,0.1,0c0,0,0,0,0.1,0l0,0c0,0,0,0,0.1,0l0,0l0,0l0,0
					c0,0,0,0,0.1,0l0,0c0,0,0,0,0.1,0c0,0,0,0,0.1,0c0,0,0,0,0.1,0c0,0,0,0,0.1,0l0,0c0,0,0,0,0.1,0l0,0l0,0l0,0l0,0l0,0
					c0.5-0.4,1-0.9,1.4-1.5c0.2-0.3,0.4-0.5,0.6-0.8c0.1-0.2,0.2-0.4,0.3-0.6c0.1-0.1,0.1-0.2,0.2-0.4c0-0.1,0.1-0.1,0.1-0.2
					l0.1-0.1c0,0,0,0,0-0.1l0,0c0.1-0.2,0.2-0.3,0.4-0.4c0.2-0.2,0.4-0.3,0.7-0.4c0.1,0,0.2-0.1,0.3-0.1h0.1c0,0,0,0,0.1,0l0,0h0.1
					l0,0l0,0l0,0c0.2,0,0.4,0.1,0.6,0.1c0.2,0.1,0.3,0.2,0.5,0.3c0.1,0.1,0.2,0.2,0.3,0.3c0.1,0.1,0.1,0.2,0.2,0.3
					c0,0.1,0.1,0.2,0.1,0.2v0.1c0.1,0.2,0.2,0.5,0.3,0.7c0.2,0.5,0.5,1,0.7,1.4s0.4,0.7,0.7,1.1c0.2,0.2,0.3,0.5,0.5,0.7
					c0.1,0.2,0.3,0.3,0.4,0.5c0.2,0.2,0.4,0.5,0.6,0.7c0.1,0.1,0.2,0.2,0.3,0.3c0.1,0.1,0.2,0.2,0.3,0.3c0.2,0.2,0.4,0.3,0.7,0.5
					c0.1,0.1,0.3,0.2,0.4,0.2l0,0c0.1,0,0.2,0,0.3,0.1c0.1,0,0.2,0,0.3,0c0.2,0,0.4,0.1,0.7,0.1c0.1,0,0.3,0.1,0.4,0.1
					s0.3,0,0.4,0.1c0.1,0,0.3,0.1,0.4,0.1c0,0,0.1,0,0.1,0.1l0,0l3.4,0.5c0.4-0.4,0.8-0.9,1.2-1.3c1.8-1.9,3.6-3.8,5.4-5.7
					c0.3-0.3,0.7-0.7,1-1c0.1-0.1,0.2-0.3,0.3-0.4c0.1-0.2,0.3-0.3,0.4-0.5c0-0.1,0.1-0.1,0.1-0.2c0.1-0.1,0.1-0.2,0.2-0.3
					c0-0.1,0.1-0.1,0.1-0.2c0,0,0-0.1,0.1-0.1l0,0c-0.2,0-0.4,0-0.6,0s-0.3,0-0.5,0c-1.4,0-2.7,0-4.1,0c-2,0-4,0-6,0
					c-4.5,0-9,0-13.5,0H449C449.8,274.5,449.8,274.5,449.7,274.4L449.7,274.4C449.7,274.4,449.6,274.4,449.7,274.4
					C449.6,274.4,449.6,274.4,449.7,274.4z M462.5,283.7L462.5,283.7L462.5,283.7L462.5,283.7L462.5,283.7L462.5,283.7L462.5,283.7
					L462.5,283.7L462.5,283.7z M462.6,283.8L462.6,283.8L462.6,283.8L462.6,283.8C462.5,283.8,462.5,283.8,462.6,283.8z
					 M462.5,283.8C462.5,283.7,462.5,283.7,462.5,283.8L462.5,283.8L462.5,283.8z M462.5,283.7L462.5,283.7L462.5,283.7L462.5,283.7
					L462.5,283.7L462.5,283.7L462.5,283.7z M462.5,283.7L462.5,283.7L462.5,283.7L462.5,283.7z M462.5,283.7L462.5,283.7
					L462.5,283.7L462.5,283.7L462.5,283.7L462.5,283.7L462.5,283.7z M462.5,283.7L462.5,283.7L462.5,283.7L462.5,283.7L462.5,283.7z
					 M462.5,283.7L462.5,283.7L462.5,283.7z M459.8,283.1L459.8,283.1L459.8,283.1z M453,280c0.1,0.2,0.2,0.5,0.4,0.7
					c0.3,0.6,0.7,1.1,1,1.6c0.1,0.2,0.3,0.4,0.4,0.6l0.1,0.1c0,0.1,0.1,0.1,0.1,0.2c-0.2,0-0.5-0.1-0.7-0.1
					c-0.4-0.1-0.9-0.1-1.3-0.2c-0.6-0.1-1.2-0.2-1.8-0.3c-0.2,0-0.4-0.1-0.6-0.1l0,0c0.1-0.1,0.2-0.2,0.3-0.2
					c0.2-0.2,0.4-0.4,0.6-0.5c0.1-0.1,0.3-0.3,0.4-0.4c0.2-0.2,0.3-0.4,0.5-0.6C452.6,280.4,452.8,280.2,453,280L453,280
					C452.9,280,453,280,453,280z M452.8,281.2c-0.1,0.1-0.2,0.2-0.3,0.4c-0.1,0.1-0.3,0.3-0.4,0.4c0.3,0,0.6,0.1,0.9,0.1l0.4,0.1
					l-0.1-0.1c-0.1-0.1-0.2-0.3-0.3-0.4C453,281.5,452.9,281.4,452.8,281.2L452.8,281.2L452.8,281.2z M445.7,280.6L445.7,280.6
					L445.7,280.6z M445.7,280.6L445.7,280.6L445.7,280.6z M445.8,280.4L445.8,280.4L445.8,280.4z M447.4,279.4L447.4,279.4
					L447.4,279.4L447.4,279.4z M447.4,279.4L447.4,279.4L447.4,279.4L447.4,279.4z M424,277.5c0,0.2,0.1,0.3,0.1,0.5
					c0,0.1,0.1,0.2,0.1,0.3l0,0c0,0.1,0,0.1,0.1,0.2l-1.4-0.2c0,0,0.1,0,0.1-0.1c0,0,0,0,0.1,0c0.1-0.1,0.3-0.2,0.4-0.2
					C423.7,277.8,423.8,277.6,424,277.5L424,277.5z M438.4,277.8L438.4,277.8L438.4,277.8C438.4,277.7,438.4,277.7,438.4,277.8z
					 M438.5,277.6L438.5,277.6L438.5,277.6L438.5,277.6C438.5,277.5,438.5,277.6,438.5,277.6z M414.8,273.8c3.2,0,6.4,0,9.6,0l0,0
					l0,0l0,0c0,0.1-0.1,0.1-0.1,0.2c-0.1,0.1-0.2,0.2-0.3,0.3c-0.1,0.1-0.2,0.2-0.3,0.3c-0.2,0.2-0.5,0.4-0.7,0.6
					c-0.3,0.2-0.6,0.4-1,0.6c-0.2,0.1-0.5,0.2-0.7,0.3c-0.2,0.1-0.3,0.1-0.5,0.2c-0.3,0.1-0.7,0.2-1,0.3c-0.3,0.1-0.6,0.1-0.8,0.2
					c-0.6,0.1-1.3,0.1-1.9,0.1c-0.2,0-0.5,0-0.7,0s-0.4,0-0.6,0c-0.1,0-0.1,0-0.2,0l-9.1-1.4c0.2-0.1,0.4-0.2,0.6-0.3
					c0.4-0.2,0.8-0.4,1.2-0.6c0.5-0.2,0.9-0.4,1.4-0.5c0.3-0.1,0.6-0.2,0.9-0.3c0.3-0.1,0.6-0.1,0.9-0.1c0.1,0,0.3,0,0.4,0
					C412.6,273.8,413.7,273.8,414.8,273.8z M411.6,274.5c-0.1,0-0.2,0-0.2,0c-0.2,0-0.4,0-0.6,0.1c-0.2,0-0.3,0.1-0.5,0.1
					c-0.2,0.1-0.5,0.1-0.7,0.2s-0.4,0.2-0.7,0.2c-0.1,0-0.2,0.1-0.3,0.1l0,0l6.9,1.1c0.1,0,0.1,0,0.2,0c0.2,0,0.5,0,0.7,0
					s0.5,0,0.7,0s0.4,0,0.6,0c0.4,0,0.7-0.1,1.1-0.1c0.2,0,0.5-0.1,0.7-0.1c0.4-0.1,0.8-0.2,1.2-0.4c0.1-0.1,0.3-0.1,0.4-0.2
					c0.2-0.1,0.5-0.2,0.7-0.4c0.2-0.1,0.5-0.3,0.7-0.5c0.1-0.1,0.2-0.2,0.4-0.3c-2.7,0-5.3,0-8,0
					C413.7,274.5,412.6,274.5,411.6,274.5z M475.5,274.1L475.5,274.1L475.5,274.1z M462,265.1c0.1,0.1,0.2,0.3,0.3,0.4
					c0.2,0.2,0.4,0.5,0.6,0.7c0.7,0.9,1.5,1.8,2.3,2.6c0.4,0.4,0.8,0.8,1.2,1.1c0.2,0.2,0.5,0.4,0.7,0.6c0.2,0.1,0.3,0.3,0.5,0.4
					c0.1,0.1,0.2,0.1,0.3,0.2c0.1,0.1,0.1,0.1,0.2,0.2c-0.9,0-1.8,0-2.7,0c-2.7,0-5.3,0-8,0l0.1-0.1c0.2-0.2,0.4-0.3,0.6-0.5
					s0.5-0.4,0.7-0.6c0.4-0.4,0.7-0.8,1.1-1.2c0.5-0.7,0.9-1.4,1.3-2.1c0.2-0.3,0.3-0.7,0.5-1.1c0.1-0.1,0.1-0.3,0.2-0.4
					C461.9,265.2,461.9,265.1,462,265.1L462,265.1z M428,265.7c0.1,0.2,0.1,0.4,0.2,0.5c0,0.2,0.1,0.3,0.2,0.5
					c0.2,0.8,0.5,1.5,0.9,2.2c0.2,0.5,0.5,0.9,0.8,1.4c0.2,0.3,0.4,0.6,0.6,0.9l0,0c-1.1,0-2.2,0-3.3,0c-1.1,0-2.2,0-3.3,0
					c-0.7,0-1.5,0-2.2,0c0,0,0.1,0,0.1-0.1c0.1-0.1,0.2-0.1,0.3-0.2c0.2-0.1,0.4-0.3,0.6-0.4s0.4-0.3,0.6-0.4c0.3-0.2,0.7-0.5,1-0.8
					c0.7-0.6,1.4-1.2,2-1.9c0.3-0.3,0.6-0.7,0.9-1.1c0.1-0.1,0.2-0.3,0.3-0.5C427.8,265.9,427.9,265.7,428,265.7L428,265.7z
					 M462.1,266.3c-0.1,0.1-0.1,0.2-0.2,0.3c-0.1,0.2-0.2,0.4-0.3,0.5c-0.3,0.5-0.6,1-0.9,1.4c-0.2,0.2-0.3,0.4-0.5,0.7
					c-0.2,0.3-0.4,0.6-0.7,0.8c-0.1,0.1-0.3,0.3-0.4,0.4l0,0l0,0c0.7,0,1.4,0,2.2,0c1.6,0,3.1,0,4.7,0l-0.1-0.1
					c-0.2-0.2-0.4-0.4-0.6-0.5c-0.4-0.4-0.8-0.8-1.2-1.2c-0.5-0.5-1-1.1-1.5-1.7C462.5,266.8,462.3,266.6,462.1,266.3L462.1,266.3z
					 M427.7,267.2c-0.2,0.3-0.5,0.6-0.7,0.9c-0.5,0.5-1,1-1.5,1.5c-0.3,0.2-0.5,0.5-0.8,0.7c-0.1,0.1-0.3,0.2-0.4,0.3l0,0
					c1.1,0,2.1,0,3.2,0h1.1h0.9c0,0,0-0.1-0.1-0.1c-0.1-0.2-0.2-0.3-0.3-0.5c-0.2-0.3-0.4-0.7-0.5-1c-0.2-0.4-0.4-0.8-0.5-1.3
					C427.9,267.5,427.8,267.3,427.7,267.2L427.7,267.2C427.7,267.1,427.7,267.2,427.7,267.2z"/>
			</g>
			<g transform="matrix(1,0,0,1,917.063,0)">
				<path class="st2" d="M1525.2,213l14.5-112.5c0-0.1,0-0.3,0.1-0.4c0.1-0.3,0.2-0.6,0.3-0.8c0.5-1.1,1.4-1.9,2.6-2.3
					c0.3-0.1,0.6-0.2,0.9-0.2c0.1,0,0.3,0,0.4,0h0.1h0.2h0.1c0.1,0,0.3,0,0.4,0.1c0.4,0.1,0.9,0.2,1.3,0.4c0.7,0.3,1.2,0.9,1.6,1.5
					c0.3,0.5,0.5,1.1,0.6,1.6c0,0.3,0.1,0.6,0.1,0.9c0,0.1,0,0.3,0,0.4L1533.9,214l64.6,201.3c0,0.2,0.1,0.4,0.1,0.6
					c0.1,0.6,0.1,1.1,0,1.7c-0.1,0.4-0.2,0.7-0.4,1.1c-0.3,0.5-0.6,1-1.1,1.3c-0.6,0.5-1.3,0.8-2.1,1c-0.4,0.1-0.8,0.1-1.1,0.1
					c-0.6,0-1.1-0.2-1.6-0.5c-0.7-0.3-1.3-0.9-1.7-1.5c-0.3-0.4-0.3-0.6-0.5-1l-59.3-184.9l-29.7,184.2c-0.1,0.5-0.1,0.6-0.3,1.1
					c-0.3,0.7-0.8,1.3-1.4,1.8c-0.3,0.2-0.6,0.4-1,0.5c-0.5,0.2-1.1,0.3-1.7,0.3c-0.8,0-1.5-0.2-2.2-0.6c-0.3-0.2-0.6-0.4-0.9-0.7
					c-0.4-0.4-0.7-0.9-0.9-1.4c-0.2-0.5-0.3-1.1-0.3-1.7c0-0.2,0-0.4,0-0.6l28.4-176.3l-87.1,163.4c-0.1,0.2-0.2,0.3-0.3,0.5
					c-0.3,0.4-0.7,0.8-1.2,1.1c-0.5,0.3-1,0.5-1.5,0.6s-1.1,0.1-1.6,0s-1.1-0.3-1.5-0.6c-0.6-0.4-1.2-0.9-1.5-1.6
					c-0.2-0.3-0.3-0.7-0.4-1c-0.2-0.7-0.2-1.5,0-2.2c0.1-0.5,0.2-0.6,0.4-1L1525.2,213z"/>
			</g>
			<g transform="matrix(1,0,0,1,917.063,0)">
				<path class="st1" d="M1538.3,73.4l11.1-77.2c0-0.1,0-0.3,0.1-0.4c0.1-0.4,0.2-0.8,0.4-1.2c0.3-0.6,0.8-1.2,1.4-1.7
					s1.2-0.8,1.9-1c0.3-0.1,0.6-0.1,0.9-0.2c0.1,0,0.3,0,0.4,0s0.3,0,0.4,0s0.3,0,0.4,0c0.4,0.1,0.9,0.2,1.3,0.3
					c0.5,0.2,1,0.5,1.5,0.9c0.4,0.4,0.8,0.8,1.1,1.3c0.3,0.5,0.5,1.1,0.6,1.6c0.1,0.4,0.1,0.9,0.1,1.3c0,0.1,0,0.3,0,0.4L1549,73.1
					c0.5,0.1,0.9,0.2,1.4,0.4c1.1,0.4,2.2,0.9,3.2,1.7c0.7,0.5,1.3,1.2,1.9,1.9l184.1-84.9c1.3-0.4,1.3-0.4,2.7-0.5
					c0.4,0.1,0.9,0.2,1.3,0.3c1.1,0.6,1.4,0.6,2.2,1.6c0.6,0.7,1,1.6,1.1,2.5c0.1,0.5,0.1,0.9,0.1,1.4s-0.1,0.9-0.3,1.3
					c-0.2,0.4-0.4,0.8-0.6,1.2c-0.7,1-1.1,1.1-2.1,1.7l-187.5,86.4c-0.1,0.3-0.2,0.6-0.3,0.9c-0.2,0.5-0.4,1-0.6,1.5
					c-0.3,0.8-0.6,1.5-1,2.2c-0.5,0.9-0.9,1.8-1.4,2.7c-0.7,1.3-1.5,2.5-2.3,3.7c-0.5,0.8-1.1,1.6-1.7,2.4l99.4,224.2
					c0.1,0.2,0.2,0.4,0.2,0.6c0.2,0.8,0.2,1.7,0,2.5c-0.1,0.4-0.3,0.8-0.5,1.1c-0.2,0.4-0.5,0.7-0.8,0.9c-0.3,0.3-0.7,0.5-1.1,0.7
					c-1,0.4-2.1,0.5-3,0.2c-0.4-0.1-0.8-0.3-1.1-0.5c-0.5-0.3-1-0.8-1.3-1.3c-0.1-0.2-0.2-0.4-0.3-0.6l-90.9-205l16.1,316.1
					l-0.2,1.7l-0.9,1.5l-1.4,1l-1.7,0.4l-1.7-0.2c-1.5-0.9-1.5-0.9-2.5-2.2l-0.4-1.7l-16.3-320.3l-87,208.8
					c-0.1,0.2-0.2,0.4-0.3,0.6c-0.4,0.7-1.1,1.3-1.8,1.7c-0.4,0.2-0.8,0.3-1.2,0.4c-1,0.2-2.1,0-3-0.6c-0.4-0.2-0.7-0.5-1-0.8
					s-0.5-0.6-0.7-1s-0.3-0.8-0.4-1.2c-0.1-0.6-0.1-1.2,0.1-1.9c0.1-0.2,0.1-0.4,0.2-0.6l64.6-155L1359,442.8l-1.1,1.3l-1.5,0.8
					c-1.7,0.1-1.7,0.1-3.3-0.4l-1.3-1.1l-0.8-1.5l-0.1-1.7l0.5-1.6l187.5-337.2c-0.3-0.4-0.6-0.8-0.9-1.2c-0.9-1.2-1.7-2.4-2.4-3.7
					c-0.6-1-1.1-1.9-1.6-2.9c-0.2-0.4-0.5-0.9-0.7-1.4L1293.9,1.9c-1.1-0.6-1.4-0.6-2.2-1.6c-0.3-0.4-0.5-0.7-0.7-1.2
					c-0.4-0.8-0.5-1.8-0.4-2.7c0-0.5,0.2-0.9,0.3-1.3c0.2-0.4,0.4-0.8,0.6-1.2c0.3-0.4,0.6-0.7,0.9-1c0.7-0.6,1.6-1,2.5-1.1
					c0.4-0.1,0.9,0,1.4,0c0.4,0.1,0.9,0.2,1.3,0.3l233.6,88.2c0-0.1,0.1-0.2,0.1-0.3c0.1-0.5,0.3-0.9,0.6-1.4c0.3-0.6,0.6-1.1,1-1.6
					c0.6-0.7,1.2-1.3,1.9-1.9C1535.9,74.4,1537.1,73.8,1538.3,73.4z"/>
			</g>
		</g>
	</g>
</g>
</svg>
