<?xml version="1.0" encoding="UTF-8" standalone="no"?>
<!DOCTYPE svg PUBLIC "-//W3C//DTD SVG 1.1//EN" "http://www.w3.org/Graphics/SVG/1.1/DTD/svg11.dtd">
<svg width="100%" height="100%" viewBox="0 0 1000 1000" version="1.1" xmlns="http://www.w3.org/2000/svg" xmlns:xlink="http://www.w3.org/1999/xlink" xml:space="preserve" style="fill-rule:evenodd;clip-rule:evenodd;stroke-linejoin:round;stroke-miterlimit:1.41421;">
    <g transform="matrix(1,0,0,1,-1182.94,0)">
        <g id="exportsvg" transform="matrix(1,0,0,1,1182.94,0)">
            <rect x="0" y="0" width="1000" height="1000" style="fill:none;"/>
            <g id="tgew" transform="matrix(1,0,0,1,-2100,0)">
                <rect x="2100" y="0" width="1000" height="1000" style="fill:none;"/>
                <g transform="matrix(5.91773,0,0,5.91773,-169.72,-1223.97)">
                    <path d="M487.443,344.89C487.171,345.327 486.895,345.761 486.609,346.189C485.591,347.715 484.481,349.18 483.267,350.555C482.028,351.958 480.683,353.27 479.221,354.441C478.714,354.847 478.192,355.235 477.658,355.606C480.173,355.6 482.688,355.592 485.203,355.584C487.157,355.578 489.111,355.572 491.065,355.565L491.895,355.562C491.741,355.221 491.586,354.879 491.433,354.538C491.287,354.211 491.141,353.884 490.996,353.558C490.842,353.21 490.689,352.862 490.536,352.513C489.991,351.264 489.458,350.009 488.943,348.746C488.603,347.913 488.271,347.076 487.951,346.235C487.808,345.859 487.669,345.482 487.531,345.104L487.464,344.918L487.449,344.878C487.447,344.882 487.445,344.886 487.443,344.89Z" style="fill:rgb(248,255,9);"/>
                </g>
                <g transform="matrix(5.91773,0,0,5.91773,-169.72,-1223.97)">
                    <path d="M428.769,344.069C427.585,345.021 426.387,345.953 425.174,346.867C423.779,347.918 422.364,348.944 420.928,349.939C419.535,350.903 418.122,351.838 416.686,352.735C415.783,353.299 414.87,353.848 413.946,354.376C413.37,354.705 412.79,355.025 412.207,355.339L412.032,355.432L411.921,355.491C414.223,355.493 416.524,355.496 418.826,355.5C424.036,355.508 429.246,355.519 434.456,355.53L434.662,355.53C434.591,355.473 434.521,355.415 434.451,355.358C434.373,355.292 434.295,355.226 434.218,355.16C433.936,354.917 433.661,354.665 433.396,354.404C432.875,353.892 432.389,353.344 431.944,352.764C431.227,351.828 430.621,350.806 430.146,349.726C429.678,348.664 429.337,347.548 429.116,346.409C428.965,345.634 428.871,344.849 428.823,344.062L428.821,344.028C428.804,344.042 428.786,344.055 428.769,344.069Z" style="fill:rgb(248,255,9);"/>
                </g>
                <g transform="matrix(5.91773,0,0,5.91773,-169.72,-1223.97)">
                    <path d="M496.909,337.202C496.609,337.625 496.295,338.038 495.965,338.438C495.632,338.842 495.282,339.233 494.917,339.609C494.474,340.066 494.005,340.499 493.513,340.903C493.403,340.993 493.293,341.081 493.181,341.168L493.099,341.232L493.022,341.291C494.339,341.48 495.657,341.67 496.975,341.861C497.938,342.001 498.901,342.142 499.863,342.283L500.293,342.346C500.218,342.254 500.144,342.161 500.07,342.067C499.987,341.961 499.905,341.855 499.823,341.748C499.022,340.699 498.298,339.592 497.633,338.453C497.404,338.06 497.184,337.663 496.969,337.263L496.924,337.18C496.919,337.187 496.914,337.194 496.909,337.202Z" style="fill:rgb(31,73,111);"/>
                </g>
                <g transform="matrix(5.91773,0,0,5.91773,-169.72,-1223.97)">
                    <path d="M450.167,334.727L450.144,334.67C450.119,334.605 450.095,334.54 450.07,334.476C450.013,334.32 449.96,334.163 449.911,334.004C449.832,333.746 449.764,333.484 449.706,333.219L449.706,333.217C449.686,333.231 449.667,333.245 449.647,333.258C449.342,333.469 449.032,333.672 448.714,333.863C448.423,334.038 448.127,334.203 447.826,334.361L450.167,334.727Z" style="fill:rgb(31,73,111);"/>
                </g>
                <g transform="matrix(5.91773,0,0,5.91773,-169.72,-1223.97)">
                    <path d="M521.658,323.007L521.536,322.918C521.456,322.858 521.375,322.798 521.295,322.738C520.816,322.376 520.345,322.003 519.884,321.618C518.651,320.585 517.483,319.476 516.368,318.317C515.236,317.139 514.158,315.908 513.13,314.638C512.838,314.277 512.549,313.912 512.264,313.544C512.088,313.318 511.915,313.089 511.741,312.861L511.651,312.741C511.641,312.768 511.63,312.794 511.619,312.821C511.341,313.508 511.042,314.185 510.717,314.851C510.038,316.239 509.244,317.573 508.324,318.816C507.535,319.88 506.649,320.874 505.674,321.771C505.294,322.119 504.901,322.453 504.495,322.77C504.408,322.838 504.32,322.905 504.232,322.971C510.041,322.98 515.849,322.992 521.658,323.007Z" style="fill:rgb(248,255,9);"/>
                </g>
                <g transform="matrix(5.91773,0,0,5.91773,-169.72,-1223.97)">
                    <path d="M460.491,322.967C460.469,322.941 460.45,322.917 460.408,322.865C460.103,322.488 459.816,322.099 459.545,321.698C458.967,320.84 458.467,319.932 458.025,318.998C457.447,317.773 456.971,316.501 456.571,315.208C456.439,314.779 456.316,314.347 456.198,313.914L456.176,313.827C456.16,313.848 456.145,313.87 456.129,313.892C455.452,314.838 454.732,315.753 453.962,316.625C453.1,317.603 452.177,318.528 451.198,319.389C450.22,320.25 449.184,321.044 448.099,321.766C447.453,322.197 446.789,322.598 446.111,322.976L446.082,322.992C450.885,322.982 455.688,322.973 460.491,322.967Z" style="fill:rgb(248,255,9);"/>
                </g>
                <g transform="matrix(5.91773,0,0,5.91773,-169.72,-1223.97)">
                    <path d="M457.359,305.09C457.424,305.096 457.489,305.101 457.554,305.108C457.594,305.112 457.634,305.118 457.674,305.124C457.875,305.155 458.073,305.206 458.265,305.276C458.661,305.419 459.028,305.643 459.338,305.929C459.669,306.235 459.933,306.613 460.107,307.029C460.195,307.236 460.26,307.454 460.301,307.675C460.312,307.738 460.321,307.8 460.329,307.863C460.337,307.927 460.344,307.992 460.351,308.056C460.355,308.092 460.359,308.128 460.364,308.164C460.373,308.243 460.383,308.322 460.393,308.401C460.406,308.496 460.419,308.59 460.433,308.684C460.46,308.875 460.49,309.066 460.521,309.257C460.624,309.893 460.746,310.526 460.886,311.155C461.058,311.932 461.257,312.703 461.486,313.464C461.669,314.074 461.873,314.678 462.099,315.274C462.282,315.752 462.479,316.225 462.696,316.689C462.858,317.036 463.029,317.378 463.214,317.713C463.36,317.98 463.514,318.242 463.677,318.499C463.803,318.698 463.935,318.893 464.072,319.084C464.19,319.248 464.312,319.409 464.439,319.566C464.528,319.676 464.62,319.784 464.714,319.89C464.786,319.972 464.86,320.052 464.936,320.131C465.36,320.573 465.837,320.971 466.371,321.275C466.486,321.34 466.603,321.401 466.722,321.457C466.863,321.523 467.008,321.582 467.155,321.634C467.394,321.719 467.64,321.784 467.889,321.829L467.899,321.831C469.443,321.83 470.987,321.829 472.532,321.828C474.107,321.827 475.683,321.827 477.259,321.826C481.986,321.825 486.713,321.826 491.441,321.829L492.956,321.83C493.216,321.802 493.475,321.77 493.734,321.732C495.06,321.54 496.37,321.221 497.62,320.736C498.287,320.477 498.937,320.172 499.56,319.819C499.849,319.656 500.133,319.482 500.409,319.298C500.969,318.926 501.503,318.514 502.004,318.066C502.317,317.786 502.618,317.493 502.906,317.188C503.037,317.05 503.165,316.909 503.291,316.765C504.321,315.591 505.173,314.267 505.881,312.876C505.986,312.668 506.088,312.46 506.187,312.25C506.308,311.994 506.424,311.736 506.536,311.476C506.672,311.161 506.802,310.844 506.926,310.524C507.087,310.109 507.239,309.69 507.382,309.268C507.471,309.004 507.557,308.739 507.64,308.473C507.694,308.299 507.748,308.125 507.799,307.95C507.856,307.756 507.911,307.562 507.966,307.368L508.046,307.128C508.071,307.067 508.096,307.007 508.122,306.947C508.139,306.91 508.156,306.873 508.174,306.837C508.274,306.638 508.395,306.449 508.534,306.275C508.76,305.993 509.035,305.75 509.342,305.56C509.631,305.382 509.948,305.25 510.278,305.171C510.46,305.128 510.646,305.102 510.832,305.091C510.905,305.087 510.977,305.087 511.05,305.087L511.116,305.087C511.208,305.094 511.3,305.1 511.392,305.108C511.417,305.111 511.442,305.117 511.466,305.121C511.507,305.128 511.548,305.134 511.588,305.141C511.619,305.146 511.619,305.146 511.65,305.152C511.685,305.159 511.721,305.167 511.756,305.175C511.844,305.196 511.931,305.222 512.016,305.251C512.515,305.418 512.97,305.712 513.328,306.097C513.416,306.191 513.498,306.29 513.573,306.394C513.643,306.492 513.707,306.594 513.771,306.696L513.793,306.73C513.864,306.84 513.936,306.95 514.009,307.06C514.208,307.36 514.41,307.657 514.615,307.952C515.027,308.545 515.452,309.129 515.886,309.705C516.757,310.861 517.669,311.986 518.624,313.073C519.659,314.252 520.746,315.386 521.899,316.452C522.849,317.331 523.844,318.164 524.896,318.92C525.273,319.191 525.658,319.452 526.05,319.701C526.29,319.853 526.533,320 526.779,320.141C527.051,320.297 527.326,320.447 527.606,320.589C528.082,320.83 528.569,321.049 529.068,321.238C529.442,321.379 529.823,321.502 530.21,321.604C530.629,321.715 531.056,321.8 531.487,321.852C531.711,321.879 531.936,321.897 532.162,321.906C532.207,321.908 532.252,321.909 532.298,321.91C532.342,321.911 532.387,321.911 532.431,321.912C532.484,321.913 532.536,321.914 532.589,321.915C532.783,321.918 532.977,321.921 533.171,321.925C533.322,321.927 533.472,321.93 533.623,321.934C533.767,321.938 533.911,321.943 534.055,321.954L534.08,321.956C534.217,321.967 534.354,321.988 534.488,322.016C534.545,322.03 534.602,322.044 534.659,322.058C534.715,322.073 534.77,322.088 534.824,322.106C534.885,322.127 534.946,322.149 535.006,322.173C535.077,322.202 535.148,322.232 535.217,322.266C535.295,322.304 535.369,322.348 535.444,322.391L535.488,322.415L535.528,322.44C535.575,322.472 535.623,322.505 535.67,322.537C535.693,322.553 535.715,322.568 535.737,322.584L535.739,322.586C535.767,322.599 535.795,322.612 535.823,322.626C535.845,322.636 535.866,322.646 535.888,322.657C535.964,322.695 536.039,322.733 536.113,322.774C536.26,322.854 536.403,322.94 536.542,323.031C536.731,323.156 536.913,323.292 537.086,323.439C537.201,323.537 537.312,323.64 537.419,323.747C537.574,323.903 537.72,324.069 537.854,324.244L537.899,324.301C537.946,324.367 537.993,324.432 538.039,324.498C538.072,324.547 538.104,324.596 538.136,324.645C538.205,324.754 538.269,324.866 538.33,324.98C538.398,325.108 538.462,325.24 538.52,325.374C538.731,325.863 538.868,326.384 538.931,326.913C538.972,327.248 538.982,327.586 538.967,327.923C538.959,328.109 538.942,328.294 538.919,328.479C538.896,328.658 538.867,328.836 538.83,329.013L538.817,329.078C538.784,329.223 538.751,329.367 538.713,329.51C538.678,329.64 538.639,329.769 538.598,329.896C538.565,329.999 538.531,330.101 538.494,330.202C538.441,330.35 538.384,330.497 538.323,330.642C538.286,330.73 538.248,330.817 538.21,330.903C538.016,331.339 537.791,331.761 537.547,332.171C537.324,332.545 537.083,332.909 536.829,333.263C536.524,333.689 536.199,334.101 535.86,334.5C535.64,334.758 535.413,335.01 535.184,335.259C534.862,335.602 534.54,335.946 534.218,336.289C533.095,337.486 531.97,338.681 530.845,339.876C527.791,343.118 524.731,346.353 521.674,349.592C521.03,350.274 520.386,350.956 519.743,351.638C519.61,351.779 519.476,351.918 519.34,352.056C519.109,352.29 518.874,352.519 518.635,352.745C518.117,353.233 517.579,353.701 517.027,354.15C516.214,354.812 515.368,355.434 514.497,356.017C513.529,356.665 512.528,357.264 511.5,357.812C510.671,358.253 509.824,358.66 508.96,359.026C507.82,359.509 506.65,359.923 505.451,360.231C504.568,360.457 503.668,360.628 502.758,360.708C502.559,360.726 502.359,360.739 502.159,360.747C502.014,360.754 501.869,360.757 501.724,360.759C500.486,360.763 499.248,360.766 498.01,360.77C492.445,360.787 486.88,360.801 481.315,360.812C478.224,360.819 475.133,360.823 472.041,360.828C471.094,360.83 470.147,360.832 469.2,360.833C468.492,360.834 467.784,360.834 467.076,360.834C465.655,360.836 464.235,360.837 462.815,360.838C459.974,360.841 457.133,360.842 454.292,360.843C446.48,360.845 438.667,360.841 430.855,360.832C423.752,360.823 416.65,360.809 409.548,360.791C407.417,360.785 405.287,360.779 403.156,360.773C402.446,360.771 401.736,360.769 401.025,360.766C400.317,360.764 399.608,360.762 398.899,360.759C398.868,360.759 398.837,360.76 398.805,360.76C398.756,360.76 398.707,360.759 398.658,360.759C398.579,360.758 398.499,360.757 398.42,360.756C398.058,360.751 397.697,360.747 397.335,360.739C397.267,360.737 397.198,360.735 397.129,360.733C397.026,360.73 396.924,360.726 396.822,360.718C396.751,360.712 396.681,360.704 396.611,360.693C396.531,360.681 396.451,360.665 396.371,360.648C396.31,360.634 396.248,360.62 396.187,360.602C396.119,360.582 396.052,360.558 395.985,360.533C395.895,360.5 395.805,360.464 395.717,360.423C395.465,360.304 395.23,360.15 395.017,359.97C394.996,359.96 394.976,359.949 394.955,359.938C394.896,359.907 394.837,359.875 394.778,359.841C394.625,359.754 394.475,359.66 394.33,359.56C394.016,359.341 393.725,359.091 393.463,358.812C393.124,358.451 392.836,358.042 392.611,357.6C392.445,357.276 392.314,356.935 392.218,356.584C392.144,356.316 392.091,356.042 392.058,355.766C392.035,355.576 392.021,355.385 392.016,355.194C392.001,354.603 392.071,354.012 392.206,353.436C392.357,352.791 392.587,352.165 392.87,351.566C392.946,351.405 393.026,351.245 393.11,351.087C393.22,350.878 393.337,350.672 393.458,350.469C393.615,350.208 393.78,349.951 393.953,349.7C394.184,349.363 394.427,349.034 394.681,348.714C395.013,348.296 395.363,347.892 395.723,347.498L395.763,347.455L395.805,347.41C396.126,347.066 396.447,346.723 396.769,346.38C397.731,345.353 398.695,344.328 399.659,343.303C400.784,342.108 401.91,340.914 403.037,339.721C405.129,337.506 407.223,335.292 409.315,333.077C409.958,332.395 410.602,331.713 411.246,331.03C411.284,330.99 411.322,330.95 411.36,330.91C411.629,330.631 411.902,330.356 412.182,330.088C413.495,328.83 414.929,327.702 416.437,326.689C417.3,326.108 418.19,325.567 419.102,325.066C420.037,324.553 420.996,324.083 421.977,323.665C422.826,323.303 423.691,322.981 424.573,322.711C425.005,322.578 425.441,322.458 425.881,322.353C426.61,322.179 427.348,322.047 428.094,321.974C428.402,321.944 428.71,321.924 429.019,321.915C429.108,321.913 429.197,321.911 429.285,321.911C429.35,321.909 429.414,321.907 429.479,321.906C429.743,321.897 430.007,321.887 430.27,321.874C430.344,321.871 430.417,321.867 430.49,321.863C430.662,321.853 430.835,321.843 431.007,321.832C431.472,321.801 431.937,321.764 432.401,321.717C432.904,321.667 433.406,321.606 433.907,321.535C435.45,321.317 436.981,320.997 438.475,320.551C439.664,320.196 440.831,319.763 441.959,319.244C442.909,318.807 443.831,318.309 444.716,317.751C445.644,317.167 446.531,316.519 447.369,315.813C447.939,315.332 448.486,314.825 449.011,314.296C449.437,313.866 449.849,313.421 450.244,312.963C450.707,312.427 451.149,311.872 451.571,311.303C451.978,310.753 452.368,310.19 452.738,309.614C453.146,308.982 453.532,308.336 453.897,307.678C453.99,307.513 454.08,307.346 454.169,307.18C454.204,307.115 454.273,306.986 454.308,306.92C454.335,306.869 454.361,306.818 454.388,306.767L454.514,306.549C454.527,306.531 454.539,306.513 454.552,306.495C454.57,306.469 454.588,306.442 454.606,306.416C454.629,306.383 454.653,306.351 454.677,306.319C454.777,306.19 454.886,306.069 455.004,305.957C455.407,305.574 455.911,305.301 456.452,305.172C456.552,305.149 456.652,305.129 456.754,305.115C456.838,305.104 456.923,305.098 457.008,305.092L457.084,305.087L457.359,305.09ZM457.091,306.217C457.053,306.22 457.016,306.222 456.978,306.225C456.959,306.227 456.959,306.227 456.94,306.229C456.921,306.231 456.902,306.233 456.883,306.236C456.843,306.242 456.803,306.25 456.763,306.258C456.702,306.271 456.642,306.287 456.583,306.305C456.263,306.404 455.968,306.583 455.733,306.822C455.664,306.891 455.6,306.965 455.543,307.044C455.522,307.075 455.501,307.106 455.479,307.137L455.467,307.155L455.376,307.311L455.306,307.446C455.258,307.535 455.211,307.624 455.163,307.713C455.051,307.922 454.937,308.131 454.82,308.339C454.471,308.962 454.103,309.576 453.717,310.177C453.397,310.676 453.064,311.165 452.717,311.646C452.366,312.133 452.001,312.61 451.621,313.076C450.994,313.846 450.327,314.583 449.621,315.281C449.004,315.891 448.357,316.472 447.681,317.017C447.019,317.55 446.331,318.05 445.618,318.513C444.879,318.993 444.115,319.434 443.33,319.833C442.071,320.474 440.759,321.006 439.416,321.44C438.521,321.729 437.612,321.973 436.694,322.177C435.492,322.444 434.275,322.642 433.052,322.782C432.572,322.837 432.091,322.882 431.609,322.92C431.206,322.951 430.803,322.976 430.4,322.997L430.325,323.001C430.152,323.009 429.98,323.017 429.807,323.023C429.677,323.028 429.546,323.032 429.416,323.036C429.387,323.036 429.359,323.037 429.33,323.038L429.303,323.039C429.255,323.039 429.208,323.04 429.161,323.04C429,323.043 428.839,323.049 428.678,323.059C427.665,323.12 426.663,323.307 425.682,323.567C424.472,323.887 423.292,324.318 422.145,324.821C421.233,325.221 420.342,325.666 419.472,326.15C418.622,326.624 417.791,327.134 416.985,327.679C415.56,328.643 414.205,329.712 412.962,330.902C412.674,331.177 412.394,331.46 412.12,331.748C411.94,331.937 411.761,332.127 411.582,332.317C411.422,332.488 411.261,332.658 411.1,332.829C410.617,333.34 410.135,333.851 409.652,334.362C407.882,336.237 406.11,338.11 404.34,339.984C403.696,340.666 403.053,341.347 402.409,342.029C401.284,343.223 400.159,344.417 399.035,345.613C398.233,346.467 397.432,347.322 396.631,348.177C396.58,348.233 396.529,348.288 396.478,348.344C396.352,348.483 396.227,348.623 396.104,348.765C395.866,349.04 395.635,349.321 395.413,349.61C395.162,349.935 394.923,350.269 394.699,350.612C394.543,350.852 394.394,351.097 394.253,351.346C394.146,351.536 394.044,351.729 393.949,351.925C393.879,352.067 393.813,352.211 393.751,352.356C393.701,352.471 393.654,352.587 393.609,352.704C393.321,353.46 393.135,354.263 393.142,355.075C393.143,355.201 393.149,355.328 393.159,355.454C393.172,355.611 393.193,355.768 393.222,355.924C393.259,356.12 393.309,356.314 393.371,356.503C393.459,356.768 393.573,357.025 393.712,357.267C393.899,357.593 394.131,357.893 394.399,358.157C394.631,358.386 394.889,358.587 395.166,358.76C395.324,358.859 395.488,358.947 395.656,359.028C395.668,359.04 395.68,359.051 395.693,359.063C395.731,359.097 395.769,359.13 395.809,359.161C395.898,359.231 395.993,359.294 396.092,359.348C396.127,359.367 396.163,359.386 396.199,359.403C396.257,359.43 396.317,359.453 396.377,359.476C396.418,359.491 396.459,359.507 396.501,359.519C396.539,359.53 396.578,359.538 396.616,359.547C396.684,359.562 396.752,359.575 396.82,359.584C396.873,359.591 396.926,359.595 396.98,359.598C397.063,359.603 397.146,359.605 397.23,359.608C397.407,359.613 397.584,359.616 397.761,359.619C397.894,359.621 398.026,359.623 398.159,359.624C398.313,359.627 398.467,359.629 398.621,359.631C398.683,359.631 398.744,359.632 398.806,359.632L398.898,359.632C400.319,359.636 401.739,359.641 403.159,359.645C407.42,359.658 411.681,359.669 415.942,359.678C424.465,359.697 432.987,359.709 441.509,359.713C447.19,359.717 452.871,359.717 458.553,359.713C461.394,359.712 464.234,359.709 467.075,359.707C467.783,359.706 468.491,359.706 469.199,359.705C470.146,359.704 471.092,359.702 472.039,359.7C473.276,359.698 474.512,359.697 475.749,359.695C478.222,359.691 480.695,359.686 483.168,359.681C489.351,359.668 495.533,359.651 501.716,359.631C501.765,359.63 501.815,359.629 501.865,359.628C502.079,359.623 502.294,359.614 502.508,359.597C503.388,359.53 504.26,359.369 505.114,359.153C506.295,358.853 507.447,358.444 508.568,357.967C509.417,357.606 510.249,357.203 511.062,356.767C512.025,356.251 512.962,355.687 513.87,355.08C514.691,354.53 515.488,353.945 516.256,353.324C516.827,352.86 517.383,352.377 517.917,351.871C518.127,351.672 518.334,351.47 518.537,351.264C518.649,351.151 518.759,351.036 518.869,350.921C519.048,350.732 519.227,350.542 519.406,350.352C519.888,349.84 520.371,349.329 520.853,348.818C522.784,346.772 524.716,344.728 526.647,342.683C527.29,342.001 527.934,341.319 528.577,340.638C530.506,338.591 532.434,336.543 534.358,334.491C534.41,334.435 534.462,334.378 534.513,334.322C534.655,334.166 534.796,334.008 534.933,333.848C535.153,333.593 535.365,333.333 535.57,333.067C535.81,332.754 536.041,332.434 536.257,332.105C536.421,331.857 536.576,331.604 536.722,331.346C536.834,331.148 536.941,330.947 537.04,330.743C537.088,330.644 537.135,330.545 537.179,330.444C537.208,330.38 537.237,330.315 537.264,330.25C537.33,330.094 537.392,329.936 537.448,329.777C537.511,329.6 537.567,329.422 537.617,329.242C537.64,329.16 537.66,329.077 537.679,328.994C537.687,328.961 537.695,328.928 537.702,328.895C537.706,328.878 537.71,328.862 537.714,328.845C537.718,328.827 537.721,328.809 537.724,328.791C537.728,328.772 537.732,328.753 537.736,328.734C537.743,328.697 537.75,328.659 537.757,328.621C537.77,328.545 537.782,328.469 537.792,328.393C537.808,328.276 537.821,328.159 537.83,328.041C537.865,327.586 537.843,327.127 537.753,326.68C537.71,326.47 537.653,326.264 537.581,326.063C537.483,325.793 537.358,325.532 537.207,325.288C537.159,325.209 537.107,325.133 537.054,325.057C537.042,325.041 537.002,324.985 536.997,324.979C536.986,324.964 536.974,324.949 536.962,324.935C536.95,324.918 536.937,324.901 536.924,324.885C536.894,324.847 536.863,324.809 536.832,324.772C536.72,324.641 536.599,324.517 536.472,324.401C536.193,324.146 535.88,323.929 535.547,323.75C535.418,323.68 535.285,323.617 535.149,323.558C535.134,323.545 535.134,323.545 535.119,323.533C535.102,323.519 535.084,323.505 535.066,323.491C535.039,323.471 535.012,323.453 534.984,323.434C534.973,323.427 534.962,323.419 534.951,323.412C534.938,323.403 534.925,323.393 534.911,323.385C534.87,323.361 534.828,323.337 534.787,323.314C534.77,323.305 534.77,323.305 534.753,323.295C534.699,323.267 534.644,323.243 534.587,323.22C534.543,323.203 534.498,323.186 534.452,323.171C534.415,323.16 534.376,323.15 534.338,323.141C534.314,323.135 534.291,323.129 534.267,323.123C534.263,323.122 534.243,323.117 534.233,323.115C534.201,323.109 534.169,323.103 534.137,323.098C534.106,323.093 534.074,323.089 534.042,323.085C534.017,323.082 533.993,323.08 533.968,323.078C533.941,323.076 533.913,323.074 533.885,323.073C533.802,323.068 533.719,323.065 533.636,323.062C533.507,323.059 533.378,323.057 533.248,323.054C533.021,323.05 532.793,323.046 532.566,323.042C532.516,323.042 532.465,323.04 532.415,323.039C532.371,323.039 532.371,323.039 532.326,323.039C532.065,323.035 531.804,323.019 531.544,322.993C530.918,322.93 530.298,322.804 529.692,322.632C528.868,322.396 528.07,322.075 527.301,321.697C527.06,321.579 526.822,321.455 526.586,321.326C526.251,321.143 525.921,320.949 525.597,320.748C525.186,320.492 524.784,320.224 524.389,319.944C523.263,319.147 522.2,318.263 521.185,317.329C519.948,316.189 518.784,314.971 517.677,313.704C516.715,312.603 515.797,311.465 514.919,310.296C514.455,309.678 514.002,309.051 513.564,308.414C513.417,308.202 513.273,307.989 513.13,307.775C513.033,307.63 512.938,307.485 512.843,307.339C512.808,307.284 512.775,307.229 512.74,307.175C512.727,307.155 512.713,307.135 512.7,307.114C512.68,307.084 512.659,307.055 512.637,307.026C512.585,306.956 512.528,306.89 512.467,306.828C512.254,306.61 511.992,306.441 511.705,306.337C511.664,306.322 511.623,306.309 511.581,306.296C511.545,306.285 511.508,306.275 511.471,306.267C511.409,306.253 511.346,306.244 511.284,306.234L511.256,306.229C511.196,306.224 511.136,306.219 511.076,306.215L511.03,306.215C511,306.215 510.97,306.215 510.94,306.216C510.929,306.216 510.918,306.216 510.906,306.217C510.662,306.229 510.42,306.285 510.195,306.383C509.954,306.489 509.733,306.64 509.549,306.828C509.449,306.931 509.359,307.043 509.283,307.164C509.235,307.241 509.191,307.32 509.154,307.403C509.139,307.437 509.125,307.472 509.11,307.507L509.101,307.527L509.044,307.699C509.014,307.808 508.983,307.916 508.952,308.025C508.936,308.079 508.921,308.133 508.905,308.188C508.754,308.702 508.593,309.214 508.419,309.721C508.28,310.128 508.133,310.531 507.977,310.932C507.861,311.232 507.74,311.531 507.613,311.827C507.108,313.01 506.52,314.159 505.829,315.244C505.434,315.863 505.007,316.462 504.543,317.031C504.304,317.324 504.055,317.61 503.798,317.886C503.454,318.255 503.093,318.607 502.717,318.941C502.187,319.412 501.624,319.845 501.033,320.238C500.719,320.447 500.397,320.643 500.068,320.828C499.428,321.187 498.762,321.499 498.079,321.767C496.929,322.218 495.73,322.537 494.513,322.75C494.235,322.798 493.956,322.841 493.677,322.879C493.475,322.906 493.273,322.93 493.071,322.952L493.015,322.958C491.44,322.957 489.864,322.956 488.289,322.955C486.713,322.955 485.137,322.954 483.562,322.954C478.835,322.953 474.108,322.954 469.381,322.958L467.805,322.959C467.699,322.942 467.593,322.922 467.488,322.9C467.257,322.849 467.029,322.785 466.806,322.707C466.593,322.633 466.385,322.546 466.182,322.448C466.033,322.377 465.888,322.299 465.745,322.216C464.976,321.766 464.308,321.156 463.732,320.479C463.615,320.342 463.501,320.202 463.391,320.059C463.277,319.911 463.167,319.76 463.06,319.607C462.927,319.416 462.799,319.222 462.675,319.025C462.507,318.757 462.348,318.483 462.197,318.204C461.996,317.836 461.809,317.459 461.633,317.078C461.413,316.6 461.211,316.114 461.025,315.621C460.788,314.995 460.576,314.359 460.384,313.717C460.137,312.889 459.925,312.05 459.742,311.204C459.566,310.391 459.419,309.571 459.303,308.746C459.278,308.571 459.255,308.396 459.235,308.22C459.226,308.148 459.219,308.075 459.21,308.002C459.207,307.979 459.204,307.956 459.2,307.932C459.175,307.772 459.13,307.615 459.067,307.465C458.959,307.206 458.796,306.97 458.592,306.776C458.378,306.573 458.12,306.417 457.841,306.322C457.758,306.294 457.674,306.271 457.589,306.254C457.537,306.244 457.485,306.235 457.433,306.229C457.396,306.226 457.359,306.223 457.321,306.219L457.299,306.217L457.119,306.215C457.11,306.216 457.1,306.217 457.091,306.217ZM435.001,336.487C436.366,336.708 437.731,336.929 439.097,337.15C440.121,337.315 441.145,337.481 442.169,337.646C445.855,338.239 449.541,338.83 453.228,339.413C454.442,339.605 455.657,339.796 456.872,339.981C457.251,340.038 457.629,340.096 458.008,340.149C458.127,340.166 458.246,340.182 458.364,340.197C458.462,340.209 458.561,340.22 458.659,340.225C458.709,340.228 458.759,340.229 458.809,340.228C458.837,340.227 458.865,340.225 458.893,340.223L460.451,340.466C461.325,340.609 462.2,340.752 463.074,340.895C463.729,341.002 464.385,341.109 465.041,341.216C466.571,341.465 468.101,341.713 469.632,341.958C470.458,342.091 471.283,342.223 472.109,342.354C472.877,342.476 473.645,342.596 474.413,342.712C474.652,342.748 474.891,342.784 475.13,342.816C475.203,342.826 475.276,342.835 475.349,342.844C475.406,342.85 475.463,342.856 475.519,342.859C475.557,342.862 475.595,342.862 475.632,342.863C475.655,342.863 475.677,342.863 475.699,342.862C475.719,342.862 475.739,342.86 475.758,342.859L482.962,343.985C482.993,343.992 483.024,343.998 483.055,344.004C483.079,344.008 483.102,344.013 483.126,344.017L483.149,344.021C483.101,344.092 483.053,344.164 483.005,344.235C482.852,344.459 482.697,344.682 482.54,344.904C482.199,345.383 481.847,345.855 481.484,346.318C481.057,346.863 480.614,347.396 480.154,347.914C479.842,348.266 479.522,348.611 479.194,348.949C478.036,350.143 476.778,351.245 475.412,352.197C474.74,352.665 474.043,353.097 473.321,353.483C472.882,353.717 472.434,353.935 471.978,354.134C471.546,354.323 471.106,354.495 470.661,354.648C470.074,354.85 469.477,355.02 468.872,355.156C468.508,355.237 468.141,355.306 467.772,355.363C467.441,355.414 467.109,355.455 466.776,355.484C466.537,355.506 466.297,355.522 466.058,355.533C465.914,355.54 465.77,355.544 465.626,355.548C465.524,355.55 465.422,355.551 465.321,355.553C465.089,355.555 464.858,355.558 464.626,355.56C464.317,355.564 464.008,355.569 463.699,355.573C463.374,355.578 463.049,355.583 462.724,355.59C462.656,355.591 462.588,355.593 462.52,355.595C462.491,355.595 462.461,355.596 462.432,355.598C462.359,355.601 462.285,355.605 462.211,355.614C462.196,355.615 462.18,355.617 462.165,355.619C462.116,355.626 462.116,355.626 462.067,355.636C462.037,355.641 462.006,355.647 461.975,355.653C461.959,355.657 461.959,355.657 461.943,355.66C461.897,355.671 461.851,355.685 461.806,355.699C461.767,355.711 461.728,355.724 461.69,355.739C461.649,355.756 461.608,355.774 461.568,355.793C460.837,355.794 460.105,355.796 459.374,355.797C456.815,355.802 454.255,355.805 451.696,355.806C449.136,355.807 446.577,355.805 444.017,355.803C443.997,355.791 443.997,355.791 443.976,355.78C443.919,355.751 443.862,355.724 443.803,355.701C443.766,355.686 443.728,355.673 443.69,355.659L443.668,355.651L443.563,355.616C443.389,355.558 443.215,355.499 443.042,355.438C442.702,355.319 442.365,355.194 442.03,355.061C441.608,354.893 441.19,354.714 440.777,354.522C440.009,354.164 439.26,353.761 438.546,353.303C437.817,352.834 437.123,352.308 436.489,351.716C436.222,351.466 435.966,351.204 435.722,350.932C435.624,350.822 435.529,350.711 435.435,350.598C435.326,350.465 435.22,350.33 435.117,350.193C434.859,349.847 434.62,349.487 434.404,349.114C434.149,348.671 433.925,348.21 433.736,347.735C433.422,346.948 433.2,346.126 433.061,345.29C432.879,344.196 432.837,343.081 432.891,341.973C432.905,341.681 432.928,341.39 432.956,341.1C432.977,340.883 433,340.666 433.027,340.449C433.055,340.223 433.089,339.998 433.123,339.772C433.125,339.755 433.126,339.737 433.129,339.72C433.13,339.708 433.132,339.696 433.134,339.684L433.137,339.634L433.142,339.585L433.143,339.54L433.146,339.496L433.144,339.446L433.145,339.396L433.141,339.352L433.14,339.308L433.134,339.258L433.13,339.208L433.122,339.165L433.117,339.121L433.106,339.072L433.098,339.023L433.086,338.98L433.077,338.937L433.061,338.889L433.048,338.841L433.033,338.799L433.019,338.757L433,338.711L432.983,338.664L432.963,338.624L432.946,338.583L432.922,338.539L432.901,338.494L432.878,338.456L432.857,338.417L432.829,338.376L432.804,338.333L432.777,338.297L432.753,338.26L432.721,338.221L432.692,338.181L432.662,338.148L432.635,338.113L432.6,338.077L432.567,338.04L432.534,338.01L432.503,337.978L432.466,337.945L432.429,337.911L432.394,337.884L432.36,337.855L432.32,337.826L432.28,337.796L432.243,337.772L432.207,337.746L432.163,337.721L432.121,337.694L432.082,337.674L432.043,337.652L431.998,337.631L431.953,337.608L431.912,337.592L431.872,337.573L431.825,337.557L431.779,337.538L431.736,337.525L431.694,337.51L431.646,337.498L431.598,337.484L431.554,337.475L431.511,337.464L431.462,337.457L431.413,337.447L431.369,337.442L431.325,337.436L431.275,337.432L431.226,337.427L431.181,337.427L431.137,337.424L431.087,337.425L431.037,337.425L430.993,337.428L430.949,337.43L430.899,337.436L430.849,337.44L430.806,337.447L430.762,337.453L430.713,337.463L430.664,337.472L430.621,337.484L430.577,337.493L430.53,337.508L430.482,337.521L430.44,337.537L430.398,337.55L430.352,337.57L430.305,337.587L430.265,337.606L430.224,337.624L430.18,337.647L430.135,337.669L430.097,337.692L430.058,337.713L430.017,337.74L429.974,337.766L429.938,337.792L429.901,337.817L429.862,337.848L429.822,337.878L429.789,337.907C429.775,337.918 429.762,337.929 429.749,337.94C429.71,337.973 429.672,338.008 429.633,338.041C429.052,338.545 428.465,339.041 427.874,339.532C427.232,340.064 426.586,340.59 425.935,341.11C425.244,341.663 424.548,342.209 423.846,342.749C423.025,343.38 422.197,344.003 421.362,344.615C419.713,345.826 418.036,346.998 416.325,348.12C414.793,349.124 413.235,350.089 411.641,350.991C410.423,351.681 409.184,352.335 407.918,352.935C407.035,353.353 406.139,353.745 405.228,354.098C404.354,354.436 403.466,354.738 402.562,354.983C402.039,355.124 401.511,355.247 400.977,355.342C400.809,355.372 400.64,355.4 400.471,355.424C400.386,355.436 400.301,355.448 400.217,355.459C400.133,355.469 400.049,355.479 399.965,355.488L399.929,355.491C399.607,355.492 399.286,355.493 398.964,355.494C398.723,355.495 398.481,355.496 398.24,355.498L397.999,355.499L397.971,355.5C397.851,355.481 397.732,355.456 397.616,355.421C397.552,355.402 397.489,355.38 397.428,355.352C397.385,355.332 397.343,355.31 397.305,355.283C397.293,355.275 397.282,355.267 397.271,355.258C397.266,355.252 397.259,355.246 397.255,355.24C397.251,355.234 397.248,355.227 397.246,355.22C397.241,355.206 397.238,355.191 397.235,355.177C397.226,355.131 397.224,355.084 397.224,355.038C397.223,354.937 397.235,354.837 397.254,354.739C397.27,354.651 397.291,354.564 397.316,354.478C397.352,354.349 397.397,354.222 397.446,354.098C397.536,353.873 397.641,353.654 397.757,353.442C397.834,353.302 397.915,353.163 398,353.027C398.139,352.803 398.287,352.585 398.443,352.371C398.601,352.154 398.767,351.942 398.938,351.734C399.157,351.468 399.385,351.211 399.619,350.958C399.941,350.614 400.262,350.27 400.584,349.926C402.516,347.865 404.451,345.806 406.389,343.75C409.296,340.666 412.21,337.588 415.124,334.511C415.178,334.455 415.232,334.399 415.286,334.343C415.423,334.205 415.56,334.067 415.7,333.932C415.838,333.798 415.978,333.666 416.12,333.536C422.413,334.52 428.707,335.504 435.001,336.487ZM487.464,344.918C488.029,346.486 488.645,348.035 489.284,349.574C489.838,350.909 490.41,352.236 490.996,353.558C491.068,353.721 491.141,353.884 491.214,354.048C491.287,354.211 491.359,354.374 491.433,354.538C491.586,354.879 491.741,355.221 491.895,355.562C490.642,355.566 489.388,355.571 488.134,355.575C485.271,355.584 482.407,355.593 479.544,355.601L478.601,355.604L477.658,355.606C477.724,355.56 477.791,355.513 477.857,355.466C478.073,355.314 478.287,355.159 478.498,355C478.789,354.783 479.076,354.56 479.358,354.331C480.608,353.317 481.772,352.2 482.857,351.012C483.884,349.887 484.839,348.698 485.728,347.461C486.048,347.017 486.36,346.566 486.662,346.109C486.929,345.707 487.188,345.3 487.443,344.89L487.449,344.878C487.454,344.892 487.459,344.905 487.464,344.918ZM508.372,347.958C508.417,347.968 508.463,347.977 508.509,347.987C508.555,347.996 508.6,348.005 508.646,348.014C508.793,348.042 508.941,348.068 509.089,348.089C509.257,348.113 509.424,348.132 509.593,348.149L515.017,348.997C514.877,349.127 514.737,349.255 514.595,349.382C514.187,349.745 513.766,350.095 513.336,350.431C512.667,350.955 511.974,351.448 511.262,351.91C510.553,352.371 509.823,352.802 509.076,353.2C508.389,353.567 507.686,353.907 506.969,354.212C506.088,354.587 505.185,354.912 504.26,355.158C503.935,355.244 503.608,355.319 503.278,355.381C502.967,355.439 502.654,355.486 502.339,355.515C502.136,355.534 501.932,355.545 501.728,355.549C500.619,355.56 499.51,355.571 498.401,355.581C497.735,355.587 497.07,355.593 496.404,355.599C496.32,355.418 496.236,355.236 496.152,355.055C495.472,353.581 494.807,352.099 494.16,350.611C493.425,348.922 492.714,347.223 492.045,345.507L492.002,345.399C497.459,346.252 502.915,347.105 508.372,347.958ZM428.823,344.062C428.834,344.234 428.846,344.406 428.861,344.578C428.894,344.947 428.936,345.314 428.991,345.68C429.091,346.354 429.232,347.022 429.416,347.679C429.636,348.466 429.916,349.237 430.26,349.978C430.726,350.986 431.307,351.94 431.986,352.818C432.462,353.433 432.985,354.012 433.546,354.55C433.765,354.759 433.989,354.963 434.218,355.16C434.295,355.226 434.373,355.292 434.451,355.358C434.521,355.416 434.592,355.473 434.662,355.53C431.988,355.524 429.315,355.519 426.641,355.514C424.036,355.509 421.431,355.504 418.826,355.5C416.524,355.496 414.223,355.494 411.921,355.491L412.032,355.432C412.09,355.401 412.149,355.37 412.207,355.339C412.28,355.3 412.353,355.261 412.425,355.221C412.571,355.142 412.716,355.063 412.862,354.983C413.458,354.655 414.05,354.32 414.637,353.976C415.554,353.439 416.46,352.882 417.357,352.312C418.295,351.715 419.223,351.103 420.142,350.478C421.759,349.378 423.348,348.237 424.912,347.063C425.797,346.4 426.674,345.727 427.543,345.044C427.953,344.721 428.362,344.396 428.769,344.069L428.821,344.028C428.822,344.039 428.822,344.05 428.823,344.062ZM433.514,337.406L433.524,337.419L433.535,337.432L433.6,337.513L433.632,337.553L433.693,337.637L433.702,337.651L433.712,337.665L433.77,337.751L433.783,337.773L433.797,337.794L433.851,337.884L433.859,337.899L433.867,337.913L433.917,338.004L433.928,338.027L433.94,338.05L433.985,338.144L433.991,338.159L433.999,338.174L434.039,338.27L434.048,338.294L434.058,338.317L434.094,338.415L434.099,338.431L434.105,338.447L434.137,338.546L434.144,338.571L434.151,338.595L434.178,338.696L434.186,338.728L434.209,338.83L434.213,338.855L434.219,338.88L434.236,338.982L434.238,338.999L434.241,339.015L434.254,339.119L434.256,339.144L434.259,339.169L434.267,339.273L434.269,339.307L434.273,339.411L434.272,339.436L434.273,339.461L434.271,339.566L434.27,339.583L434.27,339.599L434.264,339.703L434.261,339.728L434.26,339.754L434.249,339.856L434.246,339.874L434.241,339.917C434.23,339.989 434.22,340.062 434.209,340.135C434.199,340.198 434.19,340.261 434.181,340.324C434.172,340.391 434.163,340.458 434.154,340.524L434.146,340.589C434.093,341.026 434.049,341.465 434.024,341.905C434.014,342.085 434.007,342.265 434.002,342.446C433.981,343.28 434.022,344.116 434.148,344.942C434.28,345.814 434.51,346.674 434.853,347.488C435.054,347.963 435.293,348.422 435.567,348.859C435.728,349.115 435.902,349.363 436.086,349.603C436.188,349.736 436.292,349.866 436.4,349.993C436.497,350.107 436.596,350.219 436.698,350.328C436.861,350.505 437.031,350.676 437.205,350.841C437.502,351.122 437.814,351.387 438.138,351.637C438.722,352.089 439.344,352.492 439.989,352.853C440.206,352.975 440.426,353.092 440.649,353.205C440.915,353.341 441.186,353.47 441.458,353.593C441.844,353.768 442.235,353.932 442.63,354.085C443.096,354.265 443.567,354.431 444.041,354.586C444.087,354.603 444.133,354.62 444.178,354.637C444.211,354.649 444.243,354.662 444.275,354.675C444.92,354.676 445.566,354.676 446.212,354.677C448.405,354.678 450.599,354.679 452.792,354.677C455.351,354.676 457.91,354.672 460.469,354.667L461.342,354.666C461.362,354.658 461.362,354.658 461.383,354.651C461.41,354.642 461.41,354.642 461.437,354.633C461.499,354.613 461.562,354.593 461.626,354.577C461.666,354.567 461.706,354.557 461.746,354.549C461.783,354.541 461.821,354.534 461.858,354.527C461.934,354.513 461.934,354.512 462.016,354.501C462.039,354.497 462.062,354.495 462.086,354.493C462.27,354.472 462.456,354.468 462.641,354.464C462.864,354.459 463.087,354.455 463.31,354.451C463.682,354.445 464.054,354.44 464.426,354.435C464.753,354.431 465.08,354.428 465.407,354.424C465.472,354.423 465.537,354.422 465.602,354.42C465.736,354.417 465.871,354.413 466.005,354.407C466.246,354.395 466.486,354.379 466.726,354.356C467.365,354.296 468,354.196 468.626,354.055C469.16,353.936 469.688,353.787 470.207,353.612C470.596,353.48 470.98,353.333 471.358,353.173C471.883,352.95 472.398,352.701 472.899,352.429C473.543,352.08 474.166,351.691 474.767,351.271C475.85,350.517 476.862,349.663 477.807,348.743C478.089,348.468 478.366,348.187 478.637,347.901C479.041,347.474 479.433,347.035 479.812,346.586C480.144,346.194 480.466,345.794 480.779,345.387C480.916,345.21 481.05,345.032 481.183,344.853L481.186,344.849L475.705,343.992C475.741,343.99 475.778,343.988 475.815,343.986C475.821,343.985 475.803,343.986 475.797,343.987C475.768,343.988 475.768,343.988 475.739,343.99L475.714,343.99C475.62,343.992 475.526,343.99 475.432,343.984C475.351,343.979 475.27,343.97 475.19,343.961C475.079,343.948 474.969,343.933 474.859,343.917C474.533,343.872 474.208,343.822 473.882,343.772C472.843,343.613 471.804,343.448 470.766,343.282C467.703,342.793 464.641,342.295 461.58,341.794L460.925,341.687L460.273,341.58L458.847,341.357C458.885,341.354 458.923,341.351 458.962,341.348C458.969,341.348 458.946,341.35 458.939,341.35C458.914,341.352 458.914,341.352 458.889,341.353C458.816,341.357 458.743,341.357 458.669,341.354C458.509,341.349 458.35,341.332 458.191,341.312C458.017,341.29 457.844,341.265 457.67,341.24C457.155,341.166 456.64,341.086 456.125,341.007C454.486,340.755 452.848,340.496 451.21,340.235C445.746,339.367 440.285,338.485 434.824,337.601L433.503,337.395C433.507,337.399 433.51,337.403 433.514,337.406ZM487.151,347.399C486.917,347.737 486.68,348.073 486.437,348.406C485.984,349.024 485.516,349.63 485.03,350.222C484.118,351.334 483.146,352.398 482.11,353.397C481.871,353.628 481.627,353.856 481.381,354.08C481.246,354.202 481.11,354.323 480.973,354.443L480.943,354.469C483.339,354.462 485.734,354.455 488.13,354.447L489.596,354.442L490.154,354.44L490.074,354.261L489.965,354.014C489.849,353.752 489.733,353.49 489.618,353.227C489.167,352.197 488.723,351.163 488.291,350.125C488.007,349.441 487.727,348.755 487.453,348.067C487.37,347.855 487.286,347.644 487.204,347.432L487.177,347.362C487.168,347.375 487.16,347.387 487.151,347.399ZM493.828,346.93C494.018,347.393 494.21,347.856 494.404,348.317C494.77,349.185 495.143,350.049 495.522,350.91C496.042,352.094 496.573,353.272 497.114,354.447L497.122,354.465C498.652,354.451 500.182,354.436 501.712,354.421C501.744,354.421 501.776,354.42 501.808,354.419C501.973,354.413 502.138,354.402 502.302,354.386C502.547,354.361 502.79,354.324 503.032,354.28C503.297,354.231 503.559,354.173 503.82,354.107C504.087,354.039 504.352,353.964 504.615,353.882C505.06,353.744 505.5,353.588 505.934,353.418C506.905,353.036 507.849,352.586 508.766,352.087C509.802,351.522 510.803,350.892 511.761,350.203C511.96,350.061 512.156,349.915 512.351,349.767L512.401,349.729L509.45,349.268C509.401,349.263 509.351,349.258 509.302,349.252C509.146,349.235 508.99,349.215 508.835,349.192C508.611,349.157 508.388,349.115 508.167,349.067L508.164,349.067L493.783,346.818C493.798,346.856 493.813,346.893 493.828,346.93ZM427.901,346.196C425.749,347.875 423.555,349.5 421.306,351.048C419.651,352.187 417.968,353.285 416.25,354.327L416.182,354.368C417.064,354.37 417.946,354.371 418.827,354.372C420.781,354.375 422.735,354.379 424.689,354.382C426.643,354.386 428.597,354.39 430.551,354.394L431.832,354.396C431.804,354.365 431.776,354.334 431.749,354.302C431.716,354.265 431.684,354.228 431.652,354.191C431.541,354.061 431.43,353.93 431.322,353.797C431.13,353.559 430.944,353.316 430.765,353.068C430.221,352.312 429.742,351.507 429.338,350.668C428.914,349.787 428.573,348.868 428.314,347.926C428.206,347.534 428.112,347.137 428.031,346.738C427.994,346.551 427.959,346.363 427.928,346.175C427.919,346.182 427.91,346.189 427.901,346.196ZM416.485,334.742C416.312,334.909 416.143,335.08 415.975,335.253L415.939,335.29C412.865,338.536 409.792,341.784 406.726,345.038C404.628,347.263 402.535,349.492 400.445,351.725C400.401,351.773 400.358,351.82 400.314,351.868C400.199,351.996 400.084,352.124 399.973,352.255C399.675,352.604 399.392,352.966 399.136,353.347C399.042,353.486 398.953,353.627 398.867,353.772C398.792,353.899 398.719,354.029 398.653,354.162C398.619,354.23 398.587,354.298 398.556,354.368L398.555,354.368C398.851,354.367 399.147,354.366 399.443,354.365L399.868,354.364C400.16,354.332 400.451,354.29 400.739,354.239C401.214,354.155 401.684,354.049 402.149,353.926C403.056,353.686 403.946,353.384 404.821,353.046C405.706,352.703 406.577,352.322 407.436,351.915C408.713,351.31 409.963,350.648 411.192,349.949C412.728,349.076 414.23,348.145 415.706,347.177C417.465,346.024 419.188,344.816 420.881,343.569C422.387,342.46 423.868,341.32 425.328,340.152C425.908,339.687 426.485,339.218 427.058,338.743C427.675,338.233 428.288,337.716 428.892,337.191C428.926,337.162 428.959,337.133 428.992,337.104C429.016,337.083 429.041,337.062 429.065,337.042L429.059,337.047L429.073,337.035L429.154,336.969L429.174,336.954L429.194,336.938L429.278,336.877L429.292,336.867L429.306,336.857L429.392,336.8L429.414,336.787L429.435,336.773L429.453,336.762L416.491,334.735C416.489,334.737 416.487,334.74 416.485,334.742ZM491.726,327.074C491.746,327.078 491.766,327.082 491.786,327.086C491.848,327.096 491.911,327.103 491.973,327.112L492.152,327.12C495.871,327.131 499.59,327.141 503.309,327.151C507.93,327.162 512.552,327.173 517.173,327.18C520.377,327.186 523.581,327.19 526.784,327.19C528.069,327.19 529.354,327.189 530.639,327.186C531.436,327.184 532.233,327.182 533.029,327.175L533.053,327.175C533.15,327.192 533.246,327.213 533.341,327.239C533.419,327.262 533.497,327.288 533.571,327.323C533.591,327.332 533.611,327.343 533.631,327.354C533.651,327.365 533.67,327.377 533.689,327.39C533.705,327.403 533.724,327.415 533.734,327.433C533.747,327.454 533.75,327.478 533.754,327.501C533.763,327.556 533.765,327.61 533.764,327.665C533.762,327.695 533.761,327.725 533.759,327.755C533.757,327.775 533.754,327.796 533.752,327.816C533.749,327.835 533.747,327.855 533.744,327.874C533.742,327.885 533.742,327.885 533.74,327.897C533.731,327.946 533.722,327.995 533.711,328.043C533.699,328.093 533.686,328.141 533.672,328.19C533.643,328.293 533.609,328.394 533.572,328.494C533.536,328.588 533.497,328.68 533.457,328.771C533.424,328.844 533.39,328.917 533.355,328.989C533.285,329.129 533.21,329.267 533.132,329.402C532.948,329.722 532.742,330.028 532.524,330.325C532.321,330.603 532.107,330.873 531.884,331.135C531.703,331.347 531.515,331.554 531.325,331.758C531.044,332.06 530.76,332.359 530.477,332.659C530.21,332.942 529.943,333.225 529.676,333.509C528.609,334.642 527.541,335.775 526.474,336.908C525.139,338.325 523.805,339.741 522.471,341.157C521.67,342.007 520.869,342.857 520.068,343.706C519.534,344.272 519,344.839 518.465,345.405L512.077,344.406C512.058,344.394 512.038,344.383 512.018,344.372C512.011,344.369 512.004,344.365 511.997,344.361C511.972,344.347 511.946,344.334 511.92,344.32C511.882,344.301 511.844,344.283 511.805,344.266C511.725,344.232 511.643,344.203 511.56,344.177C511.426,344.136 511.289,344.103 511.152,344.072C511.036,344.046 510.918,344.022 510.8,343.999C510.642,343.968 510.484,343.938 510.325,343.909C510.009,343.852 509.693,343.797 509.377,343.744C508.871,343.658 508.366,343.576 507.86,343.495L507.816,343.475C507.739,343.438 507.662,343.401 507.585,343.362C507.419,343.277 507.256,343.186 507.095,343.09C506.664,342.833 506.255,342.541 505.865,342.226C505.501,341.931 505.154,341.616 504.821,341.286C504.542,341.009 504.272,340.723 504.012,340.427C503.852,340.245 503.695,340.06 503.542,339.872C503.308,339.585 503.08,339.294 502.86,338.997C502.574,338.61 502.3,338.214 502.036,337.813C501.651,337.227 501.287,336.627 500.941,336.017C500.514,335.26 500.114,334.487 499.744,333.7C499.621,333.438 499.501,333.174 499.385,332.908C499.32,332.76 499.256,332.612 499.194,332.463C499.158,332.377 499.123,332.291 499.089,332.205C499.07,332.159 499.052,332.113 499.034,332.067C499.024,332.042 499.014,332.018 499.003,331.994C498.932,331.832 498.839,331.679 498.728,331.54C498.488,331.243 498.165,331.015 497.804,330.89C497.673,330.844 497.537,330.812 497.399,330.794C497.344,330.787 497.289,330.784 497.234,330.78L497.216,330.779C497.167,330.779 497.118,330.778 497.069,330.778C497.063,330.778 497.057,330.779 497.051,330.779C497.045,330.78 497.039,330.78 497.033,330.781C497.008,330.782 496.984,330.783 496.96,330.785C496.941,330.787 496.941,330.787 496.923,330.788C496.783,330.804 496.645,330.832 496.511,330.875C496.203,330.975 495.919,331.148 495.691,331.378C495.609,331.46 495.534,331.549 495.467,331.644C495.439,331.684 495.413,331.726 495.387,331.768L495.378,331.783C495.354,331.826 495.331,331.869 495.308,331.912C495.293,331.941 495.279,331.97 495.265,331.999C495.243,332.042 495.221,332.085 495.2,332.128C495.163,332.2 495.126,332.272 495.089,332.344C494.914,332.681 494.732,333.014 494.541,333.342C494.416,333.556 494.288,333.769 494.155,333.978C494.045,334.153 493.932,334.326 493.817,334.498C493.645,334.752 493.468,335.002 493.284,335.247C492.667,336.068 491.976,336.836 491.202,337.512C490.997,337.691 490.786,337.863 490.569,338.028C490.352,338.193 490.13,338.35 489.902,338.499L489.875,338.516L489.849,338.533C489.839,338.515 489.829,338.496 489.819,338.477C489.812,338.464 489.805,338.45 489.797,338.436C489.793,338.43 489.789,338.423 489.785,338.417C489.771,338.394 489.756,338.372 489.742,338.35C489.734,338.337 489.726,338.324 489.717,338.311C489.696,338.279 489.672,338.25 489.649,338.219C489.64,338.207 489.631,338.195 489.622,338.182C489.598,338.152 489.572,338.125 489.547,338.097C489.536,338.085 489.526,338.073 489.516,338.062C489.491,338.034 489.462,338.009 489.435,337.982C489.424,337.971 489.413,337.961 489.402,337.95C489.374,337.924 489.343,337.901 489.314,337.877C489.302,337.867 489.29,337.857 489.279,337.847C489.249,337.823 489.217,337.803 489.185,337.781C489.173,337.772 489.161,337.763 489.148,337.755C489.116,337.733 489.083,337.715 489.05,337.696C489.037,337.688 489.024,337.68 489.01,337.672C489.002,337.668 488.994,337.663 488.985,337.659C488.941,337.636 488.896,337.615 488.851,337.594C488.822,337.581 488.791,337.571 488.761,337.559C488.747,337.553 488.732,337.547 488.718,337.542C488.682,337.528 488.645,337.519 488.609,337.508C488.594,337.503 488.58,337.498 488.565,337.494C488.556,337.491 488.547,337.489 488.537,337.486C488.513,337.481 488.489,337.476 488.465,337.471C488.44,337.466 488.416,337.46 488.392,337.455C488.358,337.449 488.324,337.446 488.29,337.441C488.271,337.438 488.252,337.435 488.233,337.433C488.2,337.43 488.166,337.429 488.133,337.427C488.12,337.426 488.108,337.425 488.096,337.425C488.087,337.424 488.077,337.424 488.067,337.424C488.058,337.424 488.048,337.423 488.038,337.424C488.021,337.424 488.004,337.425 487.987,337.426C487.97,337.426 487.953,337.426 487.936,337.426C487.926,337.426 487.917,337.427 487.907,337.428C487.898,337.428 487.888,337.429 487.878,337.43C487.861,337.431 487.844,337.434 487.828,337.436C487.809,337.437 487.79,337.439 487.771,337.441C487.733,337.445 487.696,337.453 487.658,337.46C487.643,337.462 487.628,337.465 487.613,337.468C487.575,337.475 487.539,337.486 487.502,337.496C487.487,337.499 487.472,337.503 487.457,337.507C487.421,337.517 487.385,337.531 487.349,337.543C487.335,337.548 487.32,337.553 487.306,337.558C487.27,337.571 487.236,337.588 487.201,337.603C487.186,337.609 487.172,337.615 487.158,337.621C487.149,337.625 487.141,337.629 487.132,337.633C487.088,337.656 487.045,337.68 487.001,337.704C486.972,337.721 486.944,337.741 486.915,337.76C486.898,337.77 486.882,337.78 486.866,337.79C486.838,337.81 486.812,337.832 486.784,337.853C486.769,337.864 486.754,337.875 486.739,337.887C486.712,337.909 486.687,337.933 486.662,337.956C486.647,337.968 486.633,337.981 486.619,337.994C486.594,338.017 486.571,338.043 486.548,338.068C486.534,338.082 486.521,338.095 486.508,338.109C486.485,338.135 486.464,338.162 486.443,338.189C486.43,338.204 486.418,338.218 486.406,338.233C486.387,338.259 486.369,338.286 486.351,338.313C486.342,338.325 486.333,338.338 486.324,338.35C486.319,338.358 486.314,338.366 486.308,338.374C486.293,338.4 486.279,338.426 486.264,338.452C486.258,338.462 486.251,338.472 486.245,338.483C486.24,338.491 486.236,338.5 486.231,338.508C486.227,338.517 486.222,338.525 486.218,338.534C486.211,338.549 486.204,338.565 486.196,338.58C486.189,338.596 486.181,338.611 486.173,338.626C486.169,338.635 486.166,338.644 486.162,338.653C486.157,338.665 486.151,338.678 486.145,338.69C486.13,338.726 486.114,338.761 486.099,338.797C486.086,338.826 486.073,338.854 486.06,338.883C485.881,339.276 485.689,339.665 485.492,340.05C485.456,340.053 485.419,340.055 485.383,340.058C485.2,340.07 485.017,340.076 484.833,340.076C484.662,340.075 484.492,340.068 484.321,340.056L483.639,339.96L475.072,338.621C475.044,338.616 475.044,338.616 475.016,338.61C474.899,338.585 474.782,338.557 474.668,338.522C474.425,338.449 474.188,338.35 473.97,338.219C473.851,338.148 473.737,338.067 473.63,337.977C473.565,337.923 473.502,337.865 473.442,337.804C473.377,337.738 473.315,337.668 473.256,337.596C472.931,337.198 472.712,336.724 472.557,336.237C472.519,336.119 472.486,335.999 472.455,335.879C472.421,335.741 472.39,335.603 472.364,335.464C472.329,335.282 472.302,335.098 472.28,334.914C472.25,334.659 472.231,334.402 472.223,334.145C472.217,333.966 472.216,333.787 472.22,333.608C472.223,333.508 472.226,333.409 472.232,333.309C472.235,333.258 472.239,333.206 472.243,333.154C472.245,333.133 472.248,333.112 472.25,333.091C472.25,333.088 472.25,333.084 472.251,333.081C472.251,333.077 472.251,333.074 472.251,333.07C472.251,333.07 472.251,333.069 472.251,333.07C472.25,333.075 472.25,333.08 472.249,333.085C472.253,333.045 472.258,333.005 472.262,332.965C472.267,332.896 472.268,332.826 472.266,332.757C472.259,332.53 472.214,332.305 472.134,332.093C472.055,331.889 471.944,331.696 471.806,331.527C471.645,331.33 471.448,331.164 471.226,331.039C470.989,330.906 470.726,330.821 470.455,330.79C470.414,330.785 470.372,330.783 470.331,330.78L470.298,330.778C470.261,330.778 470.225,330.777 470.188,330.777C470.177,330.777 470.166,330.778 470.155,330.779C470.122,330.78 470.088,330.781 470.055,330.784C470.02,330.787 469.984,330.791 469.949,330.796C469.84,330.811 469.731,330.835 469.626,330.867C469.192,331.001 468.808,331.282 468.549,331.655C468.464,331.778 468.392,331.91 468.336,332.049C468.322,332.083 468.309,332.118 468.297,332.153L468.286,332.185C468.264,332.252 468.242,332.319 468.221,332.386C468.207,332.425 468.194,332.464 468.181,332.504C468.028,332.951 467.857,333.394 467.645,333.817C467.509,334.088 467.356,334.352 467.179,334.599C466.995,334.856 466.785,335.095 466.546,335.303C466.444,335.393 466.336,335.477 466.225,335.555C465.792,335.857 465.298,336.063 464.791,336.202C464.704,336.225 464.617,336.247 464.529,336.267C464.429,336.29 464.328,336.311 464.227,336.33C464.11,336.351 463.994,336.37 463.876,336.386C463.72,336.408 463.564,336.425 463.407,336.439C463.204,336.457 463.001,336.469 462.797,336.475C462.533,336.484 462.268,336.484 462.003,336.477C461.764,336.471 461.526,336.46 461.287,336.444C461.195,336.437 461.103,336.43 461.01,336.423L457.806,335.922C457.502,335.866 457.201,335.796 456.905,335.708C456.61,335.619 456.321,335.512 456.043,335.38C455.701,335.217 455.375,335.02 455.085,334.776C454.885,334.608 454.7,334.422 454.538,334.218C454.45,334.107 454.368,333.991 454.292,333.87C454.161,333.661 454.049,333.439 453.956,333.21C453.884,333.032 453.823,332.848 453.771,332.663C453.724,332.49 453.684,332.316 453.652,332.14C453.63,332.015 453.611,331.889 453.596,331.764C453.583,331.653 453.572,331.543 453.563,331.432C453.547,331.209 453.543,330.985 453.543,330.761C453.544,330.706 453.545,330.652 453.546,330.598C453.552,330.409 453.563,330.22 453.58,330.032C453.6,329.819 453.628,329.606 453.663,329.395C453.673,329.336 453.683,329.278 453.694,329.219C453.704,329.172 453.713,329.124 453.724,329.077C453.737,329.022 453.75,328.968 453.762,328.914C453.766,328.898 453.769,328.882 453.772,328.865C453.8,328.718 453.812,328.569 453.807,328.419C453.798,328.123 453.724,327.83 453.59,327.566C453.537,327.459 453.474,327.358 453.403,327.263C453.369,327.218 453.334,327.174 453.297,327.132L456.905,327.133C459.808,327.134 462.71,327.134 465.612,327.134C466.702,327.133 467.791,327.133 468.88,327.132C469.198,327.131 469.516,327.131 469.834,327.13C469.88,327.129 469.927,327.129 469.974,327.129C470.085,327.128 470.197,327.129 470.308,327.12C470.36,327.115 470.412,327.109 470.464,327.101C470.487,327.097 470.51,327.092 470.533,327.087C473.181,327.084 475.828,327.082 478.475,327.079C482.445,327.076 486.416,327.073 490.386,327.071L491.71,327.07C491.715,327.072 491.721,327.073 491.726,327.074ZM511.988,344.356C511.991,344.357 511.993,344.359 511.995,344.36C511.998,344.362 512.001,344.363 512.005,344.365C512.005,344.365 512.006,344.366 512.006,344.365L512.005,344.365L512.004,344.365C512.012,344.368 512.019,344.373 512.026,344.377L512.03,344.378C512.025,344.375 512.02,344.373 512.016,344.37C512.008,344.366 512.002,344.362 511.994,344.358C511.992,344.357 511.992,344.357 511.989,344.356L511.988,344.356ZM491.585,328.198C489.862,328.199 488.139,328.2 486.417,328.201C484.652,328.202 482.887,328.203 481.123,328.205C478.476,328.207 475.829,328.21 473.182,328.212L470.652,328.215L470.741,328.196C470.707,328.203 470.707,328.203 470.674,328.209C470.568,328.227 470.461,328.24 470.354,328.247C470.279,328.252 470.203,328.254 470.128,328.256C470.031,328.256 469.935,328.257 469.838,328.257L469.557,328.258C468.882,328.259 468.207,328.26 467.532,328.261C466.892,328.261 466.252,328.261 465.613,328.261C463.539,328.262 461.466,328.262 459.393,328.261C457.905,328.261 456.416,328.261 454.928,328.26C454.93,328.283 454.931,328.306 454.932,328.33C454.935,328.392 454.937,328.455 454.936,328.517C454.934,328.669 454.922,328.821 454.898,328.972C454.888,329.04 454.874,329.109 454.859,329.177C454.847,329.231 454.834,329.284 454.822,329.338C454.818,329.356 454.814,329.373 454.81,329.391C454.796,329.463 454.783,329.536 454.771,329.608C454.712,329.965 454.681,330.326 454.672,330.687L454.672,330.716C454.671,330.734 454.671,330.753 454.671,330.771C454.67,330.825 454.671,330.878 454.672,330.932C454.673,331.026 454.675,331.12 454.68,331.214C454.687,331.361 454.701,331.507 454.719,331.653C454.73,331.742 454.743,331.83 454.758,331.918C454.784,332.067 454.818,332.215 454.858,332.361C454.904,332.525 454.958,332.686 455.025,332.842C455.088,332.99 455.162,333.134 455.247,333.271C455.301,333.356 455.359,333.438 455.422,333.517C455.529,333.652 455.651,333.776 455.782,333.888C456.028,334.1 456.311,334.265 456.606,334.398C456.888,334.524 457.183,334.621 457.482,334.697C457.651,334.741 457.822,334.778 457.995,334.81L461.143,335.302C461.439,335.326 461.736,335.342 462.032,335.35C462.341,335.358 462.651,335.356 462.96,335.34C463.381,335.318 463.802,335.271 464.215,335.182C464.575,335.104 464.932,334.991 465.26,334.821C465.429,334.734 465.59,334.631 465.737,334.511C465.815,334.447 465.89,334.378 465.961,334.305C466.071,334.192 466.171,334.07 466.262,333.942C466.363,333.802 466.452,333.656 466.535,333.505C466.664,333.271 466.775,333.027 466.876,332.779C466.947,332.605 467.013,332.428 467.076,332.25C467.125,332.108 467.171,331.965 467.218,331.822C467.23,331.788 467.242,331.754 467.254,331.72C467.266,331.688 467.278,331.656 467.291,331.624C467.439,331.259 467.657,330.921 467.929,330.636C468.214,330.336 468.558,330.093 468.936,329.924C469.18,329.815 469.437,329.737 469.701,329.693C469.751,329.685 469.801,329.678 469.851,329.672C469.904,329.665 469.957,329.66 470.01,329.657C470.043,329.655 470.075,329.653 470.107,329.652C470.127,329.651 470.148,329.65 470.168,329.649C470.224,329.649 470.28,329.65 470.336,329.651C470.366,329.651 470.396,329.654 470.426,329.656C470.464,329.658 470.501,329.661 470.538,329.665C470.585,329.669 470.631,329.675 470.677,329.682C470.958,329.722 471.234,329.8 471.494,329.914C471.875,330.081 472.223,330.322 472.511,330.622C472.805,330.929 473.036,331.295 473.188,331.692C473.315,332.028 473.385,332.385 473.394,332.744C473.396,332.841 473.394,332.938 473.387,333.035C473.385,333.071 473.381,333.107 473.377,333.143C473.376,333.157 473.375,333.171 473.374,333.185C473.372,333.208 473.369,333.231 473.367,333.255C473.364,333.295 473.361,333.336 473.358,333.377C473.344,333.645 473.341,333.915 473.353,334.184C473.362,334.397 473.379,334.61 473.405,334.822C473.425,334.984 473.45,335.146 473.482,335.307C473.51,335.444 473.542,335.582 473.579,335.717C473.614,335.842 473.653,335.966 473.698,336.087C473.754,336.24 473.82,336.39 473.898,336.533C474.006,336.733 474.14,336.92 474.309,337.073C474.356,337.116 474.405,337.155 474.457,337.191C474.496,337.219 474.537,337.245 474.579,337.269C474.79,337.389 475.026,337.461 475.263,337.509L483.805,338.845L484.439,338.934C484.469,338.935 484.498,338.937 484.528,338.939C484.61,338.943 484.693,338.946 484.775,338.947L484.783,338.947C484.868,338.772 484.952,338.595 485.033,338.417C485.052,338.375 485.071,338.333 485.089,338.291C485.102,338.261 485.115,338.23 485.128,338.201L485.14,338.174C485.145,338.162 485.151,338.15 485.156,338.139C485.164,338.122 485.173,338.106 485.181,338.09C485.184,338.084 485.186,338.077 485.189,338.071C485.204,338.039 485.219,338.008 485.236,337.977L485.25,337.951C485.256,337.939 485.263,337.928 485.269,337.917C485.28,337.899 485.291,337.881 485.301,337.863C485.312,337.844 485.323,337.825 485.335,337.805C485.349,337.782 485.363,337.759 485.377,337.737C485.394,337.711 485.412,337.686 485.43,337.662C485.436,337.652 485.443,337.642 485.449,337.633C485.471,337.601 485.493,337.57 485.517,337.54C485.532,337.52 485.548,337.501 485.564,337.482C485.582,337.46 485.6,337.437 485.618,337.415L485.637,337.392C485.655,337.371 485.672,337.351 485.691,337.331C485.71,337.311 485.729,337.292 485.748,337.272C485.767,337.252 485.767,337.252 485.785,337.232C485.811,337.206 485.838,337.179 485.866,337.154C485.886,337.136 485.907,337.118 485.927,337.099C485.947,337.081 485.947,337.081 485.967,337.063C485.99,337.043 486.012,337.024 486.036,337.005C486.061,336.985 486.088,336.965 486.114,336.946C486.123,336.938 486.133,336.931 486.142,336.924C486.173,336.9 486.204,336.877 486.235,336.856C486.262,336.838 486.29,336.82 486.317,336.803C486.334,336.792 486.351,336.78 486.368,336.769C486.394,336.753 486.42,336.737 486.446,336.722C486.485,336.7 486.525,336.679 486.565,336.658C486.6,336.639 486.635,336.62 486.671,336.604C486.702,336.589 486.733,336.577 486.764,336.563C486.784,336.554 486.804,336.545 486.824,336.536C486.859,336.521 486.894,336.507 486.929,336.495C486.951,336.487 486.973,336.48 486.995,336.472C487.016,336.465 487.038,336.457 487.059,336.45C487.094,336.438 487.13,336.427 487.166,336.417C487.188,336.411 487.211,336.406 487.233,336.4C487.255,336.394 487.276,336.388 487.298,336.383C487.334,336.374 487.37,336.365 487.407,336.359C487.43,336.354 487.453,336.351 487.476,336.347C487.498,336.342 487.52,336.338 487.542,336.334C487.579,336.328 487.616,336.323 487.653,336.319C487.674,336.317 487.694,336.316 487.715,336.313C487.722,336.312 487.729,336.311 487.736,336.311C487.771,336.307 487.806,336.303 487.84,336.302L487.87,336.3C487.883,336.299 487.896,336.299 487.908,336.298C487.927,336.298 487.945,336.298 487.963,336.298C487.97,336.298 487.977,336.297 487.984,336.297C488.017,336.296 488.05,336.295 488.083,336.296L488.081,336.296C488.083,336.296 488.085,336.296 488.086,336.296C488.087,336.296 488.085,336.296 488.086,336.296C488.087,336.296 488.088,336.296 488.089,336.296L488.119,336.297C488.132,336.297 488.145,336.298 488.158,336.298C488.175,336.299 488.192,336.301 488.21,336.302C488.222,336.303 488.233,336.303 488.245,336.304C488.284,336.306 488.322,336.308 488.361,336.313C488.393,336.316 488.425,336.321 488.457,336.326C488.477,336.328 488.498,336.331 488.518,336.333C488.548,336.338 488.577,336.342 488.607,336.348C488.639,336.354 488.671,336.362 488.703,336.369C488.727,336.374 488.752,336.379 488.777,336.384C488.814,336.393 488.85,336.402 488.885,336.413C488.908,336.419 488.93,336.427 488.952,336.433C488.974,336.439 488.995,336.446 489.017,336.452C489.042,336.46 489.068,336.469 489.093,336.478C489.122,336.488 489.15,336.5 489.179,336.511C489.19,336.515 489.201,336.519 489.211,336.524C489.248,336.537 489.283,336.552 489.319,336.568C489.36,336.587 489.4,336.606 489.441,336.626C489.477,336.644 489.512,336.661 489.547,336.68C489.577,336.697 489.605,336.715 489.634,336.731C489.654,336.742 489.673,336.753 489.692,336.764C489.724,336.784 489.756,336.804 489.787,336.825C489.806,336.838 489.825,336.852 489.844,336.865C489.862,336.878 489.881,336.89 489.899,336.903C489.921,336.919 489.943,336.935 489.964,336.951C489.989,336.971 490.012,336.991 490.036,337.01L490.039,337.012C490.913,336.322 491.678,335.501 492.349,334.613C492.679,334.176 492.987,333.723 493.276,333.257C493.468,332.948 493.652,332.633 493.828,332.313C493.939,332.111 494.046,331.907 494.151,331.702C494.204,331.599 494.255,331.496 494.307,331.392L494.404,331.213C494.427,331.176 494.451,331.138 494.474,331.101L494.49,331.077C494.653,330.827 494.853,330.601 495.08,330.407C495.405,330.131 495.785,329.921 496.192,329.793C496.373,329.737 496.56,329.696 496.748,329.673C496.79,329.668 496.832,329.664 496.874,329.66C496.909,329.658 496.945,329.656 496.981,329.654L497.034,329.65C497.109,329.651 497.183,329.65 497.258,329.651C497.275,329.651 497.293,329.654 497.311,329.655C497.337,329.657 497.363,329.658 497.389,329.66L497.418,329.662C497.735,329.69 498.047,329.766 498.341,329.888C498.636,330.009 498.912,330.175 499.158,330.379C499.359,330.545 499.539,330.736 499.693,330.946C499.809,331.105 499.911,331.274 499.995,331.452C500.055,331.577 500.104,331.706 500.155,331.834C500.182,331.899 500.208,331.964 500.235,332.029C500.395,332.412 500.564,332.791 500.74,333.166C501.113,333.965 501.518,334.748 501.953,335.514C502.295,336.117 502.656,336.708 503.039,337.285C503.3,337.678 503.571,338.065 503.854,338.442C504.061,338.718 504.275,338.989 504.495,339.255C504.813,339.64 505.147,340.013 505.498,340.368C505.642,340.514 505.788,340.657 505.938,340.796C506.115,340.96 506.296,341.119 506.482,341.273C506.821,341.553 507.175,341.814 507.548,342.046C507.756,342.175 507.969,342.295 508.188,342.402L508.198,342.407C508.378,342.436 508.558,342.465 508.737,342.494C508.877,342.517 509.017,342.54 509.157,342.563C509.521,342.624 509.885,342.685 510.249,342.75C510.482,342.791 510.716,342.833 510.949,342.879C511.153,342.918 511.358,342.96 511.56,343.009C511.794,343.066 512.026,343.134 512.248,343.228C512.311,343.255 512.373,343.285 512.434,343.316L512.444,343.322L518.053,344.199C518.718,343.494 519.383,342.788 520.048,342.083C522.985,338.968 525.92,335.851 528.855,332.735C529.389,332.169 529.922,331.603 530.456,331.037C530.65,330.83 530.841,330.62 531.025,330.403C531.26,330.127 531.484,329.842 531.695,329.548C531.776,329.434 531.856,329.319 531.932,329.202C532.023,329.063 532.108,328.922 532.189,328.778C532.243,328.683 532.296,328.587 532.344,328.489C532.373,328.43 532.4,328.371 532.427,328.312L532.429,328.307C532.113,328.309 531.798,328.31 531.483,328.312C531.203,328.312 530.922,328.313 530.642,328.314C528.404,328.318 526.166,328.318 523.928,328.316C520.675,328.314 517.421,328.309 514.168,328.303C506.82,328.289 499.472,328.27 492.124,328.248L491.873,328.236C491.805,328.227 491.737,328.218 491.67,328.209C491.646,328.206 491.646,328.206 491.622,328.202C491.576,328.194 491.53,328.186 491.485,328.176C491.518,328.183 491.551,328.191 491.585,328.198ZM512.601,343.406L512.61,343.411L512.629,343.422L512.65,343.434L512.639,343.431L512.673,343.453L512.64,343.425L512.584,343.395C512.589,343.399 512.595,343.402 512.601,343.406ZM512.644,343.452L512.637,343.433L512.627,343.426L512.595,343.415C512.611,343.427 512.628,343.439 512.644,343.452ZM512.611,343.415C512.586,343.398 512.586,343.399 512.559,343.383L512.555,343.382L512.611,343.415ZM512.579,343.394L512.594,343.402L512.582,343.394L512.567,343.387L512.575,343.391L512.566,343.386C512.57,343.388 512.575,343.391 512.579,343.394ZM512.582,343.394L512.581,343.393L512.573,343.389C512.576,343.391 512.579,343.393 512.582,343.394ZM512.539,343.372L512.561,343.384C512.559,343.383 512.557,343.382 512.555,343.381C512.554,343.38 512.561,343.384 512.561,343.384L512.562,343.384C512.553,343.379 512.543,343.374 512.534,343.369C512.532,343.368 512.537,343.371 512.539,343.372ZM512.546,343.378L512.555,343.382L512.539,343.372L512.535,343.37C512.539,343.373 512.542,343.375 512.546,343.378ZM512.533,343.368L512.533,343.369C512.533,343.369 512.532,343.368 512.533,343.368ZM508.192,342.406L508.177,342.404C508.182,342.405 508.187,342.405 508.192,342.406ZM496.969,337.263C497.171,337.638 497.377,338.011 497.591,338.379C498.111,339.278 498.67,340.155 499.272,341.001C499.491,341.308 499.716,341.61 499.946,341.908C499.987,341.961 500.028,342.014 500.07,342.067C500.143,342.161 500.218,342.254 500.293,342.346C499.909,342.29 499.525,342.234 499.141,342.177C498.419,342.072 497.697,341.966 496.975,341.861C495.987,341.718 494.998,341.575 494.01,341.433C493.68,341.385 493.351,341.338 493.022,341.291L493.099,341.232C493.269,341.099 493.439,340.965 493.605,340.827C493.941,340.547 494.266,340.253 494.58,339.947C494.811,339.722 495.036,339.49 495.255,339.252C495.543,338.94 495.821,338.618 496.088,338.287C496.373,337.934 496.646,337.571 496.909,337.202L496.924,337.18C496.939,337.208 496.954,337.235 496.969,337.263ZM496.769,339.235C496.603,339.435 496.433,339.632 496.259,339.825C496.045,340.063 495.826,340.295 495.601,340.523C496.113,340.597 496.625,340.671 497.137,340.745L497.792,340.841C497.75,340.777 497.708,340.713 497.666,340.65C497.526,340.436 497.388,340.221 497.252,340.004C497.095,339.751 496.94,339.497 496.788,339.241L496.779,339.224C496.775,339.228 496.772,339.232 496.769,339.235ZM485.126,338.206L485.125,338.208C485.126,338.207 485.126,338.205 485.126,338.206ZM485.128,338.201L485.127,338.204C485.128,338.201 485.13,338.198 485.128,338.201ZM485.236,337.977C485.235,337.979 485.234,337.981 485.233,337.984C485.233,337.983 485.239,337.972 485.236,337.977ZM487.834,336.302L487.833,336.302C487.834,336.302 487.836,336.302 487.837,336.302C487.838,336.302 487.835,336.302 487.834,336.302ZM487.84,336.302L487.837,336.302C487.839,336.302 487.84,336.302 487.842,336.302C487.842,336.302 487.841,336.302 487.84,336.302ZM449.706,333.219C449.761,333.467 449.823,333.713 449.896,333.956C449.94,334.101 449.988,334.245 450.039,334.388L450.049,334.417C450.087,334.521 450.126,334.625 450.167,334.727L447.826,334.361C447.882,334.332 447.939,334.302 447.995,334.272C448.032,334.252 448.069,334.231 448.107,334.211C448.332,334.088 448.554,333.96 448.774,333.827C449.091,333.634 449.401,333.43 449.706,333.217L449.706,333.219ZM473.238,333.609L473.241,333.609L473.245,333.598C473.243,333.602 473.24,333.605 473.238,333.609ZM473.337,333.332L473.364,333.252L473.367,333.232L473.37,333.211C473.359,333.251 473.348,333.291 473.337,333.332ZM434.581,327.123C439.801,327.126 445.02,327.128 450.24,327.131C450.225,327.148 450.21,327.166 450.195,327.183L450.18,327.201L450.132,327.26C450.06,327.349 449.987,327.437 449.913,327.525C449.757,327.71 449.596,327.891 449.431,328.068C449.251,328.261 449.065,328.448 448.874,328.631C448.499,328.989 448.103,329.327 447.689,329.638C447.176,330.024 446.634,330.37 446.07,330.673C445.697,330.874 445.315,331.056 444.925,331.219C444.653,331.333 444.377,331.438 444.098,331.535C443.54,331.728 442.971,331.888 442.394,332.017C441.943,332.118 441.488,332.2 441.031,332.266C440.007,332.415 438.971,332.484 437.937,332.497C437.56,332.502 437.184,332.5 436.808,332.491C436.493,332.484 436.178,332.473 435.863,332.457C435.752,332.452 435.642,332.446 435.531,332.439L420.742,330.127C421.039,329.951 421.339,329.78 421.641,329.614C422.264,329.273 422.899,328.956 423.546,328.665C424.285,328.332 425.039,328.034 425.81,327.783C426.311,327.62 426.82,327.478 427.336,327.364C427.795,327.264 428.259,327.186 428.728,327.147C428.932,327.13 429.137,327.121 429.342,327.12C431.088,327.12 432.835,327.122 434.581,327.123ZM429.345,328.248C429.222,328.249 429.099,328.252 428.977,328.26C428.626,328.281 428.278,328.329 427.933,328.394C427.68,328.441 427.428,328.497 427.178,328.56C426.788,328.658 426.401,328.774 426.019,328.901C425.653,329.024 425.29,329.157 424.931,329.301C424.74,329.377 424.55,329.456 424.361,329.538L424.338,329.548L435.65,331.316C435.739,331.321 435.828,331.326 435.918,331.331C436.324,331.35 436.732,331.364 437.139,331.369C437.518,331.375 437.898,331.373 438.277,331.363C438.583,331.355 438.889,331.341 439.195,331.322C439.801,331.283 440.406,331.221 441.007,331.129C441.389,331.071 441.77,331.001 442.148,330.916C442.823,330.765 443.488,330.569 444.134,330.321C444.355,330.237 444.573,330.146 444.789,330.049C445.168,329.878 445.538,329.687 445.897,329.477C446.282,329.252 446.654,329.005 447.011,328.737C447.215,328.584 447.413,328.423 447.607,328.257C443.265,328.255 438.923,328.253 434.58,328.251C432.835,328.25 431.09,328.247 429.345,328.248ZM533.764,327.668L533.764,327.665C533.764,327.666 533.764,327.667 533.764,327.668ZM511.741,312.861C511.915,313.089 512.088,313.318 512.264,313.544C512.564,313.932 512.869,314.317 513.178,314.698C514.366,316.161 515.619,317.573 516.948,318.91C517.585,319.552 518.24,320.177 518.915,320.779C519.29,321.114 519.67,321.442 520.058,321.762C520.318,321.977 520.582,322.188 520.848,322.396C520.997,322.511 521.145,322.626 521.295,322.738C521.415,322.829 521.536,322.918 521.658,323.007C520.205,323.003 518.753,323 517.301,322.996C512.945,322.986 508.589,322.978 504.232,322.971C504.287,322.929 504.342,322.888 504.397,322.846C504.736,322.585 505.066,322.312 505.386,322.029C505.762,321.697 506.125,321.351 506.475,320.992C507.097,320.354 507.676,319.676 508.212,318.965C509.02,317.893 509.732,316.75 510.356,315.562C510.652,314.998 510.927,314.425 511.185,313.844C511.279,313.632 511.371,313.42 511.46,313.206C511.525,313.052 511.589,312.897 511.651,312.741L511.741,312.861ZM456.198,313.914C456.28,314.211 456.363,314.509 456.45,314.805C456.531,315.081 456.616,315.357 456.705,315.631C457.106,316.871 457.58,318.088 458.151,319.26C458.533,320.044 458.958,320.808 459.437,321.536C459.758,322.024 460.105,322.496 460.475,322.947L460.491,322.967C458.69,322.969 456.889,322.972 455.088,322.975C453.286,322.978 451.485,322.981 449.684,322.985C448.483,322.987 447.282,322.99 446.082,322.992C446.134,322.964 446.186,322.934 446.238,322.905C446.428,322.798 446.617,322.689 446.805,322.578C447.16,322.368 447.511,322.151 447.856,321.926C448.194,321.707 448.526,321.48 448.854,321.247C449.418,320.845 449.967,320.424 450.501,319.983C451.679,319.011 452.781,317.946 453.8,316.808C454.303,316.246 454.785,315.667 455.249,315.072C455.439,314.828 455.625,314.582 455.809,314.333C455.933,314.165 456.055,313.997 456.176,313.827C456.183,313.856 456.191,313.885 456.198,313.914ZM511.917,314.956C511.834,315.132 511.75,315.307 511.663,315.481C511.518,315.774 511.368,316.065 511.213,316.352C510.782,317.152 510.312,317.931 509.802,318.682C509.555,319.044 509.3,319.4 509.034,319.748C508.677,320.216 508.302,320.67 507.909,321.109C507.705,321.336 507.496,321.559 507.283,321.779L507.237,321.825L507.215,321.848C508.4,321.85 509.584,321.852 510.769,321.854C513.328,321.859 515.887,321.865 518.447,321.871C518.391,321.822 518.335,321.773 518.279,321.723C517.952,321.432 517.628,321.137 517.309,320.836C516.614,320.183 515.941,319.508 515.285,318.816C514.443,317.927 513.632,317.01 512.848,316.071C512.536,315.697 512.229,315.319 511.925,314.939C511.922,314.944 511.92,314.95 511.917,314.956ZM455.718,316.294C455.329,316.774 454.927,317.244 454.513,317.702C453.719,318.578 452.877,319.411 451.991,320.194C451.563,320.572 451.124,320.938 450.676,321.291C450.443,321.474 450.208,321.653 449.97,321.83L449.934,321.857C451.651,321.853 453.368,321.85 455.086,321.847L456.887,321.844L458.293,321.842C458.259,321.788 458.225,321.733 458.191,321.679C458.039,321.431 457.892,321.181 457.75,320.927C457.452,320.396 457.177,319.852 456.921,319.299C456.606,318.619 456.321,317.925 456.062,317.222C455.948,316.913 455.839,316.602 455.734,316.29L455.731,316.278C455.726,316.284 455.722,316.289 455.718,316.294Z" style="fill:rgb(252,252,252);fill-rule:nonzero;"/>
                </g>
                <g transform="matrix(1,0,0,1,917.063,0)">
                    <path d="M1742.2,412.872L1765.97,229.046C1766.01,228.809 1766.05,228.572 1766.1,228.336C1766.21,227.862 1766.37,227.407 1766.57,226.969C1767.39,225.205 1768.92,223.826 1770.76,223.199C1771.22,223.045 1771.69,222.939 1772.17,222.874C1772.4,222.844 1772.65,222.838 1772.89,222.82C1772.95,222.822 1773.01,222.824 1773.07,222.826L1773.43,222.839C1773.49,222.841 1773.55,222.842 1773.61,222.844C1773.85,222.874 1774.09,222.891 1774.33,222.933C1775.04,223.063 1775.74,223.3 1776.38,223.637C1777.45,224.199 1778.36,225.034 1779.03,226.045C1779.56,226.85 1779.92,227.768 1780.09,228.714C1780.17,229.194 1780.21,229.673 1780.2,230.158C1780.19,230.401 1780.16,230.638 1780.14,230.88L1756.4,414.407L1861.94,743.373C1862.02,743.675 1862.11,743.971 1862.17,744.279C1862.34,745.202 1862.32,746.155 1862.12,747.066C1861.99,747.676 1861.78,748.267 1861.49,748.824C1861.06,749.652 1860.47,750.398 1859.76,751.007C1858.8,751.812 1857.64,752.362 1856.41,752.587C1855.8,752.694 1855.18,752.729 1854.55,752.676C1853.62,752.599 1852.7,752.339 1851.87,751.907C1850.76,751.339 1849.81,750.475 1849.13,749.427C1848.68,748.723 1848.64,748.51 1848.34,747.741L1751.42,445.664L1702.94,746.693C1702.75,747.498 1702.75,747.717 1702.4,748.48C1701.89,749.617 1701.08,750.617 1700.07,751.345C1699.56,751.712 1699.01,752.007 1698.43,752.232C1697.56,752.564 1696.62,752.723 1695.68,752.694C1694.43,752.658 1693.2,752.291 1692.14,751.635C1691.61,751.309 1691.12,750.913 1690.69,750.457C1690.05,749.776 1689.54,748.972 1689.21,748.096C1688.88,747.226 1688.72,746.285 1688.75,745.35C1688.76,745.036 1688.8,744.729 1688.83,744.421L1735.24,456.305L1592.96,723.265C1592.8,723.519 1592.66,723.786 1592.49,724.028C1591.97,724.762 1591.31,725.395 1590.56,725.887C1589.81,726.378 1588.97,726.721 1588.09,726.904C1587.2,727.082 1586.29,727.094 1585.41,726.94C1584.52,726.78 1583.67,726.455 1582.91,725.987C1581.88,725.354 1581.03,724.472 1580.44,723.425C1580.14,722.904 1579.92,722.348 1579.76,721.768C1579.44,720.614 1579.43,719.383 1579.71,718.217C1579.9,717.442 1580.02,717.27 1580.35,716.542L1742.2,412.872Z" style="fill:rgb(31,73,111);"/>
                </g>
                <g transform="matrix(1,0,0,1,917.063,0)">
                    <path d="M1763.59,184.863L1781.66,58.668C1781.71,58.438 1781.74,58.201 1781.8,57.97C1781.95,57.278 1782.2,56.603 1782.52,55.97C1783.06,54.917 1783.83,53.976 1784.74,53.23C1785.66,52.478 1786.73,51.922 1787.87,51.609C1788.33,51.478 1788.8,51.39 1789.27,51.342C1789.5,51.313 1789.74,51.307 1789.98,51.295C1790.22,51.301 1790.45,51.301 1790.69,51.307C1790.92,51.33 1791.16,51.342 1791.39,51.378C1792.1,51.478 1792.79,51.668 1793.45,51.94C1794.32,52.301 1795.14,52.804 1795.85,53.431C1796.56,54.058 1797.17,54.798 1797.64,55.621C1798.11,56.443 1798.44,57.349 1798.62,58.278C1798.75,58.976 1798.8,59.692 1798.76,60.396C1798.74,60.633 1798.71,60.87 1798.68,61.106L1781.04,184.256C1781.81,184.432 1782.57,184.645 1783.32,184.899C1785.19,185.539 1786.98,186.438 1788.55,187.645C1789.7,188.529 1790.73,189.577 1791.59,190.76L2092.45,52.082C2094.58,51.419 2094.6,51.413 2096.83,51.33C2097.56,51.49 2098.29,51.656 2099.02,51.822C2100.76,52.739 2101.36,52.834 2102.66,54.39C2103.62,55.55 2104.26,56.946 2104.51,58.432C2104.64,59.171 2104.67,59.929 2104.6,60.674C2104.54,61.42 2104.37,62.16 2104.11,62.864C2103.85,63.562 2103.49,64.237 2103.06,64.846C2101.9,66.503 2101.31,66.64 2099.64,67.693L1793.22,208.938C1793.07,209.428 1792.91,209.915 1792.74,210.399C1792.45,211.216 1792.14,212.026 1791.81,212.831C1791.31,214.068 1790.75,215.293 1790.16,216.494C1789.42,218.003 1788.63,219.483 1787.8,220.938C1786.62,223.004 1785.35,225.016 1784.04,226.998C1783.15,228.326 1782.24,229.636 1781.3,230.926L1943.75,597.3C1943.87,597.62 1944.01,597.933 1944.1,598.259C1944.47,599.573 1944.45,600.981 1944.05,602.289C1943.85,602.94 1943.56,603.555 1943.19,604.123C1942.82,604.697 1942.36,605.206 1941.84,605.65C1941.32,606.088 1940.74,606.455 1940.12,606.727C1938.56,607.419 1936.77,607.526 1935.14,607.029C1934.49,606.828 1933.86,606.538 1933.3,606.165C1932.44,605.603 1931.72,604.857 1931.17,603.993C1930.99,603.703 1930.85,603.395 1930.69,603.094L1782.14,268.071L1808.4,784.525L1808,787.283L1806.57,789.674L1804.34,791.343L1801.63,792.023L1798.87,791.621C1796.5,790.2 1796.47,790.171 1794.82,787.952L1794.13,785.253L1767.52,261.809L1625.31,602.946C1625.16,603.247 1625.03,603.567 1624.85,603.857C1624.15,605.029 1623.12,605.987 1621.9,606.591C1621.3,606.899 1620.64,607.112 1619.97,607.23C1618.29,607.532 1616.53,607.206 1615.06,606.331C1614.48,605.981 1613.94,605.555 1613.48,605.052C1613.02,604.555 1612.63,603.993 1612.32,603.384C1612.02,602.774 1611.81,602.123 1611.68,601.449C1611.51,600.442 1611.55,599.407 1611.8,598.419C1611.89,598.087 1612.02,597.774 1612.13,597.448L1717.73,344.122L1470.62,788.36L1468.83,790.484L1466.35,791.757C1463.58,791.982 1463.55,791.976 1460.91,791.13L1458.79,789.325L1457.52,786.845L1457.29,784.07L1458.14,781.419L1764.52,230.606C1764.05,229.968 1763.59,229.325 1763.13,228.679C1761.74,226.702 1760.4,224.684 1759.15,222.613C1758.21,221.057 1757.31,219.471 1756.47,217.855C1756.1,217.12 1755.73,216.378 1755.38,215.629L1364.33,67.93C1362.6,66.995 1362,66.9 1360.72,65.332C1360.25,64.752 1359.84,64.107 1359.54,63.426C1358.91,62.053 1358.67,60.538 1358.81,59.035C1358.89,58.29 1359.06,57.55 1359.33,56.852C1359.59,56.153 1359.95,55.479 1360.39,54.875C1360.83,54.266 1361.35,53.709 1361.92,53.236C1363.09,52.283 1364.49,51.65 1365.98,51.407C1366.71,51.283 1367.47,51.36 1368.22,51.336C1368.95,51.502 1369.68,51.674 1370.41,51.845L1752.18,196.043C1752.22,195.891 1752.27,195.739 1752.31,195.587C1752.55,194.818 1752.85,194.066 1753.21,193.338C1753.67,192.385 1754.24,191.48 1754.89,190.646C1755.79,189.498 1756.85,188.48 1758.03,187.622C1759.71,186.392 1761.61,185.495 1763.59,184.863Z" style="fill:rgb(248,255,9);"/>
                </g>
            </g>
        </g>
    </g>
</svg>
