<?xml version="1.0" encoding="utf-8"?>
<!-- Generator: Adobe Illustrator 20.0.0, SVG Export Plug-In . SVG Version: 6.00 Build 0)  -->
<svg version="1.1" id="Layer_1" xmlns="http://www.w3.org/2000/svg" xmlns:xlink="http://www.w3.org/1999/xlink" x="0px" y="0px"
	 viewBox="0 0 612 664.9" style="enable-background:new 0 0 612 664.9;" xml:space="preserve">
<style type="text/css">
	.st0{fill:none;}
	.st1{fill:#F8FF09;}
	.st2{fill:#1F496F;}
	.st3{fill:#FCFCFC;}
</style>
<g transform="matrix(1,0,0,1,-1182.94,0)">
	<g id="exportsvg" transform="matrix(1,0,0,1,1182.94,0)">
		<rect y="-37.1" class="st0" width="612" height="612"/>
		<g id="tgew" transform="matrix(1,0,0,1,-2100,0)">
			<rect x="2100" y="-37.1" class="st0" width="612" height="612"/>
			<g transform="matrix(5.91773,0,0,5.91773,-169.72,-1223.97)">
				<path class="st1" d="M447.1,285.1c-0.2,0.3-0.3,0.5-0.5,0.8c-0.6,0.9-1.3,1.8-2,2.7c-0.8,0.9-1.6,1.7-2.5,2.4
					c-0.3,0.2-0.6,0.5-1,0.7c1.5,0,3.1,0,4.6,0c1.2,0,2.4,0,3.6,0l0.5,0c-0.1-0.2-0.2-0.4-0.3-0.6c-0.1-0.2-0.2-0.4-0.3-0.6
					c-0.1-0.2-0.2-0.4-0.3-0.6c-0.3-0.8-0.7-1.5-1-2.3c-0.2-0.5-0.4-1-0.6-1.5c-0.1-0.2-0.2-0.5-0.3-0.7L447.1,285.1L447.1,285.1
					C447.1,285.1,447.1,285.1,447.1,285.1z"/>
			</g>
			<g transform="matrix(5.91773,0,0,5.91773,-169.72,-1223.97)">
				<path class="st1" d="M411.2,284.6c-0.7,0.6-1.5,1.2-2.2,1.7c-0.9,0.6-1.7,1.3-2.6,1.9c-0.9,0.6-1.7,1.2-2.6,1.7
					c-0.6,0.3-1.1,0.7-1.7,1c-0.4,0.2-0.7,0.4-1.1,0.6l-0.1,0.1l-0.1,0c1.4,0,2.8,0,4.2,0c3.2,0,6.4,0,9.6,0h0.1
					c0,0-0.1-0.1-0.1-0.1c0,0-0.1-0.1-0.1-0.1c-0.2-0.1-0.3-0.3-0.5-0.5c-0.3-0.3-0.6-0.6-0.9-1c-0.4-0.6-0.8-1.2-1.1-1.9
					c-0.3-0.6-0.5-1.3-0.6-2C411.3,285.5,411.3,285,411.2,284.6L411.2,284.6C411.2,284.5,411.2,284.5,411.2,284.6z"/>
			</g>
			<g transform="matrix(5.91773,0,0,5.91773,-169.72,-1223.97)">
				<path class="st2" d="M452.9,280.4c-0.2,0.3-0.4,0.5-0.6,0.8c-0.2,0.2-0.4,0.5-0.6,0.7c-0.3,0.3-0.6,0.5-0.9,0.8
					c-0.1,0.1-0.1,0.1-0.2,0.2l-0.1,0l0,0c0.8,0.1,1.6,0.2,2.4,0.3c0.6,0.1,1.2,0.2,1.8,0.3l0.3,0c0-0.1-0.1-0.1-0.1-0.2
					c-0.1-0.1-0.1-0.1-0.2-0.2c-0.5-0.6-0.9-1.3-1.3-2C453.2,280.9,453.1,280.6,452.9,280.4L452.9,280.4
					C452.9,280.3,452.9,280.3,452.9,280.4z"/>
			</g>
			<g transform="matrix(5.91773,0,0,5.91773,-169.72,-1223.97)">
				<path class="st2" d="M424.3,278.8L424.3,278.8c0-0.1,0-0.1-0.1-0.2c0-0.1-0.1-0.2-0.1-0.3c0-0.2-0.1-0.3-0.1-0.5v0c0,0,0,0,0,0
					c-0.2,0.1-0.4,0.3-0.6,0.4c-0.2,0.1-0.4,0.2-0.5,0.3L424.3,278.8z"/>
			</g>
			<g transform="matrix(5.91773,0,0,5.91773,-169.72,-1223.97)">
				<path class="st1" d="M468.1,271.7L468.1,271.7c-0.1-0.1-0.2-0.1-0.2-0.2c-0.3-0.2-0.6-0.4-0.9-0.7c-0.8-0.6-1.5-1.3-2.2-2
					c-0.7-0.7-1.4-1.5-2-2.3c-0.2-0.2-0.4-0.4-0.5-0.7c-0.1-0.1-0.2-0.3-0.3-0.4l-0.1-0.1c0,0,0,0,0,0c-0.2,0.4-0.4,0.8-0.6,1.2
					c-0.4,0.8-0.9,1.7-1.5,2.4c-0.5,0.7-1,1.3-1.6,1.8c-0.2,0.2-0.5,0.4-0.7,0.6c-0.1,0-0.1,0.1-0.2,0.1
					C461,271.6,464.5,271.7,468.1,271.7z"/>
			</g>
			<g transform="matrix(5.91773,0,0,5.91773,-169.72,-1223.97)">
				<path class="st1" d="M430.6,271.6C430.6,271.6,430.6,271.6,430.6,271.6c-0.2-0.3-0.4-0.5-0.6-0.8c-0.4-0.5-0.7-1.1-0.9-1.7
					c-0.4-0.7-0.6-1.5-0.9-2.3c-0.1-0.3-0.2-0.5-0.2-0.8l0-0.1c0,0,0,0,0,0c-0.4,0.6-0.9,1.1-1.3,1.7c-0.5,0.6-1.1,1.2-1.7,1.7
					c-0.6,0.5-1.2,1-1.9,1.5c-0.4,0.3-0.8,0.5-1.2,0.7l0,0C424.8,271.6,427.7,271.6,430.6,271.6z"/>
			</g>
			<g transform="matrix(5.91773,0,0,5.91773,-169.72,-1223.97)">
				<path class="st3" d="M428.7,260.7c0,0,0.1,0,0.1,0c0,0,0,0,0.1,0c0.1,0,0.2,0.1,0.4,0.1c0.2,0.1,0.5,0.2,0.7,0.4
					c0.2,0.2,0.4,0.4,0.5,0.7c0.1,0.1,0.1,0.3,0.1,0.4c0,0,0,0.1,0,0.1c0,0,0,0.1,0,0.1c0,0,0,0,0,0.1c0,0,0,0.1,0,0.1
					c0,0.1,0,0.1,0,0.2c0,0.1,0,0.2,0.1,0.4c0.1,0.4,0.1,0.8,0.2,1.2c0.1,0.5,0.2,0.9,0.4,1.4c0.1,0.4,0.2,0.7,0.4,1.1
					c0.1,0.3,0.2,0.6,0.4,0.9c0.1,0.2,0.2,0.4,0.3,0.6c0.1,0.2,0.2,0.3,0.3,0.5c0.1,0.1,0.2,0.2,0.2,0.4c0.1,0.1,0.1,0.2,0.2,0.3
					c0.1,0.1,0.1,0.1,0.2,0.2c0,0.1,0.1,0.1,0.1,0.1c0.3,0.3,0.6,0.5,0.9,0.7c0.1,0,0.1,0.1,0.2,0.1c0.1,0,0.2,0.1,0.3,0.1
					c0.1,0.1,0.3,0.1,0.4,0.1l0,0c0.9,0,1.9,0,2.8,0c1,0,1.9,0,2.9,0c2.9,0,5.8,0,8.7,0l0.9,0c0.2,0,0.3,0,0.5-0.1
					c0.8-0.1,1.6-0.3,2.4-0.6c0.4-0.2,0.8-0.3,1.2-0.6c0.2-0.1,0.4-0.2,0.5-0.3c0.3-0.2,0.7-0.5,1-0.8c0.2-0.2,0.4-0.4,0.6-0.5
					c0.1-0.1,0.2-0.2,0.2-0.3c0.6-0.7,1.2-1.5,1.6-2.4c0.1-0.1,0.1-0.3,0.2-0.4c0.1-0.2,0.1-0.3,0.2-0.5c0.1-0.2,0.2-0.4,0.2-0.6
					c0.1-0.3,0.2-0.5,0.3-0.8c0.1-0.2,0.1-0.3,0.2-0.5c0-0.1,0.1-0.2,0.1-0.3c0-0.1,0.1-0.2,0.1-0.4l0-0.1c0,0,0-0.1,0-0.1
					c0,0,0,0,0-0.1c0.1-0.1,0.1-0.2,0.2-0.3c0.1-0.2,0.3-0.3,0.5-0.4c0.2-0.1,0.4-0.2,0.6-0.2c0.1,0,0.2,0,0.3,0c0,0,0.1,0,0.1,0h0
					c0.1,0,0.1,0,0.2,0c0,0,0,0,0,0c0,0,0.1,0,0.1,0c0,0,0,0,0,0c0,0,0,0,0.1,0c0.1,0,0.1,0,0.2,0c0.3,0.1,0.6,0.3,0.8,0.5
					c0.1,0.1,0.1,0.1,0.1,0.2c0,0.1,0.1,0.1,0.1,0.2l0,0c0,0.1,0.1,0.1,0.1,0.2c0.1,0.2,0.2,0.4,0.4,0.5c0.3,0.4,0.5,0.7,0.8,1.1
					c0.5,0.7,1.1,1.4,1.7,2.1c0.6,0.7,1.3,1.4,2,2.1c0.6,0.5,1.2,1,1.8,1.5c0.2,0.2,0.5,0.3,0.7,0.5c0.1,0.1,0.3,0.2,0.4,0.3
					c0.2,0.1,0.3,0.2,0.5,0.3c0.3,0.1,0.6,0.3,0.9,0.4c0.2,0.1,0.5,0.2,0.7,0.2c0.3,0.1,0.5,0.1,0.8,0.2c0.1,0,0.3,0,0.4,0
					c0,0,0.1,0,0.1,0c0,0,0.1,0,0.1,0c0,0,0.1,0,0.1,0c0.1,0,0.2,0,0.4,0c0.1,0,0.2,0,0.3,0c0.1,0,0.2,0,0.3,0l0,0
					c0.1,0,0.2,0,0.2,0c0,0,0.1,0,0.1,0c0,0,0.1,0,0.1,0c0,0,0.1,0,0.1,0c0,0,0.1,0,0.1,0.1c0,0,0.1,0.1,0.1,0.1l0,0l0,0
					c0,0,0.1,0,0.1,0.1c0,0,0,0,0,0l0,0c0,0,0,0,0.1,0c0,0,0,0,0,0c0,0,0.1,0,0.1,0.1c0.1,0,0.2,0.1,0.3,0.2
					c0.1,0.1,0.2,0.2,0.3,0.2c0.1,0.1,0.1,0.1,0.2,0.2c0.1,0.1,0.2,0.2,0.3,0.3l0,0c0,0,0.1,0.1,0.1,0.1c0,0,0,0.1,0.1,0.1
					c0,0.1,0.1,0.1,0.1,0.2c0,0.1,0.1,0.2,0.1,0.2c0.1,0.3,0.2,0.6,0.3,0.9c0,0.2,0,0.4,0,0.6c0,0.1,0,0.2,0,0.3
					c0,0.1,0,0.2-0.1,0.3l0,0c0,0.1,0,0.2-0.1,0.3c0,0.1,0,0.2-0.1,0.2c0,0.1,0,0.1-0.1,0.2c0,0.1-0.1,0.2-0.1,0.3
					c0,0.1,0,0.1-0.1,0.2c-0.1,0.3-0.3,0.5-0.4,0.8c-0.1,0.2-0.3,0.5-0.4,0.7c-0.2,0.3-0.4,0.5-0.6,0.8c-0.1,0.2-0.3,0.3-0.4,0.5
					c-0.2,0.2-0.4,0.4-0.6,0.6c-0.7,0.7-1.4,1.5-2.1,2.2c-1.9,2-3.7,4-5.6,5.9c-0.4,0.4-0.8,0.8-1.2,1.3c-0.1,0.1-0.2,0.2-0.2,0.3
					c-0.1,0.1-0.3,0.3-0.4,0.4c-0.3,0.3-0.6,0.6-1,0.9c-0.5,0.4-1,0.8-1.5,1.1c-0.6,0.4-1.2,0.8-1.8,1.1c-0.5,0.3-1,0.5-1.6,0.7
					c-0.7,0.3-1.4,0.5-2.1,0.7c-0.5,0.1-1.1,0.2-1.6,0.3c-0.1,0-0.2,0-0.4,0c-0.1,0-0.2,0-0.3,0c-0.8,0-1.5,0-2.3,0
					c-3.4,0-6.8,0-10.2,0c-1.9,0-3.8,0-5.7,0c-0.6,0-1.2,0-1.7,0c-0.4,0-0.9,0-1.3,0c-0.9,0-1.7,0-2.6,0c-1.7,0-3.5,0-5.2,0
					c-4.8,0-9.6,0-14.3,0c-4.3,0-8.7,0-13,0c-1.3,0-2.6,0-3.9,0c-0.4,0-0.9,0-1.3,0c-0.4,0-0.9,0-1.3,0c0,0,0,0-0.1,0
					c0,0-0.1,0-0.1,0c0,0-0.1,0-0.1,0c-0.2,0-0.4,0-0.7,0c0,0-0.1,0-0.1,0c-0.1,0-0.1,0-0.2,0c0,0-0.1,0-0.1,0c0,0-0.1,0-0.1,0
					c0,0-0.1,0-0.1,0c0,0-0.1,0-0.1,0c-0.1,0-0.1,0-0.2-0.1c-0.2-0.1-0.3-0.2-0.4-0.3c0,0,0,0,0,0c0,0-0.1,0-0.1-0.1
					c-0.1-0.1-0.2-0.1-0.3-0.2c-0.2-0.1-0.4-0.3-0.5-0.5c-0.2-0.2-0.4-0.5-0.5-0.7c-0.1-0.2-0.2-0.4-0.2-0.6c0-0.2-0.1-0.3-0.1-0.5
					c0-0.1,0-0.2,0-0.4c0-0.4,0-0.7,0.1-1.1c0.1-0.4,0.2-0.8,0.4-1.1c0-0.1,0.1-0.2,0.1-0.3c0.1-0.1,0.1-0.3,0.2-0.4
					c0.1-0.2,0.2-0.3,0.3-0.5c0.1-0.2,0.3-0.4,0.4-0.6c0.2-0.3,0.4-0.5,0.6-0.7l0,0l0,0c0.2-0.2,0.4-0.4,0.6-0.6
					c0.6-0.6,1.2-1.3,1.8-1.9c0.7-0.7,1.4-1.5,2.1-2.2c1.3-1.4,2.6-2.7,3.8-4.1c0.4-0.4,0.8-0.8,1.2-1.3c0,0,0,0,0.1-0.1
					c0.2-0.2,0.3-0.3,0.5-0.5c0.8-0.8,1.7-1.5,2.6-2.1c0.5-0.4,1.1-0.7,1.6-1c0.6-0.3,1.2-0.6,1.8-0.9c0.5-0.2,1-0.4,1.6-0.6
					c0.3-0.1,0.5-0.2,0.8-0.2c0.4-0.1,0.9-0.2,1.4-0.2c0.2,0,0.4,0,0.6,0c0.1,0,0.1,0,0.2,0c0,0,0.1,0,0.1,0c0.2,0,0.3,0,0.5,0
					c0,0,0.1,0,0.1,0c0.1,0,0.2,0,0.3,0c0.3,0,0.6,0,0.9-0.1c0.3,0,0.6-0.1,0.9-0.1c0.9-0.1,1.9-0.3,2.8-0.6
					c0.7-0.2,1.4-0.5,2.1-0.8c0.6-0.3,1.1-0.6,1.7-0.9c0.6-0.4,1.1-0.8,1.6-1.2c0.3-0.3,0.7-0.6,1-0.9c0.3-0.3,0.5-0.5,0.8-0.8
					c0.3-0.3,0.6-0.7,0.8-1c0.2-0.3,0.5-0.7,0.7-1c0.2-0.4,0.5-0.8,0.7-1.2c0.1-0.1,0.1-0.2,0.2-0.3c0,0,0.1-0.1,0.1-0.2
					c0,0,0-0.1,0-0.1l0.1-0.1c0,0,0,0,0,0c0,0,0,0,0,0c0,0,0,0,0-0.1c0.1-0.1,0.1-0.2,0.2-0.2c0.2-0.2,0.6-0.4,0.9-0.5
					c0.1,0,0.1,0,0.2,0c0.1,0,0.1,0,0.2,0l0,0L428.7,260.7z M428.6,261.4C428.5,261.4,428.5,261.4,428.6,261.4
					C428.5,261.4,428.5,261.4,428.6,261.4c-0.1,0-0.1,0-0.1,0c0,0,0,0-0.1,0c0,0-0.1,0-0.1,0c-0.2,0.1-0.4,0.2-0.5,0.3
					c0,0-0.1,0.1-0.1,0.1c0,0,0,0,0,0.1l0,0l-0.1,0.1l0,0.1c0,0.1-0.1,0.1-0.1,0.2c-0.1,0.1-0.1,0.3-0.2,0.4
					c-0.2,0.4-0.4,0.8-0.7,1.1c-0.2,0.3-0.4,0.6-0.6,0.9c-0.2,0.3-0.4,0.6-0.7,0.9c-0.4,0.5-0.8,0.9-1.2,1.3
					c-0.4,0.4-0.8,0.7-1.2,1.1c-0.4,0.3-0.8,0.6-1.3,0.9c-0.5,0.3-0.9,0.6-1.4,0.8c-0.8,0.4-1.6,0.7-2.4,1c-0.5,0.2-1.1,0.3-1.7,0.5
					c-0.7,0.2-1.5,0.3-2.2,0.4c-0.3,0-0.6,0.1-0.9,0.1c-0.2,0-0.5,0-0.7,0l0,0c-0.1,0-0.2,0-0.3,0c-0.1,0-0.2,0-0.2,0c0,0,0,0-0.1,0
					l0,0c0,0-0.1,0-0.1,0c-0.1,0-0.2,0-0.3,0c-0.6,0-1.2,0.2-1.8,0.3c-0.7,0.2-1.5,0.5-2.2,0.8c-0.6,0.2-1.1,0.5-1.6,0.8
					c-0.5,0.3-1,0.6-1.5,0.9c-0.9,0.6-1.7,1.2-2.5,2c-0.2,0.2-0.3,0.3-0.5,0.5c-0.1,0.1-0.2,0.2-0.3,0.3c-0.1,0.1-0.2,0.2-0.3,0.3
					c-0.3,0.3-0.6,0.6-0.9,0.9c-1.1,1.1-2.2,2.3-3.3,3.4c-0.4,0.4-0.8,0.8-1.2,1.3c-0.7,0.7-1.4,1.5-2.1,2.2c-0.5,0.5-1,1-1.5,1.6
					c0,0-0.1,0.1-0.1,0.1c-0.1,0.1-0.2,0.2-0.2,0.3c-0.1,0.2-0.3,0.3-0.4,0.5c-0.2,0.2-0.3,0.4-0.4,0.6c-0.1,0.1-0.2,0.3-0.3,0.4
					c-0.1,0.1-0.1,0.2-0.2,0.4c0,0.1-0.1,0.2-0.1,0.3c0,0.1-0.1,0.1-0.1,0.2c-0.2,0.5-0.3,1-0.3,1.5c0,0.1,0,0.2,0,0.2
					c0,0.1,0,0.2,0,0.3c0,0.1,0.1,0.2,0.1,0.4c0.1,0.2,0.1,0.3,0.2,0.5c0.1,0.2,0.3,0.4,0.4,0.5c0.1,0.1,0.3,0.3,0.5,0.4
					c0.1,0.1,0.2,0.1,0.3,0.2c0,0,0,0,0,0c0,0,0,0,0.1,0.1c0.1,0,0.1,0.1,0.2,0.1c0,0,0,0,0.1,0c0,0,0.1,0,0.1,0c0,0,0.1,0,0.1,0
					c0,0,0,0,0.1,0c0,0,0.1,0,0.1,0c0,0,0.1,0,0.1,0c0.1,0,0.1,0,0.2,0c0.1,0,0.2,0,0.3,0c0.1,0,0.2,0,0.2,0c0.1,0,0.2,0,0.3,0
					c0,0,0.1,0,0.1,0h0.1c0.9,0,1.7,0,2.6,0c2.6,0,5.2,0,7.8,0c5.2,0,10.4,0,15.6,0c3.5,0,7,0,10.4,0c1.7,0,3.5,0,5.2,0
					c0.4,0,0.9,0,1.3,0c0.6,0,1.2,0,1.7,0c0.8,0,1.5,0,2.3,0c1.5,0,3,0,4.5,0c3.8,0,7.6,0,11.4,0c0,0,0.1,0,0.1,0c0.1,0,0.3,0,0.4,0
					c0.5,0,1.1-0.1,1.6-0.3c0.7-0.2,1.4-0.4,2.1-0.7c0.5-0.2,1-0.5,1.5-0.7c0.6-0.3,1.2-0.7,1.7-1c0.5-0.3,1-0.7,1.5-1.1
					c0.3-0.3,0.7-0.6,1-0.9c0.1-0.1,0.3-0.2,0.4-0.4c0.1-0.1,0.1-0.1,0.2-0.2c0.1-0.1,0.2-0.2,0.3-0.3c0.3-0.3,0.6-0.6,0.9-0.9
					c1.2-1.3,2.4-2.5,3.5-3.8c0.4-0.4,0.8-0.8,1.2-1.3c1.2-1.3,2.4-2.5,3.5-3.8c0,0,0.1-0.1,0.1-0.1c0.1-0.1,0.2-0.2,0.3-0.3
					c0.1-0.2,0.3-0.3,0.4-0.5c0.1-0.2,0.3-0.4,0.4-0.6c0.1-0.2,0.2-0.3,0.3-0.5c0.1-0.1,0.1-0.2,0.2-0.4c0-0.1,0.1-0.1,0.1-0.2
					c0,0,0-0.1,0.1-0.1c0-0.1,0.1-0.2,0.1-0.3c0-0.1,0.1-0.2,0.1-0.3c0-0.1,0-0.1,0-0.2c0,0,0,0,0-0.1c0,0,0,0,0,0c0,0,0,0,0,0
					c0,0,0,0,0,0c0,0,0,0,0-0.1c0,0,0-0.1,0-0.1c0-0.1,0-0.1,0-0.2c0-0.3,0-0.6,0-0.8c0-0.1-0.1-0.3-0.1-0.4
					c-0.1-0.2-0.1-0.3-0.2-0.5c0,0-0.1-0.1-0.1-0.1c0,0,0,0,0,0c0,0,0,0,0,0c0,0,0,0,0,0c0,0,0,0-0.1-0.1c-0.1-0.1-0.1-0.2-0.2-0.2
					c-0.2-0.2-0.4-0.3-0.6-0.4c-0.1,0-0.2-0.1-0.2-0.1c0,0,0,0,0,0c0,0,0,0,0,0c0,0,0,0-0.1,0c0,0,0,0,0,0c0,0,0,0,0,0
					c0,0-0.1,0-0.1,0c0,0,0,0,0,0c0,0-0.1,0-0.1,0c0,0-0.1,0-0.1,0c0,0,0,0-0.1,0c0,0,0,0,0,0c0,0,0,0,0,0c0,0,0,0-0.1,0
					c0,0,0,0-0.1,0c0,0,0,0,0,0c0,0,0,0-0.1,0c-0.1,0-0.1,0-0.2,0c-0.1,0-0.2,0-0.2,0c-0.1,0-0.3,0-0.4,0c0,0-0.1,0-0.1,0
					c0,0,0,0-0.1,0c-0.2,0-0.3,0-0.5,0c-0.4,0-0.8-0.1-1.1-0.2c-0.5-0.1-1-0.3-1.5-0.6c-0.1-0.1-0.3-0.1-0.4-0.2
					c-0.2-0.1-0.4-0.2-0.6-0.4c-0.3-0.2-0.5-0.3-0.7-0.5c-0.7-0.5-1.3-1-2-1.6c-0.8-0.7-1.5-1.4-2.1-2.2c-0.6-0.7-1.2-1.4-1.7-2.1
					c-0.3-0.4-0.6-0.8-0.8-1.2c-0.1-0.1-0.2-0.3-0.3-0.4c-0.1-0.1-0.1-0.2-0.2-0.3c0,0,0-0.1-0.1-0.1c0,0,0,0,0,0c0,0,0,0,0-0.1
					c0,0-0.1-0.1-0.1-0.1c-0.1-0.1-0.3-0.2-0.5-0.3c0,0-0.1,0-0.1,0c0,0,0,0-0.1,0c0,0-0.1,0-0.1,0l0,0c0,0-0.1,0-0.1,0h0
					c0,0,0,0-0.1,0c0,0,0,0,0,0c-0.1,0-0.3,0-0.4,0.1c-0.1,0.1-0.3,0.2-0.4,0.3c-0.1,0.1-0.1,0.1-0.2,0.2c0,0-0.1,0.1-0.1,0.1
					c0,0,0,0,0,0.1l0,0l0,0.1c0,0.1,0,0.1-0.1,0.2c0,0,0,0.1,0,0.1c-0.1,0.3-0.2,0.6-0.3,0.9c-0.1,0.2-0.2,0.5-0.3,0.7
					c-0.1,0.2-0.1,0.4-0.2,0.5c-0.3,0.7-0.7,1.4-1.1,2.1c-0.2,0.4-0.5,0.7-0.8,1.1c-0.1,0.2-0.3,0.4-0.5,0.5
					c-0.2,0.2-0.4,0.4-0.7,0.6c-0.3,0.3-0.7,0.6-1,0.8c-0.2,0.1-0.4,0.2-0.6,0.4c-0.4,0.2-0.8,0.4-1.2,0.6c-0.7,0.3-1.4,0.5-2.2,0.6
					c-0.2,0-0.3,0.1-0.5,0.1c-0.1,0-0.2,0-0.4,0l0,0c-1,0-1.9,0-2.9,0c-1,0-1.9,0-2.9,0c-2.9,0-5.8,0-8.7,0l-1,0c-0.1,0-0.1,0-0.2,0
					c-0.1,0-0.3-0.1-0.4-0.1c-0.1,0-0.3-0.1-0.4-0.2c-0.1,0-0.2-0.1-0.3-0.1c-0.5-0.3-0.9-0.6-1.2-1.1c-0.1-0.1-0.1-0.2-0.2-0.3
					c-0.1-0.1-0.1-0.2-0.2-0.3c-0.1-0.1-0.2-0.2-0.2-0.4c-0.1-0.2-0.2-0.3-0.3-0.5c-0.1-0.2-0.2-0.5-0.3-0.7
					c-0.1-0.3-0.3-0.6-0.4-0.9c-0.1-0.4-0.3-0.8-0.4-1.2c-0.2-0.5-0.3-1-0.4-1.5c-0.1-0.5-0.2-1-0.3-1.5c0-0.1,0-0.2,0-0.3
					c0,0,0-0.1,0-0.1c0,0,0,0,0,0c0-0.1,0-0.2-0.1-0.3c-0.1-0.2-0.2-0.3-0.3-0.4c-0.1-0.1-0.3-0.2-0.5-0.3c-0.1,0-0.1,0-0.2,0
					c0,0-0.1,0-0.1,0c0,0,0,0-0.1,0l0,0H428.6C428.6,261.4,428.6,261.4,428.6,261.4z M415,279.9c0.8,0.1,1.7,0.3,2.5,0.4
					c0.6,0.1,1.3,0.2,1.9,0.3c2.3,0.4,4.5,0.7,6.8,1.1c0.7,0.1,1.5,0.2,2.2,0.3c0.2,0,0.5,0.1,0.7,0.1c0.1,0,0.1,0,0.2,0
					c0.1,0,0.1,0,0.2,0c0,0,0.1,0,0.1,0c0,0,0,0,0.1,0l1,0.1c0.5,0.1,1.1,0.2,1.6,0.3c0.4,0.1,0.8,0.1,1.2,0.2
					c0.9,0.2,1.9,0.3,2.8,0.5c0.5,0.1,1,0.2,1.5,0.2c0.5,0.1,0.9,0.1,1.4,0.2c0.1,0,0.3,0,0.4,0.1c0,0,0.1,0,0.1,0c0,0,0.1,0,0.1,0
					c0,0,0,0,0.1,0c0,0,0,0,0,0c0,0,0,0,0,0l4.4,0.7c0,0,0,0,0.1,0c0,0,0,0,0,0l0,0c0,0-0.1,0.1-0.1,0.1c-0.1,0.1-0.2,0.3-0.3,0.4
					c-0.2,0.3-0.4,0.6-0.6,0.9c-0.3,0.3-0.5,0.7-0.8,1c-0.2,0.2-0.4,0.4-0.6,0.6c-0.7,0.7-1.5,1.4-2.3,2c-0.4,0.3-0.8,0.6-1.3,0.8
					c-0.3,0.1-0.5,0.3-0.8,0.4c-0.3,0.1-0.5,0.2-0.8,0.3c-0.4,0.1-0.7,0.2-1.1,0.3c-0.2,0-0.4,0.1-0.7,0.1c-0.2,0-0.4,0.1-0.6,0.1
					c-0.1,0-0.3,0-0.4,0c-0.1,0-0.2,0-0.3,0c-0.1,0-0.1,0-0.2,0c-0.1,0-0.3,0-0.4,0c-0.2,0-0.4,0-0.6,0c-0.2,0-0.4,0-0.6,0
					c0,0-0.1,0-0.1,0c0,0,0,0-0.1,0c0,0-0.1,0-0.1,0c0,0,0,0,0,0c0,0,0,0-0.1,0c0,0,0,0-0.1,0c0,0,0,0,0,0c0,0-0.1,0-0.1,0
					c0,0,0,0-0.1,0c0,0-0.1,0-0.1,0c-0.4,0-0.9,0-1.3,0c-1.6,0-3.1,0-4.7,0c-1.6,0-3.1,0-4.7,0c0,0,0,0,0,0c0,0-0.1,0-0.1,0
					c0,0,0,0-0.1,0l0,0l-0.1,0c-0.1,0-0.2-0.1-0.3-0.1c-0.2-0.1-0.4-0.1-0.6-0.2c-0.3-0.1-0.5-0.2-0.8-0.3c-0.5-0.2-0.9-0.5-1.4-0.7
					c-0.4-0.3-0.9-0.6-1.3-1c-0.2-0.2-0.3-0.3-0.5-0.5c-0.1-0.1-0.1-0.1-0.2-0.2c-0.1-0.1-0.1-0.2-0.2-0.2c-0.2-0.2-0.3-0.4-0.4-0.7
					c-0.2-0.3-0.3-0.6-0.4-0.8c-0.2-0.5-0.3-1-0.4-1.5c-0.1-0.7-0.1-1.4-0.1-2c0-0.2,0-0.4,0-0.5c0-0.1,0-0.3,0-0.4
					c0-0.1,0-0.3,0.1-0.4c0,0,0,0,0,0c0,0,0,0,0,0l0,0l0,0l0,0l0,0l0,0l0,0l0,0l0,0l0,0l0,0l0,0l0,0l0,0l0,0l0,0l0,0l0,0l0,0l0,0
					l0,0l0,0l0,0l0,0l0,0l0,0l0,0l0,0l0,0l0,0l0,0l0,0l0,0l0,0l0,0l0,0l0,0l0,0l0,0l0,0l0,0l0,0l0,0l0,0l0,0l0,0l0,0l0,0l0,0l0,0
					l0,0l0,0l0,0l0,0l0,0l0,0l0,0l0,0l0,0l0,0l0,0l0,0l0,0l0,0l0,0l0,0l0,0l0,0l0,0l0,0l0,0h0l0,0l0,0h0l0,0l0,0l0,0l0,0l0,0l0,0
					l0,0l0,0l0,0l0,0l0,0l0,0l0,0l0,0l0,0l0,0l0,0l0,0l0,0l0,0l0,0l0,0l0,0l0,0l0,0l0,0l0,0l0,0l0,0c0,0,0,0,0,0c0,0,0,0-0.1,0.1
					c-0.4,0.3-0.7,0.6-1.1,0.9c-0.4,0.3-0.8,0.6-1.2,1c-0.4,0.3-0.8,0.7-1.3,1c-0.5,0.4-1,0.8-1.5,1.1c-1,0.7-2,1.5-3.1,2.1
					c-0.9,0.6-1.9,1.2-2.9,1.8c-0.7,0.4-1.5,0.8-2.3,1.2c-0.5,0.3-1.1,0.5-1.6,0.7c-0.5,0.2-1.1,0.4-1.6,0.5c-0.3,0.1-0.6,0.2-1,0.2
					c-0.1,0-0.2,0-0.3,0.1c-0.1,0-0.1,0-0.2,0c-0.1,0-0.1,0-0.2,0l0,0c-0.2,0-0.4,0-0.6,0c-0.1,0-0.3,0-0.4,0l-0.1,0l0,0
					c-0.1,0-0.1,0-0.2,0c0,0-0.1,0-0.1,0c0,0-0.1,0-0.1,0c0,0,0,0,0,0c0,0,0,0,0,0c0,0,0,0,0,0c0,0,0,0,0,0c0,0,0-0.1,0-0.1
					c0-0.1,0-0.1,0-0.2c0-0.1,0-0.1,0-0.2c0-0.1,0-0.2,0.1-0.2c0.1-0.1,0.1-0.3,0.2-0.4c0-0.1,0.1-0.2,0.1-0.3
					c0.1-0.1,0.2-0.3,0.3-0.4c0.1-0.1,0.2-0.3,0.3-0.4c0.1-0.2,0.3-0.3,0.4-0.5c0.2-0.2,0.4-0.4,0.6-0.6c1.2-1.3,2.4-2.5,3.6-3.8
					c1.8-1.9,3.6-3.8,5.3-5.7c0,0,0.1-0.1,0.1-0.1c0.1-0.1,0.2-0.2,0.3-0.3c0.1-0.1,0.2-0.2,0.3-0.2
					C407.3,278.7,411.2,279.3,415,279.9z M447.1,285.1c0.3,1,0.7,1.9,1.1,2.8c0.3,0.8,0.7,1.6,1,2.4c0,0.1,0.1,0.2,0.1,0.3
					c0,0.1,0.1,0.2,0.1,0.3c0.1,0.2,0.2,0.4,0.3,0.6c-0.8,0-1.5,0-2.3,0c-1.8,0-3.5,0-5.3,0l-0.6,0l-0.6,0c0,0,0.1-0.1,0.1-0.1
					c0.1-0.1,0.3-0.2,0.4-0.3c0.2-0.1,0.4-0.3,0.5-0.4c0.8-0.6,1.5-1.3,2.1-2c0.6-0.7,1.2-1.4,1.8-2.2c0.2-0.3,0.4-0.5,0.6-0.8
					C446.8,285.6,447,285.3,447.1,285.1L447.1,285.1C447.1,285.1,447.1,285.1,447.1,285.1z M459.9,286.9
					C460,286.9,460,286.9,459.9,286.9c0.1,0,0.1,0,0.2,0c0.1,0,0.2,0,0.3,0c0.1,0,0.2,0,0.3,0l3.3,0.5c-0.1,0.1-0.2,0.2-0.3,0.2
					c-0.2,0.2-0.5,0.4-0.8,0.6c-0.4,0.3-0.8,0.6-1.3,0.9c-0.4,0.3-0.9,0.5-1.3,0.8c-0.4,0.2-0.9,0.4-1.3,0.6
					c-0.5,0.2-1.1,0.4-1.7,0.6c-0.2,0.1-0.4,0.1-0.6,0.1c-0.2,0-0.4,0.1-0.6,0.1c-0.1,0-0.2,0-0.4,0c-0.7,0-1.4,0-2,0
					c-0.4,0-0.8,0-1.2,0c-0.1-0.1-0.1-0.2-0.2-0.3c-0.4-0.9-0.8-1.8-1.2-2.7c-0.4-1-0.9-2.1-1.3-3.1l0-0.1
					C453.3,285.9,456.6,286.4,459.9,286.9z M411.3,284.5c0,0.1,0,0.2,0,0.3c0,0.2,0,0.5,0.1,0.7c0.1,0.4,0.1,0.8,0.3,1.2
					c0.1,0.5,0.3,1,0.5,1.4c0.3,0.6,0.6,1.2,1.1,1.7c0.3,0.4,0.6,0.7,1,1.1c0.1,0.1,0.3,0.3,0.4,0.4c0,0,0.1,0.1,0.1,0.1
					c0,0,0.1,0.1,0.1,0.1c-1.6,0-3.3,0-4.9,0c-1.6,0-3.2,0-4.8,0c-1.4,0-2.8,0-4.2,0l0.1,0c0,0,0.1,0,0.1-0.1c0,0,0.1,0,0.1-0.1
					c0.1,0,0.2-0.1,0.3-0.1c0.4-0.2,0.7-0.4,1.1-0.6c0.6-0.3,1.1-0.7,1.7-1c0.6-0.4,1.1-0.7,1.7-1.1c1-0.7,2-1.4,2.9-2.1
					c0.5-0.4,1.1-0.8,1.6-1.2C410.7,285,411,284.8,411.3,284.5L411.3,284.5C411.3,284.5,411.3,284.5,411.3,284.5z M414.1,280.5
					L414.1,280.5L414.1,280.5L414.1,280.5L414.1,280.5l0.1,0.1l0,0l0,0l0,0.1l0,0l0,0l0,0.1l0,0l0,0l0,0.1l0,0l0,0l0,0.1l0,0l0,0
					l0,0.1l0,0l0,0l0,0.1l0,0l0,0l0,0.1l0,0l0,0l0,0.1l0,0l0,0.1l0,0l0,0l0,0.1l0,0l0,0l0,0.1l0,0l0,0l0,0.1l0,0l0,0.1l0,0l0,0
					l0,0.1l0,0v0l0,0.1l0,0l0,0l0,0.1l0,0l0,0c0,0,0,0.1,0,0.1c0,0,0,0.1,0,0.1c0,0,0,0.1,0,0.1l0,0c0,0.3-0.1,0.5-0.1,0.8
					c0,0.1,0,0.2,0,0.3c0,0.5,0,1,0.1,1.5c0.1,0.5,0.2,1.1,0.4,1.6c0.1,0.3,0.3,0.6,0.4,0.8c0.1,0.2,0.2,0.3,0.3,0.5
					c0.1,0.1,0.1,0.2,0.2,0.2c0.1,0.1,0.1,0.1,0.2,0.2c0.1,0.1,0.2,0.2,0.3,0.3c0.2,0.2,0.4,0.3,0.6,0.5c0.4,0.3,0.7,0.5,1.1,0.7
					c0.1,0.1,0.3,0.1,0.4,0.2c0.2,0.1,0.3,0.2,0.5,0.2c0.2,0.1,0.5,0.2,0.7,0.3c0.3,0.1,0.6,0.2,0.9,0.3c0,0,0.1,0,0.1,0
					c0,0,0,0,0.1,0c0.4,0,0.8,0,1.2,0c1.3,0,2.7,0,4,0c1.6,0,3.1,0,4.7,0l0.5,0c0,0,0,0,0,0c0,0,0,0,0,0c0,0,0.1,0,0.1,0
					c0,0,0,0,0.1,0c0,0,0,0,0.1,0c0,0,0,0,0.1,0c0,0,0,0,0,0c0.1,0,0.2,0,0.3,0c0.1,0,0.3,0,0.4,0c0.2,0,0.5,0,0.7,0
					c0.2,0,0.4,0,0.6,0c0,0,0.1,0,0.1,0c0.1,0,0.2,0,0.2,0c0.1,0,0.3,0,0.4,0c0.4,0,0.8-0.1,1.2-0.2c0.3-0.1,0.6-0.2,1-0.3
					c0.2-0.1,0.5-0.2,0.7-0.3c0.3-0.1,0.6-0.3,0.9-0.5c0.4-0.2,0.8-0.5,1.1-0.7c0.7-0.5,1.3-1,1.9-1.5c0.2-0.2,0.3-0.3,0.5-0.5
					c0.2-0.3,0.5-0.5,0.7-0.8c0.2-0.2,0.4-0.5,0.6-0.7c0.1-0.1,0.2-0.2,0.2-0.3l0,0l-3.4-0.5c0,0,0,0,0.1,0c0,0,0,0,0,0c0,0,0,0,0,0
					h0c-0.1,0-0.1,0-0.2,0c0,0-0.1,0-0.1,0c-0.1,0-0.1,0-0.2,0c-0.2,0-0.4-0.1-0.6-0.1c-0.6-0.1-1.3-0.2-1.9-0.3
					c-1.9-0.3-3.7-0.6-5.6-0.9l-0.4-0.1l-0.4-0.1l-0.9-0.1c0,0,0,0,0.1,0c0,0,0,0,0,0c0,0,0,0,0,0c0,0-0.1,0-0.1,0
					c-0.1,0-0.2,0-0.3,0c-0.1,0-0.2,0-0.3,0c-0.3,0-0.6-0.1-0.9-0.1c-1-0.2-2-0.3-3-0.5c-3.3-0.5-6.7-1.1-10-1.6L414.1,280.5
					C414.1,280.5,414.1,280.5,414.1,280.5z M447,286.6c-0.1,0.2-0.3,0.4-0.4,0.6c-0.3,0.4-0.6,0.7-0.9,1.1c-0.6,0.7-1.2,1.3-1.8,1.9
					c-0.1,0.1-0.3,0.3-0.4,0.4c-0.1,0.1-0.2,0.1-0.2,0.2l0,0c1.5,0,2.9,0,4.4,0l0.9,0l0.3,0l0-0.1l-0.1-0.2
					c-0.1-0.2-0.1-0.3-0.2-0.5c-0.3-0.6-0.5-1.3-0.8-1.9c-0.2-0.4-0.3-0.8-0.5-1.3C447.1,286.9,447,286.7,447,286.6L447,286.6
					C447,286.6,447,286.6,447,286.6z M451,286.3c0.1,0.3,0.2,0.6,0.4,0.8c0.2,0.5,0.5,1.1,0.7,1.6c0.3,0.7,0.6,1.4,1,2.2l0,0
					c0.9,0,1.9,0,2.8,0c0,0,0,0,0.1,0c0.1,0,0.2,0,0.3,0c0.1,0,0.3,0,0.4-0.1c0.2,0,0.3-0.1,0.5-0.1c0.2,0,0.3-0.1,0.5-0.1
					c0.3-0.1,0.5-0.2,0.8-0.3c0.6-0.2,1.2-0.5,1.7-0.8c0.6-0.3,1.2-0.7,1.8-1.2c0.1-0.1,0.2-0.2,0.4-0.3l0,0l-1.8-0.3
					c0,0-0.1,0-0.1,0c-0.1,0-0.2,0-0.3,0c-0.1,0-0.3,0-0.4-0.1h0L451,286.3C451,286.3,451,286.3,451,286.3z M410.7,285.9
					c-1.3,1-2.7,2-4,3c-1,0.7-2,1.4-3.1,2l0,0c0.5,0,1.1,0,1.6,0c1.2,0,2.4,0,3.6,0c1.2,0,2.4,0,3.6,0l0.8,0c0,0,0,0-0.1-0.1
					c0,0,0,0-0.1-0.1c-0.1-0.1-0.1-0.2-0.2-0.2c-0.1-0.1-0.2-0.3-0.3-0.4c-0.3-0.5-0.6-1-0.9-1.5c-0.3-0.5-0.5-1.1-0.6-1.7
					c-0.1-0.2-0.1-0.5-0.2-0.7C410.7,286.1,410.7,286,410.7,285.9C410.7,285.8,410.7,285.9,410.7,285.9z M403.7,278.8
					c-0.1,0.1-0.2,0.2-0.3,0.3l0,0c-1.9,2-3.8,4-5.6,6c-1.3,1.4-2.6,2.7-3.8,4.1c0,0-0.1,0.1-0.1,0.1c-0.1,0.1-0.1,0.2-0.2,0.2
					c-0.2,0.2-0.4,0.4-0.5,0.7c-0.1,0.1-0.1,0.2-0.2,0.3c0,0.1-0.1,0.2-0.1,0.2c0,0,0,0.1-0.1,0.1h0c0.2,0,0.4,0,0.5,0l0.3,0
					c0.2,0,0.4,0,0.5-0.1c0.3-0.1,0.6-0.1,0.9-0.2c0.6-0.1,1.1-0.3,1.6-0.5c0.5-0.2,1.1-0.4,1.6-0.7c0.8-0.4,1.5-0.8,2.3-1.2
					c0.9-0.5,1.9-1.1,2.8-1.7c1.1-0.7,2.1-1.4,3.2-2.2c0.9-0.7,1.8-1.4,2.7-2.1c0.4-0.3,0.7-0.6,1.1-0.9c0.4-0.3,0.8-0.6,1.1-0.9
					c0,0,0,0,0.1-0.1c0,0,0,0,0,0l0,0l0,0l0,0l0,0l0,0l0.1,0l0,0l0,0l0.1,0l0,0l0,0l0,0L403.7,278.8
					C403.7,278.8,403.7,278.8,403.7,278.8z M449.8,274.2C449.8,274.2,449.8,274.2,449.8,274.2c0.1,0,0.1,0,0.2,0l0.1,0
					c2.3,0,4.6,0,6.8,0c2.8,0,5.7,0,8.5,0c2,0,3.9,0,5.9,0c0.8,0,1.6,0,2.4,0c0.5,0,1,0,1.5,0h0c0.1,0,0.1,0,0.2,0
					c0,0,0.1,0,0.1,0.1c0,0,0,0,0,0c0,0,0,0,0,0c0,0,0,0,0,0c0,0,0,0,0,0c0,0,0,0.1,0,0.1c0,0,0,0,0,0.1c0,0,0,0,0,0c0,0,0,0,0,0
					c0,0,0,0,0,0c0,0,0,0.1,0,0.1c0,0,0,0.1,0,0.1c0,0.1,0,0.1-0.1,0.2c0,0.1,0,0.1-0.1,0.2c0,0,0,0.1-0.1,0.1
					c0,0.1-0.1,0.2-0.1,0.3c-0.1,0.2-0.2,0.4-0.4,0.6c-0.1,0.2-0.3,0.3-0.4,0.5c-0.1,0.1-0.2,0.3-0.3,0.4c-0.2,0.2-0.3,0.4-0.5,0.6
					c-0.2,0.2-0.3,0.3-0.5,0.5c-0.7,0.7-1.3,1.4-2,2.1c-0.8,0.9-1.6,1.7-2.4,2.6c-0.5,0.5-1,1-1.5,1.6c-0.3,0.3-0.7,0.7-1,1
					l-3.9-0.6c0,0,0,0,0,0c0,0,0,0,0,0c0,0,0,0,0,0c0,0,0,0-0.1,0c0,0-0.1,0-0.1-0.1c-0.1,0-0.2,0-0.2-0.1c-0.1,0-0.1,0-0.2,0
					c-0.1,0-0.2,0-0.3-0.1c-0.2,0-0.4-0.1-0.6-0.1c-0.3-0.1-0.6-0.1-0.9-0.2l0,0c0,0-0.1,0-0.1-0.1c-0.1-0.1-0.2-0.1-0.3-0.2
					c-0.3-0.2-0.5-0.3-0.8-0.5c-0.2-0.2-0.4-0.4-0.6-0.6c-0.2-0.2-0.3-0.3-0.5-0.5c-0.1-0.1-0.2-0.2-0.3-0.3
					c-0.1-0.2-0.3-0.4-0.4-0.5c-0.2-0.2-0.3-0.5-0.5-0.7c-0.2-0.4-0.5-0.7-0.7-1.1c-0.3-0.5-0.5-0.9-0.7-1.4
					c-0.1-0.2-0.1-0.3-0.2-0.5c0-0.1-0.1-0.2-0.1-0.3c0-0.1,0-0.1-0.1-0.2c0,0,0-0.1,0-0.1c0,0,0,0,0,0c0-0.1-0.1-0.2-0.2-0.3
					c-0.1-0.2-0.3-0.3-0.6-0.4c-0.1,0-0.2,0-0.2-0.1c0,0-0.1,0-0.1,0l0,0c0,0-0.1,0-0.1,0c0,0,0,0,0,0c0,0,0,0,0,0c0,0,0,0,0,0
					c0,0,0,0,0,0c-0.1,0-0.2,0-0.3,0.1c-0.2,0.1-0.4,0.2-0.5,0.3c-0.1,0.1-0.1,0.1-0.1,0.2c0,0,0,0.1,0,0.1l0,0c0,0,0,0.1,0,0.1
					c0,0,0,0,0,0.1c0,0,0,0.1,0,0.1c0,0,0,0.1-0.1,0.1c-0.1,0.2-0.2,0.4-0.3,0.6c-0.1,0.1-0.2,0.3-0.2,0.4c-0.1,0.1-0.1,0.2-0.2,0.3
					c-0.1,0.2-0.2,0.3-0.3,0.5c-0.4,0.5-0.8,1-1.3,1.4c-0.1,0.1-0.3,0.2-0.4,0.3s-0.3,0.2-0.4,0.3l0,0l0,0c0,0,0,0,0,0c0,0,0,0,0,0
					c0,0,0,0,0,0c0,0,0,0,0,0c0,0,0,0,0,0c0,0,0,0,0-0.1c0,0,0,0,0,0c0,0,0,0,0-0.1c0,0,0,0,0,0c0,0,0,0,0,0c0,0,0,0,0,0
					c0,0,0,0-0.1,0c0,0,0,0,0,0c0,0,0,0-0.1,0c0,0,0,0,0,0c0,0,0,0-0.1,0c0,0,0,0,0,0c0,0,0,0,0,0c0,0-0.1,0-0.1,0c0,0,0,0-0.1,0
					c0,0,0,0,0,0c0,0,0,0-0.1,0c0,0,0,0,0,0c0,0,0,0,0,0c0,0,0,0,0,0c0,0,0,0,0,0c0,0,0,0-0.1,0c0,0,0,0,0,0c0,0,0,0-0.1,0
					c0,0,0,0,0,0c0,0,0,0,0,0c0,0,0,0,0,0c0,0,0,0,0,0c0,0,0,0,0,0c0,0,0,0,0,0c0,0,0,0,0,0c0,0,0,0,0,0c0,0,0,0,0,0c0,0,0,0-0.1,0
					c0,0,0,0,0,0c0,0,0,0-0.1,0c0,0,0,0,0,0c0,0,0,0-0.1,0c0,0,0,0,0,0c0,0,0,0-0.1,0c0,0,0,0,0,0c0,0,0,0,0,0c0,0-0.1,0-0.1,0
					c0,0,0,0-0.1,0c0,0,0,0,0,0c0,0,0,0-0.1,0c0,0,0,0,0,0c0,0,0,0,0,0c0,0,0,0,0,0c0,0,0,0,0,0c0,0,0,0,0,0c0,0,0,0,0,0
					c0,0,0,0,0,0c0,0,0,0,0,0c0,0,0,0,0,0c0,0,0,0,0,0c0,0,0,0,0,0c0,0,0,0,0,0c0,0,0,0,0,0c0,0,0,0,0,0c0,0,0,0,0,0c0,0,0,0,0,0
					c0,0,0,0,0,0c0,0,0,0,0,0c0,0,0,0,0,0.1c0,0,0,0,0,0.1c-0.1,0.2-0.2,0.5-0.3,0.7c0,0,0,0-0.1,0c-0.1,0-0.2,0-0.3,0
					c-0.1,0-0.2,0-0.3,0l-0.4-0.1l-5.2-0.8c0,0,0,0,0,0c-0.1,0-0.1,0-0.2-0.1c-0.1,0-0.3-0.1-0.4-0.2c-0.1,0-0.1-0.1-0.2-0.1
					c0,0-0.1-0.1-0.1-0.1c0,0-0.1-0.1-0.1-0.1c-0.2-0.2-0.3-0.5-0.4-0.8c0-0.1,0-0.1-0.1-0.2c0-0.1,0-0.2-0.1-0.3
					c0-0.1,0-0.2-0.1-0.3c0-0.2,0-0.3,0-0.5c0-0.1,0-0.2,0-0.3c0-0.1,0-0.1,0-0.2c0,0,0-0.1,0-0.1c0,0,0,0,0,0c0,0,0,0,0,0
					c0,0,0,0,0,0c0,0,0,0,0,0c0,0,0,0,0,0c0,0,0,0,0-0.1c0,0,0-0.1,0-0.1c0-0.1,0-0.3-0.1-0.4c0-0.1-0.1-0.2-0.2-0.3
					c-0.1-0.1-0.2-0.2-0.4-0.3c-0.1-0.1-0.3-0.1-0.5-0.2c0,0-0.1,0-0.1,0l0,0c0,0,0,0-0.1,0c0,0,0,0,0,0c0,0,0,0-0.1,0
					c0,0,0,0-0.1,0c-0.1,0-0.1,0-0.2,0c-0.3,0.1-0.5,0.3-0.7,0.5c-0.1,0.1-0.1,0.2-0.1,0.2c0,0,0,0,0,0.1l0,0c0,0,0,0.1,0,0.1
					c0,0,0,0,0,0.1c-0.1,0.3-0.2,0.5-0.3,0.8c-0.1,0.2-0.2,0.3-0.3,0.5c-0.1,0.2-0.2,0.3-0.4,0.4c-0.1,0.1-0.1,0.1-0.2,0.2
					c-0.3,0.2-0.6,0.3-0.9,0.4c-0.1,0-0.1,0-0.2,0c-0.1,0-0.1,0-0.2,0c-0.1,0-0.1,0-0.2,0c-0.1,0-0.2,0-0.3,0c-0.1,0-0.2,0-0.4,0
					c-0.2,0-0.3,0-0.5,0c-0.1,0-0.3,0-0.4,0c-0.1,0-0.1,0-0.2,0l-2-0.3c-0.2,0-0.4-0.1-0.6-0.1c-0.2-0.1-0.4-0.1-0.5-0.2
					c-0.2-0.1-0.4-0.2-0.6-0.4c-0.1-0.1-0.2-0.2-0.3-0.3c-0.1-0.1-0.1-0.1-0.2-0.2c-0.1-0.1-0.1-0.3-0.2-0.4c0-0.1-0.1-0.2-0.1-0.3
					c0-0.1-0.1-0.2-0.1-0.3c0-0.1,0-0.2,0-0.2c0-0.1,0-0.1,0-0.2c0-0.1,0-0.3,0-0.4c0,0,0-0.1,0-0.1c0-0.1,0-0.2,0-0.3
					c0-0.1,0-0.3,0.1-0.4c0,0,0-0.1,0-0.1c0,0,0-0.1,0-0.1c0,0,0-0.1,0-0.1c0,0,0,0,0,0c0-0.1,0-0.2,0-0.3c0-0.2-0.1-0.4-0.1-0.5
					c0-0.1-0.1-0.1-0.1-0.2c0,0,0-0.1-0.1-0.1l2.2,0c1.8,0,3.6,0,5.3,0c0.7,0,1.3,0,2,0c0.2,0,0.4,0,0.6,0c0,0,0.1,0,0.1,0
					c0.1,0,0.1,0,0.2,0c0,0,0.1,0,0.1,0c0,0,0,0,0,0c1.6,0,3.2,0,4.9,0c2.4,0,4.9,0,7.3,0L449.8,274.2
					C449.7,274.2,449.7,274.2,449.8,274.2z M462.2,284.7C462.2,284.7,462.2,284.7,462.2,284.7C462.2,284.7,462.2,284.7,462.2,284.7
					C462.2,284.7,462.2,284.7,462.2,284.7L462.2,284.7L462.2,284.7C462.2,284.7,462.2,284.7,462.2,284.7L462.2,284.7
					C462.2,284.7,462.2,284.7,462.2,284.7C462.2,284.7,462.2,284.7,462.2,284.7C462.2,284.7,462.2,284.7,462.2,284.7L462.2,284.7z
					 M449.7,274.8c-1.1,0-2.1,0-3.2,0c-1.1,0-2.2,0-3.2,0c-1.6,0-3.2,0-4.9,0l-1.5,0l0.1,0c0,0,0,0,0,0c-0.1,0-0.1,0-0.2,0
					c0,0-0.1,0-0.1,0c-0.1,0-0.1,0-0.2,0l-0.2,0c-0.4,0-0.8,0-1.2,0c-0.4,0-0.8,0-1.2,0c-1.3,0-2.5,0-3.8,0c-0.9,0-1.8,0-2.7,0
					c0,0,0,0,0,0c0,0,0,0.1,0,0.1c0,0.1,0,0.2,0,0.3c0,0,0,0.1,0,0.1c0,0,0,0.1,0,0.1c0,0,0,0,0,0c0,0,0,0.1,0,0.1
					c0,0.2-0.1,0.4-0.1,0.7v0c0,0,0,0,0,0c0,0,0,0.1,0,0.1c0,0.1,0,0.1,0,0.2c0,0.1,0,0.2,0,0.3c0,0.1,0,0.1,0,0.2
					c0,0.1,0,0.2,0.1,0.3c0,0.1,0.1,0.2,0.1,0.3c0,0.1,0.1,0.2,0.1,0.3c0,0.1,0.1,0.1,0.1,0.2c0.1,0.1,0.1,0.2,0.2,0.2
					c0.2,0.1,0.3,0.2,0.5,0.3c0.2,0.1,0.4,0.1,0.5,0.2c0.1,0,0.2,0,0.3,0.1l1.9,0.3c0.2,0,0.4,0,0.5,0c0.2,0,0.4,0,0.6,0
					c0.3,0,0.5,0,0.8-0.1c0.2,0,0.4-0.1,0.6-0.2c0.1-0.1,0.2-0.1,0.3-0.2c0,0,0.1-0.1,0.1-0.1c0.1-0.1,0.1-0.1,0.2-0.2
					c0.1-0.1,0.1-0.2,0.2-0.3c0.1-0.1,0.1-0.3,0.2-0.4c0-0.1,0.1-0.2,0.1-0.3c0-0.1,0.1-0.2,0.1-0.3c0,0,0,0,0-0.1c0,0,0,0,0-0.1
					c0.1-0.2,0.2-0.4,0.4-0.6c0.2-0.2,0.4-0.3,0.6-0.4c0.1-0.1,0.3-0.1,0.5-0.1c0,0,0.1,0,0.1,0c0,0,0.1,0,0.1,0c0,0,0,0,0.1,0
					c0,0,0,0,0,0c0,0,0.1,0,0.1,0c0,0,0,0,0.1,0c0,0,0,0,0.1,0c0,0,0.1,0,0.1,0c0.2,0,0.3,0.1,0.5,0.1c0.2,0.1,0.4,0.2,0.6,0.4
					c0.2,0.2,0.3,0.4,0.4,0.7c0.1,0.2,0.1,0.4,0.1,0.6c0,0.1,0,0.1,0,0.2c0,0,0,0,0,0.1c0,0,0,0,0,0c0,0,0,0,0,0c0,0,0,0,0,0.1
					c0,0.2,0,0.3,0,0.5c0,0.1,0,0.3,0,0.4c0,0.1,0,0.2,0,0.3c0,0.1,0,0.2,0.1,0.3c0,0.1,0,0.2,0.1,0.2c0,0.1,0.1,0.2,0.1,0.3
					c0.1,0.1,0.1,0.2,0.3,0.3c0,0,0.1,0.1,0.1,0.1c0,0,0,0,0.1,0c0.1,0.1,0.3,0.1,0.4,0.1l5.2,0.8l0.4,0.1c0,0,0,0,0.1,0
					c0.1,0,0.1,0,0.2,0h0c0.1-0.1,0.1-0.2,0.2-0.3c0,0,0-0.1,0-0.1c0,0,0,0,0-0.1l0,0c0,0,0,0,0,0c0,0,0,0,0,0c0,0,0,0,0,0
					c0,0,0,0,0-0.1l0,0c0,0,0,0,0,0c0,0,0,0,0,0c0,0,0,0,0,0c0,0,0,0,0,0c0,0,0,0,0,0c0,0,0,0,0,0c0,0,0,0,0-0.1c0,0,0,0,0,0
					c0,0,0,0,0,0l0,0c0,0,0,0,0,0c0,0,0,0,0,0s0,0,0,0c0,0,0,0,0,0c0,0,0,0,0,0c0,0,0,0,0,0c0,0,0,0,0,0c0,0,0,0,0,0c0,0,0,0,0,0
					c0,0,0,0,0.1,0c0,0,0,0,0.1,0c0,0,0,0,0,0c0,0,0,0,0,0c0,0,0,0,0.1,0c0,0,0,0,0.1,0c0,0,0,0,0.1,0c0,0,0,0,0,0c0,0,0,0,0.1,0
					c0,0,0,0,0,0c0,0,0,0,0,0c0,0,0,0,0.1,0c0,0,0,0,0,0c0,0,0,0,0,0c0,0,0,0,0.1,0c0,0,0,0,0,0c0,0,0,0,0,0c0,0,0,0,0.1,0
					c0,0,0,0,0,0c0,0,0,0,0,0c0,0,0,0,0.1,0l0,0c0,0,0,0,0,0c0,0,0,0,0,0c0,0,0,0,0,0c0,0,0,0,0.1,0h0c0,0,0,0,0,0s0,0,0,0s0,0,0,0
					l0,0c0,0,0,0,0,0c0,0,0,0,0,0c0,0,0,0,0,0c0,0,0,0,0.1,0c0,0,0,0,0.1,0c0,0,0,0,0,0c0,0,0,0,0.1,0c0,0,0,0,0.1,0c0,0,0,0,0,0
					c0,0,0,0,0.1,0c0,0,0,0,0,0s0,0,0,0c0,0,0,0,0,0c0,0,0,0,0.1,0c0,0,0,0,0,0c0,0,0,0,0.1,0c0,0,0,0,0.1,0c0,0,0,0,0.1,0
					c0,0,0,0,0.1,0c0,0,0,0,0,0c0,0,0,0,0.1,0c0,0,0,0,0,0c0,0,0,0,0,0c0,0,0,0,0,0c0,0,0,0,0,0l0,0c0.5-0.4,1-0.9,1.4-1.5
					c0.2-0.3,0.4-0.5,0.6-0.8c0.1-0.2,0.2-0.4,0.3-0.6c0.1-0.1,0.1-0.2,0.2-0.4c0-0.1,0.1-0.1,0.1-0.2l0.1-0.1c0,0,0,0,0-0.1l0,0
					c0.1-0.2,0.2-0.3,0.4-0.4c0.2-0.2,0.4-0.3,0.7-0.4c0.1,0,0.2-0.1,0.3-0.1c0,0,0.1,0,0.1,0c0,0,0,0,0.1,0l0,0c0,0,0.1,0,0.1,0
					c0,0,0,0,0,0c0,0,0,0,0,0l0,0c0.2,0,0.4,0.1,0.6,0.1c0.2,0.1,0.3,0.2,0.5,0.3c0.1,0.1,0.2,0.2,0.3,0.3c0.1,0.1,0.1,0.2,0.2,0.3
					c0,0.1,0.1,0.2,0.1,0.2c0,0,0,0.1,0,0.1c0.1,0.2,0.2,0.5,0.3,0.7c0.2,0.5,0.5,1,0.7,1.4c0.2,0.4,0.4,0.7,0.7,1.1
					c0.2,0.2,0.3,0.5,0.5,0.7c0.1,0.2,0.3,0.3,0.4,0.5c0.2,0.2,0.4,0.5,0.6,0.7c0.1,0.1,0.2,0.2,0.3,0.3c0.1,0.1,0.2,0.2,0.3,0.3
					c0.2,0.2,0.4,0.3,0.7,0.5c0.1,0.1,0.3,0.2,0.4,0.2l0,0c0.1,0,0.2,0,0.3,0.1c0.1,0,0.2,0,0.3,0c0.2,0,0.4,0.1,0.7,0.1
					c0.1,0,0.3,0.1,0.4,0.1c0.1,0,0.3,0,0.4,0.1c0.1,0,0.3,0.1,0.4,0.1c0,0,0.1,0,0.1,0.1l0,0l3.4,0.5c0.4-0.4,0.8-0.9,1.2-1.3
					c1.8-1.9,3.6-3.8,5.4-5.7c0.3-0.3,0.7-0.7,1-1c0.1-0.1,0.2-0.3,0.3-0.4c0.1-0.2,0.3-0.3,0.4-0.5c0-0.1,0.1-0.1,0.1-0.2
					c0.1-0.1,0.1-0.2,0.2-0.3c0-0.1,0.1-0.1,0.1-0.2c0,0,0-0.1,0.1-0.1l0,0c-0.2,0-0.4,0-0.6,0c-0.2,0-0.3,0-0.5,0
					c-1.4,0-2.7,0-4.1,0c-2,0-4,0-6,0c-4.5,0-9,0-13.5,0l-0.2,0C449.8,274.9,449.8,274.9,449.7,274.8
					C449.7,274.8,449.7,274.8,449.7,274.8C449.7,274.8,449.6,274.8,449.7,274.8C449.6,274.8,449.6,274.8,449.7,274.8z M462.5,284.1
					L462.5,284.1L462.5,284.1L462.5,284.1L462.5,284.1L462.5,284.1L462.5,284.1L462.5,284.1C462.5,284.1,462.5,284.1,462.5,284.1z
					 M462.6,284.2L462.6,284.2L462.6,284.2L462.6,284.2C462.5,284.2,462.5,284.2,462.6,284.2z M462.5,284.2
					C462.5,284.1,462.5,284.1,462.5,284.2L462.5,284.2L462.5,284.2z M462.5,284.1L462.5,284.1L462.5,284.1L462.5,284.1L462.5,284.1
					L462.5,284.1C462.5,284.1,462.5,284.1,462.5,284.1z M462.5,284.1L462.5,284.1L462.5,284.1C462.5,284.1,462.5,284.1,462.5,284.1z
					 M462.5,284.1L462.5,284.1C462.5,284.1,462.5,284.1,462.5,284.1C462.5,284.1,462.5,284.1,462.5,284.1L462.5,284.1
					C462.5,284.1,462.5,284.1,462.5,284.1C462.5,284.1,462.5,284.1,462.5,284.1z M462.5,284.1L462.5,284.1L462.5,284.1L462.5,284.1
					C462.5,284.1,462.5,284.1,462.5,284.1z M462.5,284.1L462.5,284.1C462.5,284.1,462.5,284.1,462.5,284.1z M459.8,283.5
					L459.8,283.5C459.8,283.5,459.8,283.5,459.8,283.5z M453,280.4c0.1,0.2,0.2,0.5,0.4,0.7c0.3,0.6,0.7,1.1,1,1.6
					c0.1,0.2,0.3,0.4,0.4,0.6c0,0,0.1,0.1,0.1,0.1c0,0.1,0.1,0.1,0.1,0.2c-0.2,0-0.5-0.1-0.7-0.1c-0.4-0.1-0.9-0.1-1.3-0.2
					c-0.6-0.1-1.2-0.2-1.8-0.3c-0.2,0-0.4-0.1-0.6-0.1l0,0c0.1-0.1,0.2-0.2,0.3-0.2c0.2-0.2,0.4-0.4,0.6-0.5
					c0.1-0.1,0.3-0.3,0.4-0.4c0.2-0.2,0.3-0.4,0.5-0.6C452.6,280.8,452.8,280.6,453,280.4L453,280.4
					C452.9,280.4,453,280.4,453,280.4z M452.8,281.6c-0.1,0.1-0.2,0.2-0.3,0.4c-0.1,0.1-0.3,0.3-0.4,0.4c0.3,0,0.6,0.1,0.9,0.1
					l0.4,0.1c0,0-0.1-0.1-0.1-0.1c-0.1-0.1-0.2-0.3-0.3-0.4C453,281.9,452.9,281.8,452.8,281.6L452.8,281.6
					C452.8,281.6,452.8,281.6,452.8,281.6z M445.7,281L445.7,281C445.7,281,445.7,281,445.7,281z M445.7,281L445.7,281
					C445.7,281,445.7,281,445.7,281z M445.8,280.8C445.8,280.8,445.8,280.8,445.8,280.8C445.8,280.8,445.8,280.8,445.8,280.8z
					 M447.4,279.8L447.4,279.8C447.4,279.8,447.4,279.8,447.4,279.8C447.4,279.8,447.4,279.8,447.4,279.8z M447.4,279.8L447.4,279.8
					C447.4,279.8,447.4,279.8,447.4,279.8C447.4,279.8,447.4,279.8,447.4,279.8z M424,277.9c0,0.2,0.1,0.3,0.1,0.5
					c0,0.1,0.1,0.2,0.1,0.3l0,0c0,0.1,0,0.1,0.1,0.2l-1.4-0.2c0,0,0.1,0,0.1-0.1c0,0,0,0,0.1,0c0.1-0.1,0.3-0.2,0.4-0.2
					C423.7,278.2,423.8,278,424,277.9L424,277.9z M438.4,278.2L438.4,278.2L438.4,278.2C438.4,278.1,438.4,278.1,438.4,278.2z
					 M438.5,278L438.5,278L438.5,278L438.5,278C438.5,277.9,438.5,278,438.5,278z M414.8,274.2c3.2,0,6.4,0,9.6,0c0,0,0,0,0,0l0,0
					l0,0c0,0.1-0.1,0.1-0.1,0.2c-0.1,0.1-0.2,0.2-0.3,0.3c-0.1,0.1-0.2,0.2-0.3,0.3c-0.2,0.2-0.5,0.4-0.7,0.6
					c-0.3,0.2-0.6,0.4-1,0.6c-0.2,0.1-0.5,0.2-0.7,0.3c-0.2,0.1-0.3,0.1-0.5,0.2c-0.3,0.1-0.7,0.2-1,0.3c-0.3,0.1-0.6,0.1-0.8,0.2
					c-0.6,0.1-1.3,0.1-1.9,0.1c-0.2,0-0.5,0-0.7,0c-0.2,0-0.4,0-0.6,0c-0.1,0-0.1,0-0.2,0l-9.1-1.4c0.2-0.1,0.4-0.2,0.6-0.3
					c0.4-0.2,0.8-0.4,1.2-0.6c0.5-0.2,0.9-0.4,1.4-0.5c0.3-0.1,0.6-0.2,0.9-0.3c0.3-0.1,0.6-0.1,0.9-0.1c0.1,0,0.3,0,0.4,0
					C412.6,274.2,413.7,274.2,414.8,274.2z M411.6,274.9c-0.1,0-0.2,0-0.2,0c-0.2,0-0.4,0-0.6,0.1c-0.2,0-0.3,0.1-0.5,0.1
					c-0.2,0.1-0.5,0.1-0.7,0.2c-0.2,0.1-0.4,0.2-0.7,0.2c-0.1,0-0.2,0.1-0.3,0.1l0,0l6.9,1.1c0.1,0,0.1,0,0.2,0c0.2,0,0.5,0,0.7,0
					c0.2,0,0.5,0,0.7,0c0.2,0,0.4,0,0.6,0c0.4,0,0.7-0.1,1.1-0.1c0.2,0,0.5-0.1,0.7-0.1c0.4-0.1,0.8-0.2,1.2-0.4
					c0.1-0.1,0.3-0.1,0.4-0.2c0.2-0.1,0.5-0.2,0.7-0.4c0.2-0.1,0.5-0.3,0.7-0.5c0.1-0.1,0.2-0.2,0.4-0.3c-2.7,0-5.3,0-8,0
					C413.7,274.9,412.6,274.9,411.6,274.9z M475.5,274.5L475.5,274.5C475.5,274.5,475.5,274.5,475.5,274.5z M462,265.5
					c0.1,0.1,0.2,0.3,0.3,0.4c0.2,0.2,0.4,0.5,0.6,0.7c0.7,0.9,1.5,1.8,2.3,2.6c0.4,0.4,0.8,0.8,1.2,1.1c0.2,0.2,0.5,0.4,0.7,0.6
					c0.2,0.1,0.3,0.3,0.5,0.4c0.1,0.1,0.2,0.1,0.3,0.2c0.1,0.1,0.1,0.1,0.2,0.2c-0.9,0-1.8,0-2.7,0c-2.7,0-5.3,0-8,0
					c0,0,0.1-0.1,0.1-0.1c0.2-0.2,0.4-0.3,0.6-0.5c0.2-0.2,0.5-0.4,0.7-0.6c0.4-0.4,0.7-0.8,1.1-1.2c0.5-0.7,0.9-1.4,1.3-2.1
					c0.2-0.3,0.3-0.7,0.5-1.1c0.1-0.1,0.1-0.3,0.2-0.4C461.9,265.6,461.9,265.5,462,265.5L462,265.5z M428,266.1
					c0.1,0.2,0.1,0.4,0.2,0.5c0,0.2,0.1,0.3,0.2,0.5c0.2,0.8,0.5,1.5,0.9,2.2c0.2,0.5,0.5,0.9,0.8,1.4c0.2,0.3,0.4,0.6,0.6,0.9l0,0
					c-1.1,0-2.2,0-3.3,0c-1.1,0-2.2,0-3.3,0c-0.7,0-1.5,0-2.2,0c0,0,0.1,0,0.1-0.1c0.1-0.1,0.2-0.1,0.3-0.2c0.2-0.1,0.4-0.3,0.6-0.4
					c0.2-0.1,0.4-0.3,0.6-0.4c0.3-0.2,0.7-0.5,1-0.8c0.7-0.6,1.4-1.2,2-1.9c0.3-0.3,0.6-0.7,0.9-1.1c0.1-0.1,0.2-0.3,0.3-0.5
					C427.8,266.3,427.9,266.1,428,266.1C428,266.1,428,266.1,428,266.1z M462.1,266.7c-0.1,0.1-0.1,0.2-0.2,0.3
					c-0.1,0.2-0.2,0.4-0.3,0.5c-0.3,0.5-0.6,1-0.9,1.4c-0.2,0.2-0.3,0.4-0.5,0.7c-0.2,0.3-0.4,0.6-0.7,0.8c-0.1,0.1-0.3,0.3-0.4,0.4
					l0,0l0,0c0.7,0,1.4,0,2.2,0c1.6,0,3.1,0,4.7,0c0,0-0.1-0.1-0.1-0.1c-0.2-0.2-0.4-0.4-0.6-0.5c-0.4-0.4-0.8-0.8-1.2-1.2
					c-0.5-0.5-1-1.1-1.5-1.7C462.5,267.2,462.3,267,462.1,266.7C462.1,266.7,462.1,266.7,462.1,266.7z M427.7,267.6
					c-0.2,0.3-0.5,0.6-0.7,0.9c-0.5,0.5-1,1-1.5,1.5c-0.3,0.2-0.5,0.5-0.8,0.7c-0.1,0.1-0.3,0.2-0.4,0.3l0,0c1.1,0,2.1,0,3.2,0
					l1.1,0l0.9,0c0,0,0-0.1-0.1-0.1c-0.1-0.2-0.2-0.3-0.3-0.5c-0.2-0.3-0.4-0.7-0.5-1c-0.2-0.4-0.4-0.8-0.5-1.3
					C427.9,267.9,427.8,267.7,427.7,267.6L427.7,267.6C427.7,267.5,427.7,267.6,427.7,267.6z"/>
			</g>
			<g transform="matrix(1,0,0,1,917.063,0)">
				<path class="st2" d="M1525.2,215.6l14.5-112.5c0-0.1,0-0.3,0.1-0.4c0.1-0.3,0.2-0.6,0.3-0.8c0.5-1.1,1.4-1.9,2.6-2.3
					c0.3-0.1,0.6-0.2,0.9-0.2c0.1,0,0.3,0,0.4,0c0,0,0.1,0,0.1,0l0.2,0c0,0,0.1,0,0.1,0c0.1,0,0.3,0,0.4,0.1
					c0.4,0.1,0.9,0.2,1.3,0.4c0.7,0.3,1.2,0.9,1.6,1.5c0.3,0.5,0.5,1.1,0.6,1.6c0,0.3,0.1,0.6,0.1,0.9c0,0.1,0,0.3,0,0.4
					l-14.5,112.3l64.6,201.3c0,0.2,0.1,0.4,0.1,0.6c0.1,0.6,0.1,1.1,0,1.7c-0.1,0.4-0.2,0.7-0.4,1.1c-0.3,0.5-0.6,1-1.1,1.3
					c-0.6,0.5-1.3,0.8-2.1,1c-0.4,0.1-0.8,0.1-1.1,0.1c-0.6,0-1.1-0.2-1.6-0.5c-0.7-0.3-1.3-0.9-1.7-1.5c-0.3-0.4-0.3-0.6-0.5-1
					l-59.3-184.9l-29.7,184.2c-0.1,0.5-0.1,0.6-0.3,1.1c-0.3,0.7-0.8,1.3-1.4,1.8c-0.3,0.2-0.6,0.4-1,0.5c-0.5,0.2-1.1,0.3-1.7,0.3
					c-0.8,0-1.5-0.2-2.2-0.6c-0.3-0.2-0.6-0.4-0.9-0.7c-0.4-0.4-0.7-0.9-0.9-1.4c-0.2-0.5-0.3-1.1-0.3-1.7c0-0.2,0-0.4,0-0.6
					l28.4-176.3l-87.1,163.4c-0.1,0.2-0.2,0.3-0.3,0.5c-0.3,0.4-0.7,0.8-1.2,1.1c-0.5,0.3-1,0.5-1.5,0.6c-0.5,0.1-1.1,0.1-1.6,0
					c-0.5-0.1-1.1-0.3-1.5-0.6c-0.6-0.4-1.2-0.9-1.5-1.6c-0.2-0.3-0.3-0.7-0.4-1c-0.2-0.7-0.2-1.5,0-2.2c0.1-0.5,0.2-0.6,0.4-1
					L1525.2,215.6z"/>
			</g>
			<g transform="matrix(1,0,0,1,917.063,0)">
				<path class="st1" d="M1538.3,76l11.1-77.2c0-0.1,0-0.3,0.1-0.4c0.1-0.4,0.2-0.8,0.4-1.2c0.3-0.6,0.8-1.2,1.4-1.7
					c0.6-0.5,1.2-0.8,1.9-1c0.3-0.1,0.6-0.1,0.9-0.2c0.1,0,0.3,0,0.4,0c0.1,0,0.3,0,0.4,0c0.1,0,0.3,0,0.4,0
					c0.4,0.1,0.9,0.2,1.3,0.3c0.5,0.2,1,0.5,1.5,0.9c0.4,0.4,0.8,0.8,1.1,1.3c0.3,0.5,0.5,1.1,0.6,1.6c0.1,0.4,0.1,0.9,0.1,1.3
					c0,0.1,0,0.3,0,0.4L1549,75.7c0.5,0.1,0.9,0.2,1.4,0.4c1.1,0.4,2.2,0.9,3.2,1.7c0.7,0.5,1.3,1.2,1.9,1.9l184.1-84.9
					c1.3-0.4,1.3-0.4,2.7-0.5c0.4,0.1,0.9,0.2,1.3,0.3c1.1,0.6,1.4,0.6,2.2,1.6c0.6,0.7,1,1.6,1.1,2.5c0.1,0.5,0.1,0.9,0.1,1.4
					c0,0.5-0.1,0.9-0.3,1.3c-0.2,0.4-0.4,0.8-0.6,1.2c-0.7,1-1.1,1.1-2.1,1.7l-187.5,86.4c-0.1,0.3-0.2,0.6-0.3,0.9
					c-0.2,0.5-0.4,1-0.6,1.5c-0.3,0.8-0.6,1.5-1,2.2c-0.5,0.9-0.9,1.8-1.4,2.7c-0.7,1.3-1.5,2.5-2.3,3.7c-0.5,0.8-1.1,1.6-1.7,2.4
					l99.4,224.2c0.1,0.2,0.2,0.4,0.2,0.6c0.2,0.8,0.2,1.7,0,2.5c-0.1,0.4-0.3,0.8-0.5,1.1c-0.2,0.4-0.5,0.7-0.8,0.9
					c-0.3,0.3-0.7,0.5-1.1,0.7c-1,0.4-2.1,0.5-3,0.2c-0.4-0.1-0.8-0.3-1.1-0.5c-0.5-0.3-1-0.8-1.3-1.3c-0.1-0.2-0.2-0.4-0.3-0.6
					l-90.9-205l16.1,316.1l-0.2,1.7l-0.9,1.5l-1.4,1l-1.7,0.4l-1.7-0.2c-1.5-0.9-1.5-0.9-2.5-2.2l-0.4-1.7l-16.3-320.3l-87,208.8
					c-0.1,0.2-0.2,0.4-0.3,0.6c-0.4,0.7-1.1,1.3-1.8,1.7c-0.4,0.2-0.8,0.3-1.2,0.4c-1,0.2-2.1,0-3-0.6c-0.4-0.2-0.7-0.5-1-0.8
					c-0.3-0.3-0.5-0.6-0.7-1c-0.2-0.4-0.3-0.8-0.4-1.2c-0.1-0.6-0.1-1.2,0.1-1.9c0.1-0.2,0.1-0.4,0.2-0.6l64.6-155L1359,445.4
					l-1.1,1.3l-1.5,0.8c-1.7,0.1-1.7,0.1-3.3-0.4l-1.3-1.1l-0.8-1.5l-0.1-1.7l0.5-1.6L1538.9,104c-0.3-0.4-0.6-0.8-0.9-1.2
					c-0.9-1.2-1.7-2.4-2.4-3.7c-0.6-1-1.1-1.9-1.6-2.9c-0.2-0.4-0.5-0.9-0.7-1.4L1293.9,4.5c-1.1-0.6-1.4-0.6-2.2-1.6
					c-0.3-0.4-0.5-0.7-0.7-1.2c-0.4-0.8-0.5-1.8-0.4-2.7c0-0.5,0.2-0.9,0.3-1.3c0.2-0.4,0.4-0.8,0.6-1.2c0.3-0.4,0.6-0.7,0.9-1
					c0.7-0.6,1.6-1,2.5-1.1c0.4-0.1,0.9,0,1.4,0c0.4,0.1,0.9,0.2,1.3,0.3l233.6,88.2c0-0.1,0.1-0.2,0.1-0.3c0.1-0.5,0.3-0.9,0.6-1.4
					c0.3-0.6,0.6-1.1,1-1.6c0.6-0.7,1.2-1.3,1.9-1.9C1535.9,77,1537.1,76.4,1538.3,76z"/>
			</g>
		</g>
	</g>
</g>
</svg>
