<?xml version="1.0" encoding="UTF-8" standalone="no"?><!DOCTYPE svg PUBLIC "-//W3C//DTD SVG 1.1//EN" "http://www.w3.org/Graphics/SVG/1.1/DTD/svg11.dtd"><svg width="100%" height="100%" viewBox="0 0 1000 1000" version="1.1" xmlns="http://www.w3.org/2000/svg" xmlns:xlink="http://www.w3.org/1999/xlink" xml:space="preserve" style="fill-rule:evenodd;clip-rule:evenodd;stroke-linejoin:round;stroke-miterlimit:1.41421;"><g><g><path d="M909.784,340.278c1.239,0.332 1.593,0.338 2.714,0.985c1.689,0.975 3.001,2.54 3.666,4.37c0.444,1.216 0.388,1.565 0.501,2.849l0,38.278c-0.113,1.279 -0.057,1.628 -0.501,2.85c-0.834,2.297 -2.686,4.144 -4.978,4.977c-1.222,0.445 -1.571,0.389 -2.849,0.501c-200.463,0 -400.926,-1.227 -601.383,0.006c-8.238,0.158 -16.397,1.47 -24.224,4.06c-15.333,5.073 -28.97,14.815 -38.734,27.675c-4.955,6.527 -8.88,13.796 -11.65,21.504c-2.332,6.476 -3.801,13.267 -4.404,20.119c-0.202,2.326 -0.276,4.651 -0.298,6.983l0,140.995c-0.113,1.284 -0.056,1.633 -0.501,2.85c-0.839,2.297 -2.686,4.144 -4.978,4.983c-1.222,0.445 -1.571,0.388 -2.849,0.501l-38.278,0c-1.284,-0.113 -1.633,-0.056 -2.85,-0.501c-2.297,-0.839 -4.144,-2.686 -4.983,-4.983c-0.445,-1.217 -0.388,-1.566 -0.501,-2.85c0,-48.622 -0.265,-97.25 0.011,-145.877c0.113,-5.609 0.49,-11.2 1.267,-16.758c1.29,-9.189 3.548,-18.243 6.74,-26.96c7.309,-19.973 19.522,-38.07 35.266,-52.367c13.007,-11.813 28.346,-21.008 44.923,-26.847c9.82,-3.458 20.045,-5.738 30.406,-6.791c4.477,-0.456 8.97,-0.653 13.469,-0.681l603.551,0c0.478,0.045 0.963,0.084 1.447,0.129Zm-604.947,16.532c-3.953,0.023 -7.9,0.197 -11.836,0.597c-9.043,0.918 -17.979,2.911 -26.555,5.929c-14.488,5.102 -27.89,13.143 -39.258,23.47c-13.756,12.489 -24.432,28.306 -30.823,45.756c-2.782,7.612 -4.758,15.518 -5.879,23.542c-0.749,5.366 -1.092,10.766 -1.12,16.177l0,135.821l21.616,0c0,-44.635 -0.36,-89.271 0.012,-133.906c0.168,-10.338 1.908,-20.598 5.276,-30.378c4.651,-13.498 12.297,-25.908 22.264,-36.128c9.978,-10.231 22.219,-18.199 35.615,-23.176c7.416,-2.759 15.169,-4.606 23.03,-5.485c3.181,-0.354 6.374,-0.535 9.572,-0.591l1.183,-0.011l592.069,0l0,-21.617c-198.385,0 -396.776,0 -595.166,0Z" style="fill:#fff;fill-rule:nonzero;"/><path d="M992.686,340.278c1.239,0.332 1.594,0.338 2.72,0.985c1.684,0.975 2.996,2.54 3.66,4.37c0.445,1.216 0.389,1.565 0.501,2.849c0,48.622 0.271,97.25 -0.005,145.878c-0.113,5.608 -0.496,11.2 -1.273,16.757c-1.289,9.195 -3.547,18.244 -6.734,26.96c-7.501,20.474 -20.136,38.96 -36.443,53.426c-12.754,11.306 -27.675,20.124 -43.751,25.789c-9.815,3.457 -20.046,5.738 -30.401,6.791c-4.482,0.456 -8.97,0.653 -13.475,0.681l-603.545,0c-1.284,-0.113 -1.633,-0.056 -2.849,-0.501c-2.297,-0.839 -4.144,-2.686 -4.983,-4.983c-0.445,-1.217 -0.389,-1.566 -0.501,-2.85l0,-38.278c0.112,-1.278 0.056,-1.627 0.501,-2.849c0.839,-2.298 2.686,-4.144 4.983,-4.978c1.216,-0.445 1.565,-0.388 2.849,-0.501c200.457,0 400.92,1.228 601.377,-0.006c8.238,-0.157 16.397,-1.469 24.23,-4.059c15.017,-4.967 28.407,-14.421 38.132,-26.899c5.236,-6.717 9.369,-14.263 12.252,-22.281c2.326,-6.475 3.795,-13.261 4.398,-20.119c0.203,-2.325 0.282,-4.651 0.298,-6.982l0,-140.996c0.113,-1.284 0.062,-1.633 0.502,-2.849c0.839,-2.297 2.685,-4.144 4.983,-4.983c1.222,-0.445 1.571,-0.389 2.849,-0.501l38.278,0c0.479,0.045 0.963,0.084 1.447,0.129Zm-31.397,16.532c0,44.636 0.36,89.271 -0.011,133.907c-0.017,1.199 -0.057,2.393 -0.107,3.587c-0.597,11.098 -3.001,22.044 -7.258,32.32c-4.556,10.992 -11.144,21.11 -19.337,29.731c-10.394,10.935 -23.362,19.365 -37.563,24.449c-7.078,2.54 -14.448,4.246 -21.921,5.079c-3.181,0.355 -6.368,0.535 -9.566,0.591l-1.183,0.012l-592.075,0l0,21.616c198.898,0 397.795,1.262 596.687,-0.011c1.486,-0.028 2.967,-0.073 4.454,-0.141c3.896,-0.219 7.782,-0.591 11.644,-1.177c8.925,-1.362 17.687,-3.789 26.049,-7.201c16.757,-6.842 31.808,-17.692 43.655,-31.37c9.139,-10.546 16.352,-22.748 21.15,-35.851c2.787,-7.613 4.758,-15.519 5.878,-23.543c0.755,-5.366 1.093,-10.76 1.121,-16.177l0,-135.821c-7.202,0 -14.41,0 -21.617,0Z" style="fill:#fff;fill-rule:nonzero;"/><path d="M919.182,402.459c0.467,0.135 0.946,0.225 1.396,0.4c1.819,0.698 3.356,2.038 4.302,3.739c0.631,1.137 0.631,1.492 0.94,2.736l5.98,37.811c0.091,1.279 0.197,1.616 -0.05,2.889c-0.468,2.399 -1.999,4.516 -4.139,5.698c-1.137,0.631 -1.492,0.631 -2.736,0.941l-668.891,105.831c-1.284,0.09 -1.616,0.197 -2.894,-0.051c-2.399,-0.467 -4.511,-2.004 -5.693,-4.138c-0.631,-1.138 -0.631,-1.493 -0.946,-2.737l-5.98,-37.811c-0.09,-1.278 -0.197,-1.616 0.051,-2.888c0.467,-2.399 2.004,-4.516 4.138,-5.699c1.138,-0.631 1.492,-0.631 2.737,-0.94l668.896,-105.831l1.447,-0.102c0.479,0.051 0.963,0.102 1.442,0.152Zm-660.952,120.933l3.379,21.352l652.432,-103.224l-3.373,-21.352c-217.479,34.41 -434.958,68.814 -652.438,103.224Z" style="fill:#fff;fill-rule:nonzero;"/><path d="M304.16,328.901c-0.04,0.566 -0.13,1.119 -0.3,1.672c-0.67,2.303 -2.34,4.235 -4.53,5.231c-0.92,0.423 -1.87,0.625 -2.87,0.732c-38.45,1.374 -76.95,0.023 -115.43,0.023c-1,-0.034 -1.96,-0.175 -2.91,-0.524c-2.24,-0.839 -4.05,-2.652 -4.89,-4.899c-0.28,-0.754 -0.42,-1.514 -0.5,-2.314c-0.65,-18.052 -0.03,-36.122 -0.03,-54.185c0.04,-1.003 0.18,-1.965 0.53,-2.911c0.84,-2.247 2.65,-4.055 4.89,-4.894c0.76,-0.281 1.52,-0.416 2.32,-0.506c38.65,-1.38 77.37,-1.38 116.02,0c1,0.107 1.95,0.315 2.87,0.732c2,0.912 3.58,2.612 4.35,4.668c0.27,0.729 0.41,1.469 0.49,2.235l484.87,0c0.07,-0.762 0.21,-1.504 0.48,-2.235c0.84,-2.247 2.65,-4.055 4.9,-4.894c0.76,-0.281 1.52,-0.416 2.31,-0.506c38.65,-1.38 77.38,-1.38 116.03,0c0.8,0.09 1.56,0.225 2.32,0.506c2.05,0.766 3.75,2.349 4.66,4.342c0.42,0.918 0.63,1.869 0.74,2.866c0.64,18.052 0.02,36.127 0.02,54.185c-0.04,1.008 -0.18,1.971 -0.53,2.911c-0.84,2.247 -2.65,4.06 -4.89,4.899c-0.76,0.282 -1.52,0.417 -2.32,0.501c-38.45,1.374 -76.95,0.023 -115.43,0.023c-1,-0.034 -1.96,-0.175 -2.91,-0.524c-2.25,-0.839 -4.06,-2.652 -4.9,-4.899c-0.26,-0.729 -0.41,-1.464 -0.49,-2.235l-484.87,0Zm-16.62,-16.662l0,-21.616l-98.17,0l0,21.616l98.17,0Zm501.34,-21.616l-484.41,0c0.02,7.205 -0.07,14.411 -0.15,21.616l484.41,0c-0.02,-7.204 0.07,-14.41 0.15,-21.616Zm111.12,0l-94.34,0l0,21.616l94.34,0l0,-21.616Z" style="fill:#fff;"/><path d="M617.622,675.928l364.888,0c0.06,-7.939 0.19,-15.878 0.41,-23.812c0.08,-0.924 0.25,-1.813 0.6,-2.675c0.87,-2.14 2.63,-3.857 4.8,-4.668c0.72,-0.27 1.47,-0.417 2.23,-0.501c0.47,-0.023 0.92,-0.023 1.38,0c0.76,0.084 1.51,0.231 2.23,0.501c2.16,0.811 3.93,2.528 4.8,4.668c0.35,0.862 0.52,1.751 0.6,2.675c0.59,21.419 0.59,42.867 0,64.287c-0.14,1.7 -0.69,3.299 -1.74,4.656c-0.57,0.721 -1.25,1.352 -2.02,1.859c-3.02,1.965 -7.08,1.745 -9.86,-0.547c-0.83,-0.681 -1.52,-1.52 -2.03,-2.466c-0.59,-1.092 -0.89,-2.269 -0.99,-3.502c-0.22,-7.935 -0.35,-15.873 -0.41,-23.813l-356.583,0c0.1,11.161 -0.15,22.324 -0.15,33.484c-0.029,0.979 -0.164,1.925 -0.502,2.849c-0.833,2.297 -2.685,4.144 -4.977,4.978c-0.772,0.281 -1.554,0.416 -2.365,0.489c-24.314,0.704 -48.645,0.012 -72.97,0.012c-0.98,-0.028 -1.926,-0.164 -2.849,-0.501c-2.297,-0.834 -4.144,-2.681 -4.978,-4.978c-0.281,-0.772 -0.416,-1.554 -0.49,-2.365c-0.33,-11.317 -0.137,-22.642 -0.048,-33.968l-346.828,0c-0.06,7.94 -0.2,15.878 -0.41,23.813c-0.11,1.233 -0.41,2.41 -1,3.502c-0.51,0.946 -1.2,1.785 -2.03,2.466c-0.71,0.586 -1.51,1.048 -2.38,1.374c-3.37,1.262 -7.28,0.152 -9.49,-2.686c-1.05,-1.357 -1.6,-2.956 -1.74,-4.656c-0.59,-21.42 -0.59,-42.868 0,-64.287c0.06,-0.766 0.19,-1.515 0.43,-2.247c0.76,-2.185 2.42,-3.992 4.54,-4.921c0.85,-0.372 1.74,-0.569 2.66,-0.676c0.46,-0.023 0.91,-0.023 1.38,0c0.76,0.084 1.5,0.231 2.22,0.501c2.17,0.811 3.94,2.528 4.8,4.668c0.36,0.862 0.53,1.751 0.61,2.675c0.21,7.934 0.35,15.873 0.41,23.812l355.019,0c24.265,-0.698 48.563,-0.698 72.833,0Z" style="fill:#feff09;"/><path d="M104.8,415.79l0,-131.984c-7.94,-0.056 -15.87,-0.194 -23.81,-0.413c-1.23,-0.102 -2.41,-0.4 -3.5,-0.991c-0.94,-0.513 -1.79,-1.205 -2.47,-2.033c-0.58,-0.71 -1.05,-1.515 -1.37,-2.376c-1.26,-3.373 -0.16,-7.281 2.68,-9.494c1.36,-1.053 2.97,-1.605 4.66,-1.745c21.42,-0.586 42.87,-0.586 64.29,0c1.7,0.14 3.3,0.692 4.65,1.745c0.73,0.563 1.36,1.25 1.86,2.016c1.97,3.018 1.75,7.072 -0.55,9.854c-0.68,0.828 -1.51,1.52 -2.46,2.033c-1.09,0.591 -2.27,0.889 -3.5,0.991c-7.94,0.219 -15.88,0.357 -23.82,0.413l0,140.578c0.453,13.926 0.003,27.874 0.003,41.81l-0.003,0.084l0,140.935c7.94,0.057 15.88,0.195 23.82,0.414c1.7,0.14 3.3,0.687 4.65,1.739c0.73,0.569 1.36,1.251 1.86,2.022c1.97,3.012 1.75,7.072 -0.55,9.848c-0.68,0.828 -1.51,1.521 -2.46,2.033c-1.09,0.591 -2.27,0.89 -3.5,0.991c-21.42,0.591 -42.87,0.591 -64.29,0c-1.23,-0.101 -2.41,-0.4 -3.5,-0.991c-0.94,-0.512 -1.79,-1.205 -2.47,-2.033c-0.58,-0.709 -1.05,-1.514 -1.37,-2.37c-1.26,-3.373 -0.16,-7.287 2.68,-9.5c1.36,-1.052 2.97,-1.599 4.66,-1.739c7.94,-0.219 15.87,-0.357 23.81,-0.414l0,-132.452c-32.075,0.753 -64.179,-0.233 -96.268,-0.233c-0.766,-0.028 -1.509,-0.101 -2.247,-0.31c-2.399,-0.67 -4.403,-2.421 -5.394,-4.701c-0.383,-0.884 -0.575,-1.797 -0.67,-2.754c-0.485,-14.116 -0.023,-28.255 -0.023,-42.383c0.034,-0.957 0.158,-1.881 0.484,-2.793c0.834,-2.342 2.714,-4.223 5.057,-5.056c0.726,-0.259 1.458,-0.383 2.224,-0.462c32.261,-1.104 64.569,-1.197 96.837,-0.279Z" style="fill:#feff09;"/><g><path d="M556.996,726.074c7.146,0 12.377,-4.832 12.377,-12.028c0,-6.847 -3.773,-9.465 -7.945,-10.321l6.385,-6.093l0,-7.444l-21.386,0l0,7.495l11.526,0l-6.295,6.492l0,6.6l4.888,0c2.714,0 4.127,1.661 4.127,3.626c0,2.314 -1.515,3.773 -3.88,3.773c-2.314,0 -3.772,-1.56 -4.38,-3.475l-7.45,2.219c0.907,3.823 4.077,9.156 12.033,9.156Z" style="fill:#262626;fill-rule:nonzero;"/><path d="M597.11,725.421l0,-7.495l-13.835,0c1.661,-4.685 13.486,-8.565 13.486,-17.523c0,-6.847 -5.085,-10.868 -11.977,-10.868c-7.956,0 -11.126,5.327 -12.033,9.156l7.45,2.213c0.608,-1.915 1.914,-3.474 4.228,-3.474c2.168,0 3.576,1.21 3.576,3.322c0,5.287 -15,11.43 -15,21.6l0,3.069l24.105,0Z" style="fill:#262626;fill-rule:nonzero;"/><path d="M601.046,690.188l0.248,12.929l6.188,0l0.253,-12.929l-6.689,0Zm9.713,0l0.254,12.929l6.182,0l0.254,-12.929l-6.69,0Z" style="fill:#262626;fill-rule:nonzero;"/></g><g><path d="M22.468,427.668l-7.038,0l-6.898,2.32l2.016,7.146l3.423,-1.059l0,26.825l8.497,0l0,-35.232Z" style="fill:#262626;fill-rule:nonzero;"/><path d="M53.026,445.287c0,-12.236 -3.671,-18.272 -12.528,-18.272c-8.863,0 -12.534,6.036 -12.534,18.272c0,12.236 3.671,18.272 12.534,18.272c8.857,0 12.528,-6.036 12.528,-18.272Zm-16.357,0c0,-7.1 0.704,-10.22 3.829,-10.22c3.119,0 3.829,3.12 3.829,10.22c0,7.101 -0.71,10.22 -3.829,10.22c-3.125,0 -3.829,-3.119 -3.829,-10.22Z" style="fill:#262626;fill-rule:nonzero;"/><path d="M60.33,463.559c2.764,0 5.028,-2.263 5.028,-4.983c0,-2.765 -2.264,-5.028 -5.028,-5.028c-2.765,0 -4.984,2.263 -4.984,5.028c0,2.72 2.219,4.983 4.984,4.983Z" style="fill:#262626;fill-rule:nonzero;"/><path d="M80.161,446.796c3.379,0 4.635,2.467 4.635,4.432c0,2.669 -1.864,4.431 -4.229,4.431c-2.32,0 -3.981,-1.306 -4.533,-3.474l-7.444,2.219c0.907,3.823 4.477,9.155 12.427,9.155c7.151,0 12.484,-5.383 12.484,-13.035c0,-6.847 -5.485,-10.975 -11.172,-10.975c-1.464,0 -2.922,0.152 -4.533,0.907l0.248,-5.293l13.193,0l0,-7.495l-20.839,0l-0.704,19.629l7.044,1.11c0.45,-0.603 1.61,-1.611 3.423,-1.611Z" style="fill:#262626;fill-rule:nonzero;"/><path d="M96.727,427.668l0.254,12.934l6.182,0l0.254,-12.934l-6.69,0Zm9.719,0l0.248,12.934l6.188,0l0.253,-12.934l-6.689,0Z" style="fill:#262626;fill-rule:nonzero;"/></g></g></g></svg>