<?xml version="1.0" encoding="UTF-8" standalone="no"?><!DOCTYPE svg PUBLIC "-//W3C//DTD SVG 1.1//EN" "http://www.w3.org/Graphics/SVG/1.1/DTD/svg11.dtd"><svg width="100%" height="100%" viewBox="0 0 1001 679" version="1.1" xmlns="http://www.w3.org/2000/svg" xmlns:xlink="http://www.w3.org/1999/xlink" xml:space="preserve" style="fill-rule:evenodd;clip-rule:evenodd;stroke-linejoin:round;stroke-miterlimit:1.41421;"><rect id="Artboard4" x="0" y="0" width="1000.01" height="678.078" style="fill:none;"/><clipPath id="_clip1"><rect id="Artboard41" x="0" y="0" width="1000.01" height="678.078"/></clipPath><g clip-path="url(#_clip1)"><path d="M587.723,599.329l-293.881,-78.745l0.038,-0.142c-68.852,-18.593 -137.679,-37.281 -206.481,-56.063c-1.025,-0.283 -1.968,-0.553 -2.985,-0.868c-2.031,-0.637 -4.042,-1.345 -6.035,-2.125c-5.519,-2.156 -10.808,-4.852 -15.795,-8.043c-4.697,-3.011 -9.184,-6.491 -13.236,-10.328c-4.06,-3.806 -7.689,-7.962 -10.976,-12.442c-5.025,-6.841 -9.098,-14.393 -11.964,-22.341c-2.926,-8.041 -4.724,-16.499 -5.31,-25.055c-0.415,-6.352 -0.22,-12.768 0.706,-19.066c0.336,-2.204 0.756,-4.403 1.255,-6.581c0.211,-1.103 0.501,-2.186 0.791,-3.268c23.357,-89.066 47.19,-178.012 71.495,-266.824c0.29,-1.082 0.582,-2.172 0.951,-3.234c0.655,-2.127 1.391,-4.242 2.202,-6.319c2.349,-5.924 5.386,-11.571 8.921,-16.864c4.786,-7.117 10.572,-13.543 17.126,-19.043c6.456,-5.45 13.76,-9.954 21.535,-13.374c5.084,-2.228 10.304,-4.013 15.724,-5.279c5.428,-1.297 11.053,-2.068 16.626,-2.327c5.915,-0.27 11.844,0.04 17.701,0.933c2.115,0.321 4.212,0.713 6.289,1.177c1.038,0.235 1.992,0.466 3.021,0.733c68.973,18.142 137.897,36.467 206.794,54.894l293.882,78.745l-0.077,0.284c68.782,18.541 137.487,37.052 206.218,55.468c1.106,0.296 2.205,0.616 3.222,0.931c2.267,0.701 4.435,1.459 6.579,2.305c5.974,2.354 11.616,5.314 16.935,8.847c7.182,4.795 13.742,10.651 19.249,17.275c5.648,6.729 10.237,14.25 13.752,22.304c2.07,4.915 3.75,10.022 4.975,15.245c1.269,5.378 2,10.866 2.298,16.39c0.256,5.996 -0.085,12.009 -0.999,17.945c-0.315,2.126 -0.71,4.23 -1.185,6.321c-0.267,0.995 -0.532,1.983 -0.798,2.978c-23.65,88.894 -47.142,177.831 -71.424,266.556c-0.29,1.082 -0.58,2.164 -0.949,3.225c-0.656,2.136 -1.392,4.25 -2.203,6.328c-2.347,5.916 -5.387,11.57 -8.922,16.864c-4.786,7.117 -10.493,13.564 -17.126,19.043c-6.456,5.45 -13.759,9.954 -21.532,13.366c-5.007,2.257 -10.306,4.021 -15.726,5.287c-5.428,1.297 -11.053,2.067 -16.627,2.327c-5.914,0.269 -11.843,-0.041 -17.7,-0.933c-2.116,-0.321 -4.212,-0.713 -6.289,-1.177c-1.038,-0.236 -1.99,-0.474 -3.019,-0.741c-69.054,-18.156 -138.004,-36.385 -207.007,-54.731l-0.039,0.142Zm318.533,-362.117c-68.783,-18.854 -139.474,-29.006 -209.621,-44.348c-84.463,-18.474 -211.496,-52.513 -293.881,-78.745c-68.262,-21.745 -134.583,-47.89 -203.392,-66.327c-0.871,-0.225 -1.667,-0.413 -2.545,-0.615c-1.838,-0.407 -3.616,-0.723 -5.414,-0.968c-4.33,-0.584 -8.693,-0.737 -13.084,-0.466c-3.701,0.228 -7.324,0.79 -10.937,1.634c-1.262,0.288 -2.454,0.629 -3.734,0.98c-1.932,0.575 -3.804,1.242 -5.695,1.98c-4.175,1.675 -8.127,3.783 -11.922,6.255c-1.655,1.123 -3.249,2.33 -4.857,3.592c-1.285,1.002 -2.501,2.065 -3.647,3.181c-1.009,0.923 -1.944,1.883 -2.885,2.867c-0.949,1.016 -1.907,2.063 -2.791,3.148c-1.355,1.584 -2.566,3.258 -3.783,4.955c-1.831,2.727 -3.526,5.575 -4.917,8.556c-0.763,1.582 -1.451,3.201 -2.141,4.828c-0.594,1.585 -1.111,3.199 -1.628,4.813c-0.142,0.53 -0.284,1.059 -0.426,1.588c-24.354,88.68 -48.157,177.516 -71.406,266.492c-0.142,0.53 -0.284,1.059 -0.427,1.596c-0.282,1.051 -0.487,2.131 -0.689,3.203c-0.477,2.725 -0.793,5.486 -0.94,8.249c-0.067,0.879 -0.129,1.743 -0.114,2.636c0.004,0.933 0.008,1.865 0.012,2.798c0.057,0.735 0.037,1.441 0.097,2.168c0.095,0.906 0.114,1.783 0.215,2.674c0.121,1.125 0.246,2.242 0.451,3.372c0.641,4.245 1.721,8.429 3.178,12.469c1.462,4.024 3.304,7.896 5.537,11.568c1.463,2.441 3.041,4.769 4.815,6.997c4.619,5.827 10.294,10.878 16.602,14.829c2.034,1.257 4.098,2.402 6.193,3.43c1.496,0.739 3.089,1.428 4.62,2.033c1.606,0.642 3.31,1.235 4.955,1.734c0.704,0.215 1.334,0.392 2.043,0.59c68.677,18.614 139.162,29.219 209.136,44.574c84.449,18.529 211.482,52.568 293.882,78.745c68.432,21.74 134.807,48.001 203.799,66.072c2.532,0.662 5.025,1.152 7.636,1.521c1.061,0.149 2.128,0.274 3.125,0.347c1.485,0.144 2.902,0.227 4.332,0.263c2.945,0.069 5.862,-0.072 8.825,-0.387c0.962,-0.115 2.01,-0.232 2.982,-0.387c1.592,-0.251 3.117,-0.57 4.736,-0.924c2.35,-0.555 4.651,-1.243 6.98,-2.033c4.584,-1.625 9.048,-3.748 13.135,-6.362c1.624,-1.004 3.181,-2.077 4.675,-3.226c0.626,-0.442 1.174,-0.905 1.723,-1.376c2.145,-1.686 4.158,-3.509 6.034,-5.453c2.727,-2.91 5.264,-6.058 7.516,-9.408c3.837,-5.788 6.741,-12.199 8.54,-18.914c24.361,-88.704 48.168,-177.556 71.423,-266.555c0.614,-2.291 1.147,-4.596 1.44,-6.956c0.173,-1.274 0.343,-2.541 0.511,-3.8c0.023,-1.035 0.125,-2.049 0.147,-3.077c0.048,-1.13 0.097,-2.26 0.063,-3.395c-0.008,-0.603 -0.018,-1.199 -0.03,-1.786c-0.019,-0.877 -0.117,-1.776 -0.138,-2.645c-0.114,-1.47 -0.311,-2.945 -0.513,-4.405c-0.557,-4.239 -1.631,-8.447 -3.083,-12.511c-1.28,-3.755 -2.928,-7.398 -4.961,-10.872c-0.979,-1.719 -2.056,-3.387 -3.148,-5.001c-1.106,-1.558 -2.23,-3.053 -3.447,-4.514c-0.976,-1.099 -1.881,-2.146 -2.875,-3.175c-1.258,-1.31 -2.532,-2.558 -3.826,-3.734c-1.511,-1.311 -2.963,-2.53 -4.517,-3.683c-0.429,-0.293 -0.78,-0.565 -1.135,-0.82c-1.354,-0.948 -2.722,-1.848 -4.107,-2.684c-1.38,-0.853 -2.854,-1.671 -4.345,-2.426c-0.823,-0.407 -1.649,-0.798 -2.401,-1.152c-1.132,-0.515 -2.275,-0.99 -3.424,-1.442c-1.38,-0.539 -2.772,-1.031 -4.177,-1.475c-0.782,-0.243 -1.565,-0.479 -2.355,-0.69Z" style="fill:#fff;"/></g></svg>