<?xml version="1.0" encoding="UTF-8" standalone="no"?><!DOCTYPE svg PUBLIC "-//W3C//DTD SVG 1.1//EN" "http://www.w3.org/Graphics/SVG/1.1/DTD/svg11.dtd"><svg width="100%" height="100%" viewBox="0 0 515 140" version="1.1" xmlns="http://www.w3.org/2000/svg" xmlns:xlink="http://www.w3.org/1999/xlink" xml:space="preserve" style="fill-rule:evenodd;clip-rule:evenodd;stroke-linejoin:round;stroke-miterlimit:1.41421;"><rect id="Artboard1" x="0" y="0" width="514.25" height="139.25" style="fill:none;"/><path d="M514.25,14.25l-375,0l-125,125l375,0l125,-125Z" style="fill:#262626;"/><path d="M500,0l-375,0l-125,125l375,0l125,-125Z" style="fill:#feff09;"/><path d="M132.763,64.621c0,-2.354 -0.924,-4.327 -3.149,-5.335c2.604,-1.343 4.367,-4.243 4.367,-7.398c0,-4.199 -3.023,-6.592 -8.356,-6.592l-10.505,0l-4.916,29.408l10.841,0c6.301,0 11.718,-3.358 11.718,-10.083Zm-9.827,-2.102c1.596,0 2.437,0.967 2.437,2.439c0,1.934 -1.345,3.575 -3.488,3.575l-3.488,0l1.009,-6.014l3.53,0Zm1.302,-11.094c1.513,0 2.227,0.842 2.227,2.104c0,1.808 -1.176,3.238 -3.067,3.238l-3.068,0l0.925,-5.342l2.983,0Z" style="fill:#262626;fill-rule:nonzero;"/><path d="M146.968,45.296l-7.185,0l-4.917,29.408l7.186,0l4.916,-29.408Z" style="fill:#262626;fill-rule:nonzero;"/><path d="M177.262,58.196l-11.766,0l-1.008,6.003l5.084,0l-0.42,2.609c-0.546,0.462 -2.9,1.809 -6.597,1.809c-4.076,0 -6.933,-2.777 -6.933,-7.314c0,-5.462 3.865,-9.92 9.832,-9.92c3.95,0 6.093,2.355 6.555,3.196l5.337,-4.707c-1.177,-1.889 -4.16,-5.122 -11.094,-5.122c-10.21,0 -18.189,7.979 -18.189,17.602c0,7.944 5.501,12.899 12.895,12.899c6.765,0 10.715,-2.226 14.203,-4.619l2.101,-12.436Z" style="fill:#262626;fill-rule:nonzero;"/><path d="M201.93,74.704l8.151,0l12.564,-29.408l-7.689,0l-7.9,20.712l-1.723,-20.712l-6.471,0l-8.614,20.712l-1.008,-20.712l-7.69,0l2.731,29.408l8.152,0l7.816,-18.485l1.681,18.485Z" style="fill:#262626;fill-rule:nonzero;"/><path d="M236.302,68.107l1.008,6.597l7.227,0l-5.252,-29.408l-7.563,0l-15.086,29.408l7.228,0l3.193,-6.597l9.245,0Zm-0.841,-5.877l-5.546,0l4.328,-9.329l1.218,9.329Z" style="fill:#262626;fill-rule:nonzero;"/><path d="M263.404,74.704l1.093,-6.423l-8.824,0l3.823,-22.985l-7.185,0l-4.916,29.408l16.009,0Z" style="fill:#262626;fill-rule:nonzero;"/><path d="M282.649,74.704l1.093,-6.423l-8.824,0l3.823,-22.985l-7.185,0l-4.916,29.408l16.009,0Z" style="fill:#262626;fill-rule:nonzero;"/><path d="M315.884,58.196l-11.765,0l-1.009,6.003l5.084,0l-0.42,2.609c-0.546,0.462 -2.899,1.809 -6.597,1.809c-4.076,0 -6.933,-2.777 -6.933,-7.314c0,-5.462 3.866,-9.92 9.833,-9.92c3.949,0 6.092,2.355 6.555,3.196l5.336,-4.707c-1.177,-1.889 -4.16,-5.122 -11.093,-5.122c-10.211,0 -18.189,7.979 -18.189,17.602c0,7.944 5.5,12.899 12.894,12.899c6.766,0 10.715,-2.226 14.203,-4.619l2.101,-12.436Z" style="fill:#262626;fill-rule:nonzero;"/><path d="M333.535,74.704l1.092,-6.423l-8.824,0l0.883,-5.258l7.227,0l1.05,-6.382l-7.227,0l0.841,-4.921l8.487,0l1.051,-6.424l-15.673,0l-4.917,29.408l16.01,0Z" style="fill:#262626;fill-rule:nonzero;"/><path d="M355.217,68.107l1.008,6.597l7.228,0l-5.253,-29.408l-7.563,0l-15.085,29.408l7.227,0l3.194,-6.597l9.244,0Zm-0.84,-5.877l-5.547,0l4.328,-9.329l1.219,9.329Z" style="fill:#262626;fill-rule:nonzero;"/><path d="M389.796,52.602c0,-4.703 -2.939,-7.306 -8.987,-7.306l-9.58,0l-4.916,29.408l7.185,0l1.807,-10.883l2.185,0l3.445,10.883l7.938,0c-4.661,-12.69 -4.661,-12.606 -4.661,-12.606c3.527,-1.764 5.584,-5.504 5.584,-9.496Zm-10.583,-1.134c2.227,0 3.067,0.924 3.067,2.437c0,2.395 -1.555,3.907 -3.824,3.907l-2.143,0l1.093,-6.344l1.807,0Z" style="fill:#262626;fill-rule:nonzero;"/><path d="M218.421,29.088l0.5,-3.037l-3.48,0l0.44,-2.563l3.98,0l0.5,-3.057l-7.4,0l-2.34,13.997l3.42,0l0.9,-5.34l3.48,0Z" style="fill:#262626;fill-rule:nonzero;"/><path d="M226.261,34.688c4.961,0 8.679,-3.777 8.679,-8.379c0,-3.48 -2.338,-6.138 -6.258,-6.138c-4.942,0 -8.66,3.778 -8.66,8.359c0,3.52 2.319,6.158 6.239,6.158Zm1.9,-11.32c1.961,0 3.161,1.441 3.161,3.381c0,2.661 -2.02,4.742 -4.521,4.742c-1.961,0 -3.181,-1.42 -3.181,-3.401c0,-2.621 2.001,-4.722 4.541,-4.722Z" style="fill:#262626;fill-rule:nonzero;"/><path d="M243.041,34.428l0.52,-3.057l-4.2,0l1.82,-10.94l-3.42,0l-2.34,13.997l7.62,0Z" style="fill:#262626;fill-rule:nonzero;"/><path d="M252.201,34.428l0.52,-3.057l-4.2,0l1.82,-10.94l-3.42,0l-2.34,13.997l7.62,0Z" style="fill:#262626;fill-rule:nonzero;"/><path d="M259.541,34.688c4.961,0 8.679,-3.777 8.679,-8.379c0,-3.48 -2.338,-6.138 -6.258,-6.138c-4.942,0 -8.66,3.778 -8.66,8.359c0,3.52 2.319,6.158 6.239,6.158Zm1.9,-11.32c1.961,0 3.161,1.441 3.161,3.381c0,2.661 -2.02,4.742 -4.521,4.742c-1.961,0 -3.181,-1.42 -3.181,-3.401c0,-2.621 2.001,-4.722 4.541,-4.722Z" style="fill:#262626;fill-rule:nonzero;"/><path d="M279.661,34.428l3.88,0l5.98,-13.997l-3.66,0l-3.76,9.858l-0.82,-9.858l-3.08,0l-4.1,9.858l-0.48,-9.858l-3.66,0l1.3,13.997l3.88,0l3.72,-8.798l0.8,8.798Z" style="fill:#262626;fill-rule:nonzero;"/><path d="M189.321,100.376c4.961,0 8.679,-3.778 8.679,-8.38c0,-3.48 -2.338,-6.138 -6.258,-6.138c-4.942,0 -8.66,3.778 -8.66,8.359c0,3.521 2.319,6.159 6.239,6.159Zm1.9,-11.32c1.961,0 3.161,1.44 3.161,3.381c0,2.66 -2.02,4.741 -4.521,4.741c-1.961,0 -3.181,-1.42 -3.181,-3.401c0,-2.621 2.001,-4.721 4.541,-4.721Z" style="fill:#262626;fill-rule:nonzero;"/><path d="M207.001,100.116l3.4,0l2.34,-13.998l-3.36,0l-1.44,8.678l-3.68,-8.678l-3.48,0l-2.34,13.998l3.36,0l1.44,-8.579l3.76,8.579Z" style="fill:#262626;fill-rule:nonzero;"/><path d="M224.561,94.776l0.5,-3.038l-3.48,0l0.44,-2.562l3.98,0l0.5,-3.058l-7.4,0l-2.34,13.998l3.42,0l0.9,-5.34l3.48,0Z" style="fill:#262626;fill-rule:nonzero;"/><path d="M233.241,96.976l0.48,3.14l3.44,0l-2.5,-13.998l-3.6,0l-7.18,13.998l3.44,0l1.52,-3.14l4.4,0Zm-0.4,-2.798l-2.64,0l2.06,-4.44l0.58,4.44Z" style="fill:#262626;fill-rule:nonzero;"/><path d="M244.78,100.376c1.74,0 3.22,-0.5 4.34,-1.18l-0.46,-2.998c-0.82,0.5 -2.02,0.98 -3.22,0.98c-2.24,0 -3.36,-1.56 -3.36,-3.421c0,-2.441 1.82,-4.701 4.72,-4.701c1.2,0 2.18,0.48 2.84,0.98l1.46,-2.999c-0.9,-0.679 -2.14,-1.179 -3.88,-1.179c-4.86,0 -8.738,3.718 -8.738,8.379c0,3.501 2.299,6.139 6.298,6.139Z" style="fill:#262626;fill-rule:nonzero;"/><path d="M258.341,100.116l0.52,-3.058l-4.2,0l0.42,-2.502l3.44,0l0.5,-3.038l-3.44,0l0.4,-2.342l4.04,0l0.5,-3.058l-7.46,0l-2.34,13.998l7.62,0Z" style="fill:#262626;fill-rule:nonzero;"/><path d="M271.16,95.316c0,-1.12 -0.44,-2.06 -1.499,-2.539c1.24,-0.639 2.079,-2.02 2.079,-3.521c0,-1.999 -1.439,-3.138 -3.978,-3.138l-5,0l-2.34,13.998l5.16,0c3,0 5.578,-1.599 5.578,-4.8Zm-4.678,-1c0.76,0 1.16,0.46 1.16,1.161c0,0.92 -0.64,1.701 -1.66,1.701l-1.66,0l0.48,-2.862l1.68,0Zm0.62,-5.28c0.72,0 1.06,0.4 1.06,1c0,0.861 -0.56,1.542 -1.46,1.542l-1.46,0l0.44,-2.542l1.42,0Z" style="fill:#262626;fill-rule:nonzero;"/><path d="M278.761,100.376c4.961,0 8.679,-3.778 8.679,-8.38c0,-3.48 -2.338,-6.138 -6.258,-6.138c-4.942,0 -8.66,3.778 -8.66,8.359c0,3.521 2.319,6.159 6.239,6.159Zm1.9,-11.32c1.961,0 3.161,1.44 3.161,3.381c0,2.66 -2.02,4.741 -4.521,4.741c-1.961,0 -3.181,-1.42 -3.181,-3.401c0,-2.621 2.001,-4.721 4.541,-4.721Z" style="fill:#262626;fill-rule:nonzero;"/><path d="M294.521,100.376c4.961,0 8.679,-3.778 8.679,-8.38c0,-3.48 -2.338,-6.138 -6.258,-6.138c-4.942,0 -8.66,3.778 -8.66,8.359c0,3.521 2.319,6.159 6.239,6.159Zm1.9,-11.32c1.961,0 3.161,1.44 3.161,3.381c0,2.66 -2.02,4.741 -4.521,4.741c-1.961,0 -3.181,-1.42 -3.181,-3.401c0,-2.621 2.001,-4.721 4.541,-4.721Z" style="fill:#262626;fill-rule:nonzero;"/><path d="M309.441,86.118l-3.42,0l-2.34,13.998l3.42,0l0.94,-5.639l3.14,5.639l3.92,0l-4.12,-7.119l6.36,-6.879l-3.82,0l-4.98,5.399l0.9,-5.399Z" style="fill:#262626;fill-rule:nonzero;"/></svg>