<?xml version="1.0" encoding="UTF-8" standalone="no"?><!DOCTYPE svg PUBLIC "-//W3C//DTD SVG 1.1//EN" "http://www.w3.org/Graphics/SVG/1.1/DTD/svg11.dtd"><svg width="100%" height="100%" viewBox="0 0 516 140" version="1.1" xmlns="http://www.w3.org/2000/svg" xmlns:xlink="http://www.w3.org/1999/xlink" xml:space="preserve" style="fill-rule:evenodd;clip-rule:evenodd;stroke-linejoin:round;stroke-miterlimit:1.41421;"><rect id="Artboard1" x="0.844" y="0" width="514.25" height="139.25" style="fill:none;"/><path d="M515.094,14.25l-375,0l-125,125l375,0l125,-125Z" style="fill:#262626;"/><path d="M500.844,0l-375,0l-125,125l375,0l125,-125Z" style="fill:#feff09;"/><path d="M143.992,45.296l-7.185,0l-4.917,29.408l7.186,0l1.975,-11.847l6.597,11.847l8.236,0l-8.657,-14.956l13.363,-14.452l-8.026,0l-10.463,11.343l1.891,-11.343Z" style="fill:#262626;fill-rule:nonzero;"/><path d="M170.884,45.296l-7.185,0l-4.916,29.408l7.185,0l4.916,-29.408Z" style="fill:#262626;fill-rule:nonzero;"/><path d="M185.168,75.251c3.656,0 6.766,-1.05 9.119,-2.478l-0.967,-6.3c-1.723,1.051 -4.244,2.06 -6.765,2.06c-4.706,0 -7.059,-3.279 -7.059,-7.188c0,-5.128 3.824,-9.877 9.916,-9.877c2.522,0 4.581,1.008 5.967,2.059l3.068,-6.3c-1.891,-1.428 -4.496,-2.477 -8.152,-2.477c-10.211,0 -18.357,7.81 -18.357,17.604c0,7.354 4.828,12.897 13.23,12.897Z" style="fill:#262626;fill-rule:nonzero;"/><path d="M209.753,45.296l-7.186,0l-4.916,29.408l7.185,0l1.975,-11.847l6.597,11.847l8.236,0l-8.656,-14.956l13.362,-14.452l-8.025,0l-10.463,11.343l1.891,-11.343Z" style="fill:#262626;fill-rule:nonzero;"/><path d="M237.782,44.75c-6.558,0 -10.883,4.24 -10.883,9.702c0,7.86 10.211,8.364 10.211,11.769c0,1.387 -1.137,2.312 -2.989,2.312c-2.015,0 -3.359,-1.556 -3.863,-3.279l-6.51,2.984c0.378,2.226 2.815,7.013 9.408,7.013c7.229,0 11.386,-4.493 11.386,-10.123c0,-7.566 -10.295,-8.028 -10.295,-11.517c0,-1.261 1.137,-2.228 2.652,-2.228c2.226,0 3.108,1.598 3.486,2.901l6.216,-2.732c-0.378,-2.226 -2.521,-6.802 -8.819,-6.802Z" style="fill:#262626;fill-rule:nonzero;"/><path d="M268.706,51.72l1.092,-6.424l-19.875,0l-1.092,6.424l6.345,0l-3.866,22.984l7.185,0l3.866,-22.984l6.345,0Z" style="fill:#262626;fill-rule:nonzero;"/><path d="M283.035,68.107l1.008,6.597l7.227,0l-5.252,-29.408l-7.564,0l-15.085,29.408l7.228,0l3.193,-6.597l9.245,0Zm-0.841,-5.877l-5.546,0l4.328,-9.329l1.218,9.329Z" style="fill:#262626;fill-rule:nonzero;"/><path d="M317.614,52.602c0,-4.703 -2.939,-7.306 -8.987,-7.306l-9.58,0l-4.917,29.408l7.186,0l1.807,-10.883l2.185,0l3.445,10.883l7.937,0c-4.661,-12.69 -4.661,-12.606 -4.661,-12.606c3.527,-1.764 5.585,-5.504 5.585,-9.496Zm-10.584,-1.134c2.227,0 3.068,0.924 3.068,2.437c0,2.395 -1.555,3.907 -3.824,3.907l-2.143,0l1.093,-6.344l1.806,0Z" style="fill:#262626;fill-rule:nonzero;"/><path d="M340.643,51.72l1.093,-6.424l-19.875,0l-1.093,6.424l6.345,0l-3.866,22.984l7.186,0l3.865,-22.984l6.345,0Z" style="fill:#262626;fill-rule:nonzero;"/><path d="M356.191,74.704l1.092,-6.423l-8.824,0l0.882,-5.258l7.228,0l1.05,-6.382l-7.227,0l0.84,-4.921l8.488,0l1.051,-6.424l-15.674,0l-4.916,29.408l16.01,0Z" style="fill:#262626;fill-rule:nonzero;"/><path d="M384.047,52.602c0,-4.703 -2.939,-7.306 -8.987,-7.306l-9.58,0l-4.917,29.408l7.186,0l1.806,-10.883l2.185,0l3.446,10.883l7.937,0c-4.661,-12.69 -4.661,-12.606 -4.661,-12.606c3.527,-1.764 5.585,-5.504 5.585,-9.496Zm-10.584,-1.134c2.227,0 3.068,0.924 3.068,2.437c0,2.395 -1.555,3.907 -3.824,3.907l-2.143,0l1.092,-6.344l1.807,0Z" style="fill:#262626;fill-rule:nonzero;"/><path d="M229.802,20.171c-3.121,0 -5.18,2.018 -5.18,4.618c0,3.741 4.86,3.981 4.86,5.602c0,0.66 -0.541,1.1 -1.422,1.1c-0.959,0 -1.599,-0.74 -1.839,-1.561l-3.099,1.421c0.18,1.059 1.34,3.337 4.478,3.337c3.441,0 5.42,-2.138 5.42,-4.818c0,-3.601 -4.9,-3.821 -4.9,-5.481c0,-0.6 0.541,-1.061 1.262,-1.061c1.06,0 1.479,0.761 1.659,1.381l2.959,-1.301c-0.18,-1.059 -1.2,-3.237 -4.198,-3.237Z" style="fill:#262626;fill-rule:nonzero;"/><path d="M241.701,34.428l0.52,-3.057l-4.2,0l0.42,-2.503l3.44,0l0.5,-3.037l-3.44,0l0.4,-2.343l4.04,0l0.5,-3.057l-7.46,0l-2.34,13.997l7.62,0Z" style="fill:#262626;fill-rule:nonzero;"/><path d="M251.401,34.428l0.52,-3.057l-4.2,0l0.42,-2.503l3.44,0l0.5,-3.037l-3.44,0l0.4,-2.343l4.04,0l0.5,-3.057l-7.46,0l-2.34,13.997l7.62,0Z" style="fill:#262626;fill-rule:nonzero;"/><path d="M267.841,23.488l0.52,-3.057l-9.46,0l-0.52,3.057l3.02,0l-1.84,10.94l3.42,0l1.84,-10.94l3.02,0Z" style="fill:#262626;fill-rule:nonzero;"/><path d="M281.801,20.431l-3.42,0l-0.9,5.44l-5,0l0.9,-5.44l-3.42,0l-2.34,13.997l3.42,0l0.92,-5.48l5,0l-0.92,5.48l3.42,0l2.34,-13.997Z" style="fill:#262626;fill-rule:nonzero;"/><path d="M289.561,34.428l0.52,-3.057l-4.2,0l0.42,-2.503l3.44,0l0.5,-3.037l-3.44,0l0.4,-2.343l4.04,0l0.5,-3.057l-7.46,0l-2.34,13.997l7.62,0Z" style="fill:#262626;fill-rule:nonzero;"/><path d="M212.53,100.376c1.74,0 3.22,-0.5 4.34,-1.18l-0.46,-2.998c-0.82,0.5 -2.02,0.98 -3.22,0.98c-2.24,0 -3.36,-1.56 -3.36,-3.421c0,-2.441 1.82,-4.701 4.72,-4.701c1.2,0 2.18,0.48 2.84,0.98l1.46,-2.999c-0.9,-0.679 -2.14,-1.179 -3.88,-1.179c-4.86,0 -8.738,3.718 -8.738,8.379c0,3.501 2.299,6.139 6.298,6.139Z" style="fill:#262626;fill-rule:nonzero;"/><path d="M226.711,96.976l0.48,3.14l3.44,0l-2.5,-13.998l-3.6,0l-7.18,13.998l3.44,0l1.52,-3.14l4.4,0Zm-0.4,-2.798l-2.64,0l2.06,-4.44l0.58,4.44Z" style="fill:#262626;fill-rule:nonzero;"/><path d="M241.651,98.976l4.42,-8.039l-1.54,9.179l3.28,0l2.34,-13.998l-4.44,0l-4.98,8.858l-2,-8.858l-4.44,0l-2.34,13.998l3.28,0l1.54,-9.179l1.74,8.039l3.14,0Z" style="fill:#262626;fill-rule:nonzero;"/><path d="M261.49,89.816c0,-2.259 -1.379,-3.698 -3.858,-3.698l-5.04,0l-2.34,13.998l3.42,0l0.82,-4.9l1.64,0c3.08,0 5.358,-2.259 5.358,-5.4Zm-4.798,-0.76c0.8,0 1.24,0.52 1.24,1.28c0,1.081 -0.66,1.942 -1.82,1.942l-1.12,0l0.54,-3.222l1.16,0Z" style="fill:#262626;fill-rule:nonzero;"/><path d="M268.671,96.976l0.48,3.14l3.44,0l-2.5,-13.998l-3.6,0l-7.18,13.998l3.44,0l1.52,-3.14l4.4,0Zm-0.4,-2.798l-2.64,0l2.06,-4.44l0.58,4.44Z" style="fill:#262626;fill-rule:nonzero;"/><path d="M279.711,86.118l-3.42,0l-2.34,13.998l3.42,0l2.34,-13.998Z" style="fill:#262626;fill-rule:nonzero;"/><path d="M294.13,92.258l-5.6,0l-0.48,2.858l2.42,0l-0.2,1.241c-0.26,0.22 -1.38,0.861 -3.14,0.861c-1.94,0 -3.3,-1.322 -3.3,-3.481c0,-2.6 1.84,-4.721 4.68,-4.721c1.88,0 2.9,1.12 3.12,1.521l2.54,-2.241c-0.56,-0.899 -1.98,-2.438 -5.28,-2.438c-4.86,0 -8.658,3.798 -8.658,8.378c0,3.781 2.619,6.14 6.138,6.14c3.22,0 5.1,-1.06 6.76,-2.199l1,-5.919Z" style="fill:#262626;fill-rule:nonzero;"/><path d="M303.431,100.116l3.4,0l2.34,-13.998l-3.36,0l-1.44,8.678l-3.68,-8.678l-3.48,0l-2.34,13.998l3.36,0l1.44,-8.579l3.76,8.579Z" style="fill:#262626;fill-rule:nonzero;"/></svg>