<?xml version="1.0" encoding="UTF-8" standalone="no"?><!DOCTYPE svg PUBLIC "-//W3C//DTD SVG 1.1//EN" "http://www.w3.org/Graphics/SVG/1.1/DTD/svg11.dtd"><svg width="100%" height="100%" viewBox="0 0 539 1000" version="1.1" xmlns="http://www.w3.org/2000/svg" xmlns:xlink="http://www.w3.org/1999/xlink" xml:space="preserve" style="fill-rule:evenodd;clip-rule:evenodd;stroke-linejoin:round;stroke-miterlimit:1.41421;"><rect id="Artboard1" x="0" y="0" width="538.461" height="1000" style="fill:none;"/><path d="M192.308,692.308c-43.271,0 -83.221,-14.321 -115.367,-38.479l83.71,-83.71c9.657,4.371 20.375,6.805 31.657,6.805c42.454,0 76.922,-34.469 76.922,-76.923c0,-11.282 -2.433,-22 -6.805,-31.657l6.805,-6.805l115.385,-115.384l0,153.846c0,1.117 -0.01,2.233 -0.03,3.346l0.006,73.577l153.87,0l-115.385,115.384l-38.476,0l0.015,192.308l-115.385,115.384l0,-307.691l-76.922,0l0,-0.001Zm0,-576.924l115.384,-115.384l0,346.184l-0.023,-0.008l-83.705,83.706c-9.657,-4.372 -20.375,-6.805 -31.656,-6.805c-42.455,0 -76.924,34.468 -76.924,76.923c0,11.281 2.435,21.999 6.806,31.656l-83.711,83.71c-24.158,-32.147 -38.479,-72.097 -38.479,-115.366c0,-106.138 86.17,-192.308 192.308,-192.308l0,-192.307l0,-0.001Z" style="fill:#feff02;"/></svg>