<?xml version="1.0" encoding="UTF-8" standalone="no"?><!DOCTYPE svg PUBLIC "-//W3C//DTD SVG 1.1//EN" "http://www.w3.org/Graphics/SVG/1.1/DTD/svg11.dtd"><svg width="100%" height="100%" viewBox="0 0 1224 1250" version="1.1" xmlns="http://www.w3.org/2000/svg" xmlns:xlink="http://www.w3.org/1999/xlink" xml:space="preserve" style="fill-rule:evenodd;clip-rule:evenodd;stroke-linejoin:round;stroke-miterlimit:1.41421;"><rect id="Artboard1" x="0" y="0" width="1223.34" height="1250" style="fill:none;"/><clipPath id="_clip1"><rect x="0" y="0" width="1223.34" height="1250"/></clipPath><g clip-path="url(#_clip1)"><path d="M1099.01,1.531c3.697,0.075 7.384,0.257 11.065,0.632c10.256,1.04 20.383,3.365 30.065,6.913c13.193,4.828 25.549,11.917 36.373,20.865c16.954,14.017 30.092,32.504 37.642,53.171c3.354,9.189 5.626,18.781 6.73,28.495c0.472,4.175 0.702,8.365 0.788,12.56c2.229,333.883 2.229,667.783 0,1001.67c-0.086,4.201 -0.316,8.385 -0.788,12.56c-1.104,9.72 -3.376,19.311 -6.73,28.495c-7.55,20.667 -20.688,39.154 -37.642,53.171c-10.824,8.948 -23.18,16.037 -36.373,20.865c-9.682,3.548 -19.809,5.873 -30.065,6.913c-3.687,0.375 -7.373,0.562 -11.076,0.632c-324.876,2.041 -649.773,2.041 -974.654,0c-4.222,-0.081 -8.429,-0.322 -12.624,-0.799c-9.731,-1.109 -19.322,-3.375 -28.512,-6.746c-13.192,-4.828 -25.548,-11.917 -36.372,-20.865c-16.563,-13.691 -29.503,-31.657 -37.112,-51.762c-3.638,-9.618 -6.098,-19.681 -7.261,-29.904c-0.471,-4.175 -0.701,-8.359 -0.787,-12.56c-2.229,-333.883 -2.229,-667.783 0,-1001.67c0.086,-4.195 0.316,-8.385 0.787,-12.56c1.163,-10.218 3.623,-20.286 7.261,-29.904c7.609,-20.105 20.549,-38.066 37.112,-51.762c10.824,-8.943 23.18,-16.037 36.372,-20.865c9.19,-3.365 18.781,-5.632 28.512,-6.746c4.19,-0.477 8.396,-0.713 12.619,-0.799c324.881,-2.041 649.783,-2.041 974.67,0l0,0Zm-973.073,39.786c-3.242,0.021 -6.479,0.182 -9.699,0.552c-6.259,0.712 -12.437,2.132 -18.374,4.227c-11.558,4.067 -22.173,10.69 -30.939,19.253c-9.007,8.793 -16.01,19.579 -20.34,31.4c-2.159,5.905 -3.654,12.051 -4.447,18.288c-0.408,3.209 -0.611,6.43 -0.67,9.666c-2.111,333.524 -2.111,667.07 0,1000.6c0.059,3.231 0.262,6.457 0.67,9.667c0.793,6.237 2.288,12.383 4.447,18.282c4.33,11.821 11.333,22.612 20.34,31.405c8.766,8.558 19.381,15.181 30.939,19.253c5.937,2.09 12.115,3.51 18.374,4.222c2.856,0.327 5.728,0.493 8.605,0.547c324.549,2.052 649.114,2.052 973.663,0c3.231,-0.064 6.457,-0.263 9.667,-0.675c6.237,-0.788 12.383,-2.283 18.288,-4.442c11.82,-4.33 22.606,-11.339 31.399,-20.341c8.558,-8.766 15.181,-19.381 19.253,-30.939c2.095,-5.942 3.51,-12.115 4.228,-18.373c0.326,-2.862 0.487,-5.728 0.541,-8.606c2.111,-333.529 2.111,-667.075 0,-1000.6c-0.054,-2.877 -0.215,-5.749 -0.541,-8.611c-0.718,-6.253 -2.133,-12.431 -4.228,-18.373c-4.072,-11.558 -10.695,-22.173 -19.253,-30.939c-8.793,-9.002 -19.579,-16.011 -31.399,-20.335c-5.905,-2.165 -12.051,-3.655 -18.288,-4.448c-3.21,-0.407 -6.436,-0.611 -9.667,-0.675c-324.184,-2.047 -648.38,-0.005 -972.569,-0.005Z" style="fill:#262626;fill-rule:nonzero;"/><g><path d="M145.125,1040.8c13.305,0 24.01,-3.821 31.657,-9.016l-7.341,-22.93c-5.658,3.824 -14.222,7.496 -23.398,7.496c-19.576,0 -30.281,-14.533 -30.281,-31.208c0,-16.675 10.705,-30.902 30.281,-30.902c9.176,0 17.281,3.672 22.939,7.496l7.341,-22.93c-7.646,-5.196 -17.893,-9.016 -31.198,-9.016c-33.336,0 -56.566,23.992 -56.566,55.352c0,31.513 22.007,55.658 56.566,55.658Z" style="fill:#262626;fill-rule:nonzero;"/><path d="M209.968,958.544l-25.52,0l0,44.503c0,16.363 2.445,37.756 27.51,37.756c10.103,0 17.144,-5.501 20.204,-10.238l0,8.25l24.909,0l0,-80.271l-25.52,0l0,47.868c0,6.423 -3.98,11.47 -11.021,11.47c-6.123,0 -10.562,-3.976 -10.562,-11.47l0,-47.868Z" style="fill:#262626;fill-rule:nonzero;"/><path d="M317.327,956.556c-9.941,0 -17.435,4.89 -21.257,12.684l0,-10.696l-24.91,0l0,80.271l25.521,0l0,-35.481c0,-12.081 4.129,-21.104 16.516,-21.104c1.836,0 3.059,0.153 4.13,0.305l0,-25.979Z" style="fill:#262626;fill-rule:nonzero;"/><path d="M352.664,958.544l-27.375,0l27.527,80.271l29.669,0l27.069,-80.271l-26.61,0l-15.14,53.208l-15.14,-53.208Z" style="fill:#262626;fill-rule:nonzero;"/><path d="M492.291,1005.32c0.153,-1.833 0.153,-3.513 0.153,-5.04c0,-27.377 -13.917,-43.726 -39.457,-43.726c-23.552,0 -39.456,18.793 -39.456,42.351c0,23.712 16.21,41.896 42.668,41.896c20.798,0 31.81,-12.989 34.104,-17.725l-16.823,-13.008c-1.529,2.297 -7.188,8.577 -16.823,8.577c-9.481,0 -16.363,-6.126 -16.975,-13.325l52.609,0Zm-38.845,-28.139c7.952,0 12.693,5.514 12.999,11.948l-25.998,0c0.611,-5.668 4.588,-11.948 12.999,-11.948Z" style="fill:#262626;fill-rule:nonzero;"/><path d="M558.826,998.909c0,10.71 -6.274,19.585 -17.291,19.585c-10.252,0 -17.291,-7.651 -17.291,-19.585c0,-11.782 6.886,-19.891 17.291,-19.891c10.099,0 17.291,7.191 17.291,19.891Zm0.917,39.906l23.839,0l0,-110.551l-25.522,0l0,36.391c-1.683,-1.987 -9.18,-8.099 -21.422,-8.099c-23.244,0 -37.915,17.267 -37.915,42.2c0,24.627 16.199,42.047 39.292,42.047c11.783,0 19.433,-5.654 21.728,-8.252l0,6.264Z" style="fill:#262626;fill-rule:nonzero;"/><path d="M681.611,1040.8c13.305,0 24.01,-3.821 31.657,-9.016l-7.341,-22.93c-5.658,3.824 -14.222,7.496 -23.398,7.496c-19.576,0 -30.281,-14.533 -30.281,-31.208c0,-16.675 10.705,-30.902 30.281,-30.902c9.176,0 17.281,3.672 22.94,7.496l7.34,-22.93c-7.646,-5.196 -17.893,-9.016 -31.198,-9.016c-33.336,0 -56.566,23.992 -56.566,55.352c0,31.513 22.007,55.658 56.566,55.658Z" style="fill:#262626;fill-rule:nonzero;"/><path d="M720.475,998.909c0,24.169 18.033,41.894 43.576,41.894c25.391,0 44.035,-18.031 44.035,-42.2c0,-24.322 -18.185,-42.047 -44.035,-42.047c-24.779,0 -43.576,18.031 -43.576,42.353Zm25.521,0c0,-11.782 7.497,-19.891 18.055,-19.891c10.405,0 18.514,7.803 18.514,19.585c0,11.475 -7.956,19.738 -18.514,19.738c-10.405,0 -18.055,-7.804 -18.055,-19.432Z" style="fill:#262626;fill-rule:nonzero;"/><path d="M864.824,956.556c-9.941,0 -17.434,4.89 -21.257,12.684l0,-10.696l-24.91,0l0,80.271l25.521,0l0,-35.481c0,-12.081 4.129,-21.104 16.517,-21.104c1.835,0 3.058,0.153 4.129,0.305l0,-25.979Z" style="fill:#262626;fill-rule:nonzero;"/><path d="M922.193,1038.82l25.52,0l0,-44.504c0,-16.362 -2.445,-37.755 -27.51,-37.755c-10.103,0 -17.144,5.501 -20.204,10.238l0,-8.25l-24.91,0l0,80.271l25.521,0l0,-47.868c0,-6.423 3.98,-11.47 11.021,-11.47c6.123,0 10.562,3.976 10.562,11.47l0,47.868Z" style="fill:#262626;fill-rule:nonzero;"/><path d="M1036.58,1005.32c0.153,-1.833 0.153,-3.513 0.153,-5.04c0,-27.377 -13.917,-43.726 -39.456,-43.726c-23.552,0 -39.457,18.793 -39.457,42.351c0,23.712 16.211,41.896 42.668,41.896c20.799,0 31.81,-12.989 34.104,-17.725l-16.822,-13.008c-1.53,2.297 -7.188,8.577 -16.823,8.577c-9.482,0 -16.364,-6.126 -16.975,-13.325l52.608,0Zm-38.844,-28.139c7.952,0 12.693,5.514 12.999,11.948l-25.999,0c0.612,-5.668 4.588,-11.948 13,-11.948Z" style="fill:#262626;fill-rule:nonzero;"/><path d="M1093.15,956.556c-9.941,0 -17.435,4.89 -21.257,12.684l0,-10.696l-24.91,0l0,80.271l25.521,0l0,-35.481c0,-12.081 4.129,-21.104 16.516,-21.104c1.836,0 3.059,0.153 4.13,0.305l0,-25.979Z" style="fill:#262626;fill-rule:nonzero;"/><path d="M1129.1,1040.8c18.357,0 32.721,-10.085 32.721,-26.441c0,-29.07 -37.009,-23.256 -37.009,-33.354c0,-2.448 2.144,-3.978 5.82,-3.978c6.279,0 10.865,3.825 13.31,6.273l16.504,-12.996c-4.737,-6.417 -13.448,-13.751 -28.742,-13.751c-17.436,0 -30.884,9.32 -30.884,24.758c0,29.223 36.704,25.245 36.704,34.425c0,2.907 -2.297,4.437 -7.199,4.437c-8.111,0 -13.46,-3.213 -17.738,-7.038l-14.366,13.914c4.739,6.417 15.588,13.751 30.879,13.751Z" style="fill:#262626;fill-rule:nonzero;"/></g><g><path d="M165.585,1163.71c3.966,2.465 10.406,4.577 16.404,4.577c13.232,0 23.011,-5.898 23.011,-23.269l0,-39.505l-6.691,0l0,7.397c-1.5,-2.47 -6.704,-8.544 -16.231,-8.544c-12.968,0 -22.04,10.043 -22.04,24.157c0,14.025 8.984,23.98 22.128,23.98c10.056,0 14.82,-6.691 15.878,-8.367l0,4.053c0,10.229 -7.41,13.848 -16.143,13.848c-6.616,0 -12.085,-2.736 -13.849,-3.796l-2.467,5.469Zm32.724,-35.187c0,9.879 -6.087,17.642 -15.526,17.642c-8.821,0 -15.702,-6.969 -15.702,-17.642c0,-10.497 6.616,-17.819 15.526,-17.819c8.733,0 15.702,6.704 15.702,17.819Z" style="fill:#262626;fill-rule:nonzero;"/><path d="M218.931,1128.43c0,-10.056 6.881,-17.731 16.76,-17.731c9.88,0 16.937,7.587 16.937,17.731c0,10.232 -7.057,17.73 -16.937,17.73c-9.791,0 -16.76,-7.41 -16.76,-17.73Zm-7.132,0c0,13.937 10.131,24.068 23.892,24.068c13.761,0 23.98,-10.308 23.98,-24.068c0,-13.761 -10.043,-24.069 -23.892,-24.069c-13.672,0 -23.98,10.22 -23.98,24.069Z" style="fill:#262626;fill-rule:nonzero;"/><path d="M272.634,1128.43c0,-10.056 6.88,-17.731 16.76,-17.731c9.88,0 16.937,7.587 16.937,17.731c0,10.232 -7.057,17.73 -16.937,17.73c-9.791,0 -16.76,-7.41 -16.76,-17.73Zm-7.132,0c0,13.937 10.131,24.068 23.892,24.068c13.761,0 23.98,-10.308 23.98,-24.068c0,-13.761 -10.043,-24.069 -23.892,-24.069c-13.672,0 -23.98,10.22 -23.98,24.069Z" style="fill:#262626;fill-rule:nonzero;"/><path d="M364.255,1087.61l-7.043,0l0,25.298c-1.324,-2.382 -6.616,-8.544 -16.143,-8.544c-13.056,0 -21.864,10.043 -21.864,24.157c0,14.025 9.249,23.98 22.393,23.98c9.968,0 14.731,-6.691 15.878,-8.367l0,7.22l6.779,0l0,-63.744Zm-6.779,40.999c0,9.615 -5.91,17.642 -15.525,17.642c-8.822,0 -15.614,-6.969 -15.614,-17.642c0,-10.497 6.528,-17.907 15.525,-17.907c8.557,0 15.614,6.528 15.614,17.907Z" style="fill:#262626;fill-rule:nonzero;"/><path d="M376.259,1151.35l6.691,0l0,-7.22c1.147,1.676 5.998,8.367 15.966,8.367c13.056,0 22.393,-9.955 22.393,-23.98c0,-14.114 -8.896,-24.157 -21.863,-24.157c-9.616,0 -14.82,6.162 -16.232,8.544l0,-25.298l-6.955,0l0,63.744Zm6.691,-22.745c0,-11.379 7.057,-17.907 15.702,-17.907c8.997,0 15.525,7.41 15.525,17.907c0,10.673 -6.88,17.642 -15.702,17.642c-9.527,0 -15.525,-8.027 -15.525,-17.642Z" style="fill:#262626;fill-rule:nonzero;"/><path d="M442.919,1167.14l24.603,-61.628l-7.407,0l-14.109,36.853l-14.551,-36.853l-7.583,0l18.694,45.405l-6.613,16.223l6.966,0Z" style="fill:#262626;fill-rule:nonzero;"/><path d="M471.143,1128.61c0,14.115 9.602,23.895 23.54,23.895c10.409,0 16.402,-5.634 18.955,-9.956l-4.578,-3.354c-2.204,3.089 -6.526,7.148 -14.289,7.148c-9.527,0 -16.408,-6.177 -16.496,-16.413l36.772,0c0.088,-0.88 0.088,-1.848 0.088,-2.112c0,-13.758 -8.279,-23.45 -21.776,-23.45c-12.173,0 -22.216,9.604 -22.216,24.242Zm7.485,-3.872c0.529,-8.648 7.233,-14.384 14.731,-14.384c7.587,0 14.203,4.853 14.644,14.384l-29.375,0Z" style="fill:#262626;fill-rule:nonzero;"/><path d="M546.362,1151.35l6.691,0l0,-7.22c1.147,1.676 5.998,8.367 15.967,8.367c13.055,0 22.392,-9.955 22.392,-23.98c0,-14.114 -8.896,-24.157 -21.863,-24.157c-9.615,0 -14.82,6.162 -16.231,8.544l0,-25.298l-6.956,0l0,63.744Zm6.691,-22.745c0,-11.379 7.057,-17.907 15.702,-17.907c8.998,0 15.526,7.41 15.526,17.907c0,10.673 -6.881,17.642 -15.703,17.642c-9.527,0 -15.525,-8.027 -15.525,-17.642Z" style="fill:#262626;fill-rule:nonzero;"/><rect x="600.33" y="1087.61" width="6.955" height="63.745" style="fill:#262626;fill-rule:nonzero;"/><path d="M623.334,1128.43c0,-10.056 6.881,-17.731 16.76,-17.731c9.88,0 16.937,7.587 16.937,17.731c0,10.232 -7.057,17.73 -16.937,17.73c-9.791,0 -16.76,-7.41 -16.76,-17.73Zm-7.132,0c0,13.937 10.131,24.068 23.892,24.068c13.761,0 23.98,-10.308 23.98,-24.068c0,-13.761 -10.043,-24.069 -23.892,-24.069c-13.672,0 -23.98,10.22 -23.98,24.069Z" style="fill:#262626;fill-rule:nonzero;"/><path d="M709.488,1110.61c-2.381,-2.288 -7.76,-6.25 -16.137,-6.25c-13.316,0 -23.446,10.484 -23.446,24.069c0,13.584 9.866,24.068 23.534,24.068c8.554,0 14.197,-4.578 16.049,-6.515l-2.116,-5.91c-1.852,1.853 -6.438,6.087 -13.668,6.087c-9.436,0 -16.579,-7.851 -16.579,-17.73c0,-9.968 6.79,-17.642 16.402,-17.642c6.967,0 11.728,3.881 13.58,5.822l2.381,-5.999Z" style="fill:#262626;fill-rule:nonzero;"/><path d="M718.141,1151.35l6.955,0l0,-24.42l19.665,24.42l8.995,0l-20.9,-25.302l19.753,-20.541l-8.818,0l-18.695,19.66l0,-37.561l-6.955,0l0,63.744Z" style="fill:#262626;fill-rule:nonzero;"/><path d="M819.187,1110.61c-2.381,-2.288 -7.76,-6.25 -16.138,-6.25c-13.315,0 -23.445,10.484 -23.445,24.069c0,13.584 9.865,24.068 23.533,24.068c8.554,0 14.198,-4.578 16.05,-6.515l-2.117,-5.91c-1.852,1.853 -6.437,6.087 -13.668,6.087c-9.435,0 -16.578,-7.851 -16.578,-17.73c0,-9.968 6.79,-17.642 16.402,-17.642c6.966,0 11.728,3.881 13.58,5.822l2.381,-5.999Z" style="fill:#262626;fill-rule:nonzero;"/><path d="M831.885,1128.43c0,-10.056 6.88,-17.731 16.76,-17.731c9.879,0 16.936,7.587 16.936,17.731c0,10.232 -7.057,17.73 -16.936,17.73c-9.792,0 -16.76,-7.41 -16.76,-17.73Zm-7.132,0c0,13.937 10.131,24.068 23.892,24.068c13.761,0 23.98,-10.308 23.98,-24.068c0,-13.761 -10.043,-24.069 -23.892,-24.069c-13.673,0 -23.98,10.22 -23.98,24.069Z" style="fill:#262626;fill-rule:nonzero;"/><path d="M902.078,1104.36c-6.963,0 -12.075,4.226 -13.661,8.807l-0.007,-7.66l-6.868,0l0,45.843l6.956,0l0,-21.952c0.007,-9.793 3.092,-18.082 13.58,-18.082l0,-6.956Z" style="fill:#262626;fill-rule:nonzero;"/><path d="M930.391,1104.36c-6.352,0 -11.469,3.609 -13.675,7.749l0,-6.602l-6.867,0l0,45.843l6.955,0l0,-27.865c0,-7.584 4.853,-12.787 11.911,-12.787c6.264,0 10.851,4.409 10.851,11.729l0,28.923l6.956,0l0,-28.659c0,-10.405 -5.459,-18.331 -16.131,-18.331Z" style="fill:#262626;fill-rule:nonzero;"/><path d="M955.174,1128.61c0,14.115 9.602,23.895 23.54,23.895c10.409,0 16.402,-5.634 18.956,-9.956l-4.579,-3.354c-2.203,3.089 -6.526,7.148 -14.289,7.148c-9.527,0 -16.408,-6.177 -16.496,-16.413l36.772,0c0.088,-0.88 0.088,-1.848 0.088,-2.112c0,-13.758 -8.278,-23.45 -21.775,-23.45c-12.174,0 -22.217,9.604 -22.217,24.242Zm7.485,-3.872c0.529,-8.648 7.234,-14.384 14.732,-14.384c7.586,0 14.202,4.853 14.644,14.384l-29.376,0Z" style="fill:#262626;fill-rule:nonzero;"/><path d="M1028.53,1104.36c-6.963,0 -12.075,4.226 -13.661,8.807l-0.007,-7.66l-6.867,0l0,45.843l6.955,0l0,-21.952c0.007,-9.793 3.092,-18.082 13.58,-18.082l0,-6.956Z" style="fill:#262626;fill-rule:nonzero;"/><path d="M1032.86,1142.72c2.028,4.322 6.341,9.779 15.955,9.779c8.912,0 15.603,-5.457 15.603,-13.572c0,-15.966 -23.104,-12.084 -23.104,-22.405c0,-3.969 3.353,-6.351 7.589,-6.351c5.912,0 8.295,3.44 9.528,5.91l5.107,-2.911c-1.233,-3.439 -5.635,-8.808 -14.194,-8.808c-8.294,0 -14.721,4.665 -14.721,12.425c0,15.525 23.016,11.908 23.016,22.493c0,4.675 -3.883,7.321 -8.471,7.321c-6.265,0 -9.526,-3.44 -11.463,-7.056l-4.845,3.175Z" style="fill:#262626;fill-rule:nonzero;"/><path d="M1075.45,1135.85l6.075,0l0.617,-46.207l-7.308,0l0.616,46.207Zm-1.939,11.723c0,2.731 2.29,4.933 5.021,4.933c2.73,0 4.932,-2.202 4.932,-4.933c0,-2.731 -2.202,-4.933 -4.932,-4.933c-2.731,0 -5.021,2.202 -5.021,4.933Z" style="fill:#262626;fill-rule:nonzero;"/></g><path d="M367.328,473.081l-12.681,0c-1.159,-0.036 -1.453,-0.015 -2.605,-0.158c-1.724,-0.207 -3.421,-0.629 -5.052,-1.245c-3.256,-1.231 -6.19,-3.263 -8.502,-5.868c-2.018,-2.283 -3.549,-4.988 -4.451,-7.894c-0.387,-1.245 -0.666,-2.526 -0.823,-3.821c-0.136,-1.152 -0.122,-1.446 -0.158,-2.605l0,-205.615c0.036,-1.16 0.022,-1.453 0.158,-2.605c0.215,-1.725 0.63,-3.421 1.245,-5.052c1.081,-2.849 2.77,-5.454 4.924,-7.608c2.461,-2.461 5.517,-4.308 8.845,-5.345c1.245,-0.387 2.526,-0.666 3.814,-0.823c1.152,-0.136 1.446,-0.122 2.605,-0.158l205.615,0c0.437,0.015 0.873,0.029 1.31,0.043c1.152,0.1 1.446,0.1 2.583,0.315c1.289,0.236 2.548,0.587 3.765,1.045c5.732,2.175 10.355,6.798 12.53,12.531c0.616,1.631 1.038,3.327 1.246,5.052c0.143,1.152 0.121,1.445 0.157,2.605l0,12.681l286.84,0c0.536,0.021 1.073,0.043 1.61,0.057c0.536,0.064 1.073,0.1 1.603,0.186c1.066,0.158 2.118,0.401 3.148,0.716c3.607,1.109 6.899,3.177 9.461,5.947c2.204,2.368 3.85,5.231 4.809,8.322c0.952,3.085 1.195,6.384 0.716,9.576c-0.322,2.132 -0.966,4.215 -1.897,6.154c-0.937,1.939 -2.161,3.736 -3.628,5.317c-1.832,1.975 -4.029,3.6 -6.455,4.766c-1.939,0.938 -4.022,1.575 -6.154,1.897c-1.417,0.214 -1.782,0.186 -3.213,0.243l-286.84,0l0,93.898l286.84,0c0.536,0.022 1.073,0.036 1.61,0.057c0.536,0.065 1.073,0.1 1.603,0.179c1.066,0.165 2.118,0.401 3.148,0.723c3.607,1.109 6.899,3.177 9.461,5.947c1.832,1.975 3.292,4.287 4.272,6.791c0.788,2.011 1.274,4.129 1.432,6.276c0.243,3.228 -0.251,6.491 -1.432,9.504c-1.18,3.006 -3.041,5.739 -5.41,7.936c-1.581,1.467 -3.378,2.691 -5.317,3.629c-1.939,0.93 -4.022,1.574 -6.154,1.896c-1.417,0.215 -1.782,0.186 -3.213,0.243l-286.84,0l0,12.674c-0.036,1.159 -0.014,1.453 -0.157,2.605c-0.208,1.725 -0.63,3.428 -1.246,5.052c-1.08,2.849 -2.762,5.461 -4.916,7.615c-2.462,2.461 -5.518,4.308 -8.845,5.345c-1.245,0.387 -2.526,0.659 -3.822,0.816c-1.152,0.143 -1.445,0.122 -2.605,0.158l-12.673,0l0,286.839c-0.022,0.537 -0.022,1.074 -0.065,1.61c-0.079,1.074 -0.243,2.14 -0.479,3.192c-0.838,3.678 -2.655,7.113 -5.224,9.883c-1.832,1.975 -4.029,3.6 -6.455,4.766c-1.94,0.93 -4.022,1.574 -6.155,1.896c-4.809,0.723 -9.797,-0.221 -14.012,-2.654c-1.861,-1.074 -3.564,-2.434 -5.031,-4.008c-1.467,-1.582 -2.691,-3.378 -3.621,-5.317c-0.937,-1.94 -1.581,-4.022 -1.903,-6.155c-0.208,-1.417 -0.187,-1.782 -0.237,-3.213l0,-286.839l-93.898,0l0,286.839c-0.057,1.431 -0.028,1.796 -0.243,3.213c-0.322,2.133 -0.959,4.215 -1.896,6.155c-1.167,2.426 -2.791,4.623 -4.767,6.455c-1.581,1.467 -3.377,2.691 -5.317,3.628c-1.939,0.93 -4.022,1.574 -6.147,1.896c-4.809,0.723 -9.804,-0.221 -14.019,-2.654c-1.861,-1.074 -3.564,-2.434 -5.031,-4.008c-2.562,-2.77 -4.38,-6.205 -5.217,-9.883c-0.243,-1.052 -0.401,-2.118 -0.487,-3.192c-0.035,-0.536 -0.035,-1.073 -0.057,-1.61l0,-286.839l0,0Zm171.351,-205.616l-162.441,0l0,162.434l162.441,0l0,-162.434Z" style="fill:#f8ff09;"/><path d="M870.682,258.649c0.658,0.093 1.324,0.15 1.975,0.272c2.619,0.494 5.138,1.467 7.4,2.869c2.826,1.754 5.238,4.158 6.991,6.992c1.754,2.827 2.834,6.054 3.142,9.368c0.186,1.989 0.093,4 -0.279,5.961c-0.365,1.961 -1.002,3.872 -1.896,5.661c-1.181,2.376 -2.813,4.537 -4.781,6.326c-2.955,2.698 -6.648,4.537 -10.577,5.267c-1.746,0.329 -2.197,0.286 -3.964,0.372c-46.366,0 -92.725,-0.136 -139.091,0.007c-11.908,0.108 -23.802,0.809 -35.638,2.204c-23.423,2.763 -46.53,8.116 -68.779,15.937c-24.661,8.66 -48.256,20.346 -70.089,34.709c-22.071,14.527 -42.33,31.781 -60.185,51.253c-15.551,16.968 -29.277,35.61 -40.848,55.505c-11.493,19.751 -20.868,40.74 -27.917,62.481c-6.87,21.204 -11.529,43.124 -13.869,65.287c-1.181,11.214 -1.739,22.471 -1.768,33.742l0,137.058c-0.035,0.666 -0.035,1.331 -0.093,1.99c-0.243,2.647 -0.987,5.252 -2.175,7.635c-1.181,2.376 -2.813,4.538 -4.781,6.327c-1.474,1.345 -3.134,2.483 -4.916,3.37c-2.984,1.489 -6.298,2.269 -9.625,2.269c-3.328,0 -6.649,-0.78 -9.626,-2.269c-1.781,-0.887 -3.449,-2.025 -4.923,-3.37c-3.449,-3.142 -5.818,-7.393 -6.677,-11.987c-0.322,-1.746 -0.286,-2.197 -0.365,-3.965c0,-46.451 -0.136,-92.903 0.007,-139.355c0.043,-4.515 0.143,-9.031 0.337,-13.547c0.357,-8.237 0.994,-16.466 1.91,-24.66c3.056,-27.33 9.218,-54.31 18.335,-80.258c11.056,-31.488 26.464,-61.43 45.657,-88.739c18.542,-26.385 40.612,-50.287 65.43,-70.883c35.453,-29.413 76.473,-51.976 120.291,-66.182c24.768,-8.022 50.395,-13.382 76.301,-15.958c11.958,-1.188 23.959,-1.746 35.967,-1.782l137.13,0c0.665,0.028 1.323,0.064 1.989,0.093l0,0Z" style="fill:#262626;fill-rule:nonzero;"/><path d="M870.389,395.699c0.558,0.065 1.123,0.115 1.681,0.201c1.117,0.179 2.219,0.444 3.292,0.787c3.772,1.231 7.171,3.499 9.747,6.512c1.467,1.725 2.662,3.671 3.528,5.761c0.866,2.09 1.403,4.315 1.575,6.57c0.493,6.247 -1.825,12.53 -6.255,16.96c-1.596,1.596 -3.449,2.941 -5.467,3.972c-2.011,1.023 -4.187,1.732 -6.42,2.082c-1.488,0.236 -1.875,0.208 -3.377,0.272c-46.495,0 -92.99,-0.429 -139.477,0.015c-7.049,0.107 -14.084,0.572 -21.083,1.459c-13.203,1.682 -26.22,4.802 -38.751,9.304c-25.455,9.138 -48.778,23.988 -67.899,43.116c-19.394,19.394 -34.386,43.089 -43.496,68.966c-4.688,13.296 -7.815,27.137 -9.332,41.156c-0.716,6.655 -1.045,13.339 -1.066,20.03l0,137.058c-0.065,1.503 -0.036,1.882 -0.272,3.378c-0.351,2.233 -1.06,4.408 -2.083,6.419c-1.03,2.018 -2.376,3.872 -3.972,5.468c-3.206,3.206 -7.406,5.345 -11.886,6.061c-2.233,0.351 -4.523,0.351 -6.756,0c-2.233,-0.358 -4.408,-1.066 -6.426,-2.09c-2.018,-1.03 -3.865,-2.368 -5.468,-3.971c-2.798,-2.806 -4.802,-6.369 -5.725,-10.227c-0.264,-1.102 -0.436,-2.218 -0.529,-3.349c-0.043,-0.558 -0.043,-1.123 -0.065,-1.689c0,-46.187 -0.143,-92.374 0,-138.56c0.072,-7.736 0.487,-15.472 1.317,-23.165c1.875,-17.326 5.747,-34.429 11.536,-50.868c5.947,-16.903 13.926,-33.09 23.695,-48.119c8.666,-13.346 18.742,-25.777 29.992,-37.026c23.945,-23.953 53.214,-42.452 85.153,-53.694c16.438,-5.79 33.541,-9.661 50.867,-11.536c8.172,-0.88 16.381,-1.295 24.596,-1.317l137.13,0c0.565,0.022 1.13,0.043 1.696,0.064Z" style="fill:#262626;fill-rule:nonzero;"/></g></svg>