<?xml version="1.0" encoding="UTF-8" standalone="no"?>
<!DOCTYPE svg PUBLIC "-//W3C//DTD SVG 1.1//EN" "http://www.w3.org/Graphics/SVG/1.1/DTD/svg11.dtd">
<svg width="100%" height="100%" viewBox="0 0 1225 1250" version="1.1" xmlns="http://www.w3.org/2000/svg" xmlns:xlink="http://www.w3.org/1999/xlink" xml:space="preserve" style="fill-rule:evenodd;clip-rule:evenodd;stroke-linejoin:round;stroke-miterlimit:1.41421;">
    <rect id="Artboard4" x="0.88" y="0" width="1223.35" height="1250" style="fill:none;"/>
    <g>
        <path d="M1099.89,1.535C1103.59,1.605 1107.27,1.787 1110.95,2.162C1121.21,3.202 1131.34,5.527 1141.02,9.074C1154.21,13.902 1166.57,20.997 1177.39,29.945C1194.35,43.957 1207.49,62.443 1215.04,83.116C1218.39,92.3 1220.66,101.891 1221.77,111.606C1222.24,115.78 1222.47,119.971 1222.55,124.166C1224.78,458.05 1224.78,791.954 1222.55,1125.84C1222.47,1130.04 1222.24,1134.22 1221.77,1138.39C1220.66,1148.12 1218.39,1157.71 1215.04,1166.89C1207.49,1187.56 1194.35,1206.05 1177.39,1220.06C1166.57,1229.01 1154.21,1236.11 1141.02,1240.93C1131.34,1244.48 1121.21,1246.8 1110.95,1247.85C1107.27,1248.21 1103.58,1248.4 1099.88,1248.47C775.003,1250.51 450.106,1250.51 125.224,1248.47C121.002,1248.39 116.795,1248.15 112.6,1247.67C102.869,1246.56 93.278,1244.3 84.083,1240.93C70.896,1236.11 58.54,1229.01 47.716,1220.06C31.153,1206.37 18.213,1188.4 10.604,1168.3C6.96,1158.68 4.506,1148.62 3.343,1138.39C2.872,1134.22 2.641,1130.04 2.556,1125.84C0.321,791.957 0.321,458.053 2.556,124.166C2.641,119.971 2.872,115.78 3.343,111.606C4.506,101.388 6.96,91.319 10.604,81.707C18.213,61.597 31.153,43.636 47.716,29.945C58.54,20.997 70.896,13.902 84.083,9.074C93.278,5.709 102.869,3.443 112.6,2.334C116.79,1.851 120.996,1.616 125.213,1.535C450.1,-0.512 775.003,-0.512 1099.89,1.535L1099.89,1.535ZM126.816,41.315C123.574,41.337 120.337,41.498 117.117,41.867C110.858,42.585 104.68,44 98.743,46.095C87.185,50.162 76.57,56.785 67.804,65.348C58.797,74.141 51.793,84.927 47.464,96.747C45.305,102.652 43.81,108.798 43.016,115.035C42.609,118.245 42.406,121.465 42.347,124.702C40.236,458.226 40.236,791.772 42.347,1125.3C42.406,1128.53 42.609,1131.76 43.016,1134.97C43.81,1141.21 45.305,1147.35 47.464,1153.26C51.793,1165.07 58.797,1175.86 67.804,1184.66C76.57,1193.21 87.185,1199.84 98.743,1203.91C104.68,1206 110.858,1207.42 117.117,1208.13C119.973,1208.46 122.845,1208.62 125.722,1208.68C450.272,1210.73 774.837,1210.73 1099.39,1208.68C1102.62,1208.62 1105.84,1208.41 1109.05,1208.01C1115.29,1207.21 1121.44,1205.72 1127.34,1203.56C1139.16,1199.23 1149.95,1192.22 1158.74,1183.22C1167.3,1174.45 1173.92,1163.84 1177.99,1152.28C1180.09,1146.34 1181.5,1140.17 1182.22,1133.91C1182.55,1131.05 1182.71,1128.18 1182.76,1125.3C1184.87,791.772 1184.87,458.226 1182.76,124.702C1182.71,121.825 1182.55,118.952 1182.22,116.091C1181.5,109.838 1180.09,103.66 1177.99,97.723C1173.92,86.165 1167.3,75.545 1158.74,66.778C1149.95,57.776 1139.16,50.773 1127.34,46.443C1121.44,44.284 1115.29,42.789 1109.05,41.996C1105.84,41.589 1102.62,41.385 1099.39,41.326C775.201,39.274 451.006,41.315 126.816,41.315L126.816,41.315Z" style="fill:rgb(38,38,38);fill-rule:nonzero;"/>
        <path d="M192.52,450.372C193.243,450.447 193.945,450.565 194.636,450.812C196.688,451.54 198.382,453.121 199.25,455.12C199.614,455.961 199.796,456.829 199.887,457.74C200.348,471.173 199.909,484.628 199.909,498.072C199.877,498.983 199.753,499.862 199.448,500.73C198.655,502.959 196.865,504.749 194.636,505.542C193.945,505.788 193.243,505.906 192.52,505.981C159.18,507.122 125.803,506.003 92.442,506.003C91.713,505.976 91.006,505.906 90.304,505.708C88.021,505.07 86.114,503.404 85.171,501.234C84.806,500.392 84.624,499.524 84.533,498.613C84.072,485.18 84.511,471.725 84.511,458.281C84.544,457.37 84.662,456.492 84.972,455.623C85.765,453.394 87.555,451.605 89.784,450.812C90.475,450.565 91.172,450.447 91.901,450.372C125.422,449.226 158.998,449.226 192.52,450.372L192.52,450.372Z" style="fill:rgb(38,38,38);"/>
        <path d="M672.353,697.665C673.28,697.751 674.17,697.933 675.033,698.303C677.021,699.16 678.601,700.832 679.341,702.868C679.609,703.602 679.737,704.347 679.807,705.118C680.198,718.536 679.818,731.958 679.818,745.376C679.791,746.308 679.662,747.208 679.341,748.087C678.548,750.273 676.785,752.031 674.604,752.824C673.87,753.092 673.125,753.22 672.353,753.29C649.216,753.96 626.063,753.301 602.915,753.301C601.982,753.274 601.082,753.145 600.203,752.824C598.017,752.031 596.26,750.273 595.467,748.087C595.199,747.353 595.07,746.608 595,745.836C594.609,732.425 594.99,719.002 594.99,705.579C595.011,704.808 595.097,704.052 595.322,703.307C595.986,701.078 597.642,699.224 599.775,698.303C600.637,697.933 601.527,697.751 602.454,697.665C625.741,696.99 649.061,696.99 672.353,697.665L672.353,697.665Z" style="fill:rgb(38,38,38);"/>
        <path d="M950.081,378.249C951.26,378.565 951.598,378.571 952.664,379.187C954.272,380.114 955.52,381.603 956.152,383.345C956.576,384.502 956.522,384.834 956.629,386.056L956.629,422.482C956.522,423.698 956.576,424.031 956.152,425.193C955.359,427.38 953.597,429.137 951.416,429.93C950.253,430.354 949.921,430.3 948.704,430.407C757.942,430.407 567.18,429.239 376.423,430.412C368.584,430.563 360.82,431.811 353.371,434.276C338.781,439.104 325.803,448.374 316.511,460.612C311.796,466.822 308.061,473.74 305.425,481.076C303.207,487.238 301.808,493.7 301.235,500.221C301.042,502.434 300.972,504.647 300.951,506.865L300.951,641.038C300.844,642.26 300.897,642.592 300.474,643.749C299.676,645.936 297.918,647.693 295.737,648.492C294.574,648.915 294.242,648.861 293.026,648.968L256.6,648.968C255.378,648.861 255.046,648.915 253.889,648.492C251.702,647.693 249.945,645.936 249.146,643.749C248.723,642.592 248.777,642.26 248.67,641.038C248.67,594.769 248.418,548.494 248.68,502.22C248.787,496.883 249.146,491.562 249.886,486.273C251.113,477.528 253.262,468.912 256.3,460.617C263.255,441.611 274.877,424.39 289.859,410.785C302.237,399.543 316.833,390.793 332.608,385.236C341.953,381.946 351.684,379.776 361.543,378.774C365.803,378.34 370.079,378.153 374.36,378.126L948.704,378.126C949.16,378.169 949.621,378.206 950.081,378.249L950.081,378.249ZM374.408,393.981C370.647,394.003 366.891,394.169 363.145,394.549C354.54,395.423 346.036,397.319 337.875,400.191C324.088,405.046 311.335,412.698 300.517,422.525C287.426,434.41 277.267,449.461 271.185,466.067C268.538,473.311 266.657,480.834 265.591,488.47C264.879,493.577 264.552,498.715 264.525,503.865L264.525,633.113L285.096,633.113C285.096,590.638 284.753,548.162 285.106,505.686C285.267,495.849 286.923,486.086 290.127,476.778C294.553,463.934 301.83,452.124 311.314,442.399C320.809,432.663 332.458,425.081 345.205,420.344C352.262,417.719 359.641,415.961 367.121,415.125C370.148,414.788 373.187,414.616 376.23,414.563L377.355,414.552L940.774,414.552L940.774,393.981C751.989,393.981 563.199,393.981 374.408,393.981L374.408,393.981Z" style="fill:rgb(38,38,38);fill-rule:nonzero;"/>
        <path d="M1028.97,378.249C1030.15,378.565 1030.49,378.571 1031.56,379.187C1033.16,380.114 1034.41,381.603 1035.04,383.345C1035.46,384.502 1035.41,384.834 1035.52,386.056C1035.52,432.325 1035.78,478.6 1035.51,524.875C1035.41,530.212 1035.04,535.532 1034.3,540.821C1033.08,549.571 1030.93,558.182 1027.89,566.477C1020.76,585.96 1008.73,603.551 993.214,617.317C981.077,628.076 966.878,636.467 951.58,641.858C942.24,645.148 932.504,647.318 922.65,648.32C918.385,648.754 914.114,648.942 909.828,648.968L335.489,648.968C334.267,648.861 333.935,648.915 332.777,648.492C330.591,647.693 328.834,645.936 328.035,643.749C327.612,642.592 327.666,642.26 327.558,641.038L327.558,604.612C327.666,603.396 327.612,603.064 328.035,601.901C328.834,599.715 330.591,597.957 332.777,597.164C333.935,596.741 334.267,596.794 335.489,596.687C526.246,596.687 717.008,597.855 907.765,596.682C915.604,596.532 923.368,595.283 930.822,592.818C945.112,588.092 957.854,579.096 967.108,567.222C972.092,560.829 976.025,553.649 978.768,546.019C980.981,539.857 982.38,533.4 982.953,526.873C983.146,524.66 983.221,522.447 983.237,520.229L983.237,386.056C983.344,384.834 983.296,384.502 983.714,383.345C984.512,381.159 986.27,379.401 988.456,378.603C989.619,378.179 989.951,378.233 991.167,378.126L1027.59,378.126C1028.05,378.169 1028.51,378.206 1028.97,378.249L1028.97,378.249ZM999.092,393.981C999.092,436.457 999.435,478.932 999.081,521.408C999.065,522.549 999.028,523.685 998.98,524.821C998.412,535.382 996.124,545.799 992.073,555.578C987.738,566.037 981.469,575.666 973.672,583.87C963.781,594.276 951.44,602.297 937.927,607.136C931.191,609.552 924.177,611.176 917.067,611.969C914.039,612.307 911.006,612.478 907.963,612.532L906.838,612.542L343.414,612.542L343.414,633.113C532.686,633.113 721.959,634.313 911.226,633.102C912.641,633.076 914.05,633.033 915.465,632.968C919.173,632.759 922.87,632.406 926.546,631.849C935.039,630.552 943.376,628.242 951.333,624.995C967.28,618.485 981.603,608.159 992.877,595.144C1001.57,585.108 1008.44,573.496 1013,561.027C1015.65,553.783 1017.53,546.26 1018.6,538.624C1019.32,533.518 1019.64,528.384 1019.66,523.23L1019.66,393.981C1012.81,393.981 1005.95,393.981 999.092,393.981L999.092,393.981Z" style="fill:rgb(38,38,38);fill-rule:nonzero;"/>
        <path d="M959.025,437.421C959.469,437.55 959.925,437.636 960.353,437.802C962.084,438.466 963.547,439.741 964.447,441.36C965.047,442.442 965.047,442.78 965.342,443.964L971.033,479.945C971.118,481.161 971.22,481.483 970.984,482.694C970.54,484.976 969.082,486.991 967.046,488.116C965.964,488.717 965.626,488.717 964.442,489.011L327.919,589.721C326.698,589.807 326.382,589.909 325.165,589.673C322.883,589.228 320.873,587.765 319.748,585.735C319.148,584.652 319.148,584.315 318.848,583.13L313.157,547.149C313.071,545.933 312.97,545.611 313.205,544.4C313.65,542.118 315.113,540.103 317.144,538.978C318.226,538.378 318.564,538.378 319.748,538.083L956.276,437.373L957.653,437.277C958.108,437.325 958.569,437.373 959.025,437.421ZM330.057,552.502L333.272,572.821L954.132,474.592L950.923,454.273C743.968,487.018 537.012,519.757 330.057,552.502L330.057,552.502Z" style="fill:rgb(38,38,38);fill-rule:nonzero;"/>
        <path d="M835.181,315.139C835.246,314.413 835.381,313.707 835.638,313.011C836.436,310.873 838.162,309.153 840.3,308.355C841.018,308.087 841.747,307.958 842.502,307.873C879.282,306.56 916.131,306.56 952.916,307.873C953.672,307.958 954.4,308.087 955.118,308.355C957.074,309.084 958.692,310.589 959.56,312.486C959.957,313.36 960.155,314.265 960.257,315.214C960.868,332.392 960.278,349.593 960.278,366.777C960.241,367.736 960.112,368.652 959.775,369.547C958.976,371.685 957.256,373.41 955.118,374.209C954.4,374.477 953.672,374.605 952.916,374.686C916.324,375.993 879.684,374.707 843.07,374.707C842.116,374.675 841.2,374.541 840.3,374.209C838.162,373.41 836.436,371.685 835.638,369.547C835.385,368.853 835.251,368.154 835.169,367.42L373.766,367.42C373.722,367.958 373.639,368.485 373.481,369.011C372.838,371.203 371.247,373.041 369.168,373.989C368.294,374.391 367.389,374.584 366.44,374.686C329.848,375.993 293.213,374.707 256.595,374.707C255.641,374.675 254.724,374.541 253.824,374.209C251.686,373.41 249.966,371.685 249.168,369.547C248.9,368.829 248.771,368.106 248.691,367.345C248.075,350.166 248.67,332.971 248.67,315.782C248.702,314.828 248.836,313.911 249.168,313.011C249.966,310.873 251.686,309.153 253.824,308.355C254.542,308.087 255.271,307.958 256.032,307.873C292.812,306.56 329.661,306.56 366.44,307.873C367.389,307.974 368.294,308.173 369.168,308.569C371.07,309.437 372.576,311.055 373.305,313.011C373.563,313.705 373.692,314.41 373.773,315.139L835.181,315.139ZM264.525,323.712L264.525,358.852L357.948,358.852L357.948,323.712C326.805,323.712 295.668,323.712 264.525,323.712ZM944.423,323.712L850.995,323.712L850.995,358.852L944.423,358.852L944.423,323.712ZM835.031,330.994L374.059,330.994C374.076,337.85 373.989,344.708 373.912,351.565L834.884,351.565C834.866,344.709 834.954,337.852 835.031,330.994Z" style="fill:rgb(38,38,38);"/>
        <path d="M257.254,667.53C257.982,667.61 258.69,667.749 259.376,668.007C261.438,668.778 263.116,670.412 263.941,672.449C264.278,673.268 264.439,674.115 264.514,674.994C265.077,695.377 265.077,715.787 264.514,736.17C264.418,737.343 264.134,738.463 263.571,739.503C263.083,740.403 262.424,741.201 261.637,741.85C260.962,742.407 260.195,742.846 259.376,743.157C256.166,744.358 252.447,743.302 250.341,740.601C249.339,739.31 248.814,737.788 248.68,736.17C248.118,715.787 248.118,695.377 248.68,674.994C248.745,674.265 248.862,673.552 249.098,672.856C249.816,670.777 251.397,669.057 253.412,668.173C254.226,667.819 255.067,667.631 255.941,667.53C256.386,667.508 256.809,667.508 257.254,667.53L257.254,667.53Z" style="fill:rgb(38,38,38);fill-rule:nonzero;"/>
        <path d="M1028.25,667.53C1028.98,667.61 1029.69,667.749 1030.38,668.007C1032.43,668.778 1034.11,670.412 1034.94,672.449C1035.28,673.268 1035.44,674.115 1035.51,674.994C1036.07,695.377 1036.07,715.787 1035.51,736.17C1035.38,737.788 1034.86,739.31 1033.86,740.601C1033.31,741.287 1032.66,741.887 1031.93,742.37C1029.06,744.24 1025.2,744.031 1022.55,741.85C1021.77,741.201 1021.11,740.403 1020.63,739.503C1020.06,738.463 1019.78,737.343 1019.68,736.17C1019.12,715.787 1019.12,695.377 1019.68,674.994C1019.75,674.115 1019.92,673.268 1020.25,672.449C1021.08,670.412 1022.76,668.778 1024.82,668.007C1025.51,667.749 1026.21,667.61 1026.94,667.53C1027.38,667.508 1027.81,667.508 1028.25,667.53L1028.25,667.53Z" style="fill:rgb(38,38,38);fill-rule:nonzero;"/>
        <path d="M222.569,632.658C224.187,632.792 225.709,633.311 227,634.313C227.692,634.855 228.292,635.503 228.769,636.237C230.644,639.104 230.43,642.967 228.249,645.609C227.601,646.396 226.802,647.055 225.902,647.543C224.862,648.106 223.743,648.39 222.569,648.486C202.186,649.049 181.781,649.049 161.398,648.486C160.219,648.39 159.1,648.106 158.06,647.543C157.165,647.055 156.361,646.396 155.713,645.609C155.156,644.934 154.716,644.167 154.411,643.353C153.205,640.143 154.261,636.419 156.962,634.313C158.253,633.311 159.78,632.792 161.398,632.658C181.781,632.095 202.186,632.095 222.569,632.658Z" style="fill:rgb(38,38,38);fill-rule:nonzero;"/>
        <path d="M222.569,308.28C224.187,308.414 225.709,308.939 227,309.941C227.692,310.477 228.292,311.13 228.769,311.859C230.644,314.731 230.43,318.589 228.249,321.236C227.601,322.024 226.802,322.683 225.902,323.171C224.862,323.733 223.743,324.017 222.569,324.114C202.186,324.676 181.781,324.676 161.398,324.114C160.219,324.017 159.1,323.733 158.06,323.171C157.165,322.683 156.361,322.024 155.713,321.236C155.156,320.561 154.716,319.795 154.411,318.975C153.205,315.765 154.261,312.047 156.962,309.941C158.253,308.939 159.78,308.414 161.398,308.28C181.781,307.723 202.186,307.723 222.569,308.28Z" style="fill:rgb(38,38,38);fill-rule:nonzero;"/>
        <path d="M1029.14,697.804C1029.64,697.954 1030.15,698.061 1030.63,698.26C1031.6,698.656 1032.47,699.24 1033.2,699.974C1033.94,700.714 1034.52,701.587 1034.92,702.546C1035.92,704.974 1035.64,707.803 1034.19,709.984C1033.61,710.852 1032.86,711.597 1032,712.175C1031.13,712.754 1030.16,713.156 1029.14,713.36C1028.64,713.456 1028.11,713.456 1027.6,713.51L256.602,713.51C256.082,713.456 255.562,713.456 255.053,713.36C254.035,713.156 253.06,712.754 252.197,712.175C251.329,711.597 250.584,710.852 250.011,709.984C248.548,707.803 248.27,704.974 249.277,702.546C249.674,701.587 250.258,700.714 250.997,699.974C252.101,698.871 253.521,698.11 255.053,697.804C255.562,697.708 256.082,697.702 256.602,697.654L1027.6,697.654C1028.11,697.702 1028.63,697.756 1029.14,697.804L1029.14,697.804Z" style="fill:rgb(38,38,38);fill-rule:nonzero;"/>
        <path d="M193.468,307.996C194.32,308.216 194.556,308.232 195.359,308.607C197.171,309.464 198.617,311.002 199.351,312.861C199.598,313.483 199.764,314.131 199.844,314.79C199.887,315.117 199.887,315.449 199.909,315.782L199.909,640.572C199.887,640.904 199.887,641.236 199.844,641.563C199.721,642.554 199.41,643.519 198.928,644.392C197.465,647.055 194.518,648.674 191.485,648.481C190.489,648.422 189.508,648.17 188.608,647.747C187.702,647.318 186.888,646.723 186.202,646C185.291,645.03 184.632,643.83 184.305,642.544C184.08,641.681 184.112,641.451 184.053,640.572L184.053,315.782C184.075,315.449 184.075,315.117 184.118,314.79C184.198,314.131 184.364,313.483 184.611,312.861C185.473,310.686 187.3,308.966 189.53,308.242C190.167,308.039 190.821,307.91 191.485,307.873C191.818,307.851 192.15,307.873 192.482,307.873C192.809,307.91 193.136,307.953 193.468,307.996L193.468,307.996Z" style="fill:rgb(38,38,38);fill-rule:nonzero;"/>
        <g>
            <path d="M614.365,745.376C621.165,745.376 626.143,740.778 626.143,733.93C626.143,727.414 622.553,724.923 618.582,724.108L624.659,718.311L624.659,711.227L604.308,711.227L604.308,718.359L615.276,718.359L609.286,724.537L609.286,730.817L613.937,730.817C616.52,730.817 617.864,732.398 617.864,734.268C617.864,736.47 616.423,737.858 614.173,737.858C611.97,737.858 610.582,736.374 610.004,734.552L602.915,736.663C603.777,740.301 606.794,745.376 614.365,745.376L614.365,745.376Z" style="fill:rgb(248,255,9);fill-rule:nonzero;"/>
            <path d="M652.538,744.754L652.538,737.622L639.373,737.622C640.954,733.164 652.206,729.472 652.206,720.947C652.206,714.431 647.367,710.605 640.809,710.605C633.238,710.605 630.221,715.674 629.358,719.318L636.447,721.424C637.026,719.602 638.269,718.118 640.471,718.118C642.534,718.118 643.874,719.27 643.874,721.279C643.874,726.311 629.599,732.157 629.599,741.834L629.599,744.754L652.538,744.754Z" style="fill:rgb(248,255,9);fill-rule:nonzero;"/>
            <path d="M656.284,711.227L656.52,723.53L662.408,723.53L662.649,711.227L656.284,711.227ZM665.527,711.227L665.768,723.53L671.651,723.53L671.893,711.227L665.527,711.227Z" style="fill:rgb(248,255,9);fill-rule:nonzero;"/>
        </g>
        <g>
            <path d="M105.704,461.41L99.006,461.41L92.442,463.618L94.36,470.418L97.618,469.41L97.618,494.938L105.704,494.938L105.704,461.41L105.704,461.41Z" style="fill:rgb(248,255,9);fill-rule:nonzero;"/>
            <path d="M134.783,478.177C134.783,466.533 131.29,460.789 122.861,460.789C114.427,460.789 110.933,466.533 110.933,478.177C110.933,489.82 114.427,495.565 122.861,495.565C131.29,495.565 134.783,489.82 134.783,478.177ZM119.217,478.177C119.217,471.42 119.887,468.451 122.861,468.451C125.83,468.451 126.505,471.42 126.505,478.177C126.505,484.934 125.83,487.902 122.861,487.902C119.887,487.902 119.217,484.934 119.217,478.177Z" style="fill:rgb(248,255,9);fill-rule:nonzero;"/>
            <path d="M141.733,495.565C144.364,495.565 146.518,493.41 146.518,490.822C146.518,488.191 144.364,486.037 141.733,486.037C139.102,486.037 136.991,488.191 136.991,490.822C136.991,493.41 139.102,495.565 141.733,495.565Z" style="fill:rgb(248,255,9);fill-rule:nonzero;"/>
            <path d="M160.605,479.613C163.82,479.613 165.015,481.96 165.015,483.83C165.015,486.37 163.242,488.047 160.991,488.047C158.783,488.047 157.203,486.804 156.678,484.741L149.594,486.852C150.457,490.49 153.854,495.565 161.42,495.565C168.225,495.565 173.299,490.442 173.299,483.16C173.299,476.644 168.08,472.717 162.668,472.717C161.275,472.717 159.887,472.861 158.355,473.579L158.591,468.542L171.145,468.542L171.145,461.41L151.314,461.41L150.644,480.09L157.347,481.145C157.776,480.572 158.88,479.613 160.605,479.613L160.605,479.613Z" style="fill:rgb(248,255,9);fill-rule:nonzero;"/>
            <path d="M176.369,461.41L176.611,473.719L182.494,473.719L182.735,461.41L176.369,461.41L176.369,461.41ZM185.618,461.41L185.854,473.719L191.743,473.719L191.984,461.41L185.618,461.41Z" style="fill:rgb(248,255,9);fill-rule:nonzero;"/>
        </g>
        <g>
            <g>
                <path d="M419.591,931.845C419.591,907.504 404.786,891.996 379.745,891.996L335.308,891.996L335.308,1015.43L365.445,1015.43L365.445,972.222L379.921,972.222C403.905,972.222 419.591,955.834 419.591,931.845ZM375.684,917.901C383.981,917.901 388.748,923.549 388.748,931.845C388.748,940.317 384.158,946.318 375.331,946.318L365.445,946.318L365.445,917.901L375.684,917.901Z" style="fill:rgb(38,38,38);fill-rule:nonzero;"/>
                <path d="M422.962,986.697C422.962,1006.8 439.176,1017.73 457.337,1017.73C466.869,1017.73 473.577,1015.08 478.341,1010.33L479.927,1015.43L506.187,1015.43L506.187,958.133C506.187,936.956 498.08,920.568 466.163,920.568C450.808,920.568 438.295,925.502 428.426,932.022L439.352,951.776C446.578,948.241 454.512,945.943 462.633,945.943C472.165,945.943 476.755,950.362 476.755,956.018L476.755,959.366C473.401,957.956 467.046,956.018 458.926,956.018C437.061,956.018 422.962,968.174 422.962,986.697ZM452.394,985.638C452.394,979.634 457.69,975.75 464.751,975.75C471.812,975.75 477.284,979.281 477.284,985.638C477.284,991.818 471.989,995.173 464.928,995.173C458.043,995.173 452.394,991.818 452.394,985.638Z" style="fill:rgb(38,38,38);fill-rule:nonzero;"/>
                <path d="M569.503,991.821C555.923,991.821 546.752,982.646 546.752,969.059C546.752,956.707 554.512,947.002 568.445,947.002C575.324,947.002 581.849,949.649 586.964,953.884L594.901,929.027C588.375,924.445 579.38,920.568 567.387,920.568C538.821,920.568 517.32,940.834 517.32,969.235C517.32,997.637 538.116,1017.73 567.563,1017.73C579.204,1017.73 588.551,1013.67 594.724,1009.44L586.964,985.293C582.907,988.645 576.382,991.821 569.503,991.821L569.503,991.821Z" style="fill:rgb(38,38,38);fill-rule:nonzero;"/>
                <path d="M694.02,922.861L661.039,922.861L635.995,960.066L635.995,887.94L606.563,887.94L606.563,1015.43L635.995,1015.43L635.995,972.233L661.921,1015.43L696.489,1015.43L664.214,965.18L694.02,922.861L694.02,922.861Z" style="fill:rgb(38,38,38);fill-rule:nonzero;"/>
                <path d="M791.387,976.808C791.563,974.694 791.563,972.756 791.563,970.995C791.563,939.422 775.514,920.568 746.06,920.568C718.899,920.568 700.557,942.242 700.557,969.409C700.557,996.756 719.252,1017.73 749.764,1017.73C773.75,1017.73 786.449,1002.75 789.094,997.284L769.694,982.283C767.93,984.933 761.404,992.174 750.293,992.174C739.358,992.174 731.421,985.109 730.716,976.808L791.387,976.808ZM746.589,944.356C755.76,944.356 761.228,950.716 761.581,958.135L731.598,958.135C732.303,951.599 736.889,944.356 746.589,944.356Z" style="fill:rgb(38,38,38);fill-rule:nonzero;"/>
                <path d="M868.119,969.412C868.119,981.763 860.884,991.998 848.178,991.998C836.355,991.998 828.237,983.175 828.237,969.412C828.237,955.824 836.178,946.473 848.178,946.473C859.825,946.473 868.119,954.766 868.119,969.412ZM869.176,1015.43L896.669,1015.43L896.669,887.94L867.236,887.94L867.236,929.908C865.295,927.617 856.648,920.568 842.531,920.568C815.724,920.568 798.806,940.481 798.806,969.235C798.806,997.637 817.487,1017.73 844.119,1017.73C857.707,1017.73 866.53,1011.21 869.176,1008.21L869.176,1015.43Z" style="fill:rgb(38,38,38);fill-rule:nonzero;"/>
            </g>
            <g>
                <path d="M268.443,1107.69L268.443,1080.9L237.755,1080.9L237.755,1058.31L272.852,1058.31L272.852,1031.34L207.618,1031.34L207.618,1154.78L237.755,1154.78L237.755,1107.69L268.443,1107.69Z" style="fill:rgb(38,38,38);fill-rule:nonzero;"/>
                <path d="M280.102,1108.76C280.102,1136.63 300.898,1157.07 330.356,1157.07C359.639,1157.07 381.14,1136.28 381.14,1108.41C381.14,1080.36 360.167,1059.92 330.356,1059.92C301.779,1059.92 280.102,1080.71 280.102,1108.76L280.102,1108.76ZM309.534,1108.76C309.534,1095.17 318.18,1085.82 330.356,1085.82C342.355,1085.82 351.708,1094.82 351.708,1108.41C351.708,1121.64 342.532,1131.17 330.356,1131.17C318.357,1131.17 309.534,1122.17 309.534,1108.76L309.534,1108.76Z" style="fill:rgb(38,38,38);fill-rule:nonzero;"/>
                <rect x="393.331" y="1027.29" width="29.432" height="127.493" style="fill:rgb(38,38,38);"/>
                <path d="M504.444,1108.76C504.444,1121.11 497.209,1131.35 484.503,1131.35C472.68,1131.35 464.562,1122.52 464.562,1108.76C464.562,1095.17 472.503,1085.82 484.503,1085.82C496.15,1085.82 504.444,1094.11 504.444,1108.76ZM505.501,1154.78L532.994,1154.78L532.994,1027.29L503.561,1027.29L503.561,1069.26C501.62,1066.96 492.973,1059.92 478.856,1059.92C452.049,1059.92 435.131,1079.83 435.131,1108.58C435.131,1136.99 453.812,1157.07 480.444,1157.07C494.032,1157.07 502.855,1150.55 505.501,1147.56L505.501,1154.78Z" style="fill:rgb(38,38,38);fill-rule:nonzero;"/>
                <path d="M545.009,1126.05C545.009,1146.15 561.223,1157.08 579.383,1157.08C588.916,1157.08 595.624,1154.44 600.388,1149.68L601.974,1154.79L628.233,1154.79L628.233,1097.49C628.233,1076.31 620.126,1059.92 588.21,1059.92C572.854,1059.92 560.341,1064.86 550.472,1071.38L561.399,1091.13C568.625,1087.59 576.559,1085.3 584.679,1085.3C594.212,1085.3 598.801,1089.71 598.801,1095.37L598.801,1098.72C595.447,1097.31 589.092,1095.37 580.972,1095.37C559.108,1095.37 545.009,1107.53 545.009,1126.05L545.009,1126.05ZM574.44,1124.99C574.44,1118.99 579.736,1115.1 586.797,1115.1C593.859,1115.1 599.33,1118.63 599.33,1124.99C599.33,1131.17 594.035,1134.53 586.974,1134.53C580.089,1134.53 574.44,1131.17 574.44,1124.99Z" style="fill:rgb(38,38,38);fill-rule:nonzero;"/>
                <path d="M672.678,1108.76C672.678,1094.11 680.972,1085.82 692.619,1085.82C704.619,1085.82 712.56,1095.17 712.56,1108.76C712.56,1122.52 704.442,1131.35 692.619,1131.35C679.913,1131.35 672.678,1121.11 672.678,1108.76ZM671.621,1147.56C674.266,1150.55 683.09,1157.07 696.678,1157.07C723.31,1157.07 741.991,1136.99 741.991,1108.58C741.991,1079.83 725.073,1059.92 698.266,1059.92C684.149,1059.92 675.502,1066.96 673.561,1069.26L673.561,1027.29L644.128,1027.29L644.128,1154.78L671.621,1154.78L671.621,1147.56Z" style="fill:rgb(38,38,38);fill-rule:nonzero;"/>
                <path d="M783.791,1062.21L754.359,1062.21L754.359,1154.78L783.791,1154.78L783.791,1062.21ZM768.811,1056.54C778.151,1056.54 785.378,1049.85 785.378,1040.68C785.378,1031.34 778.151,1024.64 768.811,1024.64C759.47,1024.64 752.419,1031.34 752.419,1040.68C752.419,1049.85 759.47,1056.54 768.811,1056.54Z" style="fill:rgb(38,38,38);fill-rule:nonzero;"/>
                <rect x="800.744" y="1027.29" width="29.432" height="127.493" style="fill:rgb(38,38,38);"/>
                <path d="M876.561,1062.21L847.13,1062.21L847.13,1154.78L876.561,1154.78L876.561,1062.21ZM861.581,1056.54C870.922,1056.54 878.149,1049.85 878.149,1040.68C878.149,1031.34 870.922,1024.64 861.581,1024.64C852.24,1024.64 845.19,1031.34 845.19,1040.68C845.19,1049.85 852.24,1056.54 861.581,1056.54Z" style="fill:rgb(38,38,38);fill-rule:nonzero;"/>
                <path d="M925.416,1042.63L895.984,1042.63L895.984,1062.21L886.989,1062.21L886.989,1086L895.984,1086L895.984,1118.62C895.984,1146.14 908.673,1156.19 930.53,1156.19C937.938,1156.19 941.818,1155.13 941.818,1155.13L941.818,1129.91C939.878,1130.09 938.467,1130.09 936.88,1130.09C930.883,1130.09 925.416,1128.15 925.416,1120.03L925.416,1086L941.112,1086L941.112,1062.21L925.416,1062.21L925.416,1042.63L925.416,1042.63Z" style="fill:rgb(38,38,38);fill-rule:nonzero;"/>
                <path d="M1049.24,1062.21L1018.55,1062.21L1001.44,1115.46L985.041,1062.21L953.471,1062.21L988.04,1151.79L975.518,1186.35L1003.38,1186.35L1049.24,1062.21L1049.24,1062.21Z" style="fill:rgb(38,38,38);fill-rule:nonzero;"/>
            </g>
        </g>
    </g>
</svg>
