<?xml version="1.0" encoding="UTF-8" standalone="no"?><!DOCTYPE svg PUBLIC "-//W3C//DTD SVG 1.1//EN" "http://www.w3.org/Graphics/SVG/1.1/DTD/svg11.dtd"><svg width="100%" height="100%" viewBox="0 0 1224 1250" version="1.1" xmlns="http://www.w3.org/2000/svg" xmlns:xlink="http://www.w3.org/1999/xlink" xml:space="preserve" style="fill-rule:evenodd;clip-rule:evenodd;stroke-linejoin:round;stroke-miterlimit:1.41421;"><rect id="Artboard3" x="0.363" y="0" width="1223.34" height="1250" style="fill:none;"/><clipPath id="_clip1"><rect x="0.363" y="0" width="1223.34" height="1250"/></clipPath><g clip-path="url(#_clip1)"><path d="M1099.37,1.535c3.697,0.07 7.384,0.252 11.065,0.627c10.256,1.04 20.383,3.365 30.065,6.912c13.193,4.828 25.549,11.923 36.373,20.871c16.954,14.012 30.092,32.498 37.642,53.171c3.354,9.184 5.626,18.775 6.73,28.49c0.472,4.174 0.702,8.365 0.788,12.56c2.229,333.884 2.229,667.788 0,1001.67c-0.086,4.2 -0.316,8.385 -0.788,12.559c-1.104,9.721 -3.376,19.312 -6.73,28.496c-7.55,20.667 -20.688,39.154 -37.642,53.171c-10.824,8.948 -23.18,16.043 -36.373,20.871c-9.682,3.542 -19.809,5.867 -30.065,6.912c-3.687,0.37 -7.373,0.557 -11.076,0.627c-324.876,2.041 -649.774,2.041 -974.655,0c-4.222,-0.081 -8.429,-0.322 -12.624,-0.799c-9.731,-1.109 -19.322,-3.375 -28.512,-6.74c-13.192,-4.828 -25.549,-11.923 -36.372,-20.871c-16.563,-13.691 -29.503,-31.657 -37.112,-51.762c-3.639,-9.618 -6.098,-19.681 -7.261,-29.905c-0.471,-4.174 -0.702,-8.359 -0.787,-12.559c-2.229,-333.879 -2.229,-667.783 0,-1001.67c0.085,-4.195 0.316,-8.386 0.787,-12.56c1.163,-10.218 3.622,-20.287 7.261,-29.899c7.609,-20.11 20.549,-38.071 37.112,-51.762c10.823,-8.948 23.18,-16.043 36.372,-20.871c9.19,-3.365 18.781,-5.631 28.512,-6.74c4.19,-0.483 8.396,-0.718 12.619,-0.799c324.881,-2.047 649.784,-2.047 974.671,0l0,0Zm-973.075,39.78c-3.241,0.022 -6.478,0.183 -9.698,0.552c-6.259,0.718 -12.437,2.133 -18.374,4.228c-11.558,4.067 -22.173,10.69 -30.939,19.253c-9.007,8.793 -16.011,19.579 -20.34,31.399c-2.16,5.905 -3.655,12.051 -4.448,18.288c-0.407,3.21 -0.61,6.43 -0.669,9.667c-2.112,333.524 -2.112,667.07 0,1000.6c0.059,3.231 0.262,6.457 0.669,9.667c0.793,6.237 2.288,12.383 4.448,18.288c4.329,11.815 11.333,22.606 20.34,31.399c8.766,8.558 19.381,15.181 30.939,19.253c5.937,2.09 12.115,3.51 18.374,4.222c2.856,0.327 5.728,0.493 8.605,0.547c324.55,2.052 649.115,2.052 973.664,0c3.231,-0.059 6.457,-0.263 9.667,-0.67c6.237,-0.793 12.383,-2.288 18.288,-4.447c11.82,-4.33 22.606,-11.339 31.399,-20.341c8.558,-8.766 15.181,-19.381 19.253,-30.939c2.095,-5.942 3.51,-12.115 4.228,-18.373c0.327,-2.862 0.487,-5.729 0.541,-8.606c2.111,-333.53 2.111,-667.076 0,-1000.6c-0.054,-2.877 -0.214,-5.75 -0.541,-8.611c-0.718,-6.253 -2.133,-12.431 -4.228,-18.368c-4.072,-11.558 -10.695,-22.178 -19.253,-30.945c-8.793,-9.002 -19.579,-16.005 -31.399,-20.335c-5.905,-2.159 -12.051,-3.654 -18.288,-4.447c-3.21,-0.407 -6.436,-0.611 -9.667,-0.67c-324.185,-2.052 -648.38,-0.011 -972.571,-0.011l0,0Z" style="fill:#262626;fill-rule:nonzero;"/><g><g><path d="M177.923,916.857l-24.068,0l0,38.312l-35.23,0l0,-38.312l-24.068,0l0,98.578l24.068,0l0,-38.593l35.23,0l0,38.593l24.068,0l0,-98.578Z" style="fill:#262626;fill-rule:nonzero;"/><path d="M261.181,941.506l-24.508,0l-13.663,42.53l-13.099,-42.53l-25.212,0l27.607,71.54l-10.001,27.601l22.255,0l36.621,-99.141Z" style="fill:#262626;fill-rule:nonzero;"/><path d="M291.737,978.682c0,-11.696 6.623,-18.319 15.924,-18.319c9.584,0 15.925,7.468 15.925,18.319c0,10.992 -6.482,18.038 -15.925,18.038c-10.146,0 -15.924,-8.174 -15.924,-18.038Zm-0.845,30.985c2.113,2.392 9.159,7.599 20.011,7.599c21.269,0 36.188,-16.043 36.188,-38.725c0,-22.963 -13.512,-38.866 -34.92,-38.866c-11.274,0 -18.18,5.629 -19.73,7.459l0,-33.516l-23.505,0l0,101.817l21.956,0l0,-5.768Z" style="fill:#262626;fill-rule:nonzero;"/><path d="M399.487,939.675c-9.155,0 -16.057,4.504 -19.578,11.682l0,-9.851l-22.941,0l0,73.929l23.504,0l0,-32.677c0,-11.127 3.803,-19.438 15.212,-19.438c1.691,0 2.817,0.141 3.803,0.282l0,-23.927Z" style="fill:#262626;fill-rule:nonzero;"/><path d="M432.446,941.506l-23.504,0l0,73.929l23.504,0l0,-73.929Zm-11.963,-4.525c7.459,0 13.231,-5.348 13.231,-12.667c0,-7.46 -5.772,-12.809 -13.231,-12.809c-7.46,0 -13.09,5.349 -13.09,12.809c0,7.319 5.63,12.667 13.09,12.667Z" style="fill:#262626;fill-rule:nonzero;"/><path d="M497.678,978.682c0,9.864 -5.778,18.038 -15.925,18.038c-9.442,0 -15.925,-7.046 -15.925,-18.038c0,-10.851 6.342,-18.319 15.925,-18.319c9.301,0 15.925,6.623 15.925,18.319Zm0.844,36.753l21.956,0l0,-101.817l-23.505,0l0,33.516c-1.55,-1.83 -8.456,-7.459 -19.73,-7.459c-21.408,0 -34.92,15.903 -34.92,38.866c0,22.682 14.919,38.725 36.188,38.725c10.852,0 17.898,-5.207 20.011,-7.599l0,5.768Z" style="fill:#262626;fill-rule:nonzero;"/><rect x="533.868" y="961.789" width="40.847" height="21.11" style="fill:#262626;fill-rule:nonzero;"/><path d="M590.217,916.857l0,98.578l29,0c31.703,0 51.971,-18.436 51.971,-49.289c0,-30.853 -20.268,-49.289 -51.971,-49.289l-29,0Zm29,20.829c16.207,0 26.917,9.581 26.917,28.46c0,18.88 -10.71,28.461 -26.917,28.461l-4.933,0l0,-56.921l4.933,0Z" style="fill:#262626;fill-rule:nonzero;"/><path d="M705.274,941.506l-23.505,0l0,73.929l23.505,0l0,-73.929Zm-11.963,-4.525c7.459,0 13.231,-5.348 13.231,-12.667c0,-7.46 -5.772,-12.809 -13.231,-12.809c-7.46,0 -13.091,5.349 -13.091,12.809c0,7.319 5.631,12.667 13.091,12.667Z" style="fill:#262626;fill-rule:nonzero;"/><path d="M714.869,992.486c0,16.056 12.949,24.78 27.452,24.78c7.613,0 12.97,-2.11 16.774,-5.91l1.267,4.079l20.971,0l0,-45.761c0,-16.911 -6.474,-29.999 -31.963,-29.999c-12.263,0 -22.256,3.941 -30.138,9.148l8.727,15.775c5.77,-2.823 12.107,-4.658 18.591,-4.658c7.613,0 11.279,3.529 11.279,8.046l0,2.673c-2.679,-1.125 -7.754,-2.673 -14.239,-2.673c-17.461,0 -28.721,9.708 -28.721,24.5Zm23.505,-0.846c0,-4.794 4.229,-7.896 9.868,-7.896c5.639,0 10.009,2.82 10.009,7.896c0,4.936 -4.229,7.615 -9.868,7.615c-5.498,0 -10.009,-2.679 -10.009,-7.615Z" style="fill:#262626;fill-rule:nonzero;"/><path d="M858.942,971.349c0,-6.338 3.525,-10.564 9.023,-10.564c5.64,0 9.023,3.944 9.023,10.564l0,44.086l23.505,0l0,-49.157c0,-15.626 -8.023,-26.603 -25.056,-26.603c-9.587,0 -16.495,3.941 -20.999,9.711c-3.941,-6.052 -10.415,-9.711 -19.141,-9.711c-9.87,0 -15.791,4.926 -18.328,9.429l0,-7.598l-22.942,0l0,73.929l23.505,0l0,-44.086c0,-6.761 3.525,-10.564 9.023,-10.564c5.64,0 8.882,3.944 8.882,10.564l0,44.086l23.505,0l0,-44.086Z" style="fill:#262626;fill-rule:nonzero;"/><path d="M982.336,984.589c0.141,-1.688 0.141,-3.236 0.141,-4.643c0,-25.214 -12.818,-40.271 -36.34,-40.271c-21.691,0 -36.339,17.309 -36.339,39.005c0,21.839 14.93,38.586 39.297,38.586c19.156,0 29.297,-11.962 31.41,-16.324l-15.494,-11.98c-1.408,2.115 -6.62,7.898 -15.493,7.898c-8.733,0 -15.071,-5.642 -15.635,-12.271l48.453,0Zm-35.776,-25.917c7.324,0 11.69,5.079 11.972,11.004l-23.945,0c0.564,-5.219 4.226,-11.004 11.973,-11.004Z" style="fill:#262626;fill-rule:nonzero;"/><path d="M1017.4,925.872l-23.505,0l0,15.634l-7.183,0l0,18.997l7.183,0l0,26.058c0,21.972 10.134,30.001 27.589,30.001c5.916,0 9.015,-0.845 9.015,-0.845l0,-20.142c-1.549,0.141 -2.676,0.141 -3.944,0.141c-4.789,0 -9.155,-1.549 -9.155,-8.028l0,-27.185l12.535,0l0,-18.997l-12.535,0l0,-15.634Z" style="fill:#262626;fill-rule:nonzero;"/><path d="M1110.37,984.589c0.141,-1.688 0.141,-3.236 0.141,-4.643c0,-25.214 -12.818,-40.271 -36.34,-40.271c-21.691,0 -36.339,17.309 -36.339,39.005c0,21.839 14.93,38.586 39.297,38.586c19.156,0 29.297,-11.962 31.41,-16.324l-15.494,-11.98c-1.408,2.115 -6.62,7.898 -15.493,7.898c-8.733,0 -15.071,-5.642 -15.635,-12.271l48.453,0Zm-35.776,-25.917c7.324,0 11.691,5.079 11.972,11.004l-23.944,0c0.563,-5.219 4.225,-11.004 11.972,-11.004Z" style="fill:#262626;fill-rule:nonzero;"/><path d="M1162.48,939.675c-9.155,0 -16.057,4.504 -19.578,11.682l0,-9.851l-22.941,0l0,73.929l23.504,0l0,-32.677c0,-11.127 3.803,-19.438 15.212,-19.438c1.69,0 2.817,0.141 3.803,0.282l0,-23.927Z" style="fill:#262626;fill-rule:nonzero;"/></g><g><path d="M427.708,1058.31l0,-26.962l-83.401,0l0,26.962l26.632,0l0,96.474l30.137,0l0,-96.474l26.632,0Z" style="fill:#262626;fill-rule:nonzero;"/><path d="M459.456,1062.21l-29.432,0l0,51.324c0,18.87 2.82,43.541 31.726,43.541c11.651,0 19.771,-6.344 23.301,-11.807l0,9.514l28.726,0l0,-92.572l-29.431,0l0,55.204c0,7.407 -4.59,13.228 -12.71,13.228c-7.061,0 -12.18,-4.586 -12.18,-13.228l0,-55.204Z" style="fill:#262626;fill-rule:nonzero;"/><path d="M558.575,1108.76c0,-14.646 8.294,-22.939 19.941,-22.939c12,0 19.941,9.352 19.941,22.939c0,13.763 -8.118,22.586 -19.941,22.586c-12.706,0 -19.941,-10.234 -19.941,-22.586Zm-1.057,38.798c2.645,2.996 11.469,9.516 25.057,9.516c26.632,0 45.313,-20.089 45.313,-48.491c0,-28.754 -16.918,-48.667 -43.725,-48.667c-14.118,0 -22.764,7.049 -24.705,9.34l0,-41.968l-29.433,0l0,127.493l27.493,0l0,-7.223Z" style="fill:#262626;fill-rule:nonzero;"/><path d="M669.688,1062.21l-29.432,0l0,92.572l29.432,0l0,-92.572Zm-14.98,-5.666c9.34,0 16.567,-6.697 16.567,-15.862c0,-9.341 -7.227,-16.038 -16.567,-16.038c-9.341,0 -16.392,6.697 -16.392,16.038c0,9.165 7.051,15.862 16.392,15.862Z" style="fill:#262626;fill-rule:nonzero;"/><path d="M740.963,1154.78l29.432,0l0,-51.323c0,-18.87 -2.82,-43.542 -31.727,-43.542c-11.65,0 -19.771,6.345 -23.3,11.807l0,-9.514l-28.727,0l0,92.572l29.432,0l0,-55.203c0,-7.408 4.59,-13.228 12.71,-13.228c7.061,0 12.18,4.585 12.18,13.228l0,55.203Z" style="fill:#262626;fill-rule:nonzero;"/><path d="M850.312,1150.03c0,11.296 -10.941,13.773 -21.882,13.773c-12.529,0 -22.933,-4.424 -25.577,-5.662l-8.635,22.578c8.283,4.23 21.153,7.93 34.212,7.93c27.522,0 51.314,-10.749 51.314,-44.963l0,-81.472l-27.493,0l0,7.225c-2.645,-2.997 -11.468,-9.518 -25.056,-9.518c-26.633,0 -45.314,20.09 -45.314,48.491c0,28.754 16.919,48.667 43.726,48.667c14.117,0 22.764,-7.049 24.705,-9.34l0,2.291Zm0.881,-41.795c0,14.646 -8.292,22.94 -19.939,22.94c-12,0 -19.941,-9.352 -19.941,-22.94c0,-13.763 7.941,-22.409 19.764,-22.409c12.706,0 20.116,10.058 20.116,22.409Z" style="fill:#262626;fill-rule:nonzero;"/></g></g><path d="M330.74,308.067c-0.67,-0.154 -1.347,-0.295 -2.024,-0.422c-1.059,-0.202 -2.125,-0.362 -3.197,-0.483c-3.224,-0.362 -6.494,-0.369 -9.718,0c-3.077,0.349 -6.119,1.025 -9.055,2.017c-4.202,1.421 -8.19,3.472 -11.789,6.066c-0.684,0.496 -1.354,1.005 -2.011,1.535c-0.509,0.415 -1.005,0.838 -1.495,1.266c-0.442,0.396 -0.878,0.798 -1.3,1.2c-0.704,0.677 -1.38,1.367 -2.031,2.085c-1.528,1.675 -2.915,3.465 -4.168,5.348c-0.583,0.885 -1.133,1.789 -1.649,2.714c-1.173,2.105 -2.172,4.303 -2.989,6.575c-0.335,0.939 -0.637,1.884 -0.905,2.842c-0.174,0.597 -0.329,1.193 -0.469,1.796c-15.295,63.994 -30.268,128.067 -44.919,192.215c-0.141,0.603 -0.268,1.213 -0.375,1.823c-0.181,0.978 -0.329,1.957 -0.443,2.949c-0.402,3.445 -0.395,6.936 0.041,10.381c0.194,1.535 0.462,3.063 0.817,4.565c0.168,0.697 0.349,1.387 0.543,2.071c0.53,1.829 1.173,3.626 1.93,5.368c1.488,3.425 3.405,6.656 5.691,9.598c2.982,3.847 6.601,7.198 10.676,9.859c2.339,1.521 4.819,2.815 7.4,3.86c1.293,0.523 2.614,0.986 3.947,1.381c0.791,0.235 1.582,0.449 2.38,0.643c191.638,45.797 436.337,102.974 628.424,146.847c0.516,0.121 1.039,0.228 1.562,0.328c1.193,0.228 2.399,0.409 3.612,0.537c3.278,0.348 6.589,0.328 9.859,-0.074c3.425,-0.416 6.803,-1.247 10.034,-2.46c3.116,-1.166 6.099,-2.687 8.873,-4.517c1.81,-1.193 3.539,-2.52 5.155,-3.968c0.831,-0.744 1.635,-1.515 2.412,-2.319c0.637,-0.663 1.254,-1.347 1.85,-2.044c1.233,-1.454 2.366,-2.989 3.398,-4.598c1.609,-2.5 2.963,-5.167 4.022,-7.942c0.502,-1.314 0.945,-2.647 1.32,-4.001c0.141,-0.516 0.275,-1.032 0.395,-1.548c15.295,-63.994 30.268,-128.074 44.919,-192.215c0.121,-0.523 0.228,-1.045 0.328,-1.568c0.208,-1.099 0.382,-2.212 0.503,-3.324c0.114,-1.006 0.194,-2.024 0.241,-3.037c0.094,-2.238 0.02,-4.483 -0.234,-6.708c-0.215,-1.897 -0.557,-3.781 -1.019,-5.637c-0.221,-0.885 -0.469,-1.769 -0.744,-2.641c-0.261,-0.811 -0.536,-1.608 -0.838,-2.406c-0.415,-1.079 -0.871,-2.145 -1.367,-3.183c-2.004,-4.25 -4.698,-8.171 -7.929,-11.575c-2.312,-2.44 -4.906,-4.618 -7.721,-6.461c-2.439,-1.609 -5.047,-2.963 -7.761,-4.042c-1.347,-0.529 -2.714,-0.998 -4.102,-1.401c-0.69,-0.194 -1.387,-0.375 -2.084,-0.542c-191.645,-45.127 -436.271,-101.949 -627.996,-146.753l0,0Z" style="fill:#f8ff09;"/><path d="M944.668,395.612c1.34,0.315 2.667,0.657 3.988,1.025c2.506,0.711 4.986,1.515 7.432,2.413c6.314,2.326 12.379,5.302 18.076,8.867c6.086,3.807 11.743,8.284 16.85,13.324c5.261,5.195 9.939,10.979 13.914,17.212c4.189,6.568 7.6,13.625 10.134,20.991c2.433,7.064 4.054,14.397 4.825,21.829c0.704,6.79 0.691,13.646 -0.033,20.436c-0.275,2.587 -0.65,5.167 -1.133,7.727c-0.255,1.354 -0.536,2.695 -0.838,4.028c-14.879,64.128 -29.858,128.235 -44.938,192.315c-0.322,1.334 -0.664,2.661 -1.033,3.981c-0.703,2.507 -1.508,4.987 -2.412,7.433c-2.326,6.314 -5.295,12.379 -8.867,18.076c-3.801,6.086 -8.284,11.743 -13.318,16.85c-5.194,5.261 -10.985,9.939 -17.218,13.914c-6.568,4.189 -13.626,7.6 -20.992,10.133c-7.057,2.433 -14.396,4.062 -21.829,4.826c-6.789,0.704 -13.646,0.69 -20.428,-0.033c-2.594,-0.275 -5.174,-0.651 -7.735,-1.133c-1.347,-0.255 -2.694,-0.536 -4.028,-0.838c-191.966,-44.543 -383.865,-89.381 -575.691,-134.528c-1.334,-0.321 -2.661,-0.663 -3.981,-1.032c-2.507,-0.704 -4.987,-1.508 -7.433,-2.413c-6.407,-2.359 -12.56,-5.382 -18.331,-9.021c-6.32,-3.981 -12.178,-8.693 -17.432,-14.001c-5.476,-5.536 -10.295,-11.722 -14.323,-18.384c-3.827,-6.334 -6.943,-13.09 -9.269,-20.107c-2.252,-6.81 -3.76,-13.867 -4.477,-21.005c-0.67,-6.689 -0.65,-13.451 0.067,-20.134c0.275,-2.593 0.65,-5.174 1.132,-7.734c0.255,-1.347 0.537,-2.688 0.838,-4.028c14.879,-64.127 29.859,-128.228 44.939,-192.308c0.322,-1.334 0.663,-2.661 1.032,-3.988c0.704,-2.507 1.508,-4.987 2.413,-7.433c2.359,-6.401 5.389,-12.56 9.021,-18.331c3.988,-6.32 8.693,-12.178 14.001,-17.432c5.536,-5.476 11.722,-10.288 18.391,-14.323c6.327,-3.827 13.083,-6.943 20.1,-9.262c6.817,-2.259 13.867,-3.76 21.005,-4.478c6.696,-0.677 13.452,-0.65 20.134,0.061c2.594,0.275 5.174,0.657 7.734,1.132c1.347,0.255 2.695,0.537 4.028,0.845c191.967,44.536 383.866,89.381 575.685,134.528l0,0Zm-613.928,-87.545c-0.67,-0.154 -1.347,-0.295 -2.024,-0.422c-1.059,-0.202 -2.125,-0.362 -3.197,-0.483c-3.224,-0.362 -6.494,-0.369 -9.718,0c-3.077,0.349 -6.119,1.025 -9.055,2.017c-4.202,1.421 -8.19,3.472 -11.789,6.066c-0.684,0.496 -1.354,1.005 -2.011,1.535c-0.509,0.415 -1.005,0.838 -1.495,1.266c-0.442,0.396 -0.878,0.798 -1.3,1.2c-0.704,0.677 -1.38,1.367 -2.031,2.085c-1.528,1.675 -2.915,3.465 -4.168,5.348c-0.583,0.885 -1.133,1.789 -1.649,2.714c-1.173,2.105 -2.172,4.303 -2.989,6.575c-0.335,0.939 -0.637,1.884 -0.905,2.842c-0.174,0.597 -0.329,1.193 -0.469,1.796c-15.295,63.994 -30.268,128.067 -44.919,192.215c-0.141,0.603 -0.268,1.213 -0.375,1.823c-0.181,0.978 -0.329,1.957 -0.443,2.949c-0.402,3.445 -0.395,6.936 0.041,10.381c0.194,1.535 0.462,3.063 0.817,4.565c0.168,0.697 0.349,1.387 0.543,2.071c0.53,1.829 1.173,3.626 1.93,5.368c1.488,3.425 3.405,6.656 5.691,9.598c2.982,3.847 6.601,7.198 10.676,9.859c2.339,1.521 4.819,2.815 7.4,3.86c1.293,0.523 2.614,0.986 3.947,1.381c0.791,0.235 1.582,0.449 2.38,0.643c191.638,45.797 436.337,102.974 628.424,146.847c0.516,0.121 1.039,0.228 1.562,0.328c1.193,0.228 2.399,0.409 3.612,0.537c3.278,0.348 6.589,0.328 9.859,-0.074c3.425,-0.416 6.803,-1.247 10.034,-2.46c3.116,-1.166 6.099,-2.687 8.873,-4.517c1.81,-1.193 3.539,-2.52 5.155,-3.968c0.831,-0.744 1.635,-1.515 2.412,-2.319c0.637,-0.663 1.254,-1.347 1.85,-2.044c1.233,-1.454 2.366,-2.989 3.398,-4.598c1.609,-2.5 2.963,-5.167 4.022,-7.942c0.502,-1.314 0.945,-2.647 1.32,-4.001c0.141,-0.516 0.275,-1.032 0.395,-1.548c15.295,-63.994 30.268,-128.074 44.919,-192.215c0.121,-0.523 0.228,-1.045 0.328,-1.568c0.208,-1.099 0.382,-2.212 0.503,-3.324c0.114,-1.006 0.194,-2.024 0.241,-3.037c0.094,-2.238 0.02,-4.483 -0.234,-6.708c-0.215,-1.897 -0.557,-3.781 -1.019,-5.637c-0.221,-0.885 -0.469,-1.769 -0.744,-2.641c-0.261,-0.811 -0.536,-1.608 -0.838,-2.406c-0.415,-1.079 -0.871,-2.145 -1.367,-3.183c-2.004,-4.25 -4.698,-8.171 -7.929,-11.575c-2.312,-2.44 -4.906,-4.618 -7.721,-6.461c-2.439,-1.609 -5.047,-2.963 -7.761,-4.042c-1.347,-0.529 -2.714,-0.998 -4.102,-1.401c-0.69,-0.194 -1.387,-0.375 -2.084,-0.542c-191.645,-45.127 -436.271,-101.949 -627.996,-146.753l0,0Z" style="fill:#262626;"/><g><path d="M392.502,597.475l13.711,-3.024l-3.011,-58.528l-13.55,2.988l1.911,36.278l-22.558,-31.725l-14.034,3.094l3.011,58.529l13.55,-2.988l-1.822,-35.875l22.792,31.251Z" style="fill:#262626;fill-rule:nonzero;"/><path d="M441.289,587.816c20.009,-4.412 31.641,-22.952 27.549,-41.508c-3.095,-14.036 -14.889,-22.676 -30.697,-19.19c-19.928,4.395 -31.56,22.935 -27.486,41.411c3.131,14.197 14.826,22.773 30.634,19.287Zm-2.402,-47.34c7.907,-1.744 14.029,2.998 15.754,10.823c2.366,10.731 -3.932,20.918 -14.017,23.142c-7.907,1.744 -14.091,-2.899 -15.853,-10.886c-2.33,-10.569 3.87,-20.82 14.116,-23.079Z" style="fill:#262626;fill-rule:nonzero;"/><path d="M506.539,512.036c-12.587,2.775 -19.094,12.746 -16.782,23.229c3.327,15.087 23.139,11.733 24.58,18.268c0.587,2.663 -1.203,4.919 -4.758,5.702c-3.868,0.854 -7.106,-1.563 -8.802,-4.657l-11.234,8.483c1.668,4.112 8.372,12.268 21.026,9.478c13.877,-3.06 19.954,-13.443 17.571,-24.249c-3.202,-14.523 -23.158,-11.053 -24.635,-17.749c-0.533,-2.42 1.239,-4.757 4.148,-5.399c4.273,-0.942 6.641,1.751 7.918,4.092l10.775,-7.875c-1.668,-4.112 -7.718,-11.989 -19.807,-9.323Z" style="fill:#262626;fill-rule:nonzero;"/><path d="M572.637,514.198c-2.009,-9.111 -8.85,-13.687 -18.845,-11.483l-20.325,4.482l3.011,58.529l13.792,-3.041l-1.05,-20.49l6.613,-1.458c12.418,-2.739 19.598,-13.871 16.804,-26.539Zm-20.023,1.199c3.226,-0.711 5.463,0.996 6.139,4.063c0.962,4.359 -0.935,8.417 -5.613,9.448l-4.516,0.996l-0.688,-13.475l4.678,-1.032Z" style="fill:#262626;fill-rule:nonzero;"/><path d="M617.285,503.42c-1.991,-9.028 -8.735,-12.78 -20.343,-10.22l-18.389,4.055l3.011,58.529l13.792,-3.042l-1.138,-21.654l4.194,-0.925l11.22,19.431l15.235,-3.359c-14.318,-22.385 -14.282,-22.224 -14.282,-22.224c6.023,-4.88 8.389,-12.929 6.7,-20.591Zm-20.795,2.302c4.274,-0.943 6.279,0.476 6.919,3.379c1.014,4.598 -1.33,8.159 -5.685,9.12l-4.114,0.907l-0.588,-12.641l3.468,-0.765Z" style="fill:#262626;fill-rule:nonzero;"/><path d="M661.084,538.248l-0.622,-12.792l-16.937,3.735l-0.532,-10.466l13.873,-3.059l-0.685,-12.694l-13.872,3.059l-0.471,-9.802l16.293,-3.593l-0.703,-12.774l-30.084,6.634l3.011,58.529l30.729,-6.777Z" style="fill:#262626;fill-rule:nonzero;"/><path d="M699.91,516.408l4.728,12.236l13.872,-3.059l-22.529,-54.225l-14.518,3.202l-16.507,62.833l13.872,-3.059l3.338,-14.015l17.744,-3.913Zm-4.101,-10.926l-10.647,2.348l4.359,-19.737l6.288,17.389Z" style="fill:#262626;fill-rule:nonzero;"/><path d="M720.989,465.846l3.011,58.529l16.615,-3.664c20.647,-4.553 32.15,-20.612 27.702,-40.782c-3.219,-14.599 -14.667,-21.286 -30.714,-17.747l-16.614,3.664Zm17.228,8.707c8.066,-1.778 14.045,1.556 15.931,10.108c2.793,12.667 -3.339,21.295 -14.147,23.678l-2.823,0.623l-1.784,-33.786l2.823,-0.623Z" style="fill:#262626;fill-rule:nonzero;"/><path d="M808.279,505.79l-0.622,-12.793l-16.938,3.735l-0.532,-10.465l13.873,-3.059l-0.685,-12.694l-13.872,3.059l-0.47,-9.802l16.292,-3.593l-0.703,-12.775l-30.084,6.634l3.011,58.529l30.73,-6.776Z" style="fill:#262626;fill-rule:nonzero;"/><path d="M852.392,451.575c-1.991,-9.028 -8.734,-12.78 -20.342,-10.22l-18.389,4.055l3.011,58.529l13.792,-3.041l-1.139,-21.655l4.194,-0.924l11.22,19.431l15.235,-3.36c-14.317,-22.385 -14.282,-22.223 -14.282,-22.223c6.023,-4.881 8.39,-12.93 6.7,-20.592Zm-20.795,2.302c4.275,-0.943 6.279,0.476 6.919,3.38c1.014,4.597 -1.33,8.158 -5.685,9.119l-4.113,0.907l-0.589,-12.641l3.468,-0.765Z" style="fill:#262626;fill-rule:nonzero;"/><path d="M872.953,492.627c4.837,-1.066 8.587,-6.288 7.521,-11.125c-0.871,-3.949 -4.448,-6.372 -8.398,-5.501c-4.917,1.084 -8.506,6.271 -7.422,11.188c0.853,3.869 4.269,6.327 8.299,5.438Zm4.092,-61.194l-14.272,3.147l3.136,40.666l12.171,-2.684l-1.035,-41.129Z" style="fill:#262626;fill-rule:nonzero;"/></g></g></svg>